G04 #@! TF.GenerationSoftware,KiCad,Pcbnew,(5.1.9)-1*
G04 #@! TF.CreationDate,2022-03-02T13:45:54-06:00*
G04 #@! TF.ProjectId,Encoder,456e636f-6465-4722-9e6b-696361645f70,rev?*
G04 #@! TF.SameCoordinates,Original*
G04 #@! TF.FileFunction,Copper,L1,Top*
G04 #@! TF.FilePolarity,Positive*
%FSLAX46Y46*%
G04 Gerber Fmt 4.6, Leading zero omitted, Abs format (unit mm)*
G04 Created by KiCad (PCBNEW (5.1.9)-1) date 2022-03-02 13:45:54*
%MOMM*%
%LPD*%
G01*
G04 APERTURE LIST*
G04 #@! TA.AperFunction,ComponentPad*
%ADD10O,1.350000X1.350000*%
G04 #@! TD*
G04 #@! TA.AperFunction,ComponentPad*
%ADD11R,1.350000X1.350000*%
G04 #@! TD*
G04 #@! TA.AperFunction,ViaPad*
%ADD12C,0.609600*%
G04 #@! TD*
G04 #@! TA.AperFunction,Conductor*
%ADD13C,0.127000*%
G04 #@! TD*
G04 APERTURE END LIST*
D10*
X149000000Y-104000000D03*
X147000000Y-104000000D03*
X149000000Y-102000000D03*
X147000000Y-102000000D03*
X149000000Y-100000000D03*
D11*
X147000000Y-100000000D03*
G04 #@! TA.AperFunction,SMDPad,CuDef*
G36*
G01*
X146150000Y-82375000D02*
X145950000Y-82375000D01*
G75*
G02*
X145850000Y-82275000I0J100000D01*
G01*
X145850000Y-81000000D01*
G75*
G02*
X145950000Y-80900000I100000J0D01*
G01*
X146150000Y-80900000D01*
G75*
G02*
X146250000Y-81000000I0J-100000D01*
G01*
X146250000Y-82275000D01*
G75*
G02*
X146150000Y-82375000I-100000J0D01*
G01*
G37*
G04 #@! TD.AperFunction*
G04 #@! TA.AperFunction,SMDPad,CuDef*
G36*
G01*
X146800000Y-82375000D02*
X146600000Y-82375000D01*
G75*
G02*
X146500000Y-82275000I0J100000D01*
G01*
X146500000Y-81000000D01*
G75*
G02*
X146600000Y-80900000I100000J0D01*
G01*
X146800000Y-80900000D01*
G75*
G02*
X146900000Y-81000000I0J-100000D01*
G01*
X146900000Y-82275000D01*
G75*
G02*
X146800000Y-82375000I-100000J0D01*
G01*
G37*
G04 #@! TD.AperFunction*
G04 #@! TA.AperFunction,SMDPad,CuDef*
G36*
G01*
X147450000Y-82375000D02*
X147250000Y-82375000D01*
G75*
G02*
X147150000Y-82275000I0J100000D01*
G01*
X147150000Y-81000000D01*
G75*
G02*
X147250000Y-80900000I100000J0D01*
G01*
X147450000Y-80900000D01*
G75*
G02*
X147550000Y-81000000I0J-100000D01*
G01*
X147550000Y-82275000D01*
G75*
G02*
X147450000Y-82375000I-100000J0D01*
G01*
G37*
G04 #@! TD.AperFunction*
G04 #@! TA.AperFunction,SMDPad,CuDef*
G36*
G01*
X148100000Y-82375000D02*
X147900000Y-82375000D01*
G75*
G02*
X147800000Y-82275000I0J100000D01*
G01*
X147800000Y-81000000D01*
G75*
G02*
X147900000Y-80900000I100000J0D01*
G01*
X148100000Y-80900000D01*
G75*
G02*
X148200000Y-81000000I0J-100000D01*
G01*
X148200000Y-82275000D01*
G75*
G02*
X148100000Y-82375000I-100000J0D01*
G01*
G37*
G04 #@! TD.AperFunction*
G04 #@! TA.AperFunction,SMDPad,CuDef*
G36*
G01*
X148750000Y-82375000D02*
X148550000Y-82375000D01*
G75*
G02*
X148450000Y-82275000I0J100000D01*
G01*
X148450000Y-81000000D01*
G75*
G02*
X148550000Y-80900000I100000J0D01*
G01*
X148750000Y-80900000D01*
G75*
G02*
X148850000Y-81000000I0J-100000D01*
G01*
X148850000Y-82275000D01*
G75*
G02*
X148750000Y-82375000I-100000J0D01*
G01*
G37*
G04 #@! TD.AperFunction*
G04 #@! TA.AperFunction,SMDPad,CuDef*
G36*
G01*
X149400000Y-82375000D02*
X149200000Y-82375000D01*
G75*
G02*
X149100000Y-82275000I0J100000D01*
G01*
X149100000Y-81000000D01*
G75*
G02*
X149200000Y-80900000I100000J0D01*
G01*
X149400000Y-80900000D01*
G75*
G02*
X149500000Y-81000000I0J-100000D01*
G01*
X149500000Y-82275000D01*
G75*
G02*
X149400000Y-82375000I-100000J0D01*
G01*
G37*
G04 #@! TD.AperFunction*
G04 #@! TA.AperFunction,SMDPad,CuDef*
G36*
G01*
X150050000Y-82375000D02*
X149850000Y-82375000D01*
G75*
G02*
X149750000Y-82275000I0J100000D01*
G01*
X149750000Y-81000000D01*
G75*
G02*
X149850000Y-80900000I100000J0D01*
G01*
X150050000Y-80900000D01*
G75*
G02*
X150150000Y-81000000I0J-100000D01*
G01*
X150150000Y-82275000D01*
G75*
G02*
X150050000Y-82375000I-100000J0D01*
G01*
G37*
G04 #@! TD.AperFunction*
G04 #@! TA.AperFunction,SMDPad,CuDef*
G36*
G01*
X150050000Y-88100000D02*
X149850000Y-88100000D01*
G75*
G02*
X149750000Y-88000000I0J100000D01*
G01*
X149750000Y-86725000D01*
G75*
G02*
X149850000Y-86625000I100000J0D01*
G01*
X150050000Y-86625000D01*
G75*
G02*
X150150000Y-86725000I0J-100000D01*
G01*
X150150000Y-88000000D01*
G75*
G02*
X150050000Y-88100000I-100000J0D01*
G01*
G37*
G04 #@! TD.AperFunction*
G04 #@! TA.AperFunction,SMDPad,CuDef*
G36*
G01*
X149400000Y-88100000D02*
X149200000Y-88100000D01*
G75*
G02*
X149100000Y-88000000I0J100000D01*
G01*
X149100000Y-86725000D01*
G75*
G02*
X149200000Y-86625000I100000J0D01*
G01*
X149400000Y-86625000D01*
G75*
G02*
X149500000Y-86725000I0J-100000D01*
G01*
X149500000Y-88000000D01*
G75*
G02*
X149400000Y-88100000I-100000J0D01*
G01*
G37*
G04 #@! TD.AperFunction*
G04 #@! TA.AperFunction,SMDPad,CuDef*
G36*
G01*
X148750000Y-88100000D02*
X148550000Y-88100000D01*
G75*
G02*
X148450000Y-88000000I0J100000D01*
G01*
X148450000Y-86725000D01*
G75*
G02*
X148550000Y-86625000I100000J0D01*
G01*
X148750000Y-86625000D01*
G75*
G02*
X148850000Y-86725000I0J-100000D01*
G01*
X148850000Y-88000000D01*
G75*
G02*
X148750000Y-88100000I-100000J0D01*
G01*
G37*
G04 #@! TD.AperFunction*
G04 #@! TA.AperFunction,SMDPad,CuDef*
G36*
G01*
X148100000Y-88100000D02*
X147900000Y-88100000D01*
G75*
G02*
X147800000Y-88000000I0J100000D01*
G01*
X147800000Y-86725000D01*
G75*
G02*
X147900000Y-86625000I100000J0D01*
G01*
X148100000Y-86625000D01*
G75*
G02*
X148200000Y-86725000I0J-100000D01*
G01*
X148200000Y-88000000D01*
G75*
G02*
X148100000Y-88100000I-100000J0D01*
G01*
G37*
G04 #@! TD.AperFunction*
G04 #@! TA.AperFunction,SMDPad,CuDef*
G36*
G01*
X147450000Y-88100000D02*
X147250000Y-88100000D01*
G75*
G02*
X147150000Y-88000000I0J100000D01*
G01*
X147150000Y-86725000D01*
G75*
G02*
X147250000Y-86625000I100000J0D01*
G01*
X147450000Y-86625000D01*
G75*
G02*
X147550000Y-86725000I0J-100000D01*
G01*
X147550000Y-88000000D01*
G75*
G02*
X147450000Y-88100000I-100000J0D01*
G01*
G37*
G04 #@! TD.AperFunction*
G04 #@! TA.AperFunction,SMDPad,CuDef*
G36*
G01*
X146800000Y-88100000D02*
X146600000Y-88100000D01*
G75*
G02*
X146500000Y-88000000I0J100000D01*
G01*
X146500000Y-86725000D01*
G75*
G02*
X146600000Y-86625000I100000J0D01*
G01*
X146800000Y-86625000D01*
G75*
G02*
X146900000Y-86725000I0J-100000D01*
G01*
X146900000Y-88000000D01*
G75*
G02*
X146800000Y-88100000I-100000J0D01*
G01*
G37*
G04 #@! TD.AperFunction*
G04 #@! TA.AperFunction,SMDPad,CuDef*
G36*
G01*
X146150000Y-88100000D02*
X145950000Y-88100000D01*
G75*
G02*
X145850000Y-88000000I0J100000D01*
G01*
X145850000Y-86725000D01*
G75*
G02*
X145950000Y-86625000I100000J0D01*
G01*
X146150000Y-86625000D01*
G75*
G02*
X146250000Y-86725000I0J-100000D01*
G01*
X146250000Y-88000000D01*
G75*
G02*
X146150000Y-88100000I-100000J0D01*
G01*
G37*
G04 #@! TD.AperFunction*
G04 #@! TA.AperFunction,SMDPad,CuDef*
G36*
G01*
X148450000Y-90475000D02*
X148450000Y-89525000D01*
G75*
G02*
X148700000Y-89275000I250000J0D01*
G01*
X149375000Y-89275000D01*
G75*
G02*
X149625000Y-89525000I0J-250000D01*
G01*
X149625000Y-90475000D01*
G75*
G02*
X149375000Y-90725000I-250000J0D01*
G01*
X148700000Y-90725000D01*
G75*
G02*
X148450000Y-90475000I0J250000D01*
G01*
G37*
G04 #@! TD.AperFunction*
G04 #@! TA.AperFunction,SMDPad,CuDef*
G36*
G01*
X146375000Y-90475000D02*
X146375000Y-89525000D01*
G75*
G02*
X146625000Y-89275000I250000J0D01*
G01*
X147300000Y-89275000D01*
G75*
G02*
X147550000Y-89525000I0J-250000D01*
G01*
X147550000Y-90475000D01*
G75*
G02*
X147300000Y-90725000I-250000J0D01*
G01*
X146625000Y-90725000D01*
G75*
G02*
X146375000Y-90475000I0J250000D01*
G01*
G37*
G04 #@! TD.AperFunction*
D12*
X146685000Y-82931000D03*
X149479000Y-91186000D03*
X147955000Y-82931000D03*
X146558000Y-91186000D03*
X145542000Y-88392000D03*
X146558000Y-88646000D03*
X149974144Y-88912856D03*
X150495000Y-88392000D03*
D13*
X146700000Y-82916000D02*
X146685000Y-82931000D01*
X146700000Y-81637500D02*
X146700000Y-82916000D01*
X149037500Y-90744500D02*
X149479000Y-91186000D01*
X149037500Y-90000000D02*
X149037500Y-90744500D01*
X148000000Y-82886000D02*
X147955000Y-82931000D01*
X148000000Y-81637500D02*
X148000000Y-82886000D01*
X146962500Y-90781500D02*
X146558000Y-91186000D01*
X146962500Y-90000000D02*
X146962500Y-90781500D01*
X147350000Y-81637500D02*
X148000000Y-81637500D01*
X146050000Y-87884000D02*
X145542000Y-88392000D01*
X146050000Y-87362500D02*
X146050000Y-87884000D01*
X146700000Y-87362500D02*
X146700000Y-88377000D01*
X146700000Y-88504000D02*
X146558000Y-88646000D01*
X146700000Y-88377000D02*
X146700000Y-88504000D01*
X148162856Y-88912856D02*
X149974144Y-88912856D01*
X147350000Y-88100000D02*
X148162856Y-88912856D01*
X147350000Y-87362500D02*
X147350000Y-88100000D01*
X148000000Y-88100000D02*
X148292000Y-88392000D01*
X148000000Y-87362500D02*
X148000000Y-88100000D01*
X148292000Y-88392000D02*
X150495000Y-88392000D01*
M02*
