G04 #@! TF.GenerationSoftware,KiCad,Pcbnew,(5.1.9)-1*
G04 #@! TF.CreationDate,2021-05-18T22:48:31-05:00*
G04 #@! TF.ProjectId,Encoder,456e636f-6465-4722-9e6b-696361645f70,rev?*
G04 #@! TF.SameCoordinates,Original*
G04 #@! TF.FileFunction,Legend,Top*
G04 #@! TF.FilePolarity,Positive*
%FSLAX46Y46*%
G04 Gerber Fmt 4.6, Leading zero omitted, Abs format (unit mm)*
G04 Created by KiCad (PCBNEW (5.1.9)-1) date 2021-05-18 22:48:31*
%MOMM*%
%LPD*%
G01*
G04 APERTURE LIST*
%ADD10C,0.120000*%
%ADD11C,0.150000*%
%ADD12C,0.152400*%
%ADD13O,1.350000X1.350000*%
%ADD14R,1.350000X1.350000*%
G04 APERTURE END LIST*
D10*
X150950000Y-94500000D02*
G75*
G03*
X150950000Y-94500000I-2950000J0D01*
G01*
X145940000Y-98940000D02*
X147000000Y-98940000D01*
X145940000Y-100000000D02*
X145940000Y-98940000D01*
X148000000Y-98940000D02*
X150060000Y-98940000D01*
X148000000Y-101000000D02*
X148000000Y-98940000D01*
X145940000Y-101000000D02*
X148000000Y-101000000D01*
X150060000Y-98940000D02*
X150060000Y-105060000D01*
X145940000Y-101000000D02*
X145940000Y-105060000D01*
X145940000Y-105060000D02*
X150060000Y-105060000D01*
X145390000Y-84500000D02*
X145390000Y-88100000D01*
X145390000Y-84500000D02*
X145390000Y-82300000D01*
X150610000Y-84500000D02*
X150610000Y-86700000D01*
X150610000Y-84500000D02*
X150610000Y-82300000D01*
X147738748Y-90735000D02*
X148261252Y-90735000D01*
X147738748Y-89265000D02*
X148261252Y-89265000D01*
D11*
X145970666Y-97496380D02*
X145970666Y-98210666D01*
X145923047Y-98353523D01*
X145827809Y-98448761D01*
X145684952Y-98496380D01*
X145589714Y-98496380D01*
X146970666Y-98496380D02*
X146399238Y-98496380D01*
X146684952Y-98496380D02*
X146684952Y-97496380D01*
X146589714Y-97639238D01*
X146494476Y-97734476D01*
X146399238Y-97782095D01*
X146952380Y-85261904D02*
X147761904Y-85261904D01*
X147857142Y-85214285D01*
X147904761Y-85166666D01*
X147952380Y-85071428D01*
X147952380Y-84880952D01*
X147904761Y-84785714D01*
X147857142Y-84738095D01*
X147761904Y-84690476D01*
X146952380Y-84690476D01*
X147952380Y-83690476D02*
X147952380Y-84261904D01*
X147952380Y-83976190D02*
X146952380Y-83976190D01*
X147095238Y-84071428D01*
X147190476Y-84166666D01*
X147238095Y-84261904D01*
D12*
X148835533Y-86142285D02*
X148796828Y-86180990D01*
X148680714Y-86219695D01*
X148603304Y-86219695D01*
X148487190Y-86180990D01*
X148409780Y-86103580D01*
X148371076Y-86026171D01*
X148332371Y-85871352D01*
X148332371Y-85755238D01*
X148371076Y-85600419D01*
X148409780Y-85523009D01*
X148487190Y-85445600D01*
X148603304Y-85406895D01*
X148680714Y-85406895D01*
X148796828Y-85445600D01*
X148835533Y-85484304D01*
X149609628Y-86219695D02*
X149145171Y-86219695D01*
X149377400Y-86219695D02*
X149377400Y-85406895D01*
X149299990Y-85523009D01*
X149222580Y-85600419D01*
X149145171Y-85639123D01*
%LPC*%
D13*
X149000000Y-104000000D03*
X147000000Y-104000000D03*
X149000000Y-102000000D03*
X147000000Y-102000000D03*
X149000000Y-100000000D03*
D14*
X147000000Y-100000000D03*
G36*
G01*
X146150000Y-82375000D02*
X145950000Y-82375000D01*
G75*
G02*
X145850000Y-82275000I0J100000D01*
G01*
X145850000Y-81000000D01*
G75*
G02*
X145950000Y-80900000I100000J0D01*
G01*
X146150000Y-80900000D01*
G75*
G02*
X146250000Y-81000000I0J-100000D01*
G01*
X146250000Y-82275000D01*
G75*
G02*
X146150000Y-82375000I-100000J0D01*
G01*
G37*
G36*
G01*
X146800000Y-82375000D02*
X146600000Y-82375000D01*
G75*
G02*
X146500000Y-82275000I0J100000D01*
G01*
X146500000Y-81000000D01*
G75*
G02*
X146600000Y-80900000I100000J0D01*
G01*
X146800000Y-80900000D01*
G75*
G02*
X146900000Y-81000000I0J-100000D01*
G01*
X146900000Y-82275000D01*
G75*
G02*
X146800000Y-82375000I-100000J0D01*
G01*
G37*
G36*
G01*
X147450000Y-82375000D02*
X147250000Y-82375000D01*
G75*
G02*
X147150000Y-82275000I0J100000D01*
G01*
X147150000Y-81000000D01*
G75*
G02*
X147250000Y-80900000I100000J0D01*
G01*
X147450000Y-80900000D01*
G75*
G02*
X147550000Y-81000000I0J-100000D01*
G01*
X147550000Y-82275000D01*
G75*
G02*
X147450000Y-82375000I-100000J0D01*
G01*
G37*
G36*
G01*
X148100000Y-82375000D02*
X147900000Y-82375000D01*
G75*
G02*
X147800000Y-82275000I0J100000D01*
G01*
X147800000Y-81000000D01*
G75*
G02*
X147900000Y-80900000I100000J0D01*
G01*
X148100000Y-80900000D01*
G75*
G02*
X148200000Y-81000000I0J-100000D01*
G01*
X148200000Y-82275000D01*
G75*
G02*
X148100000Y-82375000I-100000J0D01*
G01*
G37*
G36*
G01*
X148750000Y-82375000D02*
X148550000Y-82375000D01*
G75*
G02*
X148450000Y-82275000I0J100000D01*
G01*
X148450000Y-81000000D01*
G75*
G02*
X148550000Y-80900000I100000J0D01*
G01*
X148750000Y-80900000D01*
G75*
G02*
X148850000Y-81000000I0J-100000D01*
G01*
X148850000Y-82275000D01*
G75*
G02*
X148750000Y-82375000I-100000J0D01*
G01*
G37*
G36*
G01*
X149400000Y-82375000D02*
X149200000Y-82375000D01*
G75*
G02*
X149100000Y-82275000I0J100000D01*
G01*
X149100000Y-81000000D01*
G75*
G02*
X149200000Y-80900000I100000J0D01*
G01*
X149400000Y-80900000D01*
G75*
G02*
X149500000Y-81000000I0J-100000D01*
G01*
X149500000Y-82275000D01*
G75*
G02*
X149400000Y-82375000I-100000J0D01*
G01*
G37*
G36*
G01*
X150050000Y-82375000D02*
X149850000Y-82375000D01*
G75*
G02*
X149750000Y-82275000I0J100000D01*
G01*
X149750000Y-81000000D01*
G75*
G02*
X149850000Y-80900000I100000J0D01*
G01*
X150050000Y-80900000D01*
G75*
G02*
X150150000Y-81000000I0J-100000D01*
G01*
X150150000Y-82275000D01*
G75*
G02*
X150050000Y-82375000I-100000J0D01*
G01*
G37*
G36*
G01*
X150050000Y-88100000D02*
X149850000Y-88100000D01*
G75*
G02*
X149750000Y-88000000I0J100000D01*
G01*
X149750000Y-86725000D01*
G75*
G02*
X149850000Y-86625000I100000J0D01*
G01*
X150050000Y-86625000D01*
G75*
G02*
X150150000Y-86725000I0J-100000D01*
G01*
X150150000Y-88000000D01*
G75*
G02*
X150050000Y-88100000I-100000J0D01*
G01*
G37*
G36*
G01*
X149400000Y-88100000D02*
X149200000Y-88100000D01*
G75*
G02*
X149100000Y-88000000I0J100000D01*
G01*
X149100000Y-86725000D01*
G75*
G02*
X149200000Y-86625000I100000J0D01*
G01*
X149400000Y-86625000D01*
G75*
G02*
X149500000Y-86725000I0J-100000D01*
G01*
X149500000Y-88000000D01*
G75*
G02*
X149400000Y-88100000I-100000J0D01*
G01*
G37*
G36*
G01*
X148750000Y-88100000D02*
X148550000Y-88100000D01*
G75*
G02*
X148450000Y-88000000I0J100000D01*
G01*
X148450000Y-86725000D01*
G75*
G02*
X148550000Y-86625000I100000J0D01*
G01*
X148750000Y-86625000D01*
G75*
G02*
X148850000Y-86725000I0J-100000D01*
G01*
X148850000Y-88000000D01*
G75*
G02*
X148750000Y-88100000I-100000J0D01*
G01*
G37*
G36*
G01*
X148100000Y-88100000D02*
X147900000Y-88100000D01*
G75*
G02*
X147800000Y-88000000I0J100000D01*
G01*
X147800000Y-86725000D01*
G75*
G02*
X147900000Y-86625000I100000J0D01*
G01*
X148100000Y-86625000D01*
G75*
G02*
X148200000Y-86725000I0J-100000D01*
G01*
X148200000Y-88000000D01*
G75*
G02*
X148100000Y-88100000I-100000J0D01*
G01*
G37*
G36*
G01*
X147450000Y-88100000D02*
X147250000Y-88100000D01*
G75*
G02*
X147150000Y-88000000I0J100000D01*
G01*
X147150000Y-86725000D01*
G75*
G02*
X147250000Y-86625000I100000J0D01*
G01*
X147450000Y-86625000D01*
G75*
G02*
X147550000Y-86725000I0J-100000D01*
G01*
X147550000Y-88000000D01*
G75*
G02*
X147450000Y-88100000I-100000J0D01*
G01*
G37*
G36*
G01*
X146800000Y-88100000D02*
X146600000Y-88100000D01*
G75*
G02*
X146500000Y-88000000I0J100000D01*
G01*
X146500000Y-86725000D01*
G75*
G02*
X146600000Y-86625000I100000J0D01*
G01*
X146800000Y-86625000D01*
G75*
G02*
X146900000Y-86725000I0J-100000D01*
G01*
X146900000Y-88000000D01*
G75*
G02*
X146800000Y-88100000I-100000J0D01*
G01*
G37*
G36*
G01*
X146150000Y-88100000D02*
X145950000Y-88100000D01*
G75*
G02*
X145850000Y-88000000I0J100000D01*
G01*
X145850000Y-86725000D01*
G75*
G02*
X145950000Y-86625000I100000J0D01*
G01*
X146150000Y-86625000D01*
G75*
G02*
X146250000Y-86725000I0J-100000D01*
G01*
X146250000Y-88000000D01*
G75*
G02*
X146150000Y-88100000I-100000J0D01*
G01*
G37*
G36*
G01*
X148450000Y-90475000D02*
X148450000Y-89525000D01*
G75*
G02*
X148700000Y-89275000I250000J0D01*
G01*
X149375000Y-89275000D01*
G75*
G02*
X149625000Y-89525000I0J-250000D01*
G01*
X149625000Y-90475000D01*
G75*
G02*
X149375000Y-90725000I-250000J0D01*
G01*
X148700000Y-90725000D01*
G75*
G02*
X148450000Y-90475000I0J250000D01*
G01*
G37*
G36*
G01*
X146375000Y-90475000D02*
X146375000Y-89525000D01*
G75*
G02*
X146625000Y-89275000I250000J0D01*
G01*
X147300000Y-89275000D01*
G75*
G02*
X147550000Y-89525000I0J-250000D01*
G01*
X147550000Y-90475000D01*
G75*
G02*
X147300000Y-90725000I-250000J0D01*
G01*
X146625000Y-90725000D01*
G75*
G02*
X146375000Y-90475000I0J250000D01*
G01*
G37*
M02*
