G04 #@! TF.GenerationSoftware,KiCad,Pcbnew,(5.1.9)-1*
G04 #@! TF.CreationDate,2021-10-19T23:47:19-05:00*
G04 #@! TF.ProjectId,Encoder,456e636f-6465-4722-9e6b-696361645f70,rev?*
G04 #@! TF.SameCoordinates,Original*
G04 #@! TF.FileFunction,Copper,L2,Bot*
G04 #@! TF.FilePolarity,Positive*
%FSLAX46Y46*%
G04 Gerber Fmt 4.6, Leading zero omitted, Abs format (unit mm)*
G04 Created by KiCad (PCBNEW (5.1.9)-1) date 2021-10-19 23:47:19*
%MOMM*%
%LPD*%
G01*
G04 APERTURE LIST*
G04 #@! TA.AperFunction,ComponentPad*
%ADD10O,1.350000X1.350000*%
G04 #@! TD*
G04 #@! TA.AperFunction,ComponentPad*
%ADD11R,1.350000X1.350000*%
G04 #@! TD*
G04 #@! TA.AperFunction,ViaPad*
%ADD12C,0.609600*%
G04 #@! TD*
G04 #@! TA.AperFunction,Conductor*
%ADD13C,0.127000*%
G04 #@! TD*
G04 APERTURE END LIST*
D10*
X149000000Y-104000000D03*
X147000000Y-104000000D03*
X149000000Y-102000000D03*
X147000000Y-102000000D03*
X149000000Y-100000000D03*
D11*
X147000000Y-100000000D03*
D12*
X146685000Y-82931000D03*
X149479000Y-91186000D03*
X147955000Y-82931000D03*
X146558000Y-91186000D03*
X145542000Y-88392000D03*
X146558000Y-88646000D03*
X149974144Y-88912856D03*
X150495000Y-88392000D03*
D13*
X149479000Y-91186000D02*
X150114000Y-91821000D01*
X149000000Y-99045406D02*
X149000000Y-100000000D01*
X150114000Y-97931406D02*
X149000000Y-99045406D01*
X150114000Y-91821000D02*
X150114000Y-97931406D01*
X147180301Y-82435699D02*
X146685000Y-82931000D01*
X148192745Y-82435699D02*
X147180301Y-82435699D01*
X149174201Y-83417155D02*
X148192745Y-82435699D01*
X149174201Y-90881201D02*
X149174201Y-83417155D01*
X149479000Y-91186000D02*
X149174201Y-90881201D01*
X147955000Y-89789000D02*
X147955000Y-82931000D01*
X146558000Y-91186000D02*
X147955000Y-89789000D01*
X146558000Y-91186000D02*
X145923000Y-91821000D01*
X145923000Y-98923000D02*
X147000000Y-100000000D01*
X145923000Y-91821000D02*
X145923000Y-98923000D01*
X145414989Y-102414989D02*
X146325001Y-103325001D01*
X146325001Y-103325001D02*
X147000000Y-104000000D01*
X145414989Y-88519011D02*
X145414989Y-88773011D01*
X145542000Y-88392000D02*
X145414989Y-88519011D01*
X145414989Y-88773011D02*
X145414989Y-102414989D01*
X145669000Y-100669000D02*
X147000000Y-102000000D01*
X145669000Y-89408000D02*
X145669000Y-100669000D01*
X145796000Y-89408000D02*
X145669000Y-89408000D01*
X146558000Y-88646000D02*
X145796000Y-89408000D01*
X150114000Y-100886000D02*
X149000000Y-102000000D01*
X150114000Y-98886000D02*
X150114000Y-100886000D01*
X150368000Y-98632000D02*
X150114000Y-98886000D01*
X150368000Y-89027000D02*
X150368000Y-98632000D01*
X150114000Y-88773000D02*
X150368000Y-89027000D01*
X150622000Y-102362000D02*
X149000000Y-103984000D01*
X150622000Y-88519000D02*
X150622000Y-102362000D01*
X150495000Y-88392000D02*
X150622000Y-88519000D01*
M02*
