%FSLAX45Y45*%
G04 Gerber Fmt 4.5, Leading zero omitted, Abs format (unit mm)*
G04 Created by KiCad (PCBNEW (5.1.9)-1) date 2021-05-18 22:48:56*
%MOMM*%
%LPD*%
G01*
G04 APERTURE LIST*
%TA.AperFunction,Profile*%
%ADD10C,0.025400*%
%TD*%
%ADD11C,0.200000*%
%ADD12C,0.300000*%
G04 APERTURE END LIST*
D10*
X14500000Y-10550000D02*
X14500000Y-8050000D01*
X15100000Y-10550000D02*
X14500000Y-10550000D01*
X15100000Y-8050000D02*
X15100000Y-10550000D01*
X14965000Y-9450000D02*
G75*
G03*
X14965000Y-9450000I-165000J0D01*
G01*
X14500000Y-8050000D02*
X15100000Y-8050000D01*
D11*
D12*
X14785158Y-11016984D02*
X14785158Y-10716984D01*
X14856587Y-10716984D01*
X14899444Y-10731270D01*
X14928016Y-10759842D01*
X14942301Y-10788413D01*
X14956587Y-10845556D01*
X14956587Y-10888413D01*
X14942301Y-10945556D01*
X14928016Y-10974127D01*
X14899444Y-11002699D01*
X14856587Y-11016984D01*
X14785158Y-11016984D01*
X15085158Y-11016984D02*
X15085158Y-10816984D01*
X15085158Y-10874127D02*
X15099444Y-10845556D01*
X15113730Y-10831270D01*
X15142301Y-10816984D01*
X15170873Y-10816984D01*
X15270873Y-11016984D02*
X15270873Y-10816984D01*
X15270873Y-10716984D02*
X15256587Y-10731270D01*
X15270873Y-10745556D01*
X15285158Y-10731270D01*
X15270873Y-10716984D01*
X15270873Y-10745556D01*
X15456587Y-11016984D02*
X15428016Y-11002699D01*
X15413730Y-10974127D01*
X15413730Y-10716984D01*
X15613730Y-11016984D02*
X15585158Y-11002699D01*
X15570873Y-10974127D01*
X15570873Y-10716984D01*
X15956587Y-11016984D02*
X15956587Y-10716984D01*
X16056587Y-10931270D01*
X16156587Y-10716984D01*
X16156587Y-11016984D01*
X16428016Y-11016984D02*
X16428016Y-10859842D01*
X16413730Y-10831270D01*
X16385158Y-10816984D01*
X16328016Y-10816984D01*
X16299444Y-10831270D01*
X16428016Y-11002699D02*
X16399444Y-11016984D01*
X16328016Y-11016984D01*
X16299444Y-11002699D01*
X16285158Y-10974127D01*
X16285158Y-10945556D01*
X16299444Y-10916984D01*
X16328016Y-10902699D01*
X16399444Y-10902699D01*
X16428016Y-10888413D01*
X16570873Y-10816984D02*
X16570873Y-11116984D01*
X16570873Y-10831270D02*
X16599444Y-10816984D01*
X16656587Y-10816984D01*
X16685158Y-10831270D01*
X16699444Y-10845556D01*
X16713730Y-10874127D01*
X16713730Y-10959842D01*
X16699444Y-10988413D01*
X16685158Y-11002699D01*
X16656587Y-11016984D01*
X16599444Y-11016984D01*
X16570873Y-11002699D01*
X16842301Y-10988413D02*
X16856587Y-11002699D01*
X16842301Y-11016984D01*
X16828016Y-11002699D01*
X16842301Y-10988413D01*
X16842301Y-11016984D01*
X16842301Y-10831270D02*
X16856587Y-10845556D01*
X16842301Y-10859842D01*
X16828016Y-10845556D01*
X16842301Y-10831270D01*
X16842301Y-10859842D01*
M02*
