G04 #@! TF.GenerationSoftware,KiCad,Pcbnew,(5.1.9)-1*
G04 #@! TF.CreationDate,2021-05-18T22:48:31-05:00*
G04 #@! TF.ProjectId,Encoder,456e636f-6465-4722-9e6b-696361645f70,rev?*
G04 #@! TF.SameCoordinates,Original*
G04 #@! TF.FileFunction,Copper,L1,Top*
G04 #@! TF.FilePolarity,Positive*
%FSLAX46Y46*%
G04 Gerber Fmt 4.6, Leading zero omitted, Abs format (unit mm)*
G04 Created by KiCad (PCBNEW (5.1.9)-1) date 2021-05-18 22:48:31*
%MOMM*%
%LPD*%
G01*
G04 APERTURE LIST*
G04 #@! TA.AperFunction,ComponentPad*
%ADD10O,1.350000X1.350000*%
G04 #@! TD*
G04 #@! TA.AperFunction,ComponentPad*
%ADD11R,1.350000X1.350000*%
G04 #@! TD*
G04 #@! TA.AperFunction,ViaPad*
%ADD12C,0.609600*%
G04 #@! TD*
G04 #@! TA.AperFunction,Conductor*
%ADD13C,0.127000*%
G04 #@! TD*
G04 #@! TA.AperFunction,Conductor*
%ADD14C,0.100000*%
G04 #@! TD*
G04 APERTURE END LIST*
D10*
X149000000Y-104000000D03*
X147000000Y-104000000D03*
X149000000Y-102000000D03*
X147000000Y-102000000D03*
X149000000Y-100000000D03*
D11*
X147000000Y-100000000D03*
G04 #@! TA.AperFunction,SMDPad,CuDef*
G36*
G01*
X146150000Y-82375000D02*
X145950000Y-82375000D01*
G75*
G02*
X145850000Y-82275000I0J100000D01*
G01*
X145850000Y-81000000D01*
G75*
G02*
X145950000Y-80900000I100000J0D01*
G01*
X146150000Y-80900000D01*
G75*
G02*
X146250000Y-81000000I0J-100000D01*
G01*
X146250000Y-82275000D01*
G75*
G02*
X146150000Y-82375000I-100000J0D01*
G01*
G37*
G04 #@! TD.AperFunction*
G04 #@! TA.AperFunction,SMDPad,CuDef*
G36*
G01*
X146800000Y-82375000D02*
X146600000Y-82375000D01*
G75*
G02*
X146500000Y-82275000I0J100000D01*
G01*
X146500000Y-81000000D01*
G75*
G02*
X146600000Y-80900000I100000J0D01*
G01*
X146800000Y-80900000D01*
G75*
G02*
X146900000Y-81000000I0J-100000D01*
G01*
X146900000Y-82275000D01*
G75*
G02*
X146800000Y-82375000I-100000J0D01*
G01*
G37*
G04 #@! TD.AperFunction*
G04 #@! TA.AperFunction,SMDPad,CuDef*
G36*
G01*
X147450000Y-82375000D02*
X147250000Y-82375000D01*
G75*
G02*
X147150000Y-82275000I0J100000D01*
G01*
X147150000Y-81000000D01*
G75*
G02*
X147250000Y-80900000I100000J0D01*
G01*
X147450000Y-80900000D01*
G75*
G02*
X147550000Y-81000000I0J-100000D01*
G01*
X147550000Y-82275000D01*
G75*
G02*
X147450000Y-82375000I-100000J0D01*
G01*
G37*
G04 #@! TD.AperFunction*
G04 #@! TA.AperFunction,SMDPad,CuDef*
G36*
G01*
X148100000Y-82375000D02*
X147900000Y-82375000D01*
G75*
G02*
X147800000Y-82275000I0J100000D01*
G01*
X147800000Y-81000000D01*
G75*
G02*
X147900000Y-80900000I100000J0D01*
G01*
X148100000Y-80900000D01*
G75*
G02*
X148200000Y-81000000I0J-100000D01*
G01*
X148200000Y-82275000D01*
G75*
G02*
X148100000Y-82375000I-100000J0D01*
G01*
G37*
G04 #@! TD.AperFunction*
G04 #@! TA.AperFunction,SMDPad,CuDef*
G36*
G01*
X148750000Y-82375000D02*
X148550000Y-82375000D01*
G75*
G02*
X148450000Y-82275000I0J100000D01*
G01*
X148450000Y-81000000D01*
G75*
G02*
X148550000Y-80900000I100000J0D01*
G01*
X148750000Y-80900000D01*
G75*
G02*
X148850000Y-81000000I0J-100000D01*
G01*
X148850000Y-82275000D01*
G75*
G02*
X148750000Y-82375000I-100000J0D01*
G01*
G37*
G04 #@! TD.AperFunction*
G04 #@! TA.AperFunction,SMDPad,CuDef*
G36*
G01*
X149400000Y-82375000D02*
X149200000Y-82375000D01*
G75*
G02*
X149100000Y-82275000I0J100000D01*
G01*
X149100000Y-81000000D01*
G75*
G02*
X149200000Y-80900000I100000J0D01*
G01*
X149400000Y-80900000D01*
G75*
G02*
X149500000Y-81000000I0J-100000D01*
G01*
X149500000Y-82275000D01*
G75*
G02*
X149400000Y-82375000I-100000J0D01*
G01*
G37*
G04 #@! TD.AperFunction*
G04 #@! TA.AperFunction,SMDPad,CuDef*
G36*
G01*
X150050000Y-82375000D02*
X149850000Y-82375000D01*
G75*
G02*
X149750000Y-82275000I0J100000D01*
G01*
X149750000Y-81000000D01*
G75*
G02*
X149850000Y-80900000I100000J0D01*
G01*
X150050000Y-80900000D01*
G75*
G02*
X150150000Y-81000000I0J-100000D01*
G01*
X150150000Y-82275000D01*
G75*
G02*
X150050000Y-82375000I-100000J0D01*
G01*
G37*
G04 #@! TD.AperFunction*
G04 #@! TA.AperFunction,SMDPad,CuDef*
G36*
G01*
X150050000Y-88100000D02*
X149850000Y-88100000D01*
G75*
G02*
X149750000Y-88000000I0J100000D01*
G01*
X149750000Y-86725000D01*
G75*
G02*
X149850000Y-86625000I100000J0D01*
G01*
X150050000Y-86625000D01*
G75*
G02*
X150150000Y-86725000I0J-100000D01*
G01*
X150150000Y-88000000D01*
G75*
G02*
X150050000Y-88100000I-100000J0D01*
G01*
G37*
G04 #@! TD.AperFunction*
G04 #@! TA.AperFunction,SMDPad,CuDef*
G36*
G01*
X149400000Y-88100000D02*
X149200000Y-88100000D01*
G75*
G02*
X149100000Y-88000000I0J100000D01*
G01*
X149100000Y-86725000D01*
G75*
G02*
X149200000Y-86625000I100000J0D01*
G01*
X149400000Y-86625000D01*
G75*
G02*
X149500000Y-86725000I0J-100000D01*
G01*
X149500000Y-88000000D01*
G75*
G02*
X149400000Y-88100000I-100000J0D01*
G01*
G37*
G04 #@! TD.AperFunction*
G04 #@! TA.AperFunction,SMDPad,CuDef*
G36*
G01*
X148750000Y-88100000D02*
X148550000Y-88100000D01*
G75*
G02*
X148450000Y-88000000I0J100000D01*
G01*
X148450000Y-86725000D01*
G75*
G02*
X148550000Y-86625000I100000J0D01*
G01*
X148750000Y-86625000D01*
G75*
G02*
X148850000Y-86725000I0J-100000D01*
G01*
X148850000Y-88000000D01*
G75*
G02*
X148750000Y-88100000I-100000J0D01*
G01*
G37*
G04 #@! TD.AperFunction*
G04 #@! TA.AperFunction,SMDPad,CuDef*
G36*
G01*
X148100000Y-88100000D02*
X147900000Y-88100000D01*
G75*
G02*
X147800000Y-88000000I0J100000D01*
G01*
X147800000Y-86725000D01*
G75*
G02*
X147900000Y-86625000I100000J0D01*
G01*
X148100000Y-86625000D01*
G75*
G02*
X148200000Y-86725000I0J-100000D01*
G01*
X148200000Y-88000000D01*
G75*
G02*
X148100000Y-88100000I-100000J0D01*
G01*
G37*
G04 #@! TD.AperFunction*
G04 #@! TA.AperFunction,SMDPad,CuDef*
G36*
G01*
X147450000Y-88100000D02*
X147250000Y-88100000D01*
G75*
G02*
X147150000Y-88000000I0J100000D01*
G01*
X147150000Y-86725000D01*
G75*
G02*
X147250000Y-86625000I100000J0D01*
G01*
X147450000Y-86625000D01*
G75*
G02*
X147550000Y-86725000I0J-100000D01*
G01*
X147550000Y-88000000D01*
G75*
G02*
X147450000Y-88100000I-100000J0D01*
G01*
G37*
G04 #@! TD.AperFunction*
G04 #@! TA.AperFunction,SMDPad,CuDef*
G36*
G01*
X146800000Y-88100000D02*
X146600000Y-88100000D01*
G75*
G02*
X146500000Y-88000000I0J100000D01*
G01*
X146500000Y-86725000D01*
G75*
G02*
X146600000Y-86625000I100000J0D01*
G01*
X146800000Y-86625000D01*
G75*
G02*
X146900000Y-86725000I0J-100000D01*
G01*
X146900000Y-88000000D01*
G75*
G02*
X146800000Y-88100000I-100000J0D01*
G01*
G37*
G04 #@! TD.AperFunction*
G04 #@! TA.AperFunction,SMDPad,CuDef*
G36*
G01*
X146150000Y-88100000D02*
X145950000Y-88100000D01*
G75*
G02*
X145850000Y-88000000I0J100000D01*
G01*
X145850000Y-86725000D01*
G75*
G02*
X145950000Y-86625000I100000J0D01*
G01*
X146150000Y-86625000D01*
G75*
G02*
X146250000Y-86725000I0J-100000D01*
G01*
X146250000Y-88000000D01*
G75*
G02*
X146150000Y-88100000I-100000J0D01*
G01*
G37*
G04 #@! TD.AperFunction*
G04 #@! TA.AperFunction,SMDPad,CuDef*
G36*
G01*
X148450000Y-90475000D02*
X148450000Y-89525000D01*
G75*
G02*
X148700000Y-89275000I250000J0D01*
G01*
X149375000Y-89275000D01*
G75*
G02*
X149625000Y-89525000I0J-250000D01*
G01*
X149625000Y-90475000D01*
G75*
G02*
X149375000Y-90725000I-250000J0D01*
G01*
X148700000Y-90725000D01*
G75*
G02*
X148450000Y-90475000I0J250000D01*
G01*
G37*
G04 #@! TD.AperFunction*
G04 #@! TA.AperFunction,SMDPad,CuDef*
G36*
G01*
X146375000Y-90475000D02*
X146375000Y-89525000D01*
G75*
G02*
X146625000Y-89275000I250000J0D01*
G01*
X147300000Y-89275000D01*
G75*
G02*
X147550000Y-89525000I0J-250000D01*
G01*
X147550000Y-90475000D01*
G75*
G02*
X147300000Y-90725000I-250000J0D01*
G01*
X146625000Y-90725000D01*
G75*
G02*
X146375000Y-90475000I0J250000D01*
G01*
G37*
G04 #@! TD.AperFunction*
D12*
X146685000Y-82931000D03*
X149479000Y-91186000D03*
X147955000Y-82931000D03*
X146558000Y-91186000D03*
D13*
X146700000Y-82916000D02*
X146685000Y-82931000D01*
X146700000Y-81637500D02*
X146700000Y-82916000D01*
X149037500Y-90744500D02*
X149479000Y-91186000D01*
X149037500Y-90000000D02*
X149037500Y-90744500D01*
X148000000Y-82886000D02*
X147955000Y-82931000D01*
X148000000Y-81637500D02*
X148000000Y-82886000D01*
X146962500Y-90781500D02*
X146558000Y-91186000D01*
X146962500Y-90000000D02*
X146962500Y-90781500D01*
X146050000Y-87362500D02*
X146050000Y-88265000D01*
X146050000Y-88265000D02*
X145542000Y-88773000D01*
X145542000Y-102542000D02*
X147000000Y-104000000D01*
X145542000Y-88773000D02*
X145542000Y-102542000D01*
X145923000Y-100923000D02*
X147000000Y-102000000D01*
X145923000Y-89154000D02*
X145923000Y-100923000D01*
X146700000Y-88377000D02*
X145923000Y-89154000D01*
X146700000Y-87362500D02*
X146700000Y-88377000D01*
X150114000Y-88773000D02*
X150114000Y-98886000D01*
X148023000Y-88773000D02*
X150114000Y-88773000D01*
X147350000Y-88100000D02*
X148023000Y-88773000D01*
X147350000Y-87362500D02*
X147350000Y-88100000D01*
X150114000Y-100886000D02*
X149000000Y-102000000D01*
X150114000Y-98886000D02*
X150114000Y-100886000D01*
X150495000Y-102489000D02*
X149000000Y-103984000D01*
X150495000Y-88392000D02*
X150495000Y-102489000D01*
X148292000Y-88392000D02*
X150495000Y-88392000D01*
X148000000Y-88100000D02*
X148292000Y-88392000D01*
X148000000Y-87362500D02*
X148000000Y-88100000D01*
X149733001Y-98867278D02*
X149733000Y-98867288D01*
X149733000Y-99329393D01*
X149632682Y-99229075D01*
X149470125Y-99120458D01*
X149289501Y-99045641D01*
X149097753Y-99007500D01*
X148902247Y-99007500D01*
X148710499Y-99045641D01*
X148529875Y-99120458D01*
X148367318Y-99229075D01*
X148249084Y-99347309D01*
X148249265Y-99325000D01*
X148238231Y-99212966D01*
X148205552Y-99105238D01*
X148152484Y-99005955D01*
X148081067Y-98918933D01*
X147994045Y-98847516D01*
X147894762Y-98794448D01*
X147787034Y-98761769D01*
X147675000Y-98750735D01*
X147333375Y-98753500D01*
X147190500Y-98896375D01*
X147190500Y-99809500D01*
X147210500Y-99809500D01*
X147210500Y-100190500D01*
X147190500Y-100190500D01*
X147190500Y-100210500D01*
X146809500Y-100210500D01*
X146809500Y-100190500D01*
X146789500Y-100190500D01*
X146789500Y-99809500D01*
X146809500Y-99809500D01*
X146809500Y-98896375D01*
X146666625Y-98753500D01*
X146325000Y-98750735D01*
X146304000Y-98752803D01*
X146304000Y-95544686D01*
X146453824Y-95768913D01*
X146731087Y-96046176D01*
X147057112Y-96264019D01*
X147419373Y-96414072D01*
X147803946Y-96490568D01*
X148196054Y-96490568D01*
X148580627Y-96414072D01*
X148942888Y-96264019D01*
X149268913Y-96046176D01*
X149546176Y-95768913D01*
X149733001Y-95489310D01*
X149733001Y-98867278D01*
G04 #@! TA.AperFunction,Conductor*
D14*
G36*
X149733001Y-98867278D02*
G01*
X149733000Y-98867288D01*
X149733000Y-99329393D01*
X149632682Y-99229075D01*
X149470125Y-99120458D01*
X149289501Y-99045641D01*
X149097753Y-99007500D01*
X148902247Y-99007500D01*
X148710499Y-99045641D01*
X148529875Y-99120458D01*
X148367318Y-99229075D01*
X148249084Y-99347309D01*
X148249265Y-99325000D01*
X148238231Y-99212966D01*
X148205552Y-99105238D01*
X148152484Y-99005955D01*
X148081067Y-98918933D01*
X147994045Y-98847516D01*
X147894762Y-98794448D01*
X147787034Y-98761769D01*
X147675000Y-98750735D01*
X147333375Y-98753500D01*
X147190500Y-98896375D01*
X147190500Y-99809500D01*
X147210500Y-99809500D01*
X147210500Y-100190500D01*
X147190500Y-100190500D01*
X147190500Y-100210500D01*
X146809500Y-100210500D01*
X146809500Y-100190500D01*
X146789500Y-100190500D01*
X146789500Y-99809500D01*
X146809500Y-99809500D01*
X146809500Y-98896375D01*
X146666625Y-98753500D01*
X146325000Y-98750735D01*
X146304000Y-98752803D01*
X146304000Y-95544686D01*
X146453824Y-95768913D01*
X146731087Y-96046176D01*
X147057112Y-96264019D01*
X147419373Y-96414072D01*
X147803946Y-96490568D01*
X148196054Y-96490568D01*
X148580627Y-96414072D01*
X148942888Y-96264019D01*
X149268913Y-96046176D01*
X149546176Y-95768913D01*
X149733001Y-95489310D01*
X149733001Y-98867278D01*
G37*
G04 #@! TD.AperFunction*
D13*
X147089642Y-88387139D02*
X147102106Y-88390920D01*
X147413407Y-88702221D01*
X147295875Y-88703500D01*
X147153000Y-88846375D01*
X147153000Y-89809500D01*
X147978625Y-89809500D01*
X148121500Y-89666625D01*
X148124265Y-89275000D01*
X148113231Y-89162966D01*
X148110511Y-89154000D01*
X148271887Y-89154000D01*
X148226864Y-89208861D01*
X148174279Y-89307239D01*
X148141898Y-89413987D01*
X148130964Y-89525000D01*
X148130964Y-90475000D01*
X148141898Y-90586013D01*
X148174279Y-90692761D01*
X148226864Y-90791139D01*
X148297631Y-90877369D01*
X148383861Y-90948136D01*
X148482239Y-91000721D01*
X148588987Y-91033102D01*
X148700000Y-91044036D01*
X148798222Y-91044036D01*
X148860382Y-91106197D01*
X148856700Y-91124709D01*
X148856700Y-91247291D01*
X148880615Y-91367518D01*
X148927525Y-91480770D01*
X148995628Y-91582693D01*
X149082307Y-91669372D01*
X149184230Y-91737475D01*
X149297482Y-91784385D01*
X149417709Y-91808300D01*
X149540291Y-91808300D01*
X149660518Y-91784385D01*
X149733000Y-91754362D01*
X149733000Y-93510689D01*
X149546176Y-93231087D01*
X149268913Y-92953824D01*
X148942888Y-92735981D01*
X148580627Y-92585928D01*
X148196054Y-92509432D01*
X147803946Y-92509432D01*
X147419373Y-92585928D01*
X147057112Y-92735981D01*
X146731087Y-92953824D01*
X146453824Y-93231087D01*
X146304000Y-93455314D01*
X146304000Y-91292272D01*
X146375000Y-91299265D01*
X146629125Y-91296500D01*
X146772000Y-91153625D01*
X146772000Y-90190500D01*
X147153000Y-90190500D01*
X147153000Y-91153625D01*
X147295875Y-91296500D01*
X147550000Y-91299265D01*
X147662034Y-91288231D01*
X147769762Y-91255552D01*
X147869045Y-91202484D01*
X147956067Y-91131067D01*
X148027484Y-91044045D01*
X148080552Y-90944762D01*
X148113231Y-90837034D01*
X148124265Y-90725000D01*
X148121500Y-90333375D01*
X147978625Y-90190500D01*
X147153000Y-90190500D01*
X146772000Y-90190500D01*
X146752000Y-90190500D01*
X146752000Y-89809500D01*
X146772000Y-89809500D01*
X146772000Y-88846375D01*
X146770720Y-88845095D01*
X146956174Y-88659641D01*
X146970711Y-88647711D01*
X147006012Y-88604696D01*
X147018322Y-88589697D01*
X147053701Y-88523508D01*
X147055728Y-88516825D01*
X147075487Y-88451689D01*
X147081000Y-88395713D01*
X147081000Y-88395710D01*
X147082234Y-88383180D01*
X147089642Y-88387139D01*
G04 #@! TA.AperFunction,Conductor*
D14*
G36*
X147089642Y-88387139D02*
G01*
X147102106Y-88390920D01*
X147413407Y-88702221D01*
X147295875Y-88703500D01*
X147153000Y-88846375D01*
X147153000Y-89809500D01*
X147978625Y-89809500D01*
X148121500Y-89666625D01*
X148124265Y-89275000D01*
X148113231Y-89162966D01*
X148110511Y-89154000D01*
X148271887Y-89154000D01*
X148226864Y-89208861D01*
X148174279Y-89307239D01*
X148141898Y-89413987D01*
X148130964Y-89525000D01*
X148130964Y-90475000D01*
X148141898Y-90586013D01*
X148174279Y-90692761D01*
X148226864Y-90791139D01*
X148297631Y-90877369D01*
X148383861Y-90948136D01*
X148482239Y-91000721D01*
X148588987Y-91033102D01*
X148700000Y-91044036D01*
X148798222Y-91044036D01*
X148860382Y-91106197D01*
X148856700Y-91124709D01*
X148856700Y-91247291D01*
X148880615Y-91367518D01*
X148927525Y-91480770D01*
X148995628Y-91582693D01*
X149082307Y-91669372D01*
X149184230Y-91737475D01*
X149297482Y-91784385D01*
X149417709Y-91808300D01*
X149540291Y-91808300D01*
X149660518Y-91784385D01*
X149733000Y-91754362D01*
X149733000Y-93510689D01*
X149546176Y-93231087D01*
X149268913Y-92953824D01*
X148942888Y-92735981D01*
X148580627Y-92585928D01*
X148196054Y-92509432D01*
X147803946Y-92509432D01*
X147419373Y-92585928D01*
X147057112Y-92735981D01*
X146731087Y-92953824D01*
X146453824Y-93231087D01*
X146304000Y-93455314D01*
X146304000Y-91292272D01*
X146375000Y-91299265D01*
X146629125Y-91296500D01*
X146772000Y-91153625D01*
X146772000Y-90190500D01*
X147153000Y-90190500D01*
X147153000Y-91153625D01*
X147295875Y-91296500D01*
X147550000Y-91299265D01*
X147662034Y-91288231D01*
X147769762Y-91255552D01*
X147869045Y-91202484D01*
X147956067Y-91131067D01*
X148027484Y-91044045D01*
X148080552Y-90944762D01*
X148113231Y-90837034D01*
X148124265Y-90725000D01*
X148121500Y-90333375D01*
X147978625Y-90190500D01*
X147153000Y-90190500D01*
X146772000Y-90190500D01*
X146752000Y-90190500D01*
X146752000Y-89809500D01*
X146772000Y-89809500D01*
X146772000Y-88846375D01*
X146770720Y-88845095D01*
X146956174Y-88659641D01*
X146970711Y-88647711D01*
X147006012Y-88604696D01*
X147018322Y-88589697D01*
X147053701Y-88523508D01*
X147055728Y-88516825D01*
X147075487Y-88451689D01*
X147081000Y-88395713D01*
X147081000Y-88395710D01*
X147082234Y-88383180D01*
X147089642Y-88387139D01*
G37*
G04 #@! TD.AperFunction*
D13*
X145562861Y-80839642D02*
X145539016Y-80918250D01*
X145530964Y-81000000D01*
X145530964Y-82275000D01*
X145539016Y-82356750D01*
X145562861Y-82435358D01*
X145601584Y-82507804D01*
X145653697Y-82571303D01*
X145717196Y-82623416D01*
X145789642Y-82662139D01*
X145868250Y-82685984D01*
X145950000Y-82694036D01*
X146109581Y-82694036D01*
X146086615Y-82749482D01*
X146062700Y-82869709D01*
X146062700Y-82992291D01*
X146086615Y-83112518D01*
X146133525Y-83225770D01*
X146201628Y-83327693D01*
X146288307Y-83414372D01*
X146390230Y-83482475D01*
X146503482Y-83529385D01*
X146623709Y-83553300D01*
X146746291Y-83553300D01*
X146866518Y-83529385D01*
X146979770Y-83482475D01*
X147081693Y-83414372D01*
X147168372Y-83327693D01*
X147236475Y-83225770D01*
X147283385Y-83112518D01*
X147307300Y-82992291D01*
X147307300Y-82869709D01*
X147283385Y-82749482D01*
X147236475Y-82636230D01*
X147213500Y-82601846D01*
X147213500Y-82352743D01*
X147226166Y-82352743D01*
X147232850Y-82465120D01*
X147261330Y-82574034D01*
X147310510Y-82675299D01*
X147378501Y-82765024D01*
X147462690Y-82839760D01*
X147559841Y-82896636D01*
X147589927Y-82907052D01*
X147629375Y-82946500D01*
X147675000Y-82935568D01*
X147720625Y-82946500D01*
X147760073Y-82907052D01*
X147790159Y-82896636D01*
X147887310Y-82839760D01*
X147971499Y-82765024D01*
X148039490Y-82675299D01*
X148088670Y-82574034D01*
X148117150Y-82465120D01*
X148123834Y-82352743D01*
X148121500Y-81970875D01*
X147978625Y-81828000D01*
X147371375Y-81828000D01*
X147228500Y-81970875D01*
X147226166Y-82352743D01*
X147213500Y-82352743D01*
X147213500Y-82331206D01*
X147219036Y-82275000D01*
X147219036Y-81427000D01*
X147351375Y-81427000D01*
X147371375Y-81447000D01*
X147978625Y-81447000D01*
X147998625Y-81427000D01*
X148130964Y-81427000D01*
X148130964Y-82275000D01*
X148136500Y-82331206D01*
X148136500Y-82803625D01*
X148279375Y-82946500D01*
X148333778Y-82933465D01*
X148440159Y-82896636D01*
X148537310Y-82839760D01*
X148621499Y-82765024D01*
X148675292Y-82694036D01*
X148750000Y-82694036D01*
X148831750Y-82685984D01*
X148910358Y-82662139D01*
X148975000Y-82627587D01*
X149039642Y-82662139D01*
X149118250Y-82685984D01*
X149200000Y-82694036D01*
X149400000Y-82694036D01*
X149481750Y-82685984D01*
X149560358Y-82662139D01*
X149625000Y-82627587D01*
X149689642Y-82662139D01*
X149768250Y-82685984D01*
X149850000Y-82694036D01*
X150050000Y-82694036D01*
X150131750Y-82685984D01*
X150210358Y-82662139D01*
X150282804Y-82623416D01*
X150346303Y-82571303D01*
X150398416Y-82507804D01*
X150437139Y-82435358D01*
X150460984Y-82356750D01*
X150469036Y-82275000D01*
X150469036Y-81000000D01*
X150460984Y-80918250D01*
X150437139Y-80839642D01*
X150432092Y-80830200D01*
X150669800Y-80830200D01*
X150669800Y-88053422D01*
X150641508Y-88038299D01*
X150569689Y-88016513D01*
X150513713Y-88011000D01*
X150495000Y-88009157D01*
X150476287Y-88011000D01*
X150467953Y-88011000D01*
X150469036Y-88000000D01*
X150469036Y-86725000D01*
X150460984Y-86643250D01*
X150437139Y-86564642D01*
X150398416Y-86492196D01*
X150346303Y-86428697D01*
X150282804Y-86376584D01*
X150210358Y-86337861D01*
X150131750Y-86314016D01*
X150050000Y-86305964D01*
X149850000Y-86305964D01*
X149768250Y-86314016D01*
X149689642Y-86337861D01*
X149625000Y-86372413D01*
X149560358Y-86337861D01*
X149481750Y-86314016D01*
X149400000Y-86305964D01*
X149200000Y-86305964D01*
X149118250Y-86314016D01*
X149039642Y-86337861D01*
X148975000Y-86372413D01*
X148910358Y-86337861D01*
X148831750Y-86314016D01*
X148750000Y-86305964D01*
X148550000Y-86305964D01*
X148468250Y-86314016D01*
X148389642Y-86337861D01*
X148325000Y-86372413D01*
X148260358Y-86337861D01*
X148181750Y-86314016D01*
X148100000Y-86305964D01*
X147900000Y-86305964D01*
X147818250Y-86314016D01*
X147739642Y-86337861D01*
X147675000Y-86372413D01*
X147610358Y-86337861D01*
X147531750Y-86314016D01*
X147450000Y-86305964D01*
X147250000Y-86305964D01*
X147168250Y-86314016D01*
X147089642Y-86337861D01*
X147025000Y-86372413D01*
X146960358Y-86337861D01*
X146881750Y-86314016D01*
X146800000Y-86305964D01*
X146600000Y-86305964D01*
X146518250Y-86314016D01*
X146439642Y-86337861D01*
X146375000Y-86372413D01*
X146310358Y-86337861D01*
X146231750Y-86314016D01*
X146150000Y-86305964D01*
X145950000Y-86305964D01*
X145868250Y-86314016D01*
X145789642Y-86337861D01*
X145717196Y-86376584D01*
X145653697Y-86428697D01*
X145601584Y-86492196D01*
X145562861Y-86564642D01*
X145539016Y-86643250D01*
X145530964Y-86725000D01*
X145530964Y-88000000D01*
X145539016Y-88081750D01*
X145562861Y-88160358D01*
X145581311Y-88194875D01*
X145330200Y-88445986D01*
X145330200Y-80830200D01*
X145567908Y-80830200D01*
X145562861Y-80839642D01*
G04 #@! TA.AperFunction,Conductor*
D14*
G36*
X145562861Y-80839642D02*
G01*
X145539016Y-80918250D01*
X145530964Y-81000000D01*
X145530964Y-82275000D01*
X145539016Y-82356750D01*
X145562861Y-82435358D01*
X145601584Y-82507804D01*
X145653697Y-82571303D01*
X145717196Y-82623416D01*
X145789642Y-82662139D01*
X145868250Y-82685984D01*
X145950000Y-82694036D01*
X146109581Y-82694036D01*
X146086615Y-82749482D01*
X146062700Y-82869709D01*
X146062700Y-82992291D01*
X146086615Y-83112518D01*
X146133525Y-83225770D01*
X146201628Y-83327693D01*
X146288307Y-83414372D01*
X146390230Y-83482475D01*
X146503482Y-83529385D01*
X146623709Y-83553300D01*
X146746291Y-83553300D01*
X146866518Y-83529385D01*
X146979770Y-83482475D01*
X147081693Y-83414372D01*
X147168372Y-83327693D01*
X147236475Y-83225770D01*
X147283385Y-83112518D01*
X147307300Y-82992291D01*
X147307300Y-82869709D01*
X147283385Y-82749482D01*
X147236475Y-82636230D01*
X147213500Y-82601846D01*
X147213500Y-82352743D01*
X147226166Y-82352743D01*
X147232850Y-82465120D01*
X147261330Y-82574034D01*
X147310510Y-82675299D01*
X147378501Y-82765024D01*
X147462690Y-82839760D01*
X147559841Y-82896636D01*
X147589927Y-82907052D01*
X147629375Y-82946500D01*
X147675000Y-82935568D01*
X147720625Y-82946500D01*
X147760073Y-82907052D01*
X147790159Y-82896636D01*
X147887310Y-82839760D01*
X147971499Y-82765024D01*
X148039490Y-82675299D01*
X148088670Y-82574034D01*
X148117150Y-82465120D01*
X148123834Y-82352743D01*
X148121500Y-81970875D01*
X147978625Y-81828000D01*
X147371375Y-81828000D01*
X147228500Y-81970875D01*
X147226166Y-82352743D01*
X147213500Y-82352743D01*
X147213500Y-82331206D01*
X147219036Y-82275000D01*
X147219036Y-81427000D01*
X147351375Y-81427000D01*
X147371375Y-81447000D01*
X147978625Y-81447000D01*
X147998625Y-81427000D01*
X148130964Y-81427000D01*
X148130964Y-82275000D01*
X148136500Y-82331206D01*
X148136500Y-82803625D01*
X148279375Y-82946500D01*
X148333778Y-82933465D01*
X148440159Y-82896636D01*
X148537310Y-82839760D01*
X148621499Y-82765024D01*
X148675292Y-82694036D01*
X148750000Y-82694036D01*
X148831750Y-82685984D01*
X148910358Y-82662139D01*
X148975000Y-82627587D01*
X149039642Y-82662139D01*
X149118250Y-82685984D01*
X149200000Y-82694036D01*
X149400000Y-82694036D01*
X149481750Y-82685984D01*
X149560358Y-82662139D01*
X149625000Y-82627587D01*
X149689642Y-82662139D01*
X149768250Y-82685984D01*
X149850000Y-82694036D01*
X150050000Y-82694036D01*
X150131750Y-82685984D01*
X150210358Y-82662139D01*
X150282804Y-82623416D01*
X150346303Y-82571303D01*
X150398416Y-82507804D01*
X150437139Y-82435358D01*
X150460984Y-82356750D01*
X150469036Y-82275000D01*
X150469036Y-81000000D01*
X150460984Y-80918250D01*
X150437139Y-80839642D01*
X150432092Y-80830200D01*
X150669800Y-80830200D01*
X150669800Y-88053422D01*
X150641508Y-88038299D01*
X150569689Y-88016513D01*
X150513713Y-88011000D01*
X150495000Y-88009157D01*
X150476287Y-88011000D01*
X150467953Y-88011000D01*
X150469036Y-88000000D01*
X150469036Y-86725000D01*
X150460984Y-86643250D01*
X150437139Y-86564642D01*
X150398416Y-86492196D01*
X150346303Y-86428697D01*
X150282804Y-86376584D01*
X150210358Y-86337861D01*
X150131750Y-86314016D01*
X150050000Y-86305964D01*
X149850000Y-86305964D01*
X149768250Y-86314016D01*
X149689642Y-86337861D01*
X149625000Y-86372413D01*
X149560358Y-86337861D01*
X149481750Y-86314016D01*
X149400000Y-86305964D01*
X149200000Y-86305964D01*
X149118250Y-86314016D01*
X149039642Y-86337861D01*
X148975000Y-86372413D01*
X148910358Y-86337861D01*
X148831750Y-86314016D01*
X148750000Y-86305964D01*
X148550000Y-86305964D01*
X148468250Y-86314016D01*
X148389642Y-86337861D01*
X148325000Y-86372413D01*
X148260358Y-86337861D01*
X148181750Y-86314016D01*
X148100000Y-86305964D01*
X147900000Y-86305964D01*
X147818250Y-86314016D01*
X147739642Y-86337861D01*
X147675000Y-86372413D01*
X147610358Y-86337861D01*
X147531750Y-86314016D01*
X147450000Y-86305964D01*
X147250000Y-86305964D01*
X147168250Y-86314016D01*
X147089642Y-86337861D01*
X147025000Y-86372413D01*
X146960358Y-86337861D01*
X146881750Y-86314016D01*
X146800000Y-86305964D01*
X146600000Y-86305964D01*
X146518250Y-86314016D01*
X146439642Y-86337861D01*
X146375000Y-86372413D01*
X146310358Y-86337861D01*
X146231750Y-86314016D01*
X146150000Y-86305964D01*
X145950000Y-86305964D01*
X145868250Y-86314016D01*
X145789642Y-86337861D01*
X145717196Y-86376584D01*
X145653697Y-86428697D01*
X145601584Y-86492196D01*
X145562861Y-86564642D01*
X145539016Y-86643250D01*
X145530964Y-86725000D01*
X145530964Y-88000000D01*
X145539016Y-88081750D01*
X145562861Y-88160358D01*
X145581311Y-88194875D01*
X145330200Y-88445986D01*
X145330200Y-80830200D01*
X145567908Y-80830200D01*
X145562861Y-80839642D01*
G37*
G04 #@! TD.AperFunction*
M02*
