%FSLAX45Y45*%
G04 Gerber Fmt 4.5, Leading zero omitted, Abs format (unit mm)*
G04 Created by KiCad (PCBNEW (5.1.9)-1) date 2021-05-18 22:48:56*
%MOMM*%
%LPD*%
G01*
G04 APERTURE LIST*
%TA.AperFunction,Profile*%
%ADD10C,0.025400*%
%TD*%
%ADD11C,0.200000*%
%ADD12C,0.300000*%
G04 APERTURE END LIST*
D10*
X14500000Y-10550000D02*
X14500000Y-8050000D01*
X15100000Y-10550000D02*
X14500000Y-10550000D01*
X15100000Y-8050000D02*
X15100000Y-10550000D01*
X14965000Y-9450000D02*
G75*
G03*
X14965000Y-9450000I-165000J0D01*
G01*
X14500000Y-8050000D02*
X15100000Y-8050000D01*
D11*
X14640560Y-9103360D02*
X14671040Y-9133840D01*
X14671040Y-9103360D02*
X14640560Y-9133840D01*
X14653260Y-8277860D02*
X14683740Y-8308340D01*
X14683740Y-8277860D02*
X14653260Y-8308340D01*
X14780260Y-8277860D02*
X14810740Y-8308340D01*
X14810740Y-8277860D02*
X14780260Y-8308340D01*
X14932660Y-9103360D02*
X14963140Y-9133840D01*
X14963140Y-9103360D02*
X14932660Y-9133840D01*
X14740000Y-10000000D02*
G75*
G03*
X14740000Y-10000000I-40000J0D01*
G01*
X14740000Y-10200000D02*
G75*
G03*
X14740000Y-10200000I-40000J0D01*
G01*
X14740000Y-10400000D02*
G75*
G03*
X14740000Y-10400000I-40000J0D01*
G01*
X14940000Y-10000000D02*
G75*
G03*
X14940000Y-10000000I-40000J0D01*
G01*
X14940000Y-10200000D02*
G75*
G03*
X14940000Y-10200000I-40000J0D01*
G01*
X14940000Y-10400000D02*
G75*
G03*
X14940000Y-10400000I-40000J0D01*
G01*
D12*
X14785158Y-11016984D02*
X14785158Y-10716984D01*
X14856587Y-10716984D01*
X14899444Y-10731270D01*
X14928016Y-10759842D01*
X14942301Y-10788413D01*
X14956587Y-10845556D01*
X14956587Y-10888413D01*
X14942301Y-10945556D01*
X14928016Y-10974127D01*
X14899444Y-11002699D01*
X14856587Y-11016984D01*
X14785158Y-11016984D01*
X15085158Y-11016984D02*
X15085158Y-10816984D01*
X15085158Y-10874127D02*
X15099444Y-10845556D01*
X15113730Y-10831270D01*
X15142301Y-10816984D01*
X15170873Y-10816984D01*
X15270873Y-11016984D02*
X15270873Y-10816984D01*
X15270873Y-10716984D02*
X15256587Y-10731270D01*
X15270873Y-10745556D01*
X15285158Y-10731270D01*
X15270873Y-10716984D01*
X15270873Y-10745556D01*
X15456587Y-11016984D02*
X15428016Y-11002699D01*
X15413730Y-10974127D01*
X15413730Y-10716984D01*
X15613730Y-11016984D02*
X15585158Y-11002699D01*
X15570873Y-10974127D01*
X15570873Y-10716984D01*
X15956587Y-11016984D02*
X15956587Y-10716984D01*
X16056587Y-10931270D01*
X16156587Y-10716984D01*
X16156587Y-11016984D01*
X16428016Y-11016984D02*
X16428016Y-10859842D01*
X16413730Y-10831270D01*
X16385158Y-10816984D01*
X16328016Y-10816984D01*
X16299444Y-10831270D01*
X16428016Y-11002699D02*
X16399444Y-11016984D01*
X16328016Y-11016984D01*
X16299444Y-11002699D01*
X16285158Y-10974127D01*
X16285158Y-10945556D01*
X16299444Y-10916984D01*
X16328016Y-10902699D01*
X16399444Y-10902699D01*
X16428016Y-10888413D01*
X16570873Y-10816984D02*
X16570873Y-11116984D01*
X16570873Y-10831270D02*
X16599444Y-10816984D01*
X16656587Y-10816984D01*
X16685158Y-10831270D01*
X16699444Y-10845556D01*
X16713730Y-10874127D01*
X16713730Y-10959842D01*
X16699444Y-10988413D01*
X16685158Y-11002699D01*
X16656587Y-11016984D01*
X16599444Y-11016984D01*
X16570873Y-11002699D01*
X16842301Y-10988413D02*
X16856587Y-11002699D01*
X16842301Y-11016984D01*
X16828016Y-11002699D01*
X16842301Y-10988413D01*
X16842301Y-11016984D01*
X16842301Y-10831270D02*
X16856587Y-10845556D01*
X16842301Y-10859842D01*
X16828016Y-10845556D01*
X16842301Y-10831270D01*
X16842301Y-10859842D01*
X14468250Y-11496030D02*
X14498730Y-11526510D01*
X14498730Y-11496030D02*
X14468250Y-11526510D01*
X14842301Y-11346984D02*
X14870873Y-11346984D01*
X14899444Y-11361270D01*
X14913730Y-11375556D01*
X14928016Y-11404127D01*
X14942301Y-11461270D01*
X14942301Y-11532699D01*
X14928016Y-11589841D01*
X14913730Y-11618413D01*
X14899444Y-11632699D01*
X14870873Y-11646984D01*
X14842301Y-11646984D01*
X14813730Y-11632699D01*
X14799444Y-11618413D01*
X14785158Y-11589841D01*
X14770873Y-11532699D01*
X14770873Y-11461270D01*
X14785158Y-11404127D01*
X14799444Y-11375556D01*
X14813730Y-11361270D01*
X14842301Y-11346984D01*
X15070873Y-11618413D02*
X15085158Y-11632699D01*
X15070873Y-11646984D01*
X15056587Y-11632699D01*
X15070873Y-11618413D01*
X15070873Y-11646984D01*
X15185158Y-11346984D02*
X15370873Y-11346984D01*
X15270873Y-11461270D01*
X15313730Y-11461270D01*
X15342301Y-11475556D01*
X15356587Y-11489841D01*
X15370873Y-11518413D01*
X15370873Y-11589841D01*
X15356587Y-11618413D01*
X15342301Y-11632699D01*
X15313730Y-11646984D01*
X15228016Y-11646984D01*
X15199444Y-11632699D01*
X15185158Y-11618413D01*
X15556587Y-11346984D02*
X15585158Y-11346984D01*
X15613730Y-11361270D01*
X15628016Y-11375556D01*
X15642301Y-11404127D01*
X15656587Y-11461270D01*
X15656587Y-11532699D01*
X15642301Y-11589841D01*
X15628016Y-11618413D01*
X15613730Y-11632699D01*
X15585158Y-11646984D01*
X15556587Y-11646984D01*
X15528016Y-11632699D01*
X15513730Y-11618413D01*
X15499444Y-11589841D01*
X15485158Y-11532699D01*
X15485158Y-11461270D01*
X15499444Y-11404127D01*
X15513730Y-11375556D01*
X15528016Y-11361270D01*
X15556587Y-11346984D01*
X15785158Y-11646984D02*
X15785158Y-11446984D01*
X15785158Y-11475556D02*
X15799444Y-11461270D01*
X15828016Y-11446984D01*
X15870873Y-11446984D01*
X15899444Y-11461270D01*
X15913730Y-11489841D01*
X15913730Y-11646984D01*
X15913730Y-11489841D02*
X15928016Y-11461270D01*
X15956587Y-11446984D01*
X15999444Y-11446984D01*
X16028016Y-11461270D01*
X16042301Y-11489841D01*
X16042301Y-11646984D01*
X16185158Y-11646984D02*
X16185158Y-11446984D01*
X16185158Y-11475556D02*
X16199444Y-11461270D01*
X16228016Y-11446984D01*
X16270873Y-11446984D01*
X16299444Y-11461270D01*
X16313730Y-11489841D01*
X16313730Y-11646984D01*
X16313730Y-11489841D02*
X16328016Y-11461270D01*
X16356587Y-11446984D01*
X16399444Y-11446984D01*
X16428016Y-11461270D01*
X16442301Y-11489841D01*
X16442301Y-11646984D01*
X17028016Y-11332699D02*
X16770873Y-11718413D01*
X17413730Y-11346984D02*
X17442301Y-11346984D01*
X17470873Y-11361270D01*
X17485158Y-11375556D01*
X17499444Y-11404127D01*
X17513730Y-11461270D01*
X17513730Y-11532699D01*
X17499444Y-11589841D01*
X17485158Y-11618413D01*
X17470873Y-11632699D01*
X17442301Y-11646984D01*
X17413730Y-11646984D01*
X17385158Y-11632699D01*
X17370873Y-11618413D01*
X17356587Y-11589841D01*
X17342301Y-11532699D01*
X17342301Y-11461270D01*
X17356587Y-11404127D01*
X17370873Y-11375556D01*
X17385158Y-11361270D01*
X17413730Y-11346984D01*
X17642301Y-11618413D02*
X17656587Y-11632699D01*
X17642301Y-11646984D01*
X17628016Y-11632699D01*
X17642301Y-11618413D01*
X17642301Y-11646984D01*
X17842301Y-11346984D02*
X17870873Y-11346984D01*
X17899444Y-11361270D01*
X17913730Y-11375556D01*
X17928016Y-11404127D01*
X17942301Y-11461270D01*
X17942301Y-11532699D01*
X17928016Y-11589841D01*
X17913730Y-11618413D01*
X17899444Y-11632699D01*
X17870873Y-11646984D01*
X17842301Y-11646984D01*
X17813730Y-11632699D01*
X17799444Y-11618413D01*
X17785158Y-11589841D01*
X17770873Y-11532699D01*
X17770873Y-11461270D01*
X17785158Y-11404127D01*
X17799444Y-11375556D01*
X17813730Y-11361270D01*
X17842301Y-11346984D01*
X18228016Y-11646984D02*
X18056587Y-11646984D01*
X18142301Y-11646984D02*
X18142301Y-11346984D01*
X18113730Y-11389841D01*
X18085158Y-11418413D01*
X18056587Y-11432699D01*
X18342301Y-11375556D02*
X18356587Y-11361270D01*
X18385158Y-11346984D01*
X18456587Y-11346984D01*
X18485158Y-11361270D01*
X18499444Y-11375556D01*
X18513730Y-11404127D01*
X18513730Y-11432699D01*
X18499444Y-11475556D01*
X18328016Y-11646984D01*
X18513730Y-11646984D01*
X18628016Y-11346984D02*
X18628016Y-11404127D01*
X18742301Y-11346984D02*
X18742301Y-11404127D01*
X19185158Y-11761270D02*
X19170873Y-11746984D01*
X19142301Y-11704127D01*
X19128016Y-11675556D01*
X19113730Y-11632699D01*
X19099444Y-11561270D01*
X19099444Y-11504127D01*
X19113730Y-11432699D01*
X19128016Y-11389841D01*
X19142301Y-11361270D01*
X19170873Y-11318413D01*
X19185158Y-11304127D01*
X19428016Y-11446984D02*
X19428016Y-11646984D01*
X19356587Y-11332699D02*
X19285158Y-11546984D01*
X19470873Y-11546984D01*
X19813730Y-11646984D02*
X19813730Y-11346984D01*
X19942301Y-11646984D02*
X19942301Y-11489841D01*
X19928016Y-11461270D01*
X19899444Y-11446984D01*
X19856587Y-11446984D01*
X19828016Y-11461270D01*
X19813730Y-11475556D01*
X20128016Y-11646984D02*
X20099444Y-11632699D01*
X20085158Y-11618413D01*
X20070873Y-11589841D01*
X20070873Y-11504127D01*
X20085158Y-11475556D01*
X20099444Y-11461270D01*
X20128016Y-11446984D01*
X20170873Y-11446984D01*
X20199444Y-11461270D01*
X20213730Y-11475556D01*
X20228016Y-11504127D01*
X20228016Y-11589841D01*
X20213730Y-11618413D01*
X20199444Y-11632699D01*
X20170873Y-11646984D01*
X20128016Y-11646984D01*
X20399444Y-11646984D02*
X20370873Y-11632699D01*
X20356587Y-11604127D01*
X20356587Y-11346984D01*
X20628016Y-11632699D02*
X20599444Y-11646984D01*
X20542301Y-11646984D01*
X20513730Y-11632699D01*
X20499444Y-11604127D01*
X20499444Y-11489841D01*
X20513730Y-11461270D01*
X20542301Y-11446984D01*
X20599444Y-11446984D01*
X20628016Y-11461270D01*
X20642301Y-11489841D01*
X20642301Y-11518413D01*
X20499444Y-11546984D01*
X20756587Y-11632699D02*
X20785158Y-11646984D01*
X20842301Y-11646984D01*
X20870873Y-11632699D01*
X20885158Y-11604127D01*
X20885158Y-11589841D01*
X20870873Y-11561270D01*
X20842301Y-11546984D01*
X20799444Y-11546984D01*
X20770873Y-11532699D01*
X20756587Y-11504127D01*
X20756587Y-11489841D01*
X20770873Y-11461270D01*
X20799444Y-11446984D01*
X20842301Y-11446984D01*
X20870873Y-11461270D01*
X20985158Y-11761270D02*
X20999444Y-11746984D01*
X21028016Y-11704127D01*
X21042301Y-11675556D01*
X21056587Y-11632699D01*
X21070873Y-11561270D01*
X21070873Y-11504127D01*
X21056587Y-11432699D01*
X21042301Y-11389841D01*
X21028016Y-11361270D01*
X20999444Y-11318413D01*
X20985158Y-11304127D01*
X14498730Y-11907270D02*
G75*
G03*
X14498730Y-11907270I-40000J0D01*
G01*
X14842301Y-11742984D02*
X14870873Y-11742984D01*
X14899444Y-11757270D01*
X14913730Y-11771556D01*
X14928016Y-11800127D01*
X14942301Y-11857270D01*
X14942301Y-11928699D01*
X14928016Y-11985841D01*
X14913730Y-12014413D01*
X14899444Y-12028699D01*
X14870873Y-12042984D01*
X14842301Y-12042984D01*
X14813730Y-12028699D01*
X14799444Y-12014413D01*
X14785158Y-11985841D01*
X14770873Y-11928699D01*
X14770873Y-11857270D01*
X14785158Y-11800127D01*
X14799444Y-11771556D01*
X14813730Y-11757270D01*
X14842301Y-11742984D01*
X15070873Y-12014413D02*
X15085158Y-12028699D01*
X15070873Y-12042984D01*
X15056587Y-12028699D01*
X15070873Y-12014413D01*
X15070873Y-12042984D01*
X15256587Y-11871556D02*
X15228016Y-11857270D01*
X15213730Y-11842984D01*
X15199444Y-11814413D01*
X15199444Y-11800127D01*
X15213730Y-11771556D01*
X15228016Y-11757270D01*
X15256587Y-11742984D01*
X15313730Y-11742984D01*
X15342301Y-11757270D01*
X15356587Y-11771556D01*
X15370873Y-11800127D01*
X15370873Y-11814413D01*
X15356587Y-11842984D01*
X15342301Y-11857270D01*
X15313730Y-11871556D01*
X15256587Y-11871556D01*
X15228016Y-11885841D01*
X15213730Y-11900127D01*
X15199444Y-11928699D01*
X15199444Y-11985841D01*
X15213730Y-12014413D01*
X15228016Y-12028699D01*
X15256587Y-12042984D01*
X15313730Y-12042984D01*
X15342301Y-12028699D01*
X15356587Y-12014413D01*
X15370873Y-11985841D01*
X15370873Y-11928699D01*
X15356587Y-11900127D01*
X15342301Y-11885841D01*
X15313730Y-11871556D01*
X15556587Y-11742984D02*
X15585158Y-11742984D01*
X15613730Y-11757270D01*
X15628016Y-11771556D01*
X15642301Y-11800127D01*
X15656587Y-11857270D01*
X15656587Y-11928699D01*
X15642301Y-11985841D01*
X15628016Y-12014413D01*
X15613730Y-12028699D01*
X15585158Y-12042984D01*
X15556587Y-12042984D01*
X15528016Y-12028699D01*
X15513730Y-12014413D01*
X15499444Y-11985841D01*
X15485158Y-11928699D01*
X15485158Y-11857270D01*
X15499444Y-11800127D01*
X15513730Y-11771556D01*
X15528016Y-11757270D01*
X15556587Y-11742984D01*
X15785158Y-12042984D02*
X15785158Y-11842984D01*
X15785158Y-11871556D02*
X15799444Y-11857270D01*
X15828016Y-11842984D01*
X15870873Y-11842984D01*
X15899444Y-11857270D01*
X15913730Y-11885841D01*
X15913730Y-12042984D01*
X15913730Y-11885841D02*
X15928016Y-11857270D01*
X15956587Y-11842984D01*
X15999444Y-11842984D01*
X16028016Y-11857270D01*
X16042301Y-11885841D01*
X16042301Y-12042984D01*
X16185158Y-12042984D02*
X16185158Y-11842984D01*
X16185158Y-11871556D02*
X16199444Y-11857270D01*
X16228016Y-11842984D01*
X16270873Y-11842984D01*
X16299444Y-11857270D01*
X16313730Y-11885841D01*
X16313730Y-12042984D01*
X16313730Y-11885841D02*
X16328016Y-11857270D01*
X16356587Y-11842984D01*
X16399444Y-11842984D01*
X16428016Y-11857270D01*
X16442301Y-11885841D01*
X16442301Y-12042984D01*
X17028016Y-11728699D02*
X16770873Y-12114413D01*
X17413730Y-11742984D02*
X17442301Y-11742984D01*
X17470873Y-11757270D01*
X17485158Y-11771556D01*
X17499444Y-11800127D01*
X17513730Y-11857270D01*
X17513730Y-11928699D01*
X17499444Y-11985841D01*
X17485158Y-12014413D01*
X17470873Y-12028699D01*
X17442301Y-12042984D01*
X17413730Y-12042984D01*
X17385158Y-12028699D01*
X17370873Y-12014413D01*
X17356587Y-11985841D01*
X17342301Y-11928699D01*
X17342301Y-11857270D01*
X17356587Y-11800127D01*
X17370873Y-11771556D01*
X17385158Y-11757270D01*
X17413730Y-11742984D01*
X17642301Y-12014413D02*
X17656587Y-12028699D01*
X17642301Y-12042984D01*
X17628016Y-12028699D01*
X17642301Y-12014413D01*
X17642301Y-12042984D01*
X17842301Y-11742984D02*
X17870873Y-11742984D01*
X17899444Y-11757270D01*
X17913730Y-11771556D01*
X17928016Y-11800127D01*
X17942301Y-11857270D01*
X17942301Y-11928699D01*
X17928016Y-11985841D01*
X17913730Y-12014413D01*
X17899444Y-12028699D01*
X17870873Y-12042984D01*
X17842301Y-12042984D01*
X17813730Y-12028699D01*
X17799444Y-12014413D01*
X17785158Y-11985841D01*
X17770873Y-11928699D01*
X17770873Y-11857270D01*
X17785158Y-11800127D01*
X17799444Y-11771556D01*
X17813730Y-11757270D01*
X17842301Y-11742984D01*
X18042301Y-11742984D02*
X18228016Y-11742984D01*
X18128016Y-11857270D01*
X18170873Y-11857270D01*
X18199444Y-11871556D01*
X18213730Y-11885841D01*
X18228016Y-11914413D01*
X18228016Y-11985841D01*
X18213730Y-12014413D01*
X18199444Y-12028699D01*
X18170873Y-12042984D01*
X18085158Y-12042984D01*
X18056587Y-12028699D01*
X18042301Y-12014413D01*
X18513730Y-12042984D02*
X18342301Y-12042984D01*
X18428016Y-12042984D02*
X18428016Y-11742984D01*
X18399444Y-11785841D01*
X18370873Y-11814413D01*
X18342301Y-11828699D01*
X18628016Y-11742984D02*
X18628016Y-11800127D01*
X18742301Y-11742984D02*
X18742301Y-11800127D01*
X19185158Y-12157270D02*
X19170873Y-12142984D01*
X19142301Y-12100127D01*
X19128016Y-12071556D01*
X19113730Y-12028699D01*
X19099444Y-11957270D01*
X19099444Y-11900127D01*
X19113730Y-11828699D01*
X19128016Y-11785841D01*
X19142301Y-11757270D01*
X19170873Y-11714413D01*
X19185158Y-11700127D01*
X19428016Y-11742984D02*
X19370873Y-11742984D01*
X19342301Y-11757270D01*
X19328016Y-11771556D01*
X19299444Y-11814413D01*
X19285158Y-11871556D01*
X19285158Y-11985841D01*
X19299444Y-12014413D01*
X19313730Y-12028699D01*
X19342301Y-12042984D01*
X19399444Y-12042984D01*
X19428016Y-12028699D01*
X19442301Y-12014413D01*
X19456587Y-11985841D01*
X19456587Y-11914413D01*
X19442301Y-11885841D01*
X19428016Y-11871556D01*
X19399444Y-11857270D01*
X19342301Y-11857270D01*
X19313730Y-11871556D01*
X19299444Y-11885841D01*
X19285158Y-11914413D01*
X19813730Y-12042984D02*
X19813730Y-11742984D01*
X19942301Y-12042984D02*
X19942301Y-11885841D01*
X19928016Y-11857270D01*
X19899444Y-11842984D01*
X19856587Y-11842984D01*
X19828016Y-11857270D01*
X19813730Y-11871556D01*
X20128016Y-12042984D02*
X20099444Y-12028699D01*
X20085158Y-12014413D01*
X20070873Y-11985841D01*
X20070873Y-11900127D01*
X20085158Y-11871556D01*
X20099444Y-11857270D01*
X20128016Y-11842984D01*
X20170873Y-11842984D01*
X20199444Y-11857270D01*
X20213730Y-11871556D01*
X20228016Y-11900127D01*
X20228016Y-11985841D01*
X20213730Y-12014413D01*
X20199444Y-12028699D01*
X20170873Y-12042984D01*
X20128016Y-12042984D01*
X20399444Y-12042984D02*
X20370873Y-12028699D01*
X20356587Y-12000127D01*
X20356587Y-11742984D01*
X20628016Y-12028699D02*
X20599444Y-12042984D01*
X20542301Y-12042984D01*
X20513730Y-12028699D01*
X20499444Y-12000127D01*
X20499444Y-11885841D01*
X20513730Y-11857270D01*
X20542301Y-11842984D01*
X20599444Y-11842984D01*
X20628016Y-11857270D01*
X20642301Y-11885841D01*
X20642301Y-11914413D01*
X20499444Y-11942984D01*
X20756587Y-12028699D02*
X20785158Y-12042984D01*
X20842301Y-12042984D01*
X20870873Y-12028699D01*
X20885158Y-12000127D01*
X20885158Y-11985841D01*
X20870873Y-11957270D01*
X20842301Y-11942984D01*
X20799444Y-11942984D01*
X20770873Y-11928699D01*
X20756587Y-11900127D01*
X20756587Y-11885841D01*
X20770873Y-11857270D01*
X20799444Y-11842984D01*
X20842301Y-11842984D01*
X20870873Y-11857270D01*
X20985158Y-12157270D02*
X20999444Y-12142984D01*
X21028016Y-12100127D01*
X21042301Y-12071556D01*
X21056587Y-12028699D01*
X21070873Y-11957270D01*
X21070873Y-11900127D01*
X21056587Y-11828699D01*
X21042301Y-11785841D01*
X21028016Y-11757270D01*
X20999444Y-11714413D01*
X20985158Y-11700127D01*
M02*
