G04 #@! TF.GenerationSoftware,KiCad,Pcbnew,(5.1.9)-1*
G04 #@! TF.CreationDate,2021-04-30T00:53:10-05:00*
G04 #@! TF.ProjectId,A4,41342e6b-6963-4616-945f-706362585858,rev?*
G04 #@! TF.SameCoordinates,Original*
G04 #@! TF.FileFunction,Legend,Bot*
G04 #@! TF.FilePolarity,Positive*
%FSLAX46Y46*%
G04 Gerber Fmt 4.6, Leading zero omitted, Abs format (unit mm)*
G04 Created by KiCad (PCBNEW (5.1.9)-1) date 2021-04-30 00:53:10*
%MOMM*%
%LPD*%
G01*
G04 APERTURE LIST*
%ADD10C,0.150000*%
%ADD11O,1.700000X1.950000*%
%ADD12R,3.500000X3.500000*%
%ADD13C,0.600000*%
%ADD14O,1.700000X2.000000*%
%ADD15O,1.700000X1.700000*%
%ADD16R,1.700000X1.700000*%
%ADD17O,1.200000X1.750000*%
%ADD18C,2.600000*%
%ADD19R,2.600000X2.600000*%
%ADD20O,1.600000X1.600000*%
%ADD21R,1.600000X1.600000*%
G04 APERTURE END LIST*
D10*
X196960714Y-115387380D02*
X196960714Y-114387380D01*
X196579761Y-114387380D01*
X196484523Y-114435000D01*
X196436904Y-114482619D01*
X196389285Y-114577857D01*
X196389285Y-114720714D01*
X196436904Y-114815952D01*
X196484523Y-114863571D01*
X196579761Y-114911190D01*
X196960714Y-114911190D01*
X195389285Y-115387380D02*
X195722619Y-114911190D01*
X195960714Y-115387380D02*
X195960714Y-114387380D01*
X195579761Y-114387380D01*
X195484523Y-114435000D01*
X195436904Y-114482619D01*
X195389285Y-114577857D01*
X195389285Y-114720714D01*
X195436904Y-114815952D01*
X195484523Y-114863571D01*
X195579761Y-114911190D01*
X195960714Y-114911190D01*
X194770238Y-114387380D02*
X194579761Y-114387380D01*
X194484523Y-114435000D01*
X194389285Y-114530238D01*
X194341666Y-114720714D01*
X194341666Y-115054047D01*
X194389285Y-115244523D01*
X194484523Y-115339761D01*
X194579761Y-115387380D01*
X194770238Y-115387380D01*
X194865476Y-115339761D01*
X194960714Y-115244523D01*
X195008333Y-115054047D01*
X195008333Y-114720714D01*
X194960714Y-114530238D01*
X194865476Y-114435000D01*
X194770238Y-114387380D01*
X193389285Y-114435000D02*
X193484523Y-114387380D01*
X193627380Y-114387380D01*
X193770238Y-114435000D01*
X193865476Y-114530238D01*
X193913095Y-114625476D01*
X193960714Y-114815952D01*
X193960714Y-114958809D01*
X193913095Y-115149285D01*
X193865476Y-115244523D01*
X193770238Y-115339761D01*
X193627380Y-115387380D01*
X193532142Y-115387380D01*
X193389285Y-115339761D01*
X193341666Y-115292142D01*
X193341666Y-114958809D01*
X193532142Y-114958809D01*
X192341666Y-115387380D02*
X192675000Y-114911190D01*
X192913095Y-115387380D02*
X192913095Y-114387380D01*
X192532142Y-114387380D01*
X192436904Y-114435000D01*
X192389285Y-114482619D01*
X192341666Y-114577857D01*
X192341666Y-114720714D01*
X192389285Y-114815952D01*
X192436904Y-114863571D01*
X192532142Y-114911190D01*
X192913095Y-114911190D01*
X191960714Y-115101666D02*
X191484523Y-115101666D01*
X192055952Y-115387380D02*
X191722619Y-114387380D01*
X191389285Y-115387380D01*
X191055952Y-115387380D02*
X191055952Y-114387380D01*
X190722619Y-115101666D01*
X190389285Y-114387380D01*
X190389285Y-115387380D01*
X247840285Y-114228571D02*
X247506952Y-114228571D01*
X247364095Y-114752380D02*
X247840285Y-114752380D01*
X247840285Y-113752380D01*
X247364095Y-113752380D01*
X246935523Y-114752380D02*
X246935523Y-113752380D01*
X246364095Y-114752380D01*
X246364095Y-113752380D01*
X245316476Y-114657142D02*
X245364095Y-114704761D01*
X245506952Y-114752380D01*
X245602190Y-114752380D01*
X245745047Y-114704761D01*
X245840285Y-114609523D01*
X245887904Y-114514285D01*
X245935523Y-114323809D01*
X245935523Y-114180952D01*
X245887904Y-113990476D01*
X245840285Y-113895238D01*
X245745047Y-113800000D01*
X245602190Y-113752380D01*
X245506952Y-113752380D01*
X245364095Y-113800000D01*
X245316476Y-113847619D01*
X244983142Y-113752380D02*
X244364095Y-113752380D01*
X244697428Y-114133333D01*
X244554571Y-114133333D01*
X244459333Y-114180952D01*
X244411714Y-114228571D01*
X244364095Y-114323809D01*
X244364095Y-114561904D01*
X244411714Y-114657142D01*
X244459333Y-114704761D01*
X244554571Y-114752380D01*
X244840285Y-114752380D01*
X244935523Y-114704761D01*
X244983142Y-114657142D01*
X252666285Y-107497571D02*
X252332952Y-107497571D01*
X252190095Y-108021380D02*
X252666285Y-108021380D01*
X252666285Y-107021380D01*
X252190095Y-107021380D01*
X251761523Y-108021380D02*
X251761523Y-107021380D01*
X251190095Y-108021380D01*
X251190095Y-107021380D01*
X250142476Y-107926142D02*
X250190095Y-107973761D01*
X250332952Y-108021380D01*
X250428190Y-108021380D01*
X250571047Y-107973761D01*
X250666285Y-107878523D01*
X250713904Y-107783285D01*
X250761523Y-107592809D01*
X250761523Y-107449952D01*
X250713904Y-107259476D01*
X250666285Y-107164238D01*
X250571047Y-107069000D01*
X250428190Y-107021380D01*
X250332952Y-107021380D01*
X250190095Y-107069000D01*
X250142476Y-107116619D01*
X249761523Y-107116619D02*
X249713904Y-107069000D01*
X249618666Y-107021380D01*
X249380571Y-107021380D01*
X249285333Y-107069000D01*
X249237714Y-107116619D01*
X249190095Y-107211857D01*
X249190095Y-107307095D01*
X249237714Y-107449952D01*
X249809142Y-108021380D01*
X249190095Y-108021380D01*
X252285285Y-100258571D02*
X251951952Y-100258571D01*
X251809095Y-100782380D02*
X252285285Y-100782380D01*
X252285285Y-99782380D01*
X251809095Y-99782380D01*
X251380523Y-100782380D02*
X251380523Y-99782380D01*
X250809095Y-100782380D01*
X250809095Y-99782380D01*
X249761476Y-100687142D02*
X249809095Y-100734761D01*
X249951952Y-100782380D01*
X250047190Y-100782380D01*
X250190047Y-100734761D01*
X250285285Y-100639523D01*
X250332904Y-100544285D01*
X250380523Y-100353809D01*
X250380523Y-100210952D01*
X250332904Y-100020476D01*
X250285285Y-99925238D01*
X250190047Y-99830000D01*
X250047190Y-99782380D01*
X249951952Y-99782380D01*
X249809095Y-99830000D01*
X249761476Y-99877619D01*
X248809095Y-100782380D02*
X249380523Y-100782380D01*
X249094809Y-100782380D02*
X249094809Y-99782380D01*
X249190047Y-99925238D01*
X249285285Y-100020476D01*
X249380523Y-100068095D01*
X252031285Y-93400571D02*
X251697952Y-93400571D01*
X251555095Y-93924380D02*
X252031285Y-93924380D01*
X252031285Y-92924380D01*
X251555095Y-92924380D01*
X251126523Y-93924380D02*
X251126523Y-92924380D01*
X250555095Y-93924380D01*
X250555095Y-92924380D01*
X249507476Y-93829142D02*
X249555095Y-93876761D01*
X249697952Y-93924380D01*
X249793190Y-93924380D01*
X249936047Y-93876761D01*
X250031285Y-93781523D01*
X250078904Y-93686285D01*
X250126523Y-93495809D01*
X250126523Y-93352952D01*
X250078904Y-93162476D01*
X250031285Y-93067238D01*
X249936047Y-92972000D01*
X249793190Y-92924380D01*
X249697952Y-92924380D01*
X249555095Y-92972000D01*
X249507476Y-93019619D01*
X248888428Y-92924380D02*
X248793190Y-92924380D01*
X248697952Y-92972000D01*
X248650333Y-93019619D01*
X248602714Y-93114857D01*
X248555095Y-93305333D01*
X248555095Y-93543428D01*
X248602714Y-93733904D01*
X248650333Y-93829142D01*
X248697952Y-93876761D01*
X248793190Y-93924380D01*
X248888428Y-93924380D01*
X248983666Y-93876761D01*
X249031285Y-93829142D01*
X249078904Y-93733904D01*
X249126523Y-93543428D01*
X249126523Y-93305333D01*
X249078904Y-93114857D01*
X249031285Y-93019619D01*
X248983666Y-92972000D01*
X248888428Y-92924380D01*
X252055095Y-86161571D02*
X251721761Y-86161571D01*
X251578904Y-86685380D02*
X252055095Y-86685380D01*
X252055095Y-85685380D01*
X251578904Y-85685380D01*
X251150333Y-86685380D02*
X251150333Y-85685380D01*
X250578904Y-86685380D01*
X250578904Y-85685380D01*
X249531285Y-86590142D02*
X249578904Y-86637761D01*
X249721761Y-86685380D01*
X249817000Y-86685380D01*
X249959857Y-86637761D01*
X250055095Y-86542523D01*
X250102714Y-86447285D01*
X250150333Y-86256809D01*
X250150333Y-86113952D01*
X250102714Y-85923476D01*
X250055095Y-85828238D01*
X249959857Y-85733000D01*
X249817000Y-85685380D01*
X249721761Y-85685380D01*
X249578904Y-85733000D01*
X249531285Y-85780619D01*
X248769380Y-86161571D02*
X248626523Y-86209190D01*
X248578904Y-86256809D01*
X248531285Y-86352047D01*
X248531285Y-86494904D01*
X248578904Y-86590142D01*
X248626523Y-86637761D01*
X248721761Y-86685380D01*
X249102714Y-86685380D01*
X249102714Y-85685380D01*
X248769380Y-85685380D01*
X248674142Y-85733000D01*
X248626523Y-85780619D01*
X248578904Y-85875857D01*
X248578904Y-85971095D01*
X248626523Y-86066333D01*
X248674142Y-86113952D01*
X248769380Y-86161571D01*
X249102714Y-86161571D01*
X248046666Y-79049571D02*
X247713333Y-79049571D01*
X247570476Y-79573380D02*
X248046666Y-79573380D01*
X248046666Y-78573380D01*
X247570476Y-78573380D01*
X247141904Y-79573380D02*
X247141904Y-78573380D01*
X246570476Y-79573380D01*
X246570476Y-78573380D01*
X245522857Y-79478142D02*
X245570476Y-79525761D01*
X245713333Y-79573380D01*
X245808571Y-79573380D01*
X245951428Y-79525761D01*
X246046666Y-79430523D01*
X246094285Y-79335285D01*
X246141904Y-79144809D01*
X246141904Y-79001952D01*
X246094285Y-78811476D01*
X246046666Y-78716238D01*
X245951428Y-78621000D01*
X245808571Y-78573380D01*
X245713333Y-78573380D01*
X245570476Y-78621000D01*
X245522857Y-78668619D01*
X245141904Y-79287666D02*
X244665714Y-79287666D01*
X245237142Y-79573380D02*
X244903809Y-78573380D01*
X244570476Y-79573380D01*
X220280523Y-118895761D02*
X220137666Y-118943380D01*
X219899571Y-118943380D01*
X219804333Y-118895761D01*
X219756714Y-118848142D01*
X219709095Y-118752904D01*
X219709095Y-118657666D01*
X219756714Y-118562428D01*
X219804333Y-118514809D01*
X219899571Y-118467190D01*
X220090047Y-118419571D01*
X220185285Y-118371952D01*
X220232904Y-118324333D01*
X220280523Y-118229095D01*
X220280523Y-118133857D01*
X220232904Y-118038619D01*
X220185285Y-117991000D01*
X220090047Y-117943380D01*
X219851952Y-117943380D01*
X219709095Y-117991000D01*
X219328142Y-118657666D02*
X218851952Y-118657666D01*
X219423380Y-118943380D02*
X219090047Y-117943380D01*
X218756714Y-118943380D01*
X217899571Y-117991000D02*
X217994809Y-117943380D01*
X218137666Y-117943380D01*
X218280523Y-117991000D01*
X218375761Y-118086238D01*
X218423380Y-118181476D01*
X218471000Y-118371952D01*
X218471000Y-118514809D01*
X218423380Y-118705285D01*
X218375761Y-118800523D01*
X218280523Y-118895761D01*
X218137666Y-118943380D01*
X218042428Y-118943380D01*
X217899571Y-118895761D01*
X217851952Y-118848142D01*
X217851952Y-118514809D01*
X218042428Y-118514809D01*
X217423380Y-118419571D02*
X217090047Y-118419571D01*
X216947190Y-118943380D02*
X217423380Y-118943380D01*
X217423380Y-117943380D01*
X216947190Y-117943380D01*
X215185285Y-118943380D02*
X215518619Y-118467190D01*
X215756714Y-118943380D02*
X215756714Y-117943380D01*
X215375761Y-117943380D01*
X215280523Y-117991000D01*
X215232904Y-118038619D01*
X215185285Y-118133857D01*
X215185285Y-118276714D01*
X215232904Y-118371952D01*
X215280523Y-118419571D01*
X215375761Y-118467190D01*
X215756714Y-118467190D01*
X214566238Y-117943380D02*
X214375761Y-117943380D01*
X214280523Y-117991000D01*
X214185285Y-118086238D01*
X214137666Y-118276714D01*
X214137666Y-118610047D01*
X214185285Y-118800523D01*
X214280523Y-118895761D01*
X214375761Y-118943380D01*
X214566238Y-118943380D01*
X214661476Y-118895761D01*
X214756714Y-118800523D01*
X214804333Y-118610047D01*
X214804333Y-118276714D01*
X214756714Y-118086238D01*
X214661476Y-117991000D01*
X214566238Y-117943380D01*
X213375761Y-118419571D02*
X213232904Y-118467190D01*
X213185285Y-118514809D01*
X213137666Y-118610047D01*
X213137666Y-118752904D01*
X213185285Y-118848142D01*
X213232904Y-118895761D01*
X213328142Y-118943380D01*
X213709095Y-118943380D01*
X213709095Y-117943380D01*
X213375761Y-117943380D01*
X213280523Y-117991000D01*
X213232904Y-118038619D01*
X213185285Y-118133857D01*
X213185285Y-118229095D01*
X213232904Y-118324333D01*
X213280523Y-118371952D01*
X213375761Y-118419571D01*
X213709095Y-118419571D01*
X212518619Y-117943380D02*
X212328142Y-117943380D01*
X212232904Y-117991000D01*
X212137666Y-118086238D01*
X212090047Y-118276714D01*
X212090047Y-118610047D01*
X212137666Y-118800523D01*
X212232904Y-118895761D01*
X212328142Y-118943380D01*
X212518619Y-118943380D01*
X212613857Y-118895761D01*
X212709095Y-118800523D01*
X212756714Y-118610047D01*
X212756714Y-118276714D01*
X212709095Y-118086238D01*
X212613857Y-117991000D01*
X212518619Y-117943380D01*
X211804333Y-117943380D02*
X211232904Y-117943380D01*
X211518619Y-118943380D02*
X211518619Y-117943380D01*
X210947190Y-118895761D02*
X210804333Y-118943380D01*
X210566238Y-118943380D01*
X210471000Y-118895761D01*
X210423380Y-118848142D01*
X210375761Y-118752904D01*
X210375761Y-118657666D01*
X210423380Y-118562428D01*
X210471000Y-118514809D01*
X210566238Y-118467190D01*
X210756714Y-118419571D01*
X210851952Y-118371952D01*
X210899571Y-118324333D01*
X210947190Y-118229095D01*
X210947190Y-118133857D01*
X210899571Y-118038619D01*
X210851952Y-117991000D01*
X210756714Y-117943380D01*
X210518619Y-117943380D01*
X210375761Y-117991000D01*
X209232904Y-118657666D02*
X208756714Y-118657666D01*
X209328142Y-118943380D02*
X208994809Y-117943380D01*
X208661476Y-118943380D01*
X207899571Y-118276714D02*
X207899571Y-118943380D01*
X208137666Y-117895761D02*
X208375761Y-118610047D01*
X207756714Y-118610047D01*
X206661476Y-118038619D02*
X206613857Y-117991000D01*
X206518619Y-117943380D01*
X206280523Y-117943380D01*
X206185285Y-117991000D01*
X206137666Y-118038619D01*
X206090047Y-118133857D01*
X206090047Y-118229095D01*
X206137666Y-118371952D01*
X206709095Y-118943380D01*
X206090047Y-118943380D01*
X205661476Y-118848142D02*
X205613857Y-118895761D01*
X205661476Y-118943380D01*
X205709095Y-118895761D01*
X205661476Y-118848142D01*
X205661476Y-118943380D01*
X204994809Y-117943380D02*
X204899571Y-117943380D01*
X204804333Y-117991000D01*
X204756714Y-118038619D01*
X204709095Y-118133857D01*
X204661476Y-118324333D01*
X204661476Y-118562428D01*
X204709095Y-118752904D01*
X204756714Y-118848142D01*
X204804333Y-118895761D01*
X204899571Y-118943380D01*
X204994809Y-118943380D01*
X205090047Y-118895761D01*
X205137666Y-118848142D01*
X205185285Y-118752904D01*
X205232904Y-118562428D01*
X205232904Y-118324333D01*
X205185285Y-118133857D01*
X205137666Y-118038619D01*
X205090047Y-117991000D01*
X204994809Y-117943380D01*
%LPC*%
D11*
X181500000Y-116840000D03*
X179000000Y-116840000D03*
X176500000Y-116840000D03*
G36*
G01*
X173150000Y-117565000D02*
X173150000Y-116115000D01*
G75*
G02*
X173400000Y-115865000I250000J0D01*
G01*
X174600000Y-115865000D01*
G75*
G02*
X174850000Y-116115000I0J-250000D01*
G01*
X174850000Y-117565000D01*
G75*
G02*
X174600000Y-117815000I-250000J0D01*
G01*
X173400000Y-117815000D01*
G75*
G02*
X173150000Y-117565000I0J250000D01*
G01*
G37*
G36*
G01*
X174750000Y-89575000D02*
X174750000Y-87825000D01*
G75*
G02*
X175625000Y-86950000I875000J0D01*
G01*
X177375000Y-86950000D01*
G75*
G02*
X178250000Y-87825000I0J-875000D01*
G01*
X178250000Y-89575000D01*
G75*
G02*
X177375000Y-90450000I-875000J0D01*
G01*
X175625000Y-90450000D01*
G75*
G02*
X174750000Y-89575000I0J875000D01*
G01*
G37*
G36*
G01*
X172000000Y-85000000D02*
X172000000Y-83000000D01*
G75*
G02*
X172750000Y-82250000I750000J0D01*
G01*
X174250000Y-82250000D01*
G75*
G02*
X175000000Y-83000000I0J-750000D01*
G01*
X175000000Y-85000000D01*
G75*
G02*
X174250000Y-85750000I-750000J0D01*
G01*
X172750000Y-85750000D01*
G75*
G02*
X172000000Y-85000000I0J750000D01*
G01*
G37*
D12*
X179500000Y-84000000D03*
D13*
X211260000Y-103500000D03*
X210510000Y-104250000D03*
X210510000Y-105750000D03*
X213510000Y-105750000D03*
X213510000Y-104250000D03*
X212760000Y-103500000D03*
X211960000Y-104250000D03*
X212760000Y-105000000D03*
X211960000Y-105750000D03*
X211260000Y-105000000D03*
X211260000Y-106500000D03*
X212760000Y-106500000D03*
D14*
X179500000Y-101000000D03*
G36*
G01*
X176150000Y-101750000D02*
X176150000Y-100250000D01*
G75*
G02*
X176400000Y-100000000I250000J0D01*
G01*
X177600000Y-100000000D01*
G75*
G02*
X177850000Y-100250000I0J-250000D01*
G01*
X177850000Y-101750000D01*
G75*
G02*
X177600000Y-102000000I-250000J0D01*
G01*
X176400000Y-102000000D01*
G75*
G02*
X176150000Y-101750000I0J250000D01*
G01*
G37*
X179500000Y-94000000D03*
G36*
G01*
X176150000Y-94750000D02*
X176150000Y-93250000D01*
G75*
G02*
X176400000Y-93000000I250000J0D01*
G01*
X177600000Y-93000000D01*
G75*
G02*
X177850000Y-93250000I0J-250000D01*
G01*
X177850000Y-94750000D01*
G75*
G02*
X177600000Y-95000000I-250000J0D01*
G01*
X176400000Y-95000000D01*
G75*
G02*
X176150000Y-94750000I0J250000D01*
G01*
G37*
D11*
X239500000Y-54000000D03*
X242000000Y-54000000D03*
X244500000Y-54000000D03*
G36*
G01*
X247850000Y-53275000D02*
X247850000Y-54725000D01*
G75*
G02*
X247600000Y-54975000I-250000J0D01*
G01*
X246400000Y-54975000D01*
G75*
G02*
X246150000Y-54725000I0J250000D01*
G01*
X246150000Y-53275000D01*
G75*
G02*
X246400000Y-53025000I250000J0D01*
G01*
X247600000Y-53025000D01*
G75*
G02*
X247850000Y-53275000I0J-250000D01*
G01*
G37*
X208500000Y-54000000D03*
X211000000Y-54000000D03*
X213500000Y-54000000D03*
G36*
G01*
X216850000Y-53275000D02*
X216850000Y-54725000D01*
G75*
G02*
X216600000Y-54975000I-250000J0D01*
G01*
X215400000Y-54975000D01*
G75*
G02*
X215150000Y-54725000I0J250000D01*
G01*
X215150000Y-53275000D01*
G75*
G02*
X215400000Y-53025000I250000J0D01*
G01*
X216600000Y-53025000D01*
G75*
G02*
X216850000Y-53275000I0J-250000D01*
G01*
G37*
D15*
X249540000Y-65080000D03*
X247000000Y-65080000D03*
X249540000Y-62540000D03*
X247000000Y-62540000D03*
X249540000Y-60000000D03*
D16*
X247000000Y-60000000D03*
D15*
X214540000Y-65080000D03*
X212000000Y-65080000D03*
X214540000Y-62540000D03*
X212000000Y-62540000D03*
X214540000Y-60000000D03*
D16*
X212000000Y-60000000D03*
D11*
X247500000Y-117000000D03*
X245000000Y-117000000D03*
X242500000Y-117000000D03*
X240000000Y-117000000D03*
X237500000Y-117000000D03*
G36*
G01*
X234150000Y-117725000D02*
X234150000Y-116275000D01*
G75*
G02*
X234400000Y-116025000I250000J0D01*
G01*
X235600000Y-116025000D01*
G75*
G02*
X235850000Y-116275000I0J-250000D01*
G01*
X235850000Y-117725000D01*
G75*
G02*
X235600000Y-117975000I-250000J0D01*
G01*
X234400000Y-117975000D01*
G75*
G02*
X234150000Y-117725000I0J250000D01*
G01*
G37*
X252500000Y-103000000D03*
X250000000Y-103000000D03*
X247500000Y-103000000D03*
X245000000Y-103000000D03*
X242500000Y-103000000D03*
G36*
G01*
X239150000Y-103725000D02*
X239150000Y-102275000D01*
G75*
G02*
X239400000Y-102025000I250000J0D01*
G01*
X240600000Y-102025000D01*
G75*
G02*
X240850000Y-102275000I0J-250000D01*
G01*
X240850000Y-103725000D01*
G75*
G02*
X240600000Y-103975000I-250000J0D01*
G01*
X239400000Y-103975000D01*
G75*
G02*
X239150000Y-103725000I0J250000D01*
G01*
G37*
D14*
X170500000Y-101000000D03*
G36*
G01*
X167150000Y-101750000D02*
X167150000Y-100250000D01*
G75*
G02*
X167400000Y-100000000I250000J0D01*
G01*
X168600000Y-100000000D01*
G75*
G02*
X168850000Y-100250000I0J-250000D01*
G01*
X168850000Y-101750000D01*
G75*
G02*
X168600000Y-102000000I-250000J0D01*
G01*
X167400000Y-102000000D01*
G75*
G02*
X167150000Y-101750000I0J250000D01*
G01*
G37*
D17*
X198000000Y-117500000D03*
X196000000Y-117500000D03*
X194000000Y-117500000D03*
X192000000Y-117500000D03*
X190000000Y-117500000D03*
G36*
G01*
X187400000Y-118125001D02*
X187400000Y-116874999D01*
G75*
G02*
X187649999Y-116625000I249999J0D01*
G01*
X188350001Y-116625000D01*
G75*
G02*
X188600000Y-116874999I0J-249999D01*
G01*
X188600000Y-118125001D01*
G75*
G02*
X188350001Y-118375000I-249999J0D01*
G01*
X187649999Y-118375000D01*
G75*
G02*
X187400000Y-118125001I0J249999D01*
G01*
G37*
D14*
X170500000Y-94000000D03*
G36*
G01*
X167150000Y-94750000D02*
X167150000Y-93250000D01*
G75*
G02*
X167400000Y-93000000I250000J0D01*
G01*
X168600000Y-93000000D01*
G75*
G02*
X168850000Y-93250000I0J-250000D01*
G01*
X168850000Y-94750000D01*
G75*
G02*
X168600000Y-95000000I-250000J0D01*
G01*
X167400000Y-95000000D01*
G75*
G02*
X167150000Y-94750000I0J250000D01*
G01*
G37*
D11*
X252500000Y-82000000D03*
X250000000Y-82000000D03*
X247500000Y-82000000D03*
X245000000Y-82000000D03*
X242500000Y-82000000D03*
G36*
G01*
X239150000Y-82725000D02*
X239150000Y-81275000D01*
G75*
G02*
X239400000Y-81025000I250000J0D01*
G01*
X240600000Y-81025000D01*
G75*
G02*
X240850000Y-81275000I0J-250000D01*
G01*
X240850000Y-82725000D01*
G75*
G02*
X240600000Y-82975000I-250000J0D01*
G01*
X239400000Y-82975000D01*
G75*
G02*
X239150000Y-82725000I0J250000D01*
G01*
G37*
X191000000Y-54000000D03*
X193500000Y-54000000D03*
X196000000Y-54000000D03*
G36*
G01*
X199350000Y-53275000D02*
X199350000Y-54725000D01*
G75*
G02*
X199100000Y-54975000I-250000J0D01*
G01*
X197900000Y-54975000D01*
G75*
G02*
X197650000Y-54725000I0J250000D01*
G01*
X197650000Y-53275000D01*
G75*
G02*
X197900000Y-53025000I250000J0D01*
G01*
X199100000Y-53025000D01*
G75*
G02*
X199350000Y-53275000I0J-250000D01*
G01*
G37*
X225000000Y-54000000D03*
X227500000Y-54000000D03*
X230000000Y-54000000D03*
G36*
G01*
X233350000Y-53275000D02*
X233350000Y-54725000D01*
G75*
G02*
X233100000Y-54975000I-250000J0D01*
G01*
X231900000Y-54975000D01*
G75*
G02*
X231650000Y-54725000I0J250000D01*
G01*
X231650000Y-53275000D01*
G75*
G02*
X231900000Y-53025000I250000J0D01*
G01*
X233100000Y-53025000D01*
G75*
G02*
X233350000Y-53275000I0J-250000D01*
G01*
G37*
D15*
X198000000Y-65000000D03*
X195460000Y-65000000D03*
X198000000Y-62460000D03*
X195460000Y-62460000D03*
X198000000Y-59920000D03*
D16*
X195460000Y-59920000D03*
D15*
X231540000Y-65080000D03*
X229000000Y-65080000D03*
X231540000Y-62540000D03*
X229000000Y-62540000D03*
X231540000Y-60000000D03*
D16*
X229000000Y-60000000D03*
D18*
X171000000Y-69000000D03*
D19*
X171000000Y-74000000D03*
D18*
X171000000Y-59000000D03*
D19*
X171000000Y-64000000D03*
D11*
X252500000Y-96000000D03*
X250000000Y-96000000D03*
X247500000Y-96000000D03*
X245000000Y-96000000D03*
X242500000Y-96000000D03*
G36*
G01*
X239150000Y-96725000D02*
X239150000Y-95275000D01*
G75*
G02*
X239400000Y-95025000I250000J0D01*
G01*
X240600000Y-95025000D01*
G75*
G02*
X240850000Y-95275000I0J-250000D01*
G01*
X240850000Y-96725000D01*
G75*
G02*
X240600000Y-96975000I-250000J0D01*
G01*
X239400000Y-96975000D01*
G75*
G02*
X239150000Y-96725000I0J250000D01*
G01*
G37*
X252500000Y-110000000D03*
X250000000Y-110000000D03*
X247500000Y-110000000D03*
X245000000Y-110000000D03*
X242500000Y-110000000D03*
G36*
G01*
X239150000Y-110725000D02*
X239150000Y-109275000D01*
G75*
G02*
X239400000Y-109025000I250000J0D01*
G01*
X240600000Y-109025000D01*
G75*
G02*
X240850000Y-109275000I0J-250000D01*
G01*
X240850000Y-110725000D01*
G75*
G02*
X240600000Y-110975000I-250000J0D01*
G01*
X239400000Y-110975000D01*
G75*
G02*
X239150000Y-110725000I0J250000D01*
G01*
G37*
D14*
X179500000Y-108000000D03*
G36*
G01*
X176150000Y-108750000D02*
X176150000Y-107250000D01*
G75*
G02*
X176400000Y-107000000I250000J0D01*
G01*
X177600000Y-107000000D01*
G75*
G02*
X177850000Y-107250000I0J-250000D01*
G01*
X177850000Y-108750000D01*
G75*
G02*
X177600000Y-109000000I-250000J0D01*
G01*
X176400000Y-109000000D01*
G75*
G02*
X176150000Y-108750000I0J250000D01*
G01*
G37*
D11*
X252500000Y-89000000D03*
X250000000Y-89000000D03*
X247500000Y-89000000D03*
X245000000Y-89000000D03*
X242500000Y-89000000D03*
G36*
G01*
X239150000Y-89725000D02*
X239150000Y-88275000D01*
G75*
G02*
X239400000Y-88025000I250000J0D01*
G01*
X240600000Y-88025000D01*
G75*
G02*
X240850000Y-88275000I0J-250000D01*
G01*
X240850000Y-89725000D01*
G75*
G02*
X240600000Y-89975000I-250000J0D01*
G01*
X239400000Y-89975000D01*
G75*
G02*
X239150000Y-89725000I0J250000D01*
G01*
G37*
D14*
X170500000Y-108000000D03*
G36*
G01*
X167150000Y-108750000D02*
X167150000Y-107250000D01*
G75*
G02*
X167400000Y-107000000I250000J0D01*
G01*
X168600000Y-107000000D01*
G75*
G02*
X168850000Y-107250000I0J-250000D01*
G01*
X168850000Y-108750000D01*
G75*
G02*
X168600000Y-109000000I-250000J0D01*
G01*
X167400000Y-109000000D01*
G75*
G02*
X167150000Y-108750000I0J250000D01*
G01*
G37*
D20*
X253700000Y-59000000D03*
X241000000Y-76780000D03*
X253700000Y-61540000D03*
X241000000Y-74240000D03*
X253700000Y-64080000D03*
X241000000Y-71700000D03*
X253700000Y-66620000D03*
X241000000Y-69160000D03*
X253700000Y-69160000D03*
X241000000Y-66620000D03*
X253700000Y-71700000D03*
X241000000Y-64080000D03*
X253700000Y-74240000D03*
X241000000Y-61540000D03*
X253700000Y-76780000D03*
D21*
X241000000Y-59000000D03*
D20*
X219700000Y-59000000D03*
X207000000Y-76780000D03*
X219700000Y-61540000D03*
X207000000Y-74240000D03*
X219700000Y-64080000D03*
X207000000Y-71700000D03*
X219700000Y-66620000D03*
X207000000Y-69160000D03*
X219700000Y-69160000D03*
X207000000Y-66620000D03*
X219700000Y-71700000D03*
X207000000Y-64080000D03*
X219700000Y-74240000D03*
X207000000Y-61540000D03*
X219700000Y-76780000D03*
D21*
X207000000Y-59000000D03*
D20*
X202700000Y-59000000D03*
X190000000Y-76780000D03*
X202700000Y-61540000D03*
X190000000Y-74240000D03*
X202700000Y-64080000D03*
X190000000Y-71700000D03*
X202700000Y-66620000D03*
X190000000Y-69160000D03*
X202700000Y-69160000D03*
X190000000Y-66620000D03*
X202700000Y-71700000D03*
X190000000Y-64080000D03*
X202700000Y-74240000D03*
X190000000Y-61540000D03*
X202700000Y-76780000D03*
D21*
X190000000Y-59000000D03*
D20*
X236700000Y-59000000D03*
X224000000Y-76780000D03*
X236700000Y-61540000D03*
X224000000Y-74240000D03*
X236700000Y-64080000D03*
X224000000Y-71700000D03*
X236700000Y-66620000D03*
X224000000Y-69160000D03*
X236700000Y-69160000D03*
X224000000Y-66620000D03*
X236700000Y-71700000D03*
X224000000Y-64080000D03*
X236700000Y-74240000D03*
X224000000Y-61540000D03*
X236700000Y-76780000D03*
D21*
X224000000Y-59000000D03*
M02*
