G04 #@! TF.GenerationSoftware,KiCad,Pcbnew,(5.1.9)-1*
G04 #@! TF.CreationDate,2021-04-30T00:53:10-05:00*
G04 #@! TF.ProjectId,A4,41342e6b-6963-4616-945f-706362585858,rev?*
G04 #@! TF.SameCoordinates,Original*
G04 #@! TF.FileFunction,Soldermask,Top*
G04 #@! TF.FilePolarity,Negative*
%FSLAX46Y46*%
G04 Gerber Fmt 4.6, Leading zero omitted, Abs format (unit mm)*
G04 Created by KiCad (PCBNEW (5.1.9)-1) date 2021-04-30 00:53:10*
%MOMM*%
%LPD*%
G01*
G04 APERTURE LIST*
%ADD10O,1.700000X1.950000*%
%ADD11R,3.500000X3.500000*%
%ADD12R,1.500000X2.000000*%
%ADD13R,3.800000X2.000000*%
%ADD14R,2.290000X3.000000*%
%ADD15C,0.600000*%
%ADD16R,1.100000X1.100000*%
%ADD17R,1.500000X0.900000*%
%ADD18R,0.900000X1.500000*%
%ADD19R,2.000000X1.500000*%
%ADD20R,2.000000X3.800000*%
%ADD21R,0.500000X0.700000*%
%ADD22R,0.200000X1.100000*%
%ADD23R,1.200000X2.500000*%
%ADD24R,0.800000X0.900000*%
%ADD25O,1.700000X2.000000*%
%ADD26O,1.700000X1.700000*%
%ADD27R,1.700000X1.700000*%
%ADD28O,1.200000X1.750000*%
%ADD29C,2.600000*%
%ADD30R,2.600000X2.600000*%
%ADD31O,1.600000X1.600000*%
%ADD32R,1.600000X1.600000*%
G04 APERTURE END LIST*
G36*
G01*
X186375000Y-100930000D02*
X186375000Y-101230000D01*
G75*
G02*
X186225000Y-101380000I-150000J0D01*
G01*
X184475000Y-101380000D01*
G75*
G02*
X184325000Y-101230000I0J150000D01*
G01*
X184325000Y-100930000D01*
G75*
G02*
X184475000Y-100780000I150000J0D01*
G01*
X186225000Y-100780000D01*
G75*
G02*
X186375000Y-100930000I0J-150000D01*
G01*
G37*
G36*
G01*
X186375000Y-99660000D02*
X186375000Y-99960000D01*
G75*
G02*
X186225000Y-100110000I-150000J0D01*
G01*
X184475000Y-100110000D01*
G75*
G02*
X184325000Y-99960000I0J150000D01*
G01*
X184325000Y-99660000D01*
G75*
G02*
X184475000Y-99510000I150000J0D01*
G01*
X186225000Y-99510000D01*
G75*
G02*
X186375000Y-99660000I0J-150000D01*
G01*
G37*
G36*
G01*
X186375000Y-98390000D02*
X186375000Y-98690000D01*
G75*
G02*
X186225000Y-98840000I-150000J0D01*
G01*
X184475000Y-98840000D01*
G75*
G02*
X184325000Y-98690000I0J150000D01*
G01*
X184325000Y-98390000D01*
G75*
G02*
X184475000Y-98240000I150000J0D01*
G01*
X186225000Y-98240000D01*
G75*
G02*
X186375000Y-98390000I0J-150000D01*
G01*
G37*
G36*
G01*
X186375000Y-97120000D02*
X186375000Y-97420000D01*
G75*
G02*
X186225000Y-97570000I-150000J0D01*
G01*
X184475000Y-97570000D01*
G75*
G02*
X184325000Y-97420000I0J150000D01*
G01*
X184325000Y-97120000D01*
G75*
G02*
X184475000Y-96970000I150000J0D01*
G01*
X186225000Y-96970000D01*
G75*
G02*
X186375000Y-97120000I0J-150000D01*
G01*
G37*
G36*
G01*
X186375000Y-95850000D02*
X186375000Y-96150000D01*
G75*
G02*
X186225000Y-96300000I-150000J0D01*
G01*
X184475000Y-96300000D01*
G75*
G02*
X184325000Y-96150000I0J150000D01*
G01*
X184325000Y-95850000D01*
G75*
G02*
X184475000Y-95700000I150000J0D01*
G01*
X186225000Y-95700000D01*
G75*
G02*
X186375000Y-95850000I0J-150000D01*
G01*
G37*
G36*
G01*
X186375000Y-94580000D02*
X186375000Y-94880000D01*
G75*
G02*
X186225000Y-95030000I-150000J0D01*
G01*
X184475000Y-95030000D01*
G75*
G02*
X184325000Y-94880000I0J150000D01*
G01*
X184325000Y-94580000D01*
G75*
G02*
X184475000Y-94430000I150000J0D01*
G01*
X186225000Y-94430000D01*
G75*
G02*
X186375000Y-94580000I0J-150000D01*
G01*
G37*
G36*
G01*
X186375000Y-93310000D02*
X186375000Y-93610000D01*
G75*
G02*
X186225000Y-93760000I-150000J0D01*
G01*
X184475000Y-93760000D01*
G75*
G02*
X184325000Y-93610000I0J150000D01*
G01*
X184325000Y-93310000D01*
G75*
G02*
X184475000Y-93160000I150000J0D01*
G01*
X186225000Y-93160000D01*
G75*
G02*
X186375000Y-93310000I0J-150000D01*
G01*
G37*
G36*
G01*
X186375000Y-92040000D02*
X186375000Y-92340000D01*
G75*
G02*
X186225000Y-92490000I-150000J0D01*
G01*
X184475000Y-92490000D01*
G75*
G02*
X184325000Y-92340000I0J150000D01*
G01*
X184325000Y-92040000D01*
G75*
G02*
X184475000Y-91890000I150000J0D01*
G01*
X186225000Y-91890000D01*
G75*
G02*
X186375000Y-92040000I0J-150000D01*
G01*
G37*
G36*
G01*
X186375000Y-90770000D02*
X186375000Y-91070000D01*
G75*
G02*
X186225000Y-91220000I-150000J0D01*
G01*
X184475000Y-91220000D01*
G75*
G02*
X184325000Y-91070000I0J150000D01*
G01*
X184325000Y-90770000D01*
G75*
G02*
X184475000Y-90620000I150000J0D01*
G01*
X186225000Y-90620000D01*
G75*
G02*
X186375000Y-90770000I0J-150000D01*
G01*
G37*
G36*
G01*
X195675000Y-90770000D02*
X195675000Y-91070000D01*
G75*
G02*
X195525000Y-91220000I-150000J0D01*
G01*
X193775000Y-91220000D01*
G75*
G02*
X193625000Y-91070000I0J150000D01*
G01*
X193625000Y-90770000D01*
G75*
G02*
X193775000Y-90620000I150000J0D01*
G01*
X195525000Y-90620000D01*
G75*
G02*
X195675000Y-90770000I0J-150000D01*
G01*
G37*
G36*
G01*
X195675000Y-92040000D02*
X195675000Y-92340000D01*
G75*
G02*
X195525000Y-92490000I-150000J0D01*
G01*
X193775000Y-92490000D01*
G75*
G02*
X193625000Y-92340000I0J150000D01*
G01*
X193625000Y-92040000D01*
G75*
G02*
X193775000Y-91890000I150000J0D01*
G01*
X195525000Y-91890000D01*
G75*
G02*
X195675000Y-92040000I0J-150000D01*
G01*
G37*
G36*
G01*
X195675000Y-93310000D02*
X195675000Y-93610000D01*
G75*
G02*
X195525000Y-93760000I-150000J0D01*
G01*
X193775000Y-93760000D01*
G75*
G02*
X193625000Y-93610000I0J150000D01*
G01*
X193625000Y-93310000D01*
G75*
G02*
X193775000Y-93160000I150000J0D01*
G01*
X195525000Y-93160000D01*
G75*
G02*
X195675000Y-93310000I0J-150000D01*
G01*
G37*
G36*
G01*
X195675000Y-94580000D02*
X195675000Y-94880000D01*
G75*
G02*
X195525000Y-95030000I-150000J0D01*
G01*
X193775000Y-95030000D01*
G75*
G02*
X193625000Y-94880000I0J150000D01*
G01*
X193625000Y-94580000D01*
G75*
G02*
X193775000Y-94430000I150000J0D01*
G01*
X195525000Y-94430000D01*
G75*
G02*
X195675000Y-94580000I0J-150000D01*
G01*
G37*
G36*
G01*
X195675000Y-95850000D02*
X195675000Y-96150000D01*
G75*
G02*
X195525000Y-96300000I-150000J0D01*
G01*
X193775000Y-96300000D01*
G75*
G02*
X193625000Y-96150000I0J150000D01*
G01*
X193625000Y-95850000D01*
G75*
G02*
X193775000Y-95700000I150000J0D01*
G01*
X195525000Y-95700000D01*
G75*
G02*
X195675000Y-95850000I0J-150000D01*
G01*
G37*
G36*
G01*
X195675000Y-97120000D02*
X195675000Y-97420000D01*
G75*
G02*
X195525000Y-97570000I-150000J0D01*
G01*
X193775000Y-97570000D01*
G75*
G02*
X193625000Y-97420000I0J150000D01*
G01*
X193625000Y-97120000D01*
G75*
G02*
X193775000Y-96970000I150000J0D01*
G01*
X195525000Y-96970000D01*
G75*
G02*
X195675000Y-97120000I0J-150000D01*
G01*
G37*
G36*
G01*
X195675000Y-98390000D02*
X195675000Y-98690000D01*
G75*
G02*
X195525000Y-98840000I-150000J0D01*
G01*
X193775000Y-98840000D01*
G75*
G02*
X193625000Y-98690000I0J150000D01*
G01*
X193625000Y-98390000D01*
G75*
G02*
X193775000Y-98240000I150000J0D01*
G01*
X195525000Y-98240000D01*
G75*
G02*
X195675000Y-98390000I0J-150000D01*
G01*
G37*
G36*
G01*
X195675000Y-99660000D02*
X195675000Y-99960000D01*
G75*
G02*
X195525000Y-100110000I-150000J0D01*
G01*
X193775000Y-100110000D01*
G75*
G02*
X193625000Y-99960000I0J150000D01*
G01*
X193625000Y-99660000D01*
G75*
G02*
X193775000Y-99510000I150000J0D01*
G01*
X195525000Y-99510000D01*
G75*
G02*
X195675000Y-99660000I0J-150000D01*
G01*
G37*
G36*
G01*
X195675000Y-100930000D02*
X195675000Y-101230000D01*
G75*
G02*
X195525000Y-101380000I-150000J0D01*
G01*
X193775000Y-101380000D01*
G75*
G02*
X193625000Y-101230000I0J150000D01*
G01*
X193625000Y-100930000D01*
G75*
G02*
X193775000Y-100780000I150000J0D01*
G01*
X195525000Y-100780000D01*
G75*
G02*
X195675000Y-100930000I0J-150000D01*
G01*
G37*
D10*
X181500000Y-116840000D03*
X179000000Y-116840000D03*
X176500000Y-116840000D03*
G36*
G01*
X173150000Y-117565000D02*
X173150000Y-116115000D01*
G75*
G02*
X173400000Y-115865000I250000J0D01*
G01*
X174600000Y-115865000D01*
G75*
G02*
X174850000Y-116115000I0J-250000D01*
G01*
X174850000Y-117565000D01*
G75*
G02*
X174600000Y-117815000I-250000J0D01*
G01*
X173400000Y-117815000D01*
G75*
G02*
X173150000Y-117565000I0J250000D01*
G01*
G37*
G36*
G01*
X221267000Y-87423500D02*
X222217000Y-87423500D01*
G75*
G02*
X222467000Y-87673500I0J-250000D01*
G01*
X222467000Y-88348500D01*
G75*
G02*
X222217000Y-88598500I-250000J0D01*
G01*
X221267000Y-88598500D01*
G75*
G02*
X221017000Y-88348500I0J250000D01*
G01*
X221017000Y-87673500D01*
G75*
G02*
X221267000Y-87423500I250000J0D01*
G01*
G37*
G36*
G01*
X221267000Y-85348500D02*
X222217000Y-85348500D01*
G75*
G02*
X222467000Y-85598500I0J-250000D01*
G01*
X222467000Y-86273500D01*
G75*
G02*
X222217000Y-86523500I-250000J0D01*
G01*
X221267000Y-86523500D01*
G75*
G02*
X221017000Y-86273500I0J250000D01*
G01*
X221017000Y-85598500D01*
G75*
G02*
X221267000Y-85348500I250000J0D01*
G01*
G37*
G36*
G01*
X174750000Y-89575000D02*
X174750000Y-87825000D01*
G75*
G02*
X175625000Y-86950000I875000J0D01*
G01*
X177375000Y-86950000D01*
G75*
G02*
X178250000Y-87825000I0J-875000D01*
G01*
X178250000Y-89575000D01*
G75*
G02*
X177375000Y-90450000I-875000J0D01*
G01*
X175625000Y-90450000D01*
G75*
G02*
X174750000Y-89575000I0J875000D01*
G01*
G37*
G36*
G01*
X172000000Y-85000000D02*
X172000000Y-83000000D01*
G75*
G02*
X172750000Y-82250000I750000J0D01*
G01*
X174250000Y-82250000D01*
G75*
G02*
X175000000Y-83000000I0J-750000D01*
G01*
X175000000Y-85000000D01*
G75*
G02*
X174250000Y-85750000I-750000J0D01*
G01*
X172750000Y-85750000D01*
G75*
G02*
X172000000Y-85000000I0J750000D01*
G01*
G37*
D11*
X179500000Y-84000000D03*
D12*
X227300000Y-79850000D03*
X222700000Y-79850000D03*
X225000000Y-79850000D03*
D13*
X225000000Y-86150000D03*
D14*
X180000000Y-75000000D03*
G36*
G01*
X178500000Y-76755000D02*
X178500000Y-77055000D01*
G75*
G02*
X178350000Y-77205000I-150000J0D01*
G01*
X176700000Y-77205000D01*
G75*
G02*
X176550000Y-77055000I0J150000D01*
G01*
X176550000Y-76755000D01*
G75*
G02*
X176700000Y-76605000I150000J0D01*
G01*
X178350000Y-76605000D01*
G75*
G02*
X178500000Y-76755000I0J-150000D01*
G01*
G37*
G36*
G01*
X178500000Y-75485000D02*
X178500000Y-75785000D01*
G75*
G02*
X178350000Y-75935000I-150000J0D01*
G01*
X176700000Y-75935000D01*
G75*
G02*
X176550000Y-75785000I0J150000D01*
G01*
X176550000Y-75485000D01*
G75*
G02*
X176700000Y-75335000I150000J0D01*
G01*
X178350000Y-75335000D01*
G75*
G02*
X178500000Y-75485000I0J-150000D01*
G01*
G37*
G36*
G01*
X178500000Y-74215000D02*
X178500000Y-74515000D01*
G75*
G02*
X178350000Y-74665000I-150000J0D01*
G01*
X176700000Y-74665000D01*
G75*
G02*
X176550000Y-74515000I0J150000D01*
G01*
X176550000Y-74215000D01*
G75*
G02*
X176700000Y-74065000I150000J0D01*
G01*
X178350000Y-74065000D01*
G75*
G02*
X178500000Y-74215000I0J-150000D01*
G01*
G37*
G36*
G01*
X178500000Y-72945000D02*
X178500000Y-73245000D01*
G75*
G02*
X178350000Y-73395000I-150000J0D01*
G01*
X176700000Y-73395000D01*
G75*
G02*
X176550000Y-73245000I0J150000D01*
G01*
X176550000Y-72945000D01*
G75*
G02*
X176700000Y-72795000I150000J0D01*
G01*
X178350000Y-72795000D01*
G75*
G02*
X178500000Y-72945000I0J-150000D01*
G01*
G37*
G36*
G01*
X183450000Y-72945000D02*
X183450000Y-73245000D01*
G75*
G02*
X183300000Y-73395000I-150000J0D01*
G01*
X181650000Y-73395000D01*
G75*
G02*
X181500000Y-73245000I0J150000D01*
G01*
X181500000Y-72945000D01*
G75*
G02*
X181650000Y-72795000I150000J0D01*
G01*
X183300000Y-72795000D01*
G75*
G02*
X183450000Y-72945000I0J-150000D01*
G01*
G37*
G36*
G01*
X183450000Y-74215000D02*
X183450000Y-74515000D01*
G75*
G02*
X183300000Y-74665000I-150000J0D01*
G01*
X181650000Y-74665000D01*
G75*
G02*
X181500000Y-74515000I0J150000D01*
G01*
X181500000Y-74215000D01*
G75*
G02*
X181650000Y-74065000I150000J0D01*
G01*
X183300000Y-74065000D01*
G75*
G02*
X183450000Y-74215000I0J-150000D01*
G01*
G37*
G36*
G01*
X183450000Y-75485000D02*
X183450000Y-75785000D01*
G75*
G02*
X183300000Y-75935000I-150000J0D01*
G01*
X181650000Y-75935000D01*
G75*
G02*
X181500000Y-75785000I0J150000D01*
G01*
X181500000Y-75485000D01*
G75*
G02*
X181650000Y-75335000I150000J0D01*
G01*
X183300000Y-75335000D01*
G75*
G02*
X183450000Y-75485000I0J-150000D01*
G01*
G37*
G36*
G01*
X183450000Y-76755000D02*
X183450000Y-77055000D01*
G75*
G02*
X183300000Y-77205000I-150000J0D01*
G01*
X181650000Y-77205000D01*
G75*
G02*
X181500000Y-77055000I0J150000D01*
G01*
X181500000Y-76755000D01*
G75*
G02*
X181650000Y-76605000I150000J0D01*
G01*
X183300000Y-76605000D01*
G75*
G02*
X183450000Y-76755000I0J-150000D01*
G01*
G37*
D15*
X211260000Y-103500000D03*
X210510000Y-104250000D03*
X210510000Y-105750000D03*
X213510000Y-105750000D03*
X213510000Y-104250000D03*
X212760000Y-103500000D03*
X211960000Y-104250000D03*
X212760000Y-105000000D03*
X211960000Y-105750000D03*
X211260000Y-105000000D03*
X211260000Y-106500000D03*
X212760000Y-106500000D03*
D16*
X210500000Y-103500000D03*
X212000000Y-103500000D03*
X213500000Y-103500000D03*
X213500000Y-105000000D03*
X213500000Y-106500000D03*
X212000000Y-106500000D03*
X210500000Y-106500000D03*
X210500000Y-105000000D03*
X212000000Y-105000000D03*
D17*
X202060000Y-113050000D03*
X202060000Y-111550000D03*
X202060000Y-110050000D03*
X202060000Y-108550000D03*
X202060000Y-107050000D03*
X202060000Y-105550000D03*
X202060000Y-104050000D03*
X202060000Y-102550000D03*
X202060000Y-101050000D03*
X202060000Y-99550000D03*
X202060000Y-98050000D03*
X202060000Y-96550000D03*
X202060000Y-95050000D03*
X202060000Y-93550000D03*
X202060000Y-92050000D03*
X202060000Y-90550000D03*
D18*
X204060000Y-89800000D03*
X205560000Y-89800000D03*
X207060000Y-89800000D03*
X208560000Y-89800000D03*
X210060000Y-89800000D03*
X211560000Y-89800000D03*
X213060000Y-89800000D03*
X214560000Y-89800000D03*
X216060000Y-89800000D03*
X217560000Y-89800000D03*
D17*
X219560000Y-113050000D03*
X219560000Y-111550000D03*
X219560000Y-110050000D03*
X219560000Y-108550000D03*
X219560000Y-107050000D03*
X219560000Y-105550000D03*
X219560000Y-104050000D03*
X219560000Y-102550000D03*
X219560000Y-101050000D03*
X219560000Y-99550000D03*
X219560000Y-98050000D03*
X219560000Y-96550000D03*
X219560000Y-95050000D03*
X219560000Y-93550000D03*
X219560000Y-92050000D03*
X219560000Y-90550000D03*
D14*
X180000000Y-61000000D03*
G36*
G01*
X178500000Y-62755000D02*
X178500000Y-63055000D01*
G75*
G02*
X178350000Y-63205000I-150000J0D01*
G01*
X176700000Y-63205000D01*
G75*
G02*
X176550000Y-63055000I0J150000D01*
G01*
X176550000Y-62755000D01*
G75*
G02*
X176700000Y-62605000I150000J0D01*
G01*
X178350000Y-62605000D01*
G75*
G02*
X178500000Y-62755000I0J-150000D01*
G01*
G37*
G36*
G01*
X178500000Y-61485000D02*
X178500000Y-61785000D01*
G75*
G02*
X178350000Y-61935000I-150000J0D01*
G01*
X176700000Y-61935000D01*
G75*
G02*
X176550000Y-61785000I0J150000D01*
G01*
X176550000Y-61485000D01*
G75*
G02*
X176700000Y-61335000I150000J0D01*
G01*
X178350000Y-61335000D01*
G75*
G02*
X178500000Y-61485000I0J-150000D01*
G01*
G37*
G36*
G01*
X178500000Y-60215000D02*
X178500000Y-60515000D01*
G75*
G02*
X178350000Y-60665000I-150000J0D01*
G01*
X176700000Y-60665000D01*
G75*
G02*
X176550000Y-60515000I0J150000D01*
G01*
X176550000Y-60215000D01*
G75*
G02*
X176700000Y-60065000I150000J0D01*
G01*
X178350000Y-60065000D01*
G75*
G02*
X178500000Y-60215000I0J-150000D01*
G01*
G37*
G36*
G01*
X178500000Y-58945000D02*
X178500000Y-59245000D01*
G75*
G02*
X178350000Y-59395000I-150000J0D01*
G01*
X176700000Y-59395000D01*
G75*
G02*
X176550000Y-59245000I0J150000D01*
G01*
X176550000Y-58945000D01*
G75*
G02*
X176700000Y-58795000I150000J0D01*
G01*
X178350000Y-58795000D01*
G75*
G02*
X178500000Y-58945000I0J-150000D01*
G01*
G37*
G36*
G01*
X183450000Y-58945000D02*
X183450000Y-59245000D01*
G75*
G02*
X183300000Y-59395000I-150000J0D01*
G01*
X181650000Y-59395000D01*
G75*
G02*
X181500000Y-59245000I0J150000D01*
G01*
X181500000Y-58945000D01*
G75*
G02*
X181650000Y-58795000I150000J0D01*
G01*
X183300000Y-58795000D01*
G75*
G02*
X183450000Y-58945000I0J-150000D01*
G01*
G37*
G36*
G01*
X183450000Y-60215000D02*
X183450000Y-60515000D01*
G75*
G02*
X183300000Y-60665000I-150000J0D01*
G01*
X181650000Y-60665000D01*
G75*
G02*
X181500000Y-60515000I0J150000D01*
G01*
X181500000Y-60215000D01*
G75*
G02*
X181650000Y-60065000I150000J0D01*
G01*
X183300000Y-60065000D01*
G75*
G02*
X183450000Y-60215000I0J-150000D01*
G01*
G37*
G36*
G01*
X183450000Y-61485000D02*
X183450000Y-61785000D01*
G75*
G02*
X183300000Y-61935000I-150000J0D01*
G01*
X181650000Y-61935000D01*
G75*
G02*
X181500000Y-61785000I0J150000D01*
G01*
X181500000Y-61485000D01*
G75*
G02*
X181650000Y-61335000I150000J0D01*
G01*
X183300000Y-61335000D01*
G75*
G02*
X183450000Y-61485000I0J-150000D01*
G01*
G37*
G36*
G01*
X183450000Y-62755000D02*
X183450000Y-63055000D01*
G75*
G02*
X183300000Y-63205000I-150000J0D01*
G01*
X181650000Y-63205000D01*
G75*
G02*
X181500000Y-63055000I0J150000D01*
G01*
X181500000Y-62755000D01*
G75*
G02*
X181650000Y-62605000I150000J0D01*
G01*
X183300000Y-62605000D01*
G75*
G02*
X183450000Y-62755000I0J-150000D01*
G01*
G37*
D19*
X184350000Y-80700000D03*
X184350000Y-85300000D03*
X184350000Y-83000000D03*
D20*
X190650000Y-83000000D03*
D21*
X187875000Y-110750000D03*
X192125000Y-110750000D03*
X187875000Y-114250000D03*
X192125000Y-114250000D03*
D22*
X187525000Y-114250000D03*
X192475000Y-110750000D03*
X187525000Y-110750000D03*
X192475000Y-114250000D03*
D23*
X214550000Y-81026000D03*
X212050000Y-81026000D03*
X209550000Y-81026000D03*
X209550000Y-86526000D03*
X212050000Y-86526000D03*
X214550000Y-86526000D03*
G36*
G01*
X226603000Y-115512001D02*
X226603000Y-114611999D01*
G75*
G02*
X226852999Y-114362000I249999J0D01*
G01*
X227553001Y-114362000D01*
G75*
G02*
X227803000Y-114611999I0J-249999D01*
G01*
X227803000Y-115512001D01*
G75*
G02*
X227553001Y-115762000I-249999J0D01*
G01*
X226852999Y-115762000D01*
G75*
G02*
X226603000Y-115512001I0J249999D01*
G01*
G37*
G36*
G01*
X224603000Y-115512001D02*
X224603000Y-114611999D01*
G75*
G02*
X224852999Y-114362000I249999J0D01*
G01*
X225553001Y-114362000D01*
G75*
G02*
X225803000Y-114611999I0J-249999D01*
G01*
X225803000Y-115512001D01*
G75*
G02*
X225553001Y-115762000I-249999J0D01*
G01*
X224852999Y-115762000D01*
G75*
G02*
X224603000Y-115512001I0J249999D01*
G01*
G37*
G36*
G01*
X231556000Y-101034001D02*
X231556000Y-100133999D01*
G75*
G02*
X231805999Y-99884000I249999J0D01*
G01*
X232506001Y-99884000D01*
G75*
G02*
X232756000Y-100133999I0J-249999D01*
G01*
X232756000Y-101034001D01*
G75*
G02*
X232506001Y-101284000I-249999J0D01*
G01*
X231805999Y-101284000D01*
G75*
G02*
X231556000Y-101034001I0J249999D01*
G01*
G37*
G36*
G01*
X229556000Y-101034001D02*
X229556000Y-100133999D01*
G75*
G02*
X229805999Y-99884000I249999J0D01*
G01*
X230506001Y-99884000D01*
G75*
G02*
X230756000Y-100133999I0J-249999D01*
G01*
X230756000Y-101034001D01*
G75*
G02*
X230506001Y-101284000I-249999J0D01*
G01*
X229805999Y-101284000D01*
G75*
G02*
X229556000Y-101034001I0J249999D01*
G01*
G37*
G36*
G01*
X230413000Y-115512001D02*
X230413000Y-114611999D01*
G75*
G02*
X230662999Y-114362000I249999J0D01*
G01*
X231363001Y-114362000D01*
G75*
G02*
X231613000Y-114611999I0J-249999D01*
G01*
X231613000Y-115512001D01*
G75*
G02*
X231363001Y-115762000I-249999J0D01*
G01*
X230662999Y-115762000D01*
G75*
G02*
X230413000Y-115512001I0J249999D01*
G01*
G37*
G36*
G01*
X228413000Y-115512001D02*
X228413000Y-114611999D01*
G75*
G02*
X228662999Y-114362000I249999J0D01*
G01*
X229363001Y-114362000D01*
G75*
G02*
X229613000Y-114611999I0J-249999D01*
G01*
X229613000Y-115512001D01*
G75*
G02*
X229363001Y-115762000I-249999J0D01*
G01*
X228662999Y-115762000D01*
G75*
G02*
X228413000Y-115512001I0J249999D01*
G01*
G37*
G36*
G01*
X235493000Y-101034001D02*
X235493000Y-100133999D01*
G75*
G02*
X235742999Y-99884000I249999J0D01*
G01*
X236443001Y-99884000D01*
G75*
G02*
X236693000Y-100133999I0J-249999D01*
G01*
X236693000Y-101034001D01*
G75*
G02*
X236443001Y-101284000I-249999J0D01*
G01*
X235742999Y-101284000D01*
G75*
G02*
X235493000Y-101034001I0J249999D01*
G01*
G37*
G36*
G01*
X233493000Y-101034001D02*
X233493000Y-100133999D01*
G75*
G02*
X233742999Y-99884000I249999J0D01*
G01*
X234443001Y-99884000D01*
G75*
G02*
X234693000Y-100133999I0J-249999D01*
G01*
X234693000Y-101034001D01*
G75*
G02*
X234443001Y-101284000I-249999J0D01*
G01*
X233742999Y-101284000D01*
G75*
G02*
X233493000Y-101034001I0J249999D01*
G01*
G37*
G36*
G01*
X231540000Y-94430001D02*
X231540000Y-93529999D01*
G75*
G02*
X231789999Y-93280000I249999J0D01*
G01*
X232490001Y-93280000D01*
G75*
G02*
X232740000Y-93529999I0J-249999D01*
G01*
X232740000Y-94430001D01*
G75*
G02*
X232490001Y-94680000I-249999J0D01*
G01*
X231789999Y-94680000D01*
G75*
G02*
X231540000Y-94430001I0J249999D01*
G01*
G37*
G36*
G01*
X229540000Y-94430001D02*
X229540000Y-93529999D01*
G75*
G02*
X229789999Y-93280000I249999J0D01*
G01*
X230490001Y-93280000D01*
G75*
G02*
X230740000Y-93529999I0J-249999D01*
G01*
X230740000Y-94430001D01*
G75*
G02*
X230490001Y-94680000I-249999J0D01*
G01*
X229789999Y-94680000D01*
G75*
G02*
X229540000Y-94430001I0J249999D01*
G01*
G37*
G36*
G01*
X228603000Y-108527001D02*
X228603000Y-107626999D01*
G75*
G02*
X228852999Y-107377000I249999J0D01*
G01*
X229553001Y-107377000D01*
G75*
G02*
X229803000Y-107626999I0J-249999D01*
G01*
X229803000Y-108527001D01*
G75*
G02*
X229553001Y-108777000I-249999J0D01*
G01*
X228852999Y-108777000D01*
G75*
G02*
X228603000Y-108527001I0J249999D01*
G01*
G37*
G36*
G01*
X226603000Y-108527001D02*
X226603000Y-107626999D01*
G75*
G02*
X226852999Y-107377000I249999J0D01*
G01*
X227553001Y-107377000D01*
G75*
G02*
X227803000Y-107626999I0J-249999D01*
G01*
X227803000Y-108527001D01*
G75*
G02*
X227553001Y-108777000I-249999J0D01*
G01*
X226852999Y-108777000D01*
G75*
G02*
X226603000Y-108527001I0J249999D01*
G01*
G37*
G36*
G01*
X235588000Y-94450001D02*
X235588000Y-93549999D01*
G75*
G02*
X235837999Y-93300000I249999J0D01*
G01*
X236538001Y-93300000D01*
G75*
G02*
X236788000Y-93549999I0J-249999D01*
G01*
X236788000Y-94450001D01*
G75*
G02*
X236538001Y-94700000I-249999J0D01*
G01*
X235837999Y-94700000D01*
G75*
G02*
X235588000Y-94450001I0J249999D01*
G01*
G37*
G36*
G01*
X233588000Y-94450001D02*
X233588000Y-93549999D01*
G75*
G02*
X233837999Y-93300000I249999J0D01*
G01*
X234538001Y-93300000D01*
G75*
G02*
X234788000Y-93549999I0J-249999D01*
G01*
X234788000Y-94450001D01*
G75*
G02*
X234538001Y-94700000I-249999J0D01*
G01*
X233837999Y-94700000D01*
G75*
G02*
X233588000Y-94450001I0J249999D01*
G01*
G37*
G36*
G01*
X235400000Y-107450001D02*
X235400000Y-106549999D01*
G75*
G02*
X235649999Y-106300000I249999J0D01*
G01*
X236350001Y-106300000D01*
G75*
G02*
X236600000Y-106549999I0J-249999D01*
G01*
X236600000Y-107450001D01*
G75*
G02*
X236350001Y-107700000I-249999J0D01*
G01*
X235649999Y-107700000D01*
G75*
G02*
X235400000Y-107450001I0J249999D01*
G01*
G37*
G36*
G01*
X233400000Y-107450001D02*
X233400000Y-106549999D01*
G75*
G02*
X233649999Y-106300000I249999J0D01*
G01*
X234350001Y-106300000D01*
G75*
G02*
X234600000Y-106549999I0J-249999D01*
G01*
X234600000Y-107450001D01*
G75*
G02*
X234350001Y-107700000I-249999J0D01*
G01*
X233649999Y-107700000D01*
G75*
G02*
X233400000Y-107450001I0J249999D01*
G01*
G37*
G36*
G01*
X235400000Y-87826001D02*
X235400000Y-86925999D01*
G75*
G02*
X235649999Y-86676000I249999J0D01*
G01*
X236350001Y-86676000D01*
G75*
G02*
X236600000Y-86925999I0J-249999D01*
G01*
X236600000Y-87826001D01*
G75*
G02*
X236350001Y-88076000I-249999J0D01*
G01*
X235649999Y-88076000D01*
G75*
G02*
X235400000Y-87826001I0J249999D01*
G01*
G37*
G36*
G01*
X233400000Y-87826001D02*
X233400000Y-86925999D01*
G75*
G02*
X233649999Y-86676000I249999J0D01*
G01*
X234350001Y-86676000D01*
G75*
G02*
X234600000Y-86925999I0J-249999D01*
G01*
X234600000Y-87826001D01*
G75*
G02*
X234350001Y-88076000I-249999J0D01*
G01*
X233649999Y-88076000D01*
G75*
G02*
X233400000Y-87826001I0J249999D01*
G01*
G37*
G36*
G01*
X230635000Y-81349001D02*
X230635000Y-80448999D01*
G75*
G02*
X230884999Y-80199000I249999J0D01*
G01*
X231585001Y-80199000D01*
G75*
G02*
X231835000Y-80448999I0J-249999D01*
G01*
X231835000Y-81349001D01*
G75*
G02*
X231585001Y-81599000I-249999J0D01*
G01*
X230884999Y-81599000D01*
G75*
G02*
X230635000Y-81349001I0J249999D01*
G01*
G37*
G36*
G01*
X228635000Y-81349001D02*
X228635000Y-80448999D01*
G75*
G02*
X228884999Y-80199000I249999J0D01*
G01*
X229585001Y-80199000D01*
G75*
G02*
X229835000Y-80448999I0J-249999D01*
G01*
X229835000Y-81349001D01*
G75*
G02*
X229585001Y-81599000I-249999J0D01*
G01*
X228884999Y-81599000D01*
G75*
G02*
X228635000Y-81349001I0J249999D01*
G01*
G37*
G36*
G01*
X234572000Y-81603001D02*
X234572000Y-80702999D01*
G75*
G02*
X234821999Y-80453000I249999J0D01*
G01*
X235522001Y-80453000D01*
G75*
G02*
X235772000Y-80702999I0J-249999D01*
G01*
X235772000Y-81603001D01*
G75*
G02*
X235522001Y-81853000I-249999J0D01*
G01*
X234821999Y-81853000D01*
G75*
G02*
X234572000Y-81603001I0J249999D01*
G01*
G37*
G36*
G01*
X232572000Y-81603001D02*
X232572000Y-80702999D01*
G75*
G02*
X232821999Y-80453000I249999J0D01*
G01*
X233522001Y-80453000D01*
G75*
G02*
X233772000Y-80702999I0J-249999D01*
G01*
X233772000Y-81603001D01*
G75*
G02*
X233522001Y-81853000I-249999J0D01*
G01*
X232821999Y-81853000D01*
G75*
G02*
X232572000Y-81603001I0J249999D01*
G01*
G37*
G36*
G01*
X217989999Y-83220000D02*
X218890001Y-83220000D01*
G75*
G02*
X219140000Y-83469999I0J-249999D01*
G01*
X219140000Y-84170001D01*
G75*
G02*
X218890001Y-84420000I-249999J0D01*
G01*
X217989999Y-84420000D01*
G75*
G02*
X217740000Y-84170001I0J249999D01*
G01*
X217740000Y-83469999D01*
G75*
G02*
X217989999Y-83220000I249999J0D01*
G01*
G37*
G36*
G01*
X217989999Y-81220000D02*
X218890001Y-81220000D01*
G75*
G02*
X219140000Y-81469999I0J-249999D01*
G01*
X219140000Y-82170001D01*
G75*
G02*
X218890001Y-82420000I-249999J0D01*
G01*
X217989999Y-82420000D01*
G75*
G02*
X217740000Y-82170001I0J249999D01*
G01*
X217740000Y-81469999D01*
G75*
G02*
X217989999Y-81220000I249999J0D01*
G01*
G37*
G36*
G01*
X195549999Y-113400000D02*
X196450001Y-113400000D01*
G75*
G02*
X196700000Y-113649999I0J-249999D01*
G01*
X196700000Y-114350001D01*
G75*
G02*
X196450001Y-114600000I-249999J0D01*
G01*
X195549999Y-114600000D01*
G75*
G02*
X195300000Y-114350001I0J249999D01*
G01*
X195300000Y-113649999D01*
G75*
G02*
X195549999Y-113400000I249999J0D01*
G01*
G37*
G36*
G01*
X195549999Y-111400000D02*
X196450001Y-111400000D01*
G75*
G02*
X196700000Y-111649999I0J-249999D01*
G01*
X196700000Y-112350001D01*
G75*
G02*
X196450001Y-112600000I-249999J0D01*
G01*
X195549999Y-112600000D01*
G75*
G02*
X195300000Y-112350001I0J249999D01*
G01*
X195300000Y-111649999D01*
G75*
G02*
X195549999Y-111400000I249999J0D01*
G01*
G37*
G36*
G01*
X185549999Y-76400000D02*
X186450001Y-76400000D01*
G75*
G02*
X186700000Y-76649999I0J-249999D01*
G01*
X186700000Y-77350001D01*
G75*
G02*
X186450001Y-77600000I-249999J0D01*
G01*
X185549999Y-77600000D01*
G75*
G02*
X185300000Y-77350001I0J249999D01*
G01*
X185300000Y-76649999D01*
G75*
G02*
X185549999Y-76400000I249999J0D01*
G01*
G37*
G36*
G01*
X185549999Y-74400000D02*
X186450001Y-74400000D01*
G75*
G02*
X186700000Y-74649999I0J-249999D01*
G01*
X186700000Y-75350001D01*
G75*
G02*
X186450001Y-75600000I-249999J0D01*
G01*
X185549999Y-75600000D01*
G75*
G02*
X185300000Y-75350001I0J249999D01*
G01*
X185300000Y-74649999D01*
G75*
G02*
X185549999Y-74400000I249999J0D01*
G01*
G37*
G36*
G01*
X185549999Y-62400000D02*
X186450001Y-62400000D01*
G75*
G02*
X186700000Y-62649999I0J-249999D01*
G01*
X186700000Y-63350001D01*
G75*
G02*
X186450001Y-63600000I-249999J0D01*
G01*
X185549999Y-63600000D01*
G75*
G02*
X185300000Y-63350001I0J249999D01*
G01*
X185300000Y-62649999D01*
G75*
G02*
X185549999Y-62400000I249999J0D01*
G01*
G37*
G36*
G01*
X185549999Y-60400000D02*
X186450001Y-60400000D01*
G75*
G02*
X186700000Y-60649999I0J-249999D01*
G01*
X186700000Y-61350001D01*
G75*
G02*
X186450001Y-61600000I-249999J0D01*
G01*
X185549999Y-61600000D01*
G75*
G02*
X185300000Y-61350001I0J249999D01*
G01*
X185300000Y-60649999D01*
G75*
G02*
X185549999Y-60400000I249999J0D01*
G01*
G37*
G36*
G01*
X218219001Y-86440000D02*
X217318999Y-86440000D01*
G75*
G02*
X217069000Y-86190001I0J249999D01*
G01*
X217069000Y-85489999D01*
G75*
G02*
X217318999Y-85240000I249999J0D01*
G01*
X218219001Y-85240000D01*
G75*
G02*
X218469000Y-85489999I0J-249999D01*
G01*
X218469000Y-86190001D01*
G75*
G02*
X218219001Y-86440000I-249999J0D01*
G01*
G37*
G36*
G01*
X218219001Y-88440000D02*
X217318999Y-88440000D01*
G75*
G02*
X217069000Y-88190001I0J249999D01*
G01*
X217069000Y-87489999D01*
G75*
G02*
X217318999Y-87240000I249999J0D01*
G01*
X218219001Y-87240000D01*
G75*
G02*
X218469000Y-87489999I0J-249999D01*
G01*
X218469000Y-88190001D01*
G75*
G02*
X218219001Y-88440000I-249999J0D01*
G01*
G37*
G36*
G01*
X219318999Y-87240000D02*
X220219001Y-87240000D01*
G75*
G02*
X220469000Y-87489999I0J-249999D01*
G01*
X220469000Y-88190001D01*
G75*
G02*
X220219001Y-88440000I-249999J0D01*
G01*
X219318999Y-88440000D01*
G75*
G02*
X219069000Y-88190001I0J249999D01*
G01*
X219069000Y-87489999D01*
G75*
G02*
X219318999Y-87240000I249999J0D01*
G01*
G37*
G36*
G01*
X219318999Y-85240000D02*
X220219001Y-85240000D01*
G75*
G02*
X220469000Y-85489999I0J-249999D01*
G01*
X220469000Y-86190001D01*
G75*
G02*
X220219001Y-86440000I-249999J0D01*
G01*
X219318999Y-86440000D01*
G75*
G02*
X219069000Y-86190001I0J249999D01*
G01*
X219069000Y-85489999D01*
G75*
G02*
X219318999Y-85240000I249999J0D01*
G01*
G37*
G36*
G01*
X231400000Y-87826001D02*
X231400000Y-86925999D01*
G75*
G02*
X231649999Y-86676000I249999J0D01*
G01*
X232350001Y-86676000D01*
G75*
G02*
X232600000Y-86925999I0J-249999D01*
G01*
X232600000Y-87826001D01*
G75*
G02*
X232350001Y-88076000I-249999J0D01*
G01*
X231649999Y-88076000D01*
G75*
G02*
X231400000Y-87826001I0J249999D01*
G01*
G37*
G36*
G01*
X229400000Y-87826001D02*
X229400000Y-86925999D01*
G75*
G02*
X229649999Y-86676000I249999J0D01*
G01*
X230350001Y-86676000D01*
G75*
G02*
X230600000Y-86925999I0J-249999D01*
G01*
X230600000Y-87826001D01*
G75*
G02*
X230350001Y-88076000I-249999J0D01*
G01*
X229649999Y-88076000D01*
G75*
G02*
X229400000Y-87826001I0J249999D01*
G01*
G37*
D24*
X226441000Y-117000000D03*
X227391000Y-119000000D03*
X225491000Y-119000000D03*
X231521000Y-102632000D03*
X232471000Y-104632000D03*
X230571000Y-104632000D03*
X230124000Y-117000000D03*
X231074000Y-119000000D03*
X229174000Y-119000000D03*
X235204000Y-102505000D03*
X236154000Y-104505000D03*
X234254000Y-104505000D03*
X231521000Y-96028000D03*
X232471000Y-98028000D03*
X230571000Y-98028000D03*
X231000000Y-109000000D03*
X231950000Y-111000000D03*
X230050000Y-111000000D03*
X235331000Y-96000000D03*
X236281000Y-98000000D03*
X234381000Y-98000000D03*
X235000000Y-109000000D03*
X235950000Y-111000000D03*
X234050000Y-111000000D03*
X235000000Y-89000000D03*
X235950000Y-91000000D03*
X234050000Y-91000000D03*
X231328000Y-82804000D03*
X232278000Y-84804000D03*
X230378000Y-84804000D03*
X235077000Y-82677000D03*
X236027000Y-84677000D03*
X234127000Y-84677000D03*
X231000000Y-89000000D03*
X231950000Y-91000000D03*
X230050000Y-91000000D03*
D25*
X179500000Y-101000000D03*
G36*
G01*
X176150000Y-101750000D02*
X176150000Y-100250000D01*
G75*
G02*
X176400000Y-100000000I250000J0D01*
G01*
X177600000Y-100000000D01*
G75*
G02*
X177850000Y-100250000I0J-250000D01*
G01*
X177850000Y-101750000D01*
G75*
G02*
X177600000Y-102000000I-250000J0D01*
G01*
X176400000Y-102000000D01*
G75*
G02*
X176150000Y-101750000I0J250000D01*
G01*
G37*
X179500000Y-94000000D03*
G36*
G01*
X176150000Y-94750000D02*
X176150000Y-93250000D01*
G75*
G02*
X176400000Y-93000000I250000J0D01*
G01*
X177600000Y-93000000D01*
G75*
G02*
X177850000Y-93250000I0J-250000D01*
G01*
X177850000Y-94750000D01*
G75*
G02*
X177600000Y-95000000I-250000J0D01*
G01*
X176400000Y-95000000D01*
G75*
G02*
X176150000Y-94750000I0J250000D01*
G01*
G37*
D10*
X239500000Y-54000000D03*
X242000000Y-54000000D03*
X244500000Y-54000000D03*
G36*
G01*
X247850000Y-53275000D02*
X247850000Y-54725000D01*
G75*
G02*
X247600000Y-54975000I-250000J0D01*
G01*
X246400000Y-54975000D01*
G75*
G02*
X246150000Y-54725000I0J250000D01*
G01*
X246150000Y-53275000D01*
G75*
G02*
X246400000Y-53025000I250000J0D01*
G01*
X247600000Y-53025000D01*
G75*
G02*
X247850000Y-53275000I0J-250000D01*
G01*
G37*
X208500000Y-54000000D03*
X211000000Y-54000000D03*
X213500000Y-54000000D03*
G36*
G01*
X216850000Y-53275000D02*
X216850000Y-54725000D01*
G75*
G02*
X216600000Y-54975000I-250000J0D01*
G01*
X215400000Y-54975000D01*
G75*
G02*
X215150000Y-54725000I0J250000D01*
G01*
X215150000Y-53275000D01*
G75*
G02*
X215400000Y-53025000I250000J0D01*
G01*
X216600000Y-53025000D01*
G75*
G02*
X216850000Y-53275000I0J-250000D01*
G01*
G37*
D26*
X249540000Y-65080000D03*
X247000000Y-65080000D03*
X249540000Y-62540000D03*
X247000000Y-62540000D03*
X249540000Y-60000000D03*
D27*
X247000000Y-60000000D03*
D26*
X214540000Y-65080000D03*
X212000000Y-65080000D03*
X214540000Y-62540000D03*
X212000000Y-62540000D03*
X214540000Y-60000000D03*
D27*
X212000000Y-60000000D03*
D10*
X247500000Y-117000000D03*
X245000000Y-117000000D03*
X242500000Y-117000000D03*
X240000000Y-117000000D03*
X237500000Y-117000000D03*
G36*
G01*
X234150000Y-117725000D02*
X234150000Y-116275000D01*
G75*
G02*
X234400000Y-116025000I250000J0D01*
G01*
X235600000Y-116025000D01*
G75*
G02*
X235850000Y-116275000I0J-250000D01*
G01*
X235850000Y-117725000D01*
G75*
G02*
X235600000Y-117975000I-250000J0D01*
G01*
X234400000Y-117975000D01*
G75*
G02*
X234150000Y-117725000I0J250000D01*
G01*
G37*
X252500000Y-103000000D03*
X250000000Y-103000000D03*
X247500000Y-103000000D03*
X245000000Y-103000000D03*
X242500000Y-103000000D03*
G36*
G01*
X239150000Y-103725000D02*
X239150000Y-102275000D01*
G75*
G02*
X239400000Y-102025000I250000J0D01*
G01*
X240600000Y-102025000D01*
G75*
G02*
X240850000Y-102275000I0J-250000D01*
G01*
X240850000Y-103725000D01*
G75*
G02*
X240600000Y-103975000I-250000J0D01*
G01*
X239400000Y-103975000D01*
G75*
G02*
X239150000Y-103725000I0J250000D01*
G01*
G37*
D25*
X170500000Y-101000000D03*
G36*
G01*
X167150000Y-101750000D02*
X167150000Y-100250000D01*
G75*
G02*
X167400000Y-100000000I250000J0D01*
G01*
X168600000Y-100000000D01*
G75*
G02*
X168850000Y-100250000I0J-250000D01*
G01*
X168850000Y-101750000D01*
G75*
G02*
X168600000Y-102000000I-250000J0D01*
G01*
X167400000Y-102000000D01*
G75*
G02*
X167150000Y-101750000I0J250000D01*
G01*
G37*
D28*
X198000000Y-117500000D03*
X196000000Y-117500000D03*
X194000000Y-117500000D03*
X192000000Y-117500000D03*
X190000000Y-117500000D03*
G36*
G01*
X187400000Y-118125001D02*
X187400000Y-116874999D01*
G75*
G02*
X187649999Y-116625000I249999J0D01*
G01*
X188350001Y-116625000D01*
G75*
G02*
X188600000Y-116874999I0J-249999D01*
G01*
X188600000Y-118125001D01*
G75*
G02*
X188350001Y-118375000I-249999J0D01*
G01*
X187649999Y-118375000D01*
G75*
G02*
X187400000Y-118125001I0J249999D01*
G01*
G37*
D25*
X170500000Y-94000000D03*
G36*
G01*
X167150000Y-94750000D02*
X167150000Y-93250000D01*
G75*
G02*
X167400000Y-93000000I250000J0D01*
G01*
X168600000Y-93000000D01*
G75*
G02*
X168850000Y-93250000I0J-250000D01*
G01*
X168850000Y-94750000D01*
G75*
G02*
X168600000Y-95000000I-250000J0D01*
G01*
X167400000Y-95000000D01*
G75*
G02*
X167150000Y-94750000I0J250000D01*
G01*
G37*
D10*
X252500000Y-82000000D03*
X250000000Y-82000000D03*
X247500000Y-82000000D03*
X245000000Y-82000000D03*
X242500000Y-82000000D03*
G36*
G01*
X239150000Y-82725000D02*
X239150000Y-81275000D01*
G75*
G02*
X239400000Y-81025000I250000J0D01*
G01*
X240600000Y-81025000D01*
G75*
G02*
X240850000Y-81275000I0J-250000D01*
G01*
X240850000Y-82725000D01*
G75*
G02*
X240600000Y-82975000I-250000J0D01*
G01*
X239400000Y-82975000D01*
G75*
G02*
X239150000Y-82725000I0J250000D01*
G01*
G37*
X191000000Y-54000000D03*
X193500000Y-54000000D03*
X196000000Y-54000000D03*
G36*
G01*
X199350000Y-53275000D02*
X199350000Y-54725000D01*
G75*
G02*
X199100000Y-54975000I-250000J0D01*
G01*
X197900000Y-54975000D01*
G75*
G02*
X197650000Y-54725000I0J250000D01*
G01*
X197650000Y-53275000D01*
G75*
G02*
X197900000Y-53025000I250000J0D01*
G01*
X199100000Y-53025000D01*
G75*
G02*
X199350000Y-53275000I0J-250000D01*
G01*
G37*
X225000000Y-54000000D03*
X227500000Y-54000000D03*
X230000000Y-54000000D03*
G36*
G01*
X233350000Y-53275000D02*
X233350000Y-54725000D01*
G75*
G02*
X233100000Y-54975000I-250000J0D01*
G01*
X231900000Y-54975000D01*
G75*
G02*
X231650000Y-54725000I0J250000D01*
G01*
X231650000Y-53275000D01*
G75*
G02*
X231900000Y-53025000I250000J0D01*
G01*
X233100000Y-53025000D01*
G75*
G02*
X233350000Y-53275000I0J-250000D01*
G01*
G37*
D26*
X198000000Y-65000000D03*
X195460000Y-65000000D03*
X198000000Y-62460000D03*
X195460000Y-62460000D03*
X198000000Y-59920000D03*
D27*
X195460000Y-59920000D03*
D26*
X231540000Y-65080000D03*
X229000000Y-65080000D03*
X231540000Y-62540000D03*
X229000000Y-62540000D03*
X231540000Y-60000000D03*
D27*
X229000000Y-60000000D03*
D29*
X171000000Y-69000000D03*
D30*
X171000000Y-74000000D03*
D29*
X171000000Y-59000000D03*
D30*
X171000000Y-64000000D03*
D10*
X252500000Y-96000000D03*
X250000000Y-96000000D03*
X247500000Y-96000000D03*
X245000000Y-96000000D03*
X242500000Y-96000000D03*
G36*
G01*
X239150000Y-96725000D02*
X239150000Y-95275000D01*
G75*
G02*
X239400000Y-95025000I250000J0D01*
G01*
X240600000Y-95025000D01*
G75*
G02*
X240850000Y-95275000I0J-250000D01*
G01*
X240850000Y-96725000D01*
G75*
G02*
X240600000Y-96975000I-250000J0D01*
G01*
X239400000Y-96975000D01*
G75*
G02*
X239150000Y-96725000I0J250000D01*
G01*
G37*
X252500000Y-110000000D03*
X250000000Y-110000000D03*
X247500000Y-110000000D03*
X245000000Y-110000000D03*
X242500000Y-110000000D03*
G36*
G01*
X239150000Y-110725000D02*
X239150000Y-109275000D01*
G75*
G02*
X239400000Y-109025000I250000J0D01*
G01*
X240600000Y-109025000D01*
G75*
G02*
X240850000Y-109275000I0J-250000D01*
G01*
X240850000Y-110725000D01*
G75*
G02*
X240600000Y-110975000I-250000J0D01*
G01*
X239400000Y-110975000D01*
G75*
G02*
X239150000Y-110725000I0J250000D01*
G01*
G37*
D25*
X179500000Y-108000000D03*
G36*
G01*
X176150000Y-108750000D02*
X176150000Y-107250000D01*
G75*
G02*
X176400000Y-107000000I250000J0D01*
G01*
X177600000Y-107000000D01*
G75*
G02*
X177850000Y-107250000I0J-250000D01*
G01*
X177850000Y-108750000D01*
G75*
G02*
X177600000Y-109000000I-250000J0D01*
G01*
X176400000Y-109000000D01*
G75*
G02*
X176150000Y-108750000I0J250000D01*
G01*
G37*
D10*
X252500000Y-89000000D03*
X250000000Y-89000000D03*
X247500000Y-89000000D03*
X245000000Y-89000000D03*
X242500000Y-89000000D03*
G36*
G01*
X239150000Y-89725000D02*
X239150000Y-88275000D01*
G75*
G02*
X239400000Y-88025000I250000J0D01*
G01*
X240600000Y-88025000D01*
G75*
G02*
X240850000Y-88275000I0J-250000D01*
G01*
X240850000Y-89725000D01*
G75*
G02*
X240600000Y-89975000I-250000J0D01*
G01*
X239400000Y-89975000D01*
G75*
G02*
X239150000Y-89725000I0J250000D01*
G01*
G37*
D25*
X170500000Y-108000000D03*
G36*
G01*
X167150000Y-108750000D02*
X167150000Y-107250000D01*
G75*
G02*
X167400000Y-107000000I250000J0D01*
G01*
X168600000Y-107000000D01*
G75*
G02*
X168850000Y-107250000I0J-250000D01*
G01*
X168850000Y-108750000D01*
G75*
G02*
X168600000Y-109000000I-250000J0D01*
G01*
X167400000Y-109000000D01*
G75*
G02*
X167150000Y-108750000I0J250000D01*
G01*
G37*
G36*
G01*
X247550000Y-72050000D02*
X246450000Y-72050000D01*
G75*
G02*
X246200000Y-71800000I0J250000D01*
G01*
X246200000Y-68800000D01*
G75*
G02*
X246450000Y-68550000I250000J0D01*
G01*
X247550000Y-68550000D01*
G75*
G02*
X247800000Y-68800000I0J-250000D01*
G01*
X247800000Y-71800000D01*
G75*
G02*
X247550000Y-72050000I-250000J0D01*
G01*
G37*
G36*
G01*
X247550000Y-77450000D02*
X246450000Y-77450000D01*
G75*
G02*
X246200000Y-77200000I0J250000D01*
G01*
X246200000Y-74200000D01*
G75*
G02*
X246450000Y-73950000I250000J0D01*
G01*
X247550000Y-73950000D01*
G75*
G02*
X247800000Y-74200000I0J-250000D01*
G01*
X247800000Y-77200000D01*
G75*
G02*
X247550000Y-77450000I-250000J0D01*
G01*
G37*
G36*
G01*
X213550000Y-72050000D02*
X212450000Y-72050000D01*
G75*
G02*
X212200000Y-71800000I0J250000D01*
G01*
X212200000Y-68800000D01*
G75*
G02*
X212450000Y-68550000I250000J0D01*
G01*
X213550000Y-68550000D01*
G75*
G02*
X213800000Y-68800000I0J-250000D01*
G01*
X213800000Y-71800000D01*
G75*
G02*
X213550000Y-72050000I-250000J0D01*
G01*
G37*
G36*
G01*
X213550000Y-77450000D02*
X212450000Y-77450000D01*
G75*
G02*
X212200000Y-77200000I0J250000D01*
G01*
X212200000Y-74200000D01*
G75*
G02*
X212450000Y-73950000I250000J0D01*
G01*
X213550000Y-73950000D01*
G75*
G02*
X213800000Y-74200000I0J-250000D01*
G01*
X213800000Y-77200000D01*
G75*
G02*
X213550000Y-77450000I-250000J0D01*
G01*
G37*
G36*
G01*
X196550000Y-72050000D02*
X195450000Y-72050000D01*
G75*
G02*
X195200000Y-71800000I0J250000D01*
G01*
X195200000Y-68800000D01*
G75*
G02*
X195450000Y-68550000I250000J0D01*
G01*
X196550000Y-68550000D01*
G75*
G02*
X196800000Y-68800000I0J-250000D01*
G01*
X196800000Y-71800000D01*
G75*
G02*
X196550000Y-72050000I-250000J0D01*
G01*
G37*
G36*
G01*
X196550000Y-77450000D02*
X195450000Y-77450000D01*
G75*
G02*
X195200000Y-77200000I0J250000D01*
G01*
X195200000Y-74200000D01*
G75*
G02*
X195450000Y-73950000I250000J0D01*
G01*
X196550000Y-73950000D01*
G75*
G02*
X196800000Y-74200000I0J-250000D01*
G01*
X196800000Y-77200000D01*
G75*
G02*
X196550000Y-77450000I-250000J0D01*
G01*
G37*
G36*
G01*
X187475000Y-68587500D02*
X186525000Y-68587500D01*
G75*
G02*
X186275000Y-68337500I0J250000D01*
G01*
X186275000Y-67662500D01*
G75*
G02*
X186525000Y-67412500I250000J0D01*
G01*
X187475000Y-67412500D01*
G75*
G02*
X187725000Y-67662500I0J-250000D01*
G01*
X187725000Y-68337500D01*
G75*
G02*
X187475000Y-68587500I-250000J0D01*
G01*
G37*
G36*
G01*
X187475000Y-70662500D02*
X186525000Y-70662500D01*
G75*
G02*
X186275000Y-70412500I0J250000D01*
G01*
X186275000Y-69737500D01*
G75*
G02*
X186525000Y-69487500I250000J0D01*
G01*
X187475000Y-69487500D01*
G75*
G02*
X187725000Y-69737500I0J-250000D01*
G01*
X187725000Y-70412500D01*
G75*
G02*
X187475000Y-70662500I-250000J0D01*
G01*
G37*
G36*
G01*
X198525000Y-113412500D02*
X199475000Y-113412500D01*
G75*
G02*
X199725000Y-113662500I0J-250000D01*
G01*
X199725000Y-114337500D01*
G75*
G02*
X199475000Y-114587500I-250000J0D01*
G01*
X198525000Y-114587500D01*
G75*
G02*
X198275000Y-114337500I0J250000D01*
G01*
X198275000Y-113662500D01*
G75*
G02*
X198525000Y-113412500I250000J0D01*
G01*
G37*
G36*
G01*
X198525000Y-111337500D02*
X199475000Y-111337500D01*
G75*
G02*
X199725000Y-111587500I0J-250000D01*
G01*
X199725000Y-112262500D01*
G75*
G02*
X199475000Y-112512500I-250000J0D01*
G01*
X198525000Y-112512500D01*
G75*
G02*
X198275000Y-112262500I0J250000D01*
G01*
X198275000Y-111587500D01*
G75*
G02*
X198525000Y-111337500I250000J0D01*
G01*
G37*
G36*
G01*
X181950000Y-68550000D02*
X181950000Y-67450000D01*
G75*
G02*
X182200000Y-67200000I250000J0D01*
G01*
X185200000Y-67200000D01*
G75*
G02*
X185450000Y-67450000I0J-250000D01*
G01*
X185450000Y-68550000D01*
G75*
G02*
X185200000Y-68800000I-250000J0D01*
G01*
X182200000Y-68800000D01*
G75*
G02*
X181950000Y-68550000I0J250000D01*
G01*
G37*
G36*
G01*
X176550000Y-68550000D02*
X176550000Y-67450000D01*
G75*
G02*
X176800000Y-67200000I250000J0D01*
G01*
X179800000Y-67200000D01*
G75*
G02*
X180050000Y-67450000I0J-250000D01*
G01*
X180050000Y-68550000D01*
G75*
G02*
X179800000Y-68800000I-250000J0D01*
G01*
X176800000Y-68800000D01*
G75*
G02*
X176550000Y-68550000I0J250000D01*
G01*
G37*
G36*
G01*
X221525000Y-113412500D02*
X222475000Y-113412500D01*
G75*
G02*
X222725000Y-113662500I0J-250000D01*
G01*
X222725000Y-114337500D01*
G75*
G02*
X222475000Y-114587500I-250000J0D01*
G01*
X221525000Y-114587500D01*
G75*
G02*
X221275000Y-114337500I0J250000D01*
G01*
X221275000Y-113662500D01*
G75*
G02*
X221525000Y-113412500I250000J0D01*
G01*
G37*
G36*
G01*
X221525000Y-111337500D02*
X222475000Y-111337500D01*
G75*
G02*
X222725000Y-111587500I0J-250000D01*
G01*
X222725000Y-112262500D01*
G75*
G02*
X222475000Y-112512500I-250000J0D01*
G01*
X221525000Y-112512500D01*
G75*
G02*
X221275000Y-112262500I0J250000D01*
G01*
X221275000Y-111587500D01*
G75*
G02*
X221525000Y-111337500I250000J0D01*
G01*
G37*
G36*
G01*
X174475000Y-52587500D02*
X173525000Y-52587500D01*
G75*
G02*
X173275000Y-52337500I0J250000D01*
G01*
X173275000Y-51662500D01*
G75*
G02*
X173525000Y-51412500I250000J0D01*
G01*
X174475000Y-51412500D01*
G75*
G02*
X174725000Y-51662500I0J-250000D01*
G01*
X174725000Y-52337500D01*
G75*
G02*
X174475000Y-52587500I-250000J0D01*
G01*
G37*
G36*
G01*
X174475000Y-54662500D02*
X173525000Y-54662500D01*
G75*
G02*
X173275000Y-54412500I0J250000D01*
G01*
X173275000Y-53737500D01*
G75*
G02*
X173525000Y-53487500I250000J0D01*
G01*
X174475000Y-53487500D01*
G75*
G02*
X174725000Y-53737500I0J-250000D01*
G01*
X174725000Y-54412500D01*
G75*
G02*
X174475000Y-54662500I-250000J0D01*
G01*
G37*
G36*
G01*
X224025000Y-112487500D02*
X224975000Y-112487500D01*
G75*
G02*
X225225000Y-112737500I0J-250000D01*
G01*
X225225000Y-113412500D01*
G75*
G02*
X224975000Y-113662500I-250000J0D01*
G01*
X224025000Y-113662500D01*
G75*
G02*
X223775000Y-113412500I0J250000D01*
G01*
X223775000Y-112737500D01*
G75*
G02*
X224025000Y-112487500I250000J0D01*
G01*
G37*
G36*
G01*
X224025000Y-110412500D02*
X224975000Y-110412500D01*
G75*
G02*
X225225000Y-110662500I0J-250000D01*
G01*
X225225000Y-111337500D01*
G75*
G02*
X224975000Y-111587500I-250000J0D01*
G01*
X224025000Y-111587500D01*
G75*
G02*
X223775000Y-111337500I0J250000D01*
G01*
X223775000Y-110662500D01*
G75*
G02*
X224025000Y-110412500I250000J0D01*
G01*
G37*
G36*
G01*
X180950000Y-54550000D02*
X180950000Y-53450000D01*
G75*
G02*
X181200000Y-53200000I250000J0D01*
G01*
X184200000Y-53200000D01*
G75*
G02*
X184450000Y-53450000I0J-250000D01*
G01*
X184450000Y-54550000D01*
G75*
G02*
X184200000Y-54800000I-250000J0D01*
G01*
X181200000Y-54800000D01*
G75*
G02*
X180950000Y-54550000I0J250000D01*
G01*
G37*
G36*
G01*
X175550000Y-54550000D02*
X175550000Y-53450000D01*
G75*
G02*
X175800000Y-53200000I250000J0D01*
G01*
X178800000Y-53200000D01*
G75*
G02*
X179050000Y-53450000I0J-250000D01*
G01*
X179050000Y-54550000D01*
G75*
G02*
X178800000Y-54800000I-250000J0D01*
G01*
X175800000Y-54800000D01*
G75*
G02*
X175550000Y-54550000I0J250000D01*
G01*
G37*
G36*
G01*
X185950000Y-88475000D02*
X185950000Y-87525000D01*
G75*
G02*
X186200000Y-87275000I250000J0D01*
G01*
X186875000Y-87275000D01*
G75*
G02*
X187125000Y-87525000I0J-250000D01*
G01*
X187125000Y-88475000D01*
G75*
G02*
X186875000Y-88725000I-250000J0D01*
G01*
X186200000Y-88725000D01*
G75*
G02*
X185950000Y-88475000I0J250000D01*
G01*
G37*
G36*
G01*
X183875000Y-88475000D02*
X183875000Y-87525000D01*
G75*
G02*
X184125000Y-87275000I250000J0D01*
G01*
X184800000Y-87275000D01*
G75*
G02*
X185050000Y-87525000I0J-250000D01*
G01*
X185050000Y-88475000D01*
G75*
G02*
X184800000Y-88725000I-250000J0D01*
G01*
X184125000Y-88725000D01*
G75*
G02*
X183875000Y-88475000I0J250000D01*
G01*
G37*
G36*
G01*
X230550000Y-72050000D02*
X229450000Y-72050000D01*
G75*
G02*
X229200000Y-71800000I0J250000D01*
G01*
X229200000Y-68800000D01*
G75*
G02*
X229450000Y-68550000I250000J0D01*
G01*
X230550000Y-68550000D01*
G75*
G02*
X230800000Y-68800000I0J-250000D01*
G01*
X230800000Y-71800000D01*
G75*
G02*
X230550000Y-72050000I-250000J0D01*
G01*
G37*
G36*
G01*
X230550000Y-77450000D02*
X229450000Y-77450000D01*
G75*
G02*
X229200000Y-77200000I0J250000D01*
G01*
X229200000Y-74200000D01*
G75*
G02*
X229450000Y-73950000I250000J0D01*
G01*
X230550000Y-73950000D01*
G75*
G02*
X230800000Y-74200000I0J-250000D01*
G01*
X230800000Y-77200000D01*
G75*
G02*
X230550000Y-77450000I-250000J0D01*
G01*
G37*
D31*
X253700000Y-59000000D03*
X241000000Y-76780000D03*
X253700000Y-61540000D03*
X241000000Y-74240000D03*
X253700000Y-64080000D03*
X241000000Y-71700000D03*
X253700000Y-66620000D03*
X241000000Y-69160000D03*
X253700000Y-69160000D03*
X241000000Y-66620000D03*
X253700000Y-71700000D03*
X241000000Y-64080000D03*
X253700000Y-74240000D03*
X241000000Y-61540000D03*
X253700000Y-76780000D03*
D32*
X241000000Y-59000000D03*
D31*
X219700000Y-59000000D03*
X207000000Y-76780000D03*
X219700000Y-61540000D03*
X207000000Y-74240000D03*
X219700000Y-64080000D03*
X207000000Y-71700000D03*
X219700000Y-66620000D03*
X207000000Y-69160000D03*
X219700000Y-69160000D03*
X207000000Y-66620000D03*
X219700000Y-71700000D03*
X207000000Y-64080000D03*
X219700000Y-74240000D03*
X207000000Y-61540000D03*
X219700000Y-76780000D03*
D32*
X207000000Y-59000000D03*
D31*
X202700000Y-59000000D03*
X190000000Y-76780000D03*
X202700000Y-61540000D03*
X190000000Y-74240000D03*
X202700000Y-64080000D03*
X190000000Y-71700000D03*
X202700000Y-66620000D03*
X190000000Y-69160000D03*
X202700000Y-69160000D03*
X190000000Y-66620000D03*
X202700000Y-71700000D03*
X190000000Y-64080000D03*
X202700000Y-74240000D03*
X190000000Y-61540000D03*
X202700000Y-76780000D03*
D32*
X190000000Y-59000000D03*
D31*
X236700000Y-59000000D03*
X224000000Y-76780000D03*
X236700000Y-61540000D03*
X224000000Y-74240000D03*
X236700000Y-64080000D03*
X224000000Y-71700000D03*
X236700000Y-66620000D03*
X224000000Y-69160000D03*
X236700000Y-69160000D03*
X224000000Y-66620000D03*
X236700000Y-71700000D03*
X224000000Y-64080000D03*
X236700000Y-74240000D03*
X224000000Y-61540000D03*
X236700000Y-76780000D03*
D32*
X224000000Y-59000000D03*
M02*
