M48
; DRILL file {KiCad (5.1.9)-1} date 04/30/21 00:53:19
; FORMAT={-:-/ absolute / metric / decimal}
; #@! TF.CreationDate,2021-04-30T00:53:19-05:00
; #@! TF.GenerationSoftware,Kicad,Pcbnew,(5.1.9)-1
; #@! TF.FileFunction,Plated,1,2,PTH
FMAT,2
METRIC
T1C0.300
T2C0.305
T3C0.750
T4C0.800
T5C0.950
T6C1.000
T7C1.300
%
G90
G05
T1
X210.51Y-104.25
X210.51Y-105.75
X211.26Y-103.5
X211.26Y-105.0
X211.26Y-106.5
X211.96Y-104.25
X211.96Y-105.75
X212.76Y-103.5
X212.76Y-105.0
X212.76Y-106.5
X213.51Y-104.25
X213.51Y-105.75
T2
X175.387Y-75.438
X175.514Y-61.595
X180.848Y-68.072
X181.864Y-94.742
X182.55Y-93.472
X183.388Y-96.012
X183.388Y-97.282
X183.845Y-61.595
X184.277Y-60.325
X184.531Y-74.422
X184.531Y-75.819
X185.42Y-70.104
X185.928Y-59.563
X186.055Y-73.406
X186.309Y-82.296
X186.563Y-89.408
X186.69Y-110.744
X186.817Y-58.801
X186.944Y-72.517
X187.198Y-101.092
X188.849Y-83.058
X193.04Y-88.519
X194.437Y-78.105
X194.691Y-104.816
X194.691Y-112.014
X197.104Y-88.138
X198.868Y-79.897
X199.009Y-115.189
X200.62Y-88.178
X202.057Y-88.519
X204.216Y-105.537
X204.216Y-107.061
X205.613Y-88.138
X207.01Y-88.138
X210.058Y-88.335
X211.582Y-92.837
X212.979Y-92.075
X213.884Y-77.987
X214.503Y-88.335
X214.685Y-78.308
X216.027Y-88.138
X216.281Y-83.82
X216.281Y-86.487
X219.083Y-89.281
X221.742Y-89.408
X222.014Y-82.474
X225.933Y-108.077
X225.933Y-113.538
X227.33Y-81.966
X228.219Y-116.459
X228.609Y-80.061
X228.981Y-88.519
X229.108Y-82.652
X229.362Y-85.725
X229.743Y-99.314
X229.794Y-92.71
X232.537Y-106.934
X232.918Y-91.059
X233.172Y-88.9
X233.206Y-85.33
X233.295Y-104.648
X233.422Y-98.044
X234.061Y-101.854
X236.093Y-83.566
X237.041Y-91.0
X237.22Y-104.505
X237.446Y-98.0
X239.079Y-75.249
X246.812Y-86.157
X253.492Y-79.375
X254.381Y-78.613
T3
X188.0Y-117.5
X190.0Y-117.5
X192.0Y-117.5
X194.0Y-117.5
X196.0Y-117.5
X198.0Y-117.5
T4
X190.0Y-59.0
X190.0Y-61.54
X190.0Y-64.08
X190.0Y-66.62
X190.0Y-69.16
X190.0Y-71.7
X190.0Y-74.24
X190.0Y-76.78
X202.7Y-59.0
X202.7Y-61.54
X202.7Y-64.08
X202.7Y-66.62
X202.7Y-69.16
X202.7Y-71.7
X202.7Y-74.24
X202.7Y-76.78
X207.0Y-59.0
X207.0Y-61.54
X207.0Y-64.08
X207.0Y-66.62
X207.0Y-69.16
X207.0Y-71.7
X207.0Y-74.24
X207.0Y-76.78
X219.7Y-59.0
X219.7Y-61.54
X219.7Y-64.08
X219.7Y-66.62
X219.7Y-69.16
X219.7Y-71.7
X219.7Y-74.24
X219.7Y-76.78
X224.0Y-59.0
X224.0Y-61.54
X224.0Y-64.08
X224.0Y-66.62
X224.0Y-69.16
X224.0Y-71.7
X224.0Y-74.24
X224.0Y-76.78
X236.7Y-59.0
X236.7Y-61.54
X236.7Y-64.08
X236.7Y-66.62
X236.7Y-69.16
X236.7Y-71.7
X236.7Y-74.24
X236.7Y-76.78
X241.0Y-59.0
X241.0Y-61.54
X241.0Y-64.08
X241.0Y-66.62
X241.0Y-69.16
X241.0Y-71.7
X241.0Y-74.24
X241.0Y-76.78
X253.7Y-59.0
X253.7Y-61.54
X253.7Y-64.08
X253.7Y-66.62
X253.7Y-69.16
X253.7Y-71.7
X253.7Y-74.24
X253.7Y-76.78
T5
X174.0Y-116.84
X176.5Y-116.84
X179.0Y-116.84
X181.5Y-116.84
X191.0Y-54.0
X193.5Y-54.0
X196.0Y-54.0
X198.5Y-54.0
X208.5Y-54.0
X211.0Y-54.0
X213.5Y-54.0
X216.0Y-54.0
X225.0Y-54.0
X227.5Y-54.0
X230.0Y-54.0
X232.5Y-54.0
X235.0Y-117.0
X237.5Y-117.0
X239.5Y-54.0
X240.0Y-82.0
X240.0Y-89.0
X240.0Y-96.0
X240.0Y-103.0
X240.0Y-110.0
X240.0Y-117.0
X242.0Y-54.0
X242.5Y-82.0
X242.5Y-89.0
X242.5Y-96.0
X242.5Y-103.0
X242.5Y-110.0
X242.5Y-117.0
X244.5Y-54.0
X245.0Y-82.0
X245.0Y-89.0
X245.0Y-96.0
X245.0Y-103.0
X245.0Y-110.0
X245.0Y-117.0
X247.0Y-54.0
X247.5Y-82.0
X247.5Y-89.0
X247.5Y-96.0
X247.5Y-103.0
X247.5Y-110.0
X247.5Y-117.0
X250.0Y-82.0
X250.0Y-89.0
X250.0Y-96.0
X250.0Y-103.0
X250.0Y-110.0
X252.5Y-82.0
X252.5Y-89.0
X252.5Y-96.0
X252.5Y-103.0
X252.5Y-110.0
T6
X168.0Y-94.0
X168.0Y-101.0
X168.0Y-108.0
X170.5Y-94.0
X170.5Y-101.0
X170.5Y-108.0
X177.0Y-94.0
X177.0Y-101.0
X177.0Y-108.0
X179.5Y-94.0
X179.5Y-101.0
X179.5Y-108.0
X195.46Y-59.92
X195.46Y-62.46
X195.46Y-65.0
X198.0Y-59.92
X198.0Y-62.46
X198.0Y-65.0
X212.0Y-60.0
X212.0Y-62.54
X212.0Y-65.08
X214.54Y-60.0
X214.54Y-62.54
X214.54Y-65.08
X229.0Y-60.0
X229.0Y-62.54
X229.0Y-65.08
X231.54Y-60.0
X231.54Y-62.54
X231.54Y-65.08
X247.0Y-60.0
X247.0Y-62.54
X247.0Y-65.08
X249.54Y-60.0
X249.54Y-62.54
X249.54Y-65.08
T7
X171.0Y-59.0
X171.0Y-64.0
X171.0Y-69.0
X171.0Y-74.0
T6
X173.5Y-83.0G85X173.5Y-85.0
G05
X175.5Y-88.7G85X177.5Y-88.7
G05
X179.5Y-83.0G85X179.5Y-85.0
G05
T0
M30
