%FSLAX45Y45*%
G04 Gerber Fmt 4.5, Leading zero omitted, Abs format (unit mm)*
G04 Created by KiCad (PCBNEW (5.1.9)-1) date 2021-04-30 00:53:20*
%MOMM*%
%LPD*%
G01*
G04 APERTURE LIST*
%TA.AperFunction,Profile*%
%ADD10C,0.050000*%
%TD*%
%ADD11C,0.200000*%
%ADD12C,0.300000*%
G04 APERTURE END LIST*
D10*
X25465000Y-5300000D02*
G75*
G03*
X25465000Y-5300000I-165000J0D01*
G01*
X25465000Y-11800000D02*
G75*
G03*
X25465000Y-11800000I-165000J0D01*
G01*
X16965000Y-11800000D02*
G75*
G03*
X16965000Y-11800000I-165000J0D01*
G01*
X16965000Y-5300000D02*
G75*
G03*
X16965000Y-5300000I-165000J0D01*
G01*
X25600000Y-12100000D02*
X16500000Y-12100000D01*
X25600000Y-5000000D02*
X25600000Y-12100000D01*
X16500000Y-5000000D02*
X25600000Y-5000000D01*
X16500000Y-12100000D02*
X16500000Y-5000000D01*
D11*
X21036000Y-10410000D02*
X21066000Y-10440000D01*
X21066000Y-10410000D02*
X21036000Y-10440000D01*
X21036000Y-10560000D02*
X21066000Y-10590000D01*
X21066000Y-10560000D02*
X21036000Y-10590000D01*
X21111000Y-10335000D02*
X21141000Y-10365000D01*
X21141000Y-10335000D02*
X21111000Y-10365000D01*
X21111000Y-10485000D02*
X21141000Y-10515000D01*
X21141000Y-10485000D02*
X21111000Y-10515000D01*
X21111000Y-10635000D02*
X21141000Y-10665000D01*
X21141000Y-10635000D02*
X21111000Y-10665000D01*
X21181000Y-10410000D02*
X21211000Y-10440000D01*
X21211000Y-10410000D02*
X21181000Y-10440000D01*
X21181000Y-10560000D02*
X21211000Y-10590000D01*
X21211000Y-10560000D02*
X21181000Y-10590000D01*
X21261000Y-10335000D02*
X21291000Y-10365000D01*
X21291000Y-10335000D02*
X21261000Y-10365000D01*
X21261000Y-10485000D02*
X21291000Y-10515000D01*
X21291000Y-10485000D02*
X21261000Y-10515000D01*
X21261000Y-10635000D02*
X21291000Y-10665000D01*
X21291000Y-10635000D02*
X21261000Y-10665000D01*
X21336000Y-10410000D02*
X21366000Y-10440000D01*
X21366000Y-10410000D02*
X21336000Y-10440000D01*
X21336000Y-10560000D02*
X21366000Y-10590000D01*
X21366000Y-10560000D02*
X21336000Y-10590000D01*
X17553940Y-7543800D02*
G75*
G03*
X17553940Y-7543800I-15240J0D01*
G01*
X17566640Y-6159500D02*
G75*
G03*
X17566640Y-6159500I-15240J0D01*
G01*
X18100040Y-6807200D02*
G75*
G03*
X18100040Y-6807200I-15240J0D01*
G01*
X18201640Y-9474200D02*
G75*
G03*
X18201640Y-9474200I-15240J0D01*
G01*
X18270220Y-9347200D02*
G75*
G03*
X18270220Y-9347200I-15240J0D01*
G01*
X18354040Y-9601200D02*
G75*
G03*
X18354040Y-9601200I-15240J0D01*
G01*
X18354040Y-9728200D02*
G75*
G03*
X18354040Y-9728200I-15240J0D01*
G01*
X18399760Y-6159500D02*
G75*
G03*
X18399760Y-6159500I-15240J0D01*
G01*
X18442940Y-6032500D02*
G75*
G03*
X18442940Y-6032500I-15240J0D01*
G01*
X18468340Y-7442200D02*
G75*
G03*
X18468340Y-7442200I-15240J0D01*
G01*
X18468340Y-7581900D02*
G75*
G03*
X18468340Y-7581900I-15240J0D01*
G01*
X18557240Y-7010400D02*
G75*
G03*
X18557240Y-7010400I-15240J0D01*
G01*
X18608040Y-5956300D02*
G75*
G03*
X18608040Y-5956300I-15240J0D01*
G01*
X18620740Y-7340600D02*
G75*
G03*
X18620740Y-7340600I-15240J0D01*
G01*
X18646140Y-8229600D02*
G75*
G03*
X18646140Y-8229600I-15240J0D01*
G01*
X18671540Y-8940800D02*
G75*
G03*
X18671540Y-8940800I-15240J0D01*
G01*
X18684240Y-11074400D02*
G75*
G03*
X18684240Y-11074400I-15240J0D01*
G01*
X18696940Y-5880100D02*
G75*
G03*
X18696940Y-5880100I-15240J0D01*
G01*
X18709640Y-7251700D02*
G75*
G03*
X18709640Y-7251700I-15240J0D01*
G01*
X18735040Y-10109200D02*
G75*
G03*
X18735040Y-10109200I-15240J0D01*
G01*
X18900140Y-8305800D02*
G75*
G03*
X18900140Y-8305800I-15240J0D01*
G01*
X19319240Y-8851900D02*
G75*
G03*
X19319240Y-8851900I-15240J0D01*
G01*
X19458940Y-7810500D02*
G75*
G03*
X19458940Y-7810500I-15240J0D01*
G01*
X19484340Y-10481614D02*
G75*
G03*
X19484340Y-10481614I-15240J0D01*
G01*
X19484340Y-11201400D02*
G75*
G03*
X19484340Y-11201400I-15240J0D01*
G01*
X19725640Y-8813800D02*
G75*
G03*
X19725640Y-8813800I-15240J0D01*
G01*
X19902036Y-7989704D02*
G75*
G03*
X19902036Y-7989704I-15240J0D01*
G01*
X19916140Y-11518900D02*
G75*
G03*
X19916140Y-11518900I-15240J0D01*
G01*
X20077239Y-8817801D02*
G75*
G03*
X20077239Y-8817801I-15240J0D01*
G01*
X20220940Y-8851900D02*
G75*
G03*
X20220940Y-8851900I-15240J0D01*
G01*
X20436840Y-10553700D02*
G75*
G03*
X20436840Y-10553700I-15240J0D01*
G01*
X20436840Y-10706100D02*
G75*
G03*
X20436840Y-10706100I-15240J0D01*
G01*
X20576540Y-8813800D02*
G75*
G03*
X20576540Y-8813800I-15240J0D01*
G01*
X20716240Y-8813800D02*
G75*
G03*
X20716240Y-8813800I-15240J0D01*
G01*
X21021040Y-8833480D02*
G75*
G03*
X21021040Y-8833480I-15240J0D01*
G01*
X21173440Y-9283700D02*
G75*
G03*
X21173440Y-9283700I-15240J0D01*
G01*
X21313140Y-9207500D02*
G75*
G03*
X21313140Y-9207500I-15240J0D01*
G01*
X21403636Y-7798659D02*
G75*
G03*
X21403636Y-7798659I-15240J0D01*
G01*
X21465540Y-8833480D02*
G75*
G03*
X21465540Y-8833480I-15240J0D01*
G01*
X21483786Y-7830819D02*
G75*
G03*
X21483786Y-7830819I-15240J0D01*
G01*
X21617940Y-8813800D02*
G75*
G03*
X21617940Y-8813800I-15240J0D01*
G01*
X21643340Y-8382000D02*
G75*
G03*
X21643340Y-8382000I-15240J0D01*
G01*
X21643340Y-8648700D02*
G75*
G03*
X21643340Y-8648700I-15240J0D01*
G01*
X21923560Y-8928100D02*
G75*
G03*
X21923560Y-8928100I-15240J0D01*
G01*
X22189440Y-8940800D02*
G75*
G03*
X22189440Y-8940800I-15240J0D01*
G01*
X22216660Y-8247382D02*
G75*
G03*
X22216660Y-8247382I-15240J0D01*
G01*
X22608540Y-10807700D02*
G75*
G03*
X22608540Y-10807700I-15240J0D01*
G01*
X22608540Y-11353800D02*
G75*
G03*
X22608540Y-11353800I-15240J0D01*
G01*
X22748240Y-8196581D02*
G75*
G03*
X22748240Y-8196581I-15240J0D01*
G01*
X22837140Y-11645900D02*
G75*
G03*
X22837140Y-11645900I-15240J0D01*
G01*
X22876120Y-8006080D02*
G75*
G03*
X22876120Y-8006080I-15240J0D01*
G01*
X22913340Y-8851900D02*
G75*
G03*
X22913340Y-8851900I-15240J0D01*
G01*
X22926040Y-8265162D02*
G75*
G03*
X22926040Y-8265162I-15240J0D01*
G01*
X22951440Y-8572500D02*
G75*
G03*
X22951440Y-8572500I-15240J0D01*
G01*
X22989540Y-9931400D02*
G75*
G03*
X22989540Y-9931400I-15240J0D01*
G01*
X22994620Y-9271000D02*
G75*
G03*
X22994620Y-9271000I-15240J0D01*
G01*
X23268940Y-10693400D02*
G75*
G03*
X23268940Y-10693400I-15240J0D01*
G01*
X23307040Y-9105900D02*
G75*
G03*
X23307040Y-9105900I-15240J0D01*
G01*
X23332440Y-8890000D02*
G75*
G03*
X23332440Y-8890000I-15240J0D01*
G01*
X23335886Y-8533021D02*
G75*
G03*
X23335886Y-8533021I-15240J0D01*
G01*
X23344760Y-10464800D02*
G75*
G03*
X23344760Y-10464800I-15240J0D01*
G01*
X23357460Y-9804400D02*
G75*
G03*
X23357460Y-9804400I-15240J0D01*
G01*
X23421340Y-10185400D02*
G75*
G03*
X23421340Y-10185400I-15240J0D01*
G01*
X23624540Y-8356600D02*
G75*
G03*
X23624540Y-8356600I-15240J0D01*
G01*
X23719340Y-9100000D02*
G75*
G03*
X23719340Y-9100000I-15240J0D01*
G01*
X23737240Y-10450500D02*
G75*
G03*
X23737240Y-10450500I-15240J0D01*
G01*
X23759840Y-9800000D02*
G75*
G03*
X23759840Y-9800000I-15240J0D01*
G01*
X23923096Y-7524856D02*
G75*
G03*
X23923096Y-7524856I-15240J0D01*
G01*
X24696483Y-8615743D02*
G75*
G03*
X24696483Y-8615743I-15240J0D01*
G01*
X25364441Y-7937500D02*
G75*
G03*
X25364441Y-7937500I-15240J0D01*
G01*
X25453340Y-7861300D02*
G75*
G03*
X25453340Y-7861300I-15240J0D01*
G01*
X18800000Y-11712500D02*
X18800000Y-11787500D01*
X18762500Y-11750000D02*
X18837500Y-11750000D01*
X19000000Y-11712500D02*
X19000000Y-11787500D01*
X18962500Y-11750000D02*
X19037500Y-11750000D01*
X19200000Y-11712500D02*
X19200000Y-11787500D01*
X19162500Y-11750000D02*
X19237500Y-11750000D01*
X19400000Y-11712500D02*
X19400000Y-11787500D01*
X19362500Y-11750000D02*
X19437500Y-11750000D01*
X19600000Y-11712500D02*
X19600000Y-11787500D01*
X19562500Y-11750000D02*
X19637500Y-11750000D01*
X19800000Y-11712500D02*
X19800000Y-11787500D01*
X19762500Y-11750000D02*
X19837500Y-11750000D01*
X19028285Y-5928284D02*
X19028285Y-5871715D01*
X18971716Y-5871715D01*
X18971716Y-5928284D01*
X19028285Y-5928284D01*
X19028285Y-6182284D02*
X19028285Y-6125715D01*
X18971716Y-6125715D01*
X18971716Y-6182284D01*
X19028285Y-6182284D01*
X19028285Y-6436284D02*
X19028285Y-6379715D01*
X18971716Y-6379715D01*
X18971716Y-6436284D01*
X19028285Y-6436284D01*
X19028285Y-6690284D02*
X19028285Y-6633715D01*
X18971716Y-6633715D01*
X18971716Y-6690284D01*
X19028285Y-6690284D01*
X19028285Y-6944284D02*
X19028285Y-6887715D01*
X18971716Y-6887715D01*
X18971716Y-6944284D01*
X19028285Y-6944284D01*
X19028285Y-7198284D02*
X19028285Y-7141715D01*
X18971716Y-7141715D01*
X18971716Y-7198284D01*
X19028285Y-7198284D01*
X19028285Y-7452284D02*
X19028285Y-7395715D01*
X18971716Y-7395715D01*
X18971716Y-7452284D01*
X19028285Y-7452284D01*
X19028285Y-7706284D02*
X19028285Y-7649715D01*
X18971716Y-7649715D01*
X18971716Y-7706284D01*
X19028285Y-7706284D01*
X20298285Y-5928284D02*
X20298285Y-5871715D01*
X20241716Y-5871715D01*
X20241716Y-5928284D01*
X20298285Y-5928284D01*
X20298285Y-6182284D02*
X20298285Y-6125715D01*
X20241716Y-6125715D01*
X20241716Y-6182284D01*
X20298285Y-6182284D01*
X20298285Y-6436284D02*
X20298285Y-6379715D01*
X20241716Y-6379715D01*
X20241716Y-6436284D01*
X20298285Y-6436284D01*
X20298285Y-6690284D02*
X20298285Y-6633715D01*
X20241716Y-6633715D01*
X20241716Y-6690284D01*
X20298285Y-6690284D01*
X20298285Y-6944284D02*
X20298285Y-6887715D01*
X20241716Y-6887715D01*
X20241716Y-6944284D01*
X20298285Y-6944284D01*
X20298285Y-7198284D02*
X20298285Y-7141715D01*
X20241716Y-7141715D01*
X20241716Y-7198284D01*
X20298285Y-7198284D01*
X20298285Y-7452284D02*
X20298285Y-7395715D01*
X20241716Y-7395715D01*
X20241716Y-7452284D01*
X20298285Y-7452284D01*
X20298285Y-7706284D02*
X20298285Y-7649715D01*
X20241716Y-7649715D01*
X20241716Y-7706284D01*
X20298285Y-7706284D01*
X20728285Y-5928284D02*
X20728285Y-5871715D01*
X20671716Y-5871715D01*
X20671716Y-5928284D01*
X20728285Y-5928284D01*
X20728285Y-6182284D02*
X20728285Y-6125715D01*
X20671716Y-6125715D01*
X20671716Y-6182284D01*
X20728285Y-6182284D01*
X20728285Y-6436284D02*
X20728285Y-6379715D01*
X20671716Y-6379715D01*
X20671716Y-6436284D01*
X20728285Y-6436284D01*
X20728285Y-6690284D02*
X20728285Y-6633715D01*
X20671716Y-6633715D01*
X20671716Y-6690284D01*
X20728285Y-6690284D01*
X20728285Y-6944284D02*
X20728285Y-6887715D01*
X20671716Y-6887715D01*
X20671716Y-6944284D01*
X20728285Y-6944284D01*
X20728285Y-7198284D02*
X20728285Y-7141715D01*
X20671716Y-7141715D01*
X20671716Y-7198284D01*
X20728285Y-7198284D01*
X20728285Y-7452284D02*
X20728285Y-7395715D01*
X20671716Y-7395715D01*
X20671716Y-7452284D01*
X20728285Y-7452284D01*
X20728285Y-7706284D02*
X20728285Y-7649715D01*
X20671716Y-7649715D01*
X20671716Y-7706284D01*
X20728285Y-7706284D01*
X21998285Y-5928284D02*
X21998285Y-5871715D01*
X21941716Y-5871715D01*
X21941716Y-5928284D01*
X21998285Y-5928284D01*
X21998285Y-6182284D02*
X21998285Y-6125715D01*
X21941716Y-6125715D01*
X21941716Y-6182284D01*
X21998285Y-6182284D01*
X21998285Y-6436284D02*
X21998285Y-6379715D01*
X21941716Y-6379715D01*
X21941716Y-6436284D01*
X21998285Y-6436284D01*
X21998285Y-6690284D02*
X21998285Y-6633715D01*
X21941716Y-6633715D01*
X21941716Y-6690284D01*
X21998285Y-6690284D01*
X21998285Y-6944284D02*
X21998285Y-6887715D01*
X21941716Y-6887715D01*
X21941716Y-6944284D01*
X21998285Y-6944284D01*
X21998285Y-7198284D02*
X21998285Y-7141715D01*
X21941716Y-7141715D01*
X21941716Y-7198284D01*
X21998285Y-7198284D01*
X21998285Y-7452284D02*
X21998285Y-7395715D01*
X21941716Y-7395715D01*
X21941716Y-7452284D01*
X21998285Y-7452284D01*
X21998285Y-7706284D02*
X21998285Y-7649715D01*
X21941716Y-7649715D01*
X21941716Y-7706284D01*
X21998285Y-7706284D01*
X22428284Y-5928284D02*
X22428284Y-5871715D01*
X22371715Y-5871715D01*
X22371715Y-5928284D01*
X22428284Y-5928284D01*
X22428284Y-6182284D02*
X22428284Y-6125715D01*
X22371715Y-6125715D01*
X22371715Y-6182284D01*
X22428284Y-6182284D01*
X22428284Y-6436284D02*
X22428284Y-6379715D01*
X22371715Y-6379715D01*
X22371715Y-6436284D01*
X22428284Y-6436284D01*
X22428284Y-6690284D02*
X22428284Y-6633715D01*
X22371715Y-6633715D01*
X22371715Y-6690284D01*
X22428284Y-6690284D01*
X22428284Y-6944284D02*
X22428284Y-6887715D01*
X22371715Y-6887715D01*
X22371715Y-6944284D01*
X22428284Y-6944284D01*
X22428284Y-7198284D02*
X22428284Y-7141715D01*
X22371715Y-7141715D01*
X22371715Y-7198284D01*
X22428284Y-7198284D01*
X22428284Y-7452284D02*
X22428284Y-7395715D01*
X22371715Y-7395715D01*
X22371715Y-7452284D01*
X22428284Y-7452284D01*
X22428284Y-7706284D02*
X22428284Y-7649715D01*
X22371715Y-7649715D01*
X22371715Y-7706284D01*
X22428284Y-7706284D01*
X23698284Y-5928284D02*
X23698284Y-5871715D01*
X23641715Y-5871715D01*
X23641715Y-5928284D01*
X23698284Y-5928284D01*
X23698284Y-6182284D02*
X23698284Y-6125715D01*
X23641715Y-6125715D01*
X23641715Y-6182284D01*
X23698284Y-6182284D01*
X23698284Y-6436284D02*
X23698284Y-6379715D01*
X23641715Y-6379715D01*
X23641715Y-6436284D01*
X23698284Y-6436284D01*
X23698284Y-6690284D02*
X23698284Y-6633715D01*
X23641715Y-6633715D01*
X23641715Y-6690284D01*
X23698284Y-6690284D01*
X23698284Y-6944284D02*
X23698284Y-6887715D01*
X23641715Y-6887715D01*
X23641715Y-6944284D01*
X23698284Y-6944284D01*
X23698284Y-7198284D02*
X23698284Y-7141715D01*
X23641715Y-7141715D01*
X23641715Y-7198284D01*
X23698284Y-7198284D01*
X23698284Y-7452284D02*
X23698284Y-7395715D01*
X23641715Y-7395715D01*
X23641715Y-7452284D01*
X23698284Y-7452284D01*
X23698284Y-7706284D02*
X23698284Y-7649715D01*
X23641715Y-7649715D01*
X23641715Y-7706284D01*
X23698284Y-7706284D01*
X24128284Y-5928284D02*
X24128284Y-5871715D01*
X24071715Y-5871715D01*
X24071715Y-5928284D01*
X24128284Y-5928284D01*
X24128284Y-6182284D02*
X24128284Y-6125715D01*
X24071715Y-6125715D01*
X24071715Y-6182284D01*
X24128284Y-6182284D01*
X24128284Y-6436284D02*
X24128284Y-6379715D01*
X24071715Y-6379715D01*
X24071715Y-6436284D01*
X24128284Y-6436284D01*
X24128284Y-6690284D02*
X24128284Y-6633715D01*
X24071715Y-6633715D01*
X24071715Y-6690284D01*
X24128284Y-6690284D01*
X24128284Y-6944284D02*
X24128284Y-6887715D01*
X24071715Y-6887715D01*
X24071715Y-6944284D01*
X24128284Y-6944284D01*
X24128284Y-7198284D02*
X24128284Y-7141715D01*
X24071715Y-7141715D01*
X24071715Y-7198284D01*
X24128284Y-7198284D01*
X24128284Y-7452284D02*
X24128284Y-7395715D01*
X24071715Y-7395715D01*
X24071715Y-7452284D01*
X24128284Y-7452284D01*
X24128284Y-7706284D02*
X24128284Y-7649715D01*
X24071715Y-7649715D01*
X24071715Y-7706284D01*
X24128284Y-7706284D01*
X25398284Y-5928284D02*
X25398284Y-5871715D01*
X25341715Y-5871715D01*
X25341715Y-5928284D01*
X25398284Y-5928284D01*
X25398284Y-6182284D02*
X25398284Y-6125715D01*
X25341715Y-6125715D01*
X25341715Y-6182284D01*
X25398284Y-6182284D01*
X25398284Y-6436284D02*
X25398284Y-6379715D01*
X25341715Y-6379715D01*
X25341715Y-6436284D01*
X25398284Y-6436284D01*
X25398284Y-6690284D02*
X25398284Y-6633715D01*
X25341715Y-6633715D01*
X25341715Y-6690284D01*
X25398284Y-6690284D01*
X25398284Y-6944284D02*
X25398284Y-6887715D01*
X25341715Y-6887715D01*
X25341715Y-6944284D01*
X25398284Y-6944284D01*
X25398284Y-7198284D02*
X25398284Y-7141715D01*
X25341715Y-7141715D01*
X25341715Y-7198284D01*
X25398284Y-7198284D01*
X25398284Y-7452284D02*
X25398284Y-7395715D01*
X25341715Y-7395715D01*
X25341715Y-7452284D01*
X25398284Y-7452284D01*
X25398284Y-7706284D02*
X25398284Y-7649715D01*
X25341715Y-7649715D01*
X25341715Y-7706284D01*
X25398284Y-7706284D01*
X17400000Y-11731500D02*
X17447500Y-11684000D01*
X17400000Y-11636500D01*
X17352500Y-11684000D01*
X17400000Y-11731500D01*
X17650000Y-11731500D02*
X17697500Y-11684000D01*
X17650000Y-11636500D01*
X17602500Y-11684000D01*
X17650000Y-11731500D01*
X17900000Y-11731500D02*
X17947500Y-11684000D01*
X17900000Y-11636500D01*
X17852500Y-11684000D01*
X17900000Y-11731500D01*
X18150000Y-11731500D02*
X18197500Y-11684000D01*
X18150000Y-11636500D01*
X18102500Y-11684000D01*
X18150000Y-11731500D01*
X19100000Y-5447500D02*
X19147500Y-5400000D01*
X19100000Y-5352500D01*
X19052500Y-5400000D01*
X19100000Y-5447500D01*
X19350000Y-5447500D02*
X19397500Y-5400000D01*
X19350000Y-5352500D01*
X19302500Y-5400000D01*
X19350000Y-5447500D01*
X19600000Y-5447500D02*
X19647500Y-5400000D01*
X19600000Y-5352500D01*
X19552500Y-5400000D01*
X19600000Y-5447500D01*
X19850000Y-5447500D02*
X19897500Y-5400000D01*
X19850000Y-5352500D01*
X19802500Y-5400000D01*
X19850000Y-5447500D01*
X20850000Y-5447500D02*
X20897500Y-5400000D01*
X20850000Y-5352500D01*
X20802500Y-5400000D01*
X20850000Y-5447500D01*
X21100000Y-5447500D02*
X21147500Y-5400000D01*
X21100000Y-5352500D01*
X21052500Y-5400000D01*
X21100000Y-5447500D01*
X21350000Y-5447500D02*
X21397500Y-5400000D01*
X21350000Y-5352500D01*
X21302500Y-5400000D01*
X21350000Y-5447500D01*
X21600000Y-5447500D02*
X21647500Y-5400000D01*
X21600000Y-5352500D01*
X21552500Y-5400000D01*
X21600000Y-5447500D01*
X22500000Y-5447500D02*
X22547500Y-5400000D01*
X22500000Y-5352500D01*
X22452500Y-5400000D01*
X22500000Y-5447500D01*
X22750000Y-5447500D02*
X22797500Y-5400000D01*
X22750000Y-5352500D01*
X22702500Y-5400000D01*
X22750000Y-5447500D01*
X23000000Y-5447500D02*
X23047500Y-5400000D01*
X23000000Y-5352500D01*
X22952500Y-5400000D01*
X23000000Y-5447500D01*
X23250000Y-5447500D02*
X23297500Y-5400000D01*
X23250000Y-5352500D01*
X23202500Y-5400000D01*
X23250000Y-5447500D01*
X23500000Y-11747500D02*
X23547500Y-11700000D01*
X23500000Y-11652500D01*
X23452500Y-11700000D01*
X23500000Y-11747500D01*
X23750000Y-11747500D02*
X23797500Y-11700000D01*
X23750000Y-11652500D01*
X23702500Y-11700000D01*
X23750000Y-11747500D01*
X23950000Y-5447500D02*
X23997500Y-5400000D01*
X23950000Y-5352500D01*
X23902500Y-5400000D01*
X23950000Y-5447500D01*
X24000000Y-8247500D02*
X24047500Y-8200000D01*
X24000000Y-8152500D01*
X23952500Y-8200000D01*
X24000000Y-8247500D01*
X24000000Y-8947500D02*
X24047500Y-8900000D01*
X24000000Y-8852500D01*
X23952500Y-8900000D01*
X24000000Y-8947500D01*
X24000000Y-9647500D02*
X24047500Y-9600000D01*
X24000000Y-9552500D01*
X23952500Y-9600000D01*
X24000000Y-9647500D01*
X24000000Y-10347500D02*
X24047500Y-10300000D01*
X24000000Y-10252500D01*
X23952500Y-10300000D01*
X24000000Y-10347500D01*
X24000000Y-11047500D02*
X24047500Y-11000000D01*
X24000000Y-10952500D01*
X23952500Y-11000000D01*
X24000000Y-11047500D01*
X24000000Y-11747500D02*
X24047500Y-11700000D01*
X24000000Y-11652500D01*
X23952500Y-11700000D01*
X24000000Y-11747500D01*
X24200000Y-5447500D02*
X24247500Y-5400000D01*
X24200000Y-5352500D01*
X24152500Y-5400000D01*
X24200000Y-5447500D01*
X24250000Y-8247500D02*
X24297500Y-8200000D01*
X24250000Y-8152500D01*
X24202500Y-8200000D01*
X24250000Y-8247500D01*
X24250000Y-8947500D02*
X24297500Y-8900000D01*
X24250000Y-8852500D01*
X24202500Y-8900000D01*
X24250000Y-8947500D01*
X24250000Y-9647500D02*
X24297500Y-9600000D01*
X24250000Y-9552500D01*
X24202500Y-9600000D01*
X24250000Y-9647500D01*
X24250000Y-10347500D02*
X24297500Y-10300000D01*
X24250000Y-10252500D01*
X24202500Y-10300000D01*
X24250000Y-10347500D01*
X24250000Y-11047500D02*
X24297500Y-11000000D01*
X24250000Y-10952500D01*
X24202500Y-11000000D01*
X24250000Y-11047500D01*
X24250000Y-11747500D02*
X24297500Y-11700000D01*
X24250000Y-11652500D01*
X24202500Y-11700000D01*
X24250000Y-11747500D01*
X24450000Y-5447500D02*
X24497500Y-5400000D01*
X24450000Y-5352500D01*
X24402500Y-5400000D01*
X24450000Y-5447500D01*
X24500000Y-8247500D02*
X24547500Y-8200000D01*
X24500000Y-8152500D01*
X24452500Y-8200000D01*
X24500000Y-8247500D01*
X24500000Y-8947500D02*
X24547500Y-8900000D01*
X24500000Y-8852500D01*
X24452500Y-8900000D01*
X24500000Y-8947500D01*
X24500000Y-9647500D02*
X24547500Y-9600000D01*
X24500000Y-9552500D01*
X24452500Y-9600000D01*
X24500000Y-9647500D01*
X24500000Y-10347500D02*
X24547500Y-10300000D01*
X24500000Y-10252500D01*
X24452500Y-10300000D01*
X24500000Y-10347500D01*
X24500000Y-11047500D02*
X24547500Y-11000000D01*
X24500000Y-10952500D01*
X24452500Y-11000000D01*
X24500000Y-11047500D01*
X24500000Y-11747500D02*
X24547500Y-11700000D01*
X24500000Y-11652500D01*
X24452500Y-11700000D01*
X24500000Y-11747500D01*
X24700000Y-5447500D02*
X24747500Y-5400000D01*
X24700000Y-5352500D01*
X24652500Y-5400000D01*
X24700000Y-5447500D01*
X24750000Y-8247500D02*
X24797500Y-8200000D01*
X24750000Y-8152500D01*
X24702500Y-8200000D01*
X24750000Y-8247500D01*
X24750000Y-8947500D02*
X24797500Y-8900000D01*
X24750000Y-8852500D01*
X24702500Y-8900000D01*
X24750000Y-8947500D01*
X24750000Y-9647500D02*
X24797500Y-9600000D01*
X24750000Y-9552500D01*
X24702500Y-9600000D01*
X24750000Y-9647500D01*
X24750000Y-10347500D02*
X24797500Y-10300000D01*
X24750000Y-10252500D01*
X24702500Y-10300000D01*
X24750000Y-10347500D01*
X24750000Y-11047500D02*
X24797500Y-11000000D01*
X24750000Y-10952500D01*
X24702500Y-11000000D01*
X24750000Y-11047500D01*
X24750000Y-11747500D02*
X24797500Y-11700000D01*
X24750000Y-11652500D01*
X24702500Y-11700000D01*
X24750000Y-11747500D01*
X25000000Y-8247500D02*
X25047500Y-8200000D01*
X25000000Y-8152500D01*
X24952500Y-8200000D01*
X25000000Y-8247500D01*
X25000000Y-8947500D02*
X25047500Y-8900000D01*
X25000000Y-8852500D01*
X24952500Y-8900000D01*
X25000000Y-8947500D01*
X25000000Y-9647500D02*
X25047500Y-9600000D01*
X25000000Y-9552500D01*
X24952500Y-9600000D01*
X25000000Y-9647500D01*
X25000000Y-10347500D02*
X25047500Y-10300000D01*
X25000000Y-10252500D01*
X24952500Y-10300000D01*
X25000000Y-10347500D01*
X25000000Y-11047500D02*
X25047500Y-11000000D01*
X25000000Y-10952500D01*
X24952500Y-11000000D01*
X25000000Y-11047500D01*
X25250000Y-8247500D02*
X25297500Y-8200000D01*
X25250000Y-8152500D01*
X25202500Y-8200000D01*
X25250000Y-8247500D01*
X25250000Y-8947500D02*
X25297500Y-8900000D01*
X25250000Y-8852500D01*
X25202500Y-8900000D01*
X25250000Y-8947500D01*
X25250000Y-9647500D02*
X25297500Y-9600000D01*
X25250000Y-9552500D01*
X25202500Y-9600000D01*
X25250000Y-9647500D01*
X25250000Y-10347500D02*
X25297500Y-10300000D01*
X25250000Y-10252500D01*
X25202500Y-10300000D01*
X25250000Y-10347500D01*
X25250000Y-11047500D02*
X25297500Y-11000000D01*
X25250000Y-10952500D01*
X25202500Y-11000000D01*
X25250000Y-11047500D01*
X16750000Y-9350000D02*
X16850000Y-9450000D01*
X16850000Y-9350000D02*
X16750000Y-9450000D01*
X16850000Y-9400000D02*
G75*
G03*
X16850000Y-9400000I-50000J0D01*
G01*
X16750000Y-10050000D02*
X16850000Y-10150000D01*
X16850000Y-10050000D02*
X16750000Y-10150000D01*
X16850000Y-10100000D02*
G75*
G03*
X16850000Y-10100000I-50000J0D01*
G01*
X16750000Y-10750000D02*
X16850000Y-10850000D01*
X16850000Y-10750000D02*
X16750000Y-10850000D01*
X16850000Y-10800000D02*
G75*
G03*
X16850000Y-10800000I-50000J0D01*
G01*
X17000000Y-9350000D02*
X17100000Y-9450000D01*
X17100000Y-9350000D02*
X17000000Y-9450000D01*
X17100000Y-9400000D02*
G75*
G03*
X17100000Y-9400000I-50000J0D01*
G01*
X17000000Y-10050000D02*
X17100000Y-10150000D01*
X17100000Y-10050000D02*
X17000000Y-10150000D01*
X17100000Y-10100000D02*
G75*
G03*
X17100000Y-10100000I-50000J0D01*
G01*
X17000000Y-10750000D02*
X17100000Y-10850000D01*
X17100000Y-10750000D02*
X17000000Y-10850000D01*
X17100000Y-10800000D02*
G75*
G03*
X17100000Y-10800000I-50000J0D01*
G01*
X17300000Y-8350000D02*
X17400000Y-8450000D01*
X17400000Y-8350000D02*
X17300000Y-8450000D01*
X17400000Y-8400000D02*
G75*
G03*
X17400000Y-8400000I-50000J0D01*
G01*
X17310000Y-8300000D02*
X17310000Y-8500000D01*
X17390000Y-8300000D02*
X17390000Y-8500000D01*
X17310000Y-8500000D02*
G75*
G03*
X17390000Y-8500000I40000J0D01*
G01*
X17390000Y-8300000D02*
G75*
G03*
X17310000Y-8300000I-40000J0D01*
G01*
X17600000Y-8820000D02*
X17700000Y-8920000D01*
X17700000Y-8820000D02*
X17600000Y-8920000D01*
X17700000Y-8870000D02*
G75*
G03*
X17700000Y-8870000I-50000J0D01*
G01*
X17550000Y-8910000D02*
X17750000Y-8910000D01*
X17550000Y-8830000D02*
X17750000Y-8830000D01*
X17750000Y-8910000D02*
G75*
G03*
X17750000Y-8830000I0J40000D01*
G01*
X17550000Y-8830000D02*
G75*
G03*
X17550000Y-8910000I0J-40000D01*
G01*
X17650000Y-9350000D02*
X17750000Y-9450000D01*
X17750000Y-9350000D02*
X17650000Y-9450000D01*
X17750000Y-9400000D02*
G75*
G03*
X17750000Y-9400000I-50000J0D01*
G01*
X17650000Y-10050000D02*
X17750000Y-10150000D01*
X17750000Y-10050000D02*
X17650000Y-10150000D01*
X17750000Y-10100000D02*
G75*
G03*
X17750000Y-10100000I-50000J0D01*
G01*
X17650000Y-10750000D02*
X17750000Y-10850000D01*
X17750000Y-10750000D02*
X17650000Y-10850000D01*
X17750000Y-10800000D02*
G75*
G03*
X17750000Y-10800000I-50000J0D01*
G01*
X17900000Y-8350000D02*
X18000000Y-8450000D01*
X18000000Y-8350000D02*
X17900000Y-8450000D01*
X18000000Y-8400000D02*
G75*
G03*
X18000000Y-8400000I-50000J0D01*
G01*
X17910000Y-8300000D02*
X17910000Y-8500000D01*
X17990000Y-8300000D02*
X17990000Y-8500000D01*
X17910000Y-8500000D02*
G75*
G03*
X17990000Y-8500000I40000J0D01*
G01*
X17990000Y-8300000D02*
G75*
G03*
X17910000Y-8300000I-40000J0D01*
G01*
X17900000Y-9350000D02*
X18000000Y-9450000D01*
X18000000Y-9350000D02*
X17900000Y-9450000D01*
X18000000Y-9400000D02*
G75*
G03*
X18000000Y-9400000I-50000J0D01*
G01*
X17900000Y-10050000D02*
X18000000Y-10150000D01*
X18000000Y-10050000D02*
X17900000Y-10150000D01*
X18000000Y-10100000D02*
G75*
G03*
X18000000Y-10100000I-50000J0D01*
G01*
X17900000Y-10750000D02*
X18000000Y-10850000D01*
X18000000Y-10750000D02*
X17900000Y-10850000D01*
X18000000Y-10800000D02*
G75*
G03*
X18000000Y-10800000I-50000J0D01*
G01*
X19496000Y-5942000D02*
X19596000Y-6042000D01*
X19596000Y-5942000D02*
X19496000Y-6042000D01*
X19596000Y-5992000D02*
G75*
G03*
X19596000Y-5992000I-50000J0D01*
G01*
X19496000Y-6196000D02*
X19596000Y-6296000D01*
X19596000Y-6196000D02*
X19496000Y-6296000D01*
X19596000Y-6246000D02*
G75*
G03*
X19596000Y-6246000I-50000J0D01*
G01*
X19496000Y-6450000D02*
X19596000Y-6550000D01*
X19596000Y-6450000D02*
X19496000Y-6550000D01*
X19596000Y-6500000D02*
G75*
G03*
X19596000Y-6500000I-50000J0D01*
G01*
X19750000Y-5942000D02*
X19850000Y-6042000D01*
X19850000Y-5942000D02*
X19750000Y-6042000D01*
X19850000Y-5992000D02*
G75*
G03*
X19850000Y-5992000I-50000J0D01*
G01*
X19750000Y-6196000D02*
X19850000Y-6296000D01*
X19850000Y-6196000D02*
X19750000Y-6296000D01*
X19850000Y-6246000D02*
G75*
G03*
X19850000Y-6246000I-50000J0D01*
G01*
X19750000Y-6450000D02*
X19850000Y-6550000D01*
X19850000Y-6450000D02*
X19750000Y-6550000D01*
X19850000Y-6500000D02*
G75*
G03*
X19850000Y-6500000I-50000J0D01*
G01*
X21150000Y-5950000D02*
X21250000Y-6050000D01*
X21250000Y-5950000D02*
X21150000Y-6050000D01*
X21250000Y-6000000D02*
G75*
G03*
X21250000Y-6000000I-50000J0D01*
G01*
X21150000Y-6204000D02*
X21250000Y-6304000D01*
X21250000Y-6204000D02*
X21150000Y-6304000D01*
X21250000Y-6254000D02*
G75*
G03*
X21250000Y-6254000I-50000J0D01*
G01*
X21150000Y-6458000D02*
X21250000Y-6558000D01*
X21250000Y-6458000D02*
X21150000Y-6558000D01*
X21250000Y-6508000D02*
G75*
G03*
X21250000Y-6508000I-50000J0D01*
G01*
X21404000Y-5950000D02*
X21504000Y-6050000D01*
X21504000Y-5950000D02*
X21404000Y-6050000D01*
X21504000Y-6000000D02*
G75*
G03*
X21504000Y-6000000I-50000J0D01*
G01*
X21404000Y-6204000D02*
X21504000Y-6304000D01*
X21504000Y-6204000D02*
X21404000Y-6304000D01*
X21504000Y-6254000D02*
G75*
G03*
X21504000Y-6254000I-50000J0D01*
G01*
X21404000Y-6458000D02*
X21504000Y-6558000D01*
X21504000Y-6458000D02*
X21404000Y-6558000D01*
X21504000Y-6508000D02*
G75*
G03*
X21504000Y-6508000I-50000J0D01*
G01*
X22850000Y-5950000D02*
X22950000Y-6050000D01*
X22950000Y-5950000D02*
X22850000Y-6050000D01*
X22950000Y-6000000D02*
G75*
G03*
X22950000Y-6000000I-50000J0D01*
G01*
X22850000Y-6204000D02*
X22950000Y-6304000D01*
X22950000Y-6204000D02*
X22850000Y-6304000D01*
X22950000Y-6254000D02*
G75*
G03*
X22950000Y-6254000I-50000J0D01*
G01*
X22850000Y-6458000D02*
X22950000Y-6558000D01*
X22950000Y-6458000D02*
X22850000Y-6558000D01*
X22950000Y-6508000D02*
G75*
G03*
X22950000Y-6508000I-50000J0D01*
G01*
X23104000Y-5950000D02*
X23204000Y-6050000D01*
X23204000Y-5950000D02*
X23104000Y-6050000D01*
X23204000Y-6000000D02*
G75*
G03*
X23204000Y-6000000I-50000J0D01*
G01*
X23104000Y-6204000D02*
X23204000Y-6304000D01*
X23204000Y-6204000D02*
X23104000Y-6304000D01*
X23204000Y-6254000D02*
G75*
G03*
X23204000Y-6254000I-50000J0D01*
G01*
X23104000Y-6458000D02*
X23204000Y-6558000D01*
X23204000Y-6458000D02*
X23104000Y-6558000D01*
X23204000Y-6508000D02*
G75*
G03*
X23204000Y-6508000I-50000J0D01*
G01*
X24650000Y-5950000D02*
X24750000Y-6050000D01*
X24750000Y-5950000D02*
X24650000Y-6050000D01*
X24750000Y-6000000D02*
G75*
G03*
X24750000Y-6000000I-50000J0D01*
G01*
X24650000Y-6204000D02*
X24750000Y-6304000D01*
X24750000Y-6204000D02*
X24650000Y-6304000D01*
X24750000Y-6254000D02*
G75*
G03*
X24750000Y-6254000I-50000J0D01*
G01*
X24650000Y-6458000D02*
X24750000Y-6558000D01*
X24750000Y-6458000D02*
X24650000Y-6558000D01*
X24750000Y-6508000D02*
G75*
G03*
X24750000Y-6508000I-50000J0D01*
G01*
X24904000Y-5950000D02*
X25004000Y-6050000D01*
X25004000Y-5950000D02*
X24904000Y-6050000D01*
X25004000Y-6000000D02*
G75*
G03*
X25004000Y-6000000I-50000J0D01*
G01*
X24904000Y-6204000D02*
X25004000Y-6304000D01*
X25004000Y-6204000D02*
X24904000Y-6304000D01*
X25004000Y-6254000D02*
G75*
G03*
X25004000Y-6254000I-50000J0D01*
G01*
X24904000Y-6458000D02*
X25004000Y-6558000D01*
X25004000Y-6458000D02*
X24904000Y-6558000D01*
X25004000Y-6508000D02*
G75*
G03*
X25004000Y-6508000I-50000J0D01*
G01*
X17035000Y-5835000D02*
X17165000Y-5965000D01*
X17165000Y-5835000D02*
X17035000Y-5965000D01*
X17100000Y-5835000D02*
X17100000Y-5965000D01*
X17035000Y-5900000D02*
X17165000Y-5900000D01*
X17035000Y-6335000D02*
X17165000Y-6465000D01*
X17165000Y-6335000D02*
X17035000Y-6465000D01*
X17100000Y-6335000D02*
X17100000Y-6465000D01*
X17035000Y-6400000D02*
X17165000Y-6400000D01*
X17035000Y-6835000D02*
X17165000Y-6965000D01*
X17165000Y-6835000D02*
X17035000Y-6965000D01*
X17100000Y-6835000D02*
X17100000Y-6965000D01*
X17035000Y-6900000D02*
X17165000Y-6900000D01*
X17035000Y-7335000D02*
X17165000Y-7465000D01*
X17165000Y-7335000D02*
X17035000Y-7465000D01*
X17100000Y-7335000D02*
X17100000Y-7465000D01*
X17035000Y-7400000D02*
X17165000Y-7400000D01*
D12*
X16783928Y-12568214D02*
X16783928Y-12268214D01*
X16855357Y-12268214D01*
X16898214Y-12282500D01*
X16926786Y-12311071D01*
X16941071Y-12339643D01*
X16955357Y-12396786D01*
X16955357Y-12439643D01*
X16941071Y-12496786D01*
X16926786Y-12525357D01*
X16898214Y-12553929D01*
X16855357Y-12568214D01*
X16783928Y-12568214D01*
X17083928Y-12568214D02*
X17083928Y-12368214D01*
X17083928Y-12425357D02*
X17098214Y-12396786D01*
X17112500Y-12382500D01*
X17141071Y-12368214D01*
X17169643Y-12368214D01*
X17269643Y-12568214D02*
X17269643Y-12368214D01*
X17269643Y-12268214D02*
X17255357Y-12282500D01*
X17269643Y-12296786D01*
X17283928Y-12282500D01*
X17269643Y-12268214D01*
X17269643Y-12296786D01*
X17455357Y-12568214D02*
X17426786Y-12553929D01*
X17412500Y-12525357D01*
X17412500Y-12268214D01*
X17612500Y-12568214D02*
X17583928Y-12553929D01*
X17569643Y-12525357D01*
X17569643Y-12268214D01*
X17955357Y-12568214D02*
X17955357Y-12268214D01*
X18055357Y-12482500D01*
X18155357Y-12268214D01*
X18155357Y-12568214D01*
X18426786Y-12568214D02*
X18426786Y-12411071D01*
X18412500Y-12382500D01*
X18383928Y-12368214D01*
X18326786Y-12368214D01*
X18298214Y-12382500D01*
X18426786Y-12553929D02*
X18398214Y-12568214D01*
X18326786Y-12568214D01*
X18298214Y-12553929D01*
X18283928Y-12525357D01*
X18283928Y-12496786D01*
X18298214Y-12468214D01*
X18326786Y-12453929D01*
X18398214Y-12453929D01*
X18426786Y-12439643D01*
X18569643Y-12368214D02*
X18569643Y-12668214D01*
X18569643Y-12382500D02*
X18598214Y-12368214D01*
X18655357Y-12368214D01*
X18683928Y-12382500D01*
X18698214Y-12396786D01*
X18712500Y-12425357D01*
X18712500Y-12511071D01*
X18698214Y-12539643D01*
X18683928Y-12553929D01*
X18655357Y-12568214D01*
X18598214Y-12568214D01*
X18569643Y-12553929D01*
X18841071Y-12539643D02*
X18855357Y-12553929D01*
X18841071Y-12568214D01*
X18826786Y-12553929D01*
X18841071Y-12539643D01*
X18841071Y-12568214D01*
X18841071Y-12382500D02*
X18855357Y-12396786D01*
X18841071Y-12411071D01*
X18826786Y-12396786D01*
X18841071Y-12382500D01*
X18841071Y-12411071D01*
X16467500Y-13047500D02*
X16497500Y-13077500D01*
X16497500Y-13047500D02*
X16467500Y-13077500D01*
X16841071Y-12898214D02*
X16869643Y-12898214D01*
X16898214Y-12912500D01*
X16912500Y-12926786D01*
X16926786Y-12955357D01*
X16941071Y-13012500D01*
X16941071Y-13083929D01*
X16926786Y-13141071D01*
X16912500Y-13169643D01*
X16898214Y-13183929D01*
X16869643Y-13198214D01*
X16841071Y-13198214D01*
X16812500Y-13183929D01*
X16798214Y-13169643D01*
X16783928Y-13141071D01*
X16769643Y-13083929D01*
X16769643Y-13012500D01*
X16783928Y-12955357D01*
X16798214Y-12926786D01*
X16812500Y-12912500D01*
X16841071Y-12898214D01*
X17069643Y-13169643D02*
X17083928Y-13183929D01*
X17069643Y-13198214D01*
X17055357Y-13183929D01*
X17069643Y-13169643D01*
X17069643Y-13198214D01*
X17183928Y-12898214D02*
X17369643Y-12898214D01*
X17269643Y-13012500D01*
X17312500Y-13012500D01*
X17341071Y-13026786D01*
X17355357Y-13041071D01*
X17369643Y-13069643D01*
X17369643Y-13141071D01*
X17355357Y-13169643D01*
X17341071Y-13183929D01*
X17312500Y-13198214D01*
X17226786Y-13198214D01*
X17198214Y-13183929D01*
X17183928Y-13169643D01*
X17555357Y-12898214D02*
X17583928Y-12898214D01*
X17612500Y-12912500D01*
X17626786Y-12926786D01*
X17641071Y-12955357D01*
X17655357Y-13012500D01*
X17655357Y-13083929D01*
X17641071Y-13141071D01*
X17626786Y-13169643D01*
X17612500Y-13183929D01*
X17583928Y-13198214D01*
X17555357Y-13198214D01*
X17526786Y-13183929D01*
X17512500Y-13169643D01*
X17498214Y-13141071D01*
X17483928Y-13083929D01*
X17483928Y-13012500D01*
X17498214Y-12955357D01*
X17512500Y-12926786D01*
X17526786Y-12912500D01*
X17555357Y-12898214D01*
X17783928Y-13198214D02*
X17783928Y-12998214D01*
X17783928Y-13026786D02*
X17798214Y-13012500D01*
X17826786Y-12998214D01*
X17869643Y-12998214D01*
X17898214Y-13012500D01*
X17912500Y-13041071D01*
X17912500Y-13198214D01*
X17912500Y-13041071D02*
X17926786Y-13012500D01*
X17955357Y-12998214D01*
X17998214Y-12998214D01*
X18026786Y-13012500D01*
X18041071Y-13041071D01*
X18041071Y-13198214D01*
X18183928Y-13198214D02*
X18183928Y-12998214D01*
X18183928Y-13026786D02*
X18198214Y-13012500D01*
X18226786Y-12998214D01*
X18269643Y-12998214D01*
X18298214Y-13012500D01*
X18312500Y-13041071D01*
X18312500Y-13198214D01*
X18312500Y-13041071D02*
X18326786Y-13012500D01*
X18355357Y-12998214D01*
X18398214Y-12998214D01*
X18426786Y-13012500D01*
X18441071Y-13041071D01*
X18441071Y-13198214D01*
X19026786Y-12883929D02*
X18769643Y-13269643D01*
X19412500Y-12898214D02*
X19441071Y-12898214D01*
X19469643Y-12912500D01*
X19483928Y-12926786D01*
X19498214Y-12955357D01*
X19512500Y-13012500D01*
X19512500Y-13083929D01*
X19498214Y-13141071D01*
X19483928Y-13169643D01*
X19469643Y-13183929D01*
X19441071Y-13198214D01*
X19412500Y-13198214D01*
X19383928Y-13183929D01*
X19369643Y-13169643D01*
X19355357Y-13141071D01*
X19341071Y-13083929D01*
X19341071Y-13012500D01*
X19355357Y-12955357D01*
X19369643Y-12926786D01*
X19383928Y-12912500D01*
X19412500Y-12898214D01*
X19641071Y-13169643D02*
X19655357Y-13183929D01*
X19641071Y-13198214D01*
X19626786Y-13183929D01*
X19641071Y-13169643D01*
X19641071Y-13198214D01*
X19841071Y-12898214D02*
X19869643Y-12898214D01*
X19898214Y-12912500D01*
X19912500Y-12926786D01*
X19926786Y-12955357D01*
X19941071Y-13012500D01*
X19941071Y-13083929D01*
X19926786Y-13141071D01*
X19912500Y-13169643D01*
X19898214Y-13183929D01*
X19869643Y-13198214D01*
X19841071Y-13198214D01*
X19812500Y-13183929D01*
X19798214Y-13169643D01*
X19783928Y-13141071D01*
X19769643Y-13083929D01*
X19769643Y-13012500D01*
X19783928Y-12955357D01*
X19798214Y-12926786D01*
X19812500Y-12912500D01*
X19841071Y-12898214D01*
X20226786Y-13198214D02*
X20055357Y-13198214D01*
X20141071Y-13198214D02*
X20141071Y-12898214D01*
X20112500Y-12941071D01*
X20083928Y-12969643D01*
X20055357Y-12983929D01*
X20341071Y-12926786D02*
X20355357Y-12912500D01*
X20383928Y-12898214D01*
X20455357Y-12898214D01*
X20483928Y-12912500D01*
X20498214Y-12926786D01*
X20512500Y-12955357D01*
X20512500Y-12983929D01*
X20498214Y-13026786D01*
X20326786Y-13198214D01*
X20512500Y-13198214D01*
X20626786Y-12898214D02*
X20626786Y-12955357D01*
X20741071Y-12898214D02*
X20741071Y-12955357D01*
X21183928Y-13312500D02*
X21169643Y-13298214D01*
X21141071Y-13255357D01*
X21126786Y-13226786D01*
X21112500Y-13183929D01*
X21098214Y-13112500D01*
X21098214Y-13055357D01*
X21112500Y-12983929D01*
X21126786Y-12941071D01*
X21141071Y-12912500D01*
X21169643Y-12869643D01*
X21183928Y-12855357D01*
X21455357Y-13198214D02*
X21283928Y-13198214D01*
X21369643Y-13198214D02*
X21369643Y-12898214D01*
X21341071Y-12941071D01*
X21312500Y-12969643D01*
X21283928Y-12983929D01*
X21569643Y-12926786D02*
X21583928Y-12912500D01*
X21612500Y-12898214D01*
X21683928Y-12898214D01*
X21712500Y-12912500D01*
X21726786Y-12926786D01*
X21741071Y-12955357D01*
X21741071Y-12983929D01*
X21726786Y-13026786D01*
X21555357Y-13198214D01*
X21741071Y-13198214D01*
X22098214Y-13198214D02*
X22098214Y-12898214D01*
X22226786Y-13198214D02*
X22226786Y-13041071D01*
X22212500Y-13012500D01*
X22183928Y-12998214D01*
X22141071Y-12998214D01*
X22112500Y-13012500D01*
X22098214Y-13026786D01*
X22412500Y-13198214D02*
X22383928Y-13183929D01*
X22369643Y-13169643D01*
X22355357Y-13141071D01*
X22355357Y-13055357D01*
X22369643Y-13026786D01*
X22383928Y-13012500D01*
X22412500Y-12998214D01*
X22455357Y-12998214D01*
X22483928Y-13012500D01*
X22498214Y-13026786D01*
X22512500Y-13055357D01*
X22512500Y-13141071D01*
X22498214Y-13169643D01*
X22483928Y-13183929D01*
X22455357Y-13198214D01*
X22412500Y-13198214D01*
X22683928Y-13198214D02*
X22655357Y-13183929D01*
X22641071Y-13155357D01*
X22641071Y-12898214D01*
X22912500Y-13183929D02*
X22883928Y-13198214D01*
X22826786Y-13198214D01*
X22798214Y-13183929D01*
X22783928Y-13155357D01*
X22783928Y-13041071D01*
X22798214Y-13012500D01*
X22826786Y-12998214D01*
X22883928Y-12998214D01*
X22912500Y-13012500D01*
X22926786Y-13041071D01*
X22926786Y-13069643D01*
X22783928Y-13098214D01*
X23041071Y-13183929D02*
X23069643Y-13198214D01*
X23126786Y-13198214D01*
X23155357Y-13183929D01*
X23169643Y-13155357D01*
X23169643Y-13141071D01*
X23155357Y-13112500D01*
X23126786Y-13098214D01*
X23083928Y-13098214D01*
X23055357Y-13083929D01*
X23041071Y-13055357D01*
X23041071Y-13041071D01*
X23055357Y-13012500D01*
X23083928Y-12998214D01*
X23126786Y-12998214D01*
X23155357Y-13012500D01*
X23269643Y-13312500D02*
X23283928Y-13298214D01*
X23312500Y-13255357D01*
X23326786Y-13226786D01*
X23341071Y-13183929D01*
X23355357Y-13112500D01*
X23355357Y-13055357D01*
X23341071Y-12983929D01*
X23326786Y-12941071D01*
X23312500Y-12912500D01*
X23283928Y-12869643D01*
X23269643Y-12855357D01*
X16497500Y-13458500D02*
G75*
G03*
X16497500Y-13458500I-15240J0D01*
G01*
X16841071Y-13294214D02*
X16869643Y-13294214D01*
X16898214Y-13308500D01*
X16912500Y-13322786D01*
X16926786Y-13351357D01*
X16941071Y-13408500D01*
X16941071Y-13479929D01*
X16926786Y-13537071D01*
X16912500Y-13565643D01*
X16898214Y-13579929D01*
X16869643Y-13594214D01*
X16841071Y-13594214D01*
X16812500Y-13579929D01*
X16798214Y-13565643D01*
X16783928Y-13537071D01*
X16769643Y-13479929D01*
X16769643Y-13408500D01*
X16783928Y-13351357D01*
X16798214Y-13322786D01*
X16812500Y-13308500D01*
X16841071Y-13294214D01*
X17069643Y-13565643D02*
X17083928Y-13579929D01*
X17069643Y-13594214D01*
X17055357Y-13579929D01*
X17069643Y-13565643D01*
X17069643Y-13594214D01*
X17183928Y-13294214D02*
X17369643Y-13294214D01*
X17269643Y-13408500D01*
X17312500Y-13408500D01*
X17341071Y-13422786D01*
X17355357Y-13437071D01*
X17369643Y-13465643D01*
X17369643Y-13537071D01*
X17355357Y-13565643D01*
X17341071Y-13579929D01*
X17312500Y-13594214D01*
X17226786Y-13594214D01*
X17198214Y-13579929D01*
X17183928Y-13565643D01*
X17555357Y-13294214D02*
X17583928Y-13294214D01*
X17612500Y-13308500D01*
X17626786Y-13322786D01*
X17641071Y-13351357D01*
X17655357Y-13408500D01*
X17655357Y-13479929D01*
X17641071Y-13537071D01*
X17626786Y-13565643D01*
X17612500Y-13579929D01*
X17583928Y-13594214D01*
X17555357Y-13594214D01*
X17526786Y-13579929D01*
X17512500Y-13565643D01*
X17498214Y-13537071D01*
X17483928Y-13479929D01*
X17483928Y-13408500D01*
X17498214Y-13351357D01*
X17512500Y-13322786D01*
X17526786Y-13308500D01*
X17555357Y-13294214D01*
X17783928Y-13594214D02*
X17783928Y-13394214D01*
X17783928Y-13422786D02*
X17798214Y-13408500D01*
X17826786Y-13394214D01*
X17869643Y-13394214D01*
X17898214Y-13408500D01*
X17912500Y-13437071D01*
X17912500Y-13594214D01*
X17912500Y-13437071D02*
X17926786Y-13408500D01*
X17955357Y-13394214D01*
X17998214Y-13394214D01*
X18026786Y-13408500D01*
X18041071Y-13437071D01*
X18041071Y-13594214D01*
X18183928Y-13594214D02*
X18183928Y-13394214D01*
X18183928Y-13422786D02*
X18198214Y-13408500D01*
X18226786Y-13394214D01*
X18269643Y-13394214D01*
X18298214Y-13408500D01*
X18312500Y-13437071D01*
X18312500Y-13594214D01*
X18312500Y-13437071D02*
X18326786Y-13408500D01*
X18355357Y-13394214D01*
X18398214Y-13394214D01*
X18426786Y-13408500D01*
X18441071Y-13437071D01*
X18441071Y-13594214D01*
X19026786Y-13279929D02*
X18769643Y-13665643D01*
X19412500Y-13294214D02*
X19441071Y-13294214D01*
X19469643Y-13308500D01*
X19483928Y-13322786D01*
X19498214Y-13351357D01*
X19512500Y-13408500D01*
X19512500Y-13479929D01*
X19498214Y-13537071D01*
X19483928Y-13565643D01*
X19469643Y-13579929D01*
X19441071Y-13594214D01*
X19412500Y-13594214D01*
X19383928Y-13579929D01*
X19369643Y-13565643D01*
X19355357Y-13537071D01*
X19341071Y-13479929D01*
X19341071Y-13408500D01*
X19355357Y-13351357D01*
X19369643Y-13322786D01*
X19383928Y-13308500D01*
X19412500Y-13294214D01*
X19641071Y-13565643D02*
X19655357Y-13579929D01*
X19641071Y-13594214D01*
X19626786Y-13579929D01*
X19641071Y-13565643D01*
X19641071Y-13594214D01*
X19841071Y-13294214D02*
X19869643Y-13294214D01*
X19898214Y-13308500D01*
X19912500Y-13322786D01*
X19926786Y-13351357D01*
X19941071Y-13408500D01*
X19941071Y-13479929D01*
X19926786Y-13537071D01*
X19912500Y-13565643D01*
X19898214Y-13579929D01*
X19869643Y-13594214D01*
X19841071Y-13594214D01*
X19812500Y-13579929D01*
X19798214Y-13565643D01*
X19783928Y-13537071D01*
X19769643Y-13479929D01*
X19769643Y-13408500D01*
X19783928Y-13351357D01*
X19798214Y-13322786D01*
X19812500Y-13308500D01*
X19841071Y-13294214D01*
X20226786Y-13594214D02*
X20055357Y-13594214D01*
X20141071Y-13594214D02*
X20141071Y-13294214D01*
X20112500Y-13337071D01*
X20083928Y-13365643D01*
X20055357Y-13379929D01*
X20341071Y-13322786D02*
X20355357Y-13308500D01*
X20383928Y-13294214D01*
X20455357Y-13294214D01*
X20483928Y-13308500D01*
X20498214Y-13322786D01*
X20512500Y-13351357D01*
X20512500Y-13379929D01*
X20498214Y-13422786D01*
X20326786Y-13594214D01*
X20512500Y-13594214D01*
X20626786Y-13294214D02*
X20626786Y-13351357D01*
X20741071Y-13294214D02*
X20741071Y-13351357D01*
X21183928Y-13708500D02*
X21169643Y-13694214D01*
X21141071Y-13651357D01*
X21126786Y-13622786D01*
X21112500Y-13579929D01*
X21098214Y-13508500D01*
X21098214Y-13451357D01*
X21112500Y-13379929D01*
X21126786Y-13337071D01*
X21141071Y-13308500D01*
X21169643Y-13265643D01*
X21183928Y-13251357D01*
X21269643Y-13294214D02*
X21469643Y-13294214D01*
X21341071Y-13594214D01*
X21741071Y-13594214D02*
X21569643Y-13594214D01*
X21655357Y-13594214D02*
X21655357Y-13294214D01*
X21626786Y-13337071D01*
X21598214Y-13365643D01*
X21569643Y-13379929D01*
X22098214Y-13594214D02*
X22098214Y-13294214D01*
X22226786Y-13594214D02*
X22226786Y-13437071D01*
X22212500Y-13408500D01*
X22183928Y-13394214D01*
X22141071Y-13394214D01*
X22112500Y-13408500D01*
X22098214Y-13422786D01*
X22412500Y-13594214D02*
X22383928Y-13579929D01*
X22369643Y-13565643D01*
X22355357Y-13537071D01*
X22355357Y-13451357D01*
X22369643Y-13422786D01*
X22383928Y-13408500D01*
X22412500Y-13394214D01*
X22455357Y-13394214D01*
X22483928Y-13408500D01*
X22498214Y-13422786D01*
X22512500Y-13451357D01*
X22512500Y-13537071D01*
X22498214Y-13565643D01*
X22483928Y-13579929D01*
X22455357Y-13594214D01*
X22412500Y-13594214D01*
X22683928Y-13594214D02*
X22655357Y-13579929D01*
X22641071Y-13551357D01*
X22641071Y-13294214D01*
X22912500Y-13579929D02*
X22883928Y-13594214D01*
X22826786Y-13594214D01*
X22798214Y-13579929D01*
X22783928Y-13551357D01*
X22783928Y-13437071D01*
X22798214Y-13408500D01*
X22826786Y-13394214D01*
X22883928Y-13394214D01*
X22912500Y-13408500D01*
X22926786Y-13437071D01*
X22926786Y-13465643D01*
X22783928Y-13494214D01*
X23041071Y-13579929D02*
X23069643Y-13594214D01*
X23126786Y-13594214D01*
X23155357Y-13579929D01*
X23169643Y-13551357D01*
X23169643Y-13537071D01*
X23155357Y-13508500D01*
X23126786Y-13494214D01*
X23083928Y-13494214D01*
X23055357Y-13479929D01*
X23041071Y-13451357D01*
X23041071Y-13437071D01*
X23055357Y-13408500D01*
X23083928Y-13394214D01*
X23126786Y-13394214D01*
X23155357Y-13408500D01*
X23269643Y-13708500D02*
X23283928Y-13694214D01*
X23312500Y-13651357D01*
X23326786Y-13622786D01*
X23341071Y-13579929D01*
X23355357Y-13508500D01*
X23355357Y-13451357D01*
X23341071Y-13379929D01*
X23326786Y-13337071D01*
X23312500Y-13308500D01*
X23283928Y-13265643D01*
X23269643Y-13251357D01*
X16460000Y-13817000D02*
X16460000Y-13892000D01*
X16422500Y-13854500D02*
X16497500Y-13854500D01*
X16841071Y-13690214D02*
X16869643Y-13690214D01*
X16898214Y-13704500D01*
X16912500Y-13718786D01*
X16926786Y-13747357D01*
X16941071Y-13804500D01*
X16941071Y-13875929D01*
X16926786Y-13933071D01*
X16912500Y-13961643D01*
X16898214Y-13975929D01*
X16869643Y-13990214D01*
X16841071Y-13990214D01*
X16812500Y-13975929D01*
X16798214Y-13961643D01*
X16783928Y-13933071D01*
X16769643Y-13875929D01*
X16769643Y-13804500D01*
X16783928Y-13747357D01*
X16798214Y-13718786D01*
X16812500Y-13704500D01*
X16841071Y-13690214D01*
X17069643Y-13961643D02*
X17083928Y-13975929D01*
X17069643Y-13990214D01*
X17055357Y-13975929D01*
X17069643Y-13961643D01*
X17069643Y-13990214D01*
X17183928Y-13690214D02*
X17383928Y-13690214D01*
X17255357Y-13990214D01*
X17641071Y-13690214D02*
X17498214Y-13690214D01*
X17483928Y-13833071D01*
X17498214Y-13818786D01*
X17526786Y-13804500D01*
X17598214Y-13804500D01*
X17626786Y-13818786D01*
X17641071Y-13833071D01*
X17655357Y-13861643D01*
X17655357Y-13933071D01*
X17641071Y-13961643D01*
X17626786Y-13975929D01*
X17598214Y-13990214D01*
X17526786Y-13990214D01*
X17498214Y-13975929D01*
X17483928Y-13961643D01*
X17783928Y-13990214D02*
X17783928Y-13790214D01*
X17783928Y-13818786D02*
X17798214Y-13804500D01*
X17826786Y-13790214D01*
X17869643Y-13790214D01*
X17898214Y-13804500D01*
X17912500Y-13833071D01*
X17912500Y-13990214D01*
X17912500Y-13833071D02*
X17926786Y-13804500D01*
X17955357Y-13790214D01*
X17998214Y-13790214D01*
X18026786Y-13804500D01*
X18041071Y-13833071D01*
X18041071Y-13990214D01*
X18183928Y-13990214D02*
X18183928Y-13790214D01*
X18183928Y-13818786D02*
X18198214Y-13804500D01*
X18226786Y-13790214D01*
X18269643Y-13790214D01*
X18298214Y-13804500D01*
X18312500Y-13833071D01*
X18312500Y-13990214D01*
X18312500Y-13833071D02*
X18326786Y-13804500D01*
X18355357Y-13790214D01*
X18398214Y-13790214D01*
X18426786Y-13804500D01*
X18441071Y-13833071D01*
X18441071Y-13990214D01*
X19026786Y-13675929D02*
X18769643Y-14061643D01*
X19412500Y-13690214D02*
X19441071Y-13690214D01*
X19469643Y-13704500D01*
X19483928Y-13718786D01*
X19498214Y-13747357D01*
X19512500Y-13804500D01*
X19512500Y-13875929D01*
X19498214Y-13933071D01*
X19483928Y-13961643D01*
X19469643Y-13975929D01*
X19441071Y-13990214D01*
X19412500Y-13990214D01*
X19383928Y-13975929D01*
X19369643Y-13961643D01*
X19355357Y-13933071D01*
X19341071Y-13875929D01*
X19341071Y-13804500D01*
X19355357Y-13747357D01*
X19369643Y-13718786D01*
X19383928Y-13704500D01*
X19412500Y-13690214D01*
X19641071Y-13961643D02*
X19655357Y-13975929D01*
X19641071Y-13990214D01*
X19626786Y-13975929D01*
X19641071Y-13961643D01*
X19641071Y-13990214D01*
X19841071Y-13690214D02*
X19869643Y-13690214D01*
X19898214Y-13704500D01*
X19912500Y-13718786D01*
X19926786Y-13747357D01*
X19941071Y-13804500D01*
X19941071Y-13875929D01*
X19926786Y-13933071D01*
X19912500Y-13961643D01*
X19898214Y-13975929D01*
X19869643Y-13990214D01*
X19841071Y-13990214D01*
X19812500Y-13975929D01*
X19798214Y-13961643D01*
X19783928Y-13933071D01*
X19769643Y-13875929D01*
X19769643Y-13804500D01*
X19783928Y-13747357D01*
X19798214Y-13718786D01*
X19812500Y-13704500D01*
X19841071Y-13690214D01*
X20041071Y-13690214D02*
X20226786Y-13690214D01*
X20126786Y-13804500D01*
X20169643Y-13804500D01*
X20198214Y-13818786D01*
X20212500Y-13833071D01*
X20226786Y-13861643D01*
X20226786Y-13933071D01*
X20212500Y-13961643D01*
X20198214Y-13975929D01*
X20169643Y-13990214D01*
X20083928Y-13990214D01*
X20055357Y-13975929D01*
X20041071Y-13961643D01*
X20412500Y-13690214D02*
X20441071Y-13690214D01*
X20469643Y-13704500D01*
X20483928Y-13718786D01*
X20498214Y-13747357D01*
X20512500Y-13804500D01*
X20512500Y-13875929D01*
X20498214Y-13933071D01*
X20483928Y-13961643D01*
X20469643Y-13975929D01*
X20441071Y-13990214D01*
X20412500Y-13990214D01*
X20383928Y-13975929D01*
X20369643Y-13961643D01*
X20355357Y-13933071D01*
X20341071Y-13875929D01*
X20341071Y-13804500D01*
X20355357Y-13747357D01*
X20369643Y-13718786D01*
X20383928Y-13704500D01*
X20412500Y-13690214D01*
X20626786Y-13690214D02*
X20626786Y-13747357D01*
X20741071Y-13690214D02*
X20741071Y-13747357D01*
X21183928Y-14104500D02*
X21169643Y-14090214D01*
X21141071Y-14047357D01*
X21126786Y-14018786D01*
X21112500Y-13975929D01*
X21098214Y-13904500D01*
X21098214Y-13847357D01*
X21112500Y-13775929D01*
X21126786Y-13733071D01*
X21141071Y-13704500D01*
X21169643Y-13661643D01*
X21183928Y-13647357D01*
X21426786Y-13690214D02*
X21369643Y-13690214D01*
X21341071Y-13704500D01*
X21326786Y-13718786D01*
X21298214Y-13761643D01*
X21283928Y-13818786D01*
X21283928Y-13933071D01*
X21298214Y-13961643D01*
X21312500Y-13975929D01*
X21341071Y-13990214D01*
X21398214Y-13990214D01*
X21426786Y-13975929D01*
X21441071Y-13961643D01*
X21455357Y-13933071D01*
X21455357Y-13861643D01*
X21441071Y-13833071D01*
X21426786Y-13818786D01*
X21398214Y-13804500D01*
X21341071Y-13804500D01*
X21312500Y-13818786D01*
X21298214Y-13833071D01*
X21283928Y-13861643D01*
X21812500Y-13990214D02*
X21812500Y-13690214D01*
X21941071Y-13990214D02*
X21941071Y-13833071D01*
X21926786Y-13804500D01*
X21898214Y-13790214D01*
X21855357Y-13790214D01*
X21826786Y-13804500D01*
X21812500Y-13818786D01*
X22126786Y-13990214D02*
X22098214Y-13975929D01*
X22083928Y-13961643D01*
X22069643Y-13933071D01*
X22069643Y-13847357D01*
X22083928Y-13818786D01*
X22098214Y-13804500D01*
X22126786Y-13790214D01*
X22169643Y-13790214D01*
X22198214Y-13804500D01*
X22212500Y-13818786D01*
X22226786Y-13847357D01*
X22226786Y-13933071D01*
X22212500Y-13961643D01*
X22198214Y-13975929D01*
X22169643Y-13990214D01*
X22126786Y-13990214D01*
X22398214Y-13990214D02*
X22369643Y-13975929D01*
X22355357Y-13947357D01*
X22355357Y-13690214D01*
X22626786Y-13975929D02*
X22598214Y-13990214D01*
X22541071Y-13990214D01*
X22512500Y-13975929D01*
X22498214Y-13947357D01*
X22498214Y-13833071D01*
X22512500Y-13804500D01*
X22541071Y-13790214D01*
X22598214Y-13790214D01*
X22626786Y-13804500D01*
X22641071Y-13833071D01*
X22641071Y-13861643D01*
X22498214Y-13890214D01*
X22755357Y-13975929D02*
X22783928Y-13990214D01*
X22841071Y-13990214D01*
X22869643Y-13975929D01*
X22883928Y-13947357D01*
X22883928Y-13933071D01*
X22869643Y-13904500D01*
X22841071Y-13890214D01*
X22798214Y-13890214D01*
X22769643Y-13875929D01*
X22755357Y-13847357D01*
X22755357Y-13833071D01*
X22769643Y-13804500D01*
X22798214Y-13790214D01*
X22841071Y-13790214D01*
X22869643Y-13804500D01*
X22983928Y-14104500D02*
X22998214Y-14090214D01*
X23026786Y-14047357D01*
X23041071Y-14018786D01*
X23055357Y-13975929D01*
X23069643Y-13904500D01*
X23069643Y-13847357D01*
X23055357Y-13775929D01*
X23041071Y-13733071D01*
X23026786Y-13704500D01*
X22998214Y-13661643D01*
X22983928Y-13647357D01*
X16485784Y-14278785D02*
X16485784Y-14222216D01*
X16429215Y-14222216D01*
X16429215Y-14278785D01*
X16485784Y-14278785D01*
X16841071Y-14086214D02*
X16869643Y-14086214D01*
X16898214Y-14100500D01*
X16912500Y-14114786D01*
X16926786Y-14143357D01*
X16941071Y-14200500D01*
X16941071Y-14271929D01*
X16926786Y-14329071D01*
X16912500Y-14357643D01*
X16898214Y-14371929D01*
X16869643Y-14386214D01*
X16841071Y-14386214D01*
X16812500Y-14371929D01*
X16798214Y-14357643D01*
X16783928Y-14329071D01*
X16769643Y-14271929D01*
X16769643Y-14200500D01*
X16783928Y-14143357D01*
X16798214Y-14114786D01*
X16812500Y-14100500D01*
X16841071Y-14086214D01*
X17069643Y-14357643D02*
X17083928Y-14371929D01*
X17069643Y-14386214D01*
X17055357Y-14371929D01*
X17069643Y-14357643D01*
X17069643Y-14386214D01*
X17255357Y-14214786D02*
X17226786Y-14200500D01*
X17212500Y-14186214D01*
X17198214Y-14157643D01*
X17198214Y-14143357D01*
X17212500Y-14114786D01*
X17226786Y-14100500D01*
X17255357Y-14086214D01*
X17312500Y-14086214D01*
X17341071Y-14100500D01*
X17355357Y-14114786D01*
X17369643Y-14143357D01*
X17369643Y-14157643D01*
X17355357Y-14186214D01*
X17341071Y-14200500D01*
X17312500Y-14214786D01*
X17255357Y-14214786D01*
X17226786Y-14229071D01*
X17212500Y-14243357D01*
X17198214Y-14271929D01*
X17198214Y-14329071D01*
X17212500Y-14357643D01*
X17226786Y-14371929D01*
X17255357Y-14386214D01*
X17312500Y-14386214D01*
X17341071Y-14371929D01*
X17355357Y-14357643D01*
X17369643Y-14329071D01*
X17369643Y-14271929D01*
X17355357Y-14243357D01*
X17341071Y-14229071D01*
X17312500Y-14214786D01*
X17555357Y-14086214D02*
X17583928Y-14086214D01*
X17612500Y-14100500D01*
X17626786Y-14114786D01*
X17641071Y-14143357D01*
X17655357Y-14200500D01*
X17655357Y-14271929D01*
X17641071Y-14329071D01*
X17626786Y-14357643D01*
X17612500Y-14371929D01*
X17583928Y-14386214D01*
X17555357Y-14386214D01*
X17526786Y-14371929D01*
X17512500Y-14357643D01*
X17498214Y-14329071D01*
X17483928Y-14271929D01*
X17483928Y-14200500D01*
X17498214Y-14143357D01*
X17512500Y-14114786D01*
X17526786Y-14100500D01*
X17555357Y-14086214D01*
X17783928Y-14386214D02*
X17783928Y-14186214D01*
X17783928Y-14214786D02*
X17798214Y-14200500D01*
X17826786Y-14186214D01*
X17869643Y-14186214D01*
X17898214Y-14200500D01*
X17912500Y-14229071D01*
X17912500Y-14386214D01*
X17912500Y-14229071D02*
X17926786Y-14200500D01*
X17955357Y-14186214D01*
X17998214Y-14186214D01*
X18026786Y-14200500D01*
X18041071Y-14229071D01*
X18041071Y-14386214D01*
X18183928Y-14386214D02*
X18183928Y-14186214D01*
X18183928Y-14214786D02*
X18198214Y-14200500D01*
X18226786Y-14186214D01*
X18269643Y-14186214D01*
X18298214Y-14200500D01*
X18312500Y-14229071D01*
X18312500Y-14386214D01*
X18312500Y-14229071D02*
X18326786Y-14200500D01*
X18355357Y-14186214D01*
X18398214Y-14186214D01*
X18426786Y-14200500D01*
X18441071Y-14229071D01*
X18441071Y-14386214D01*
X19026786Y-14071929D02*
X18769643Y-14457643D01*
X19412500Y-14086214D02*
X19441071Y-14086214D01*
X19469643Y-14100500D01*
X19483928Y-14114786D01*
X19498214Y-14143357D01*
X19512500Y-14200500D01*
X19512500Y-14271929D01*
X19498214Y-14329071D01*
X19483928Y-14357643D01*
X19469643Y-14371929D01*
X19441071Y-14386214D01*
X19412500Y-14386214D01*
X19383928Y-14371929D01*
X19369643Y-14357643D01*
X19355357Y-14329071D01*
X19341071Y-14271929D01*
X19341071Y-14200500D01*
X19355357Y-14143357D01*
X19369643Y-14114786D01*
X19383928Y-14100500D01*
X19412500Y-14086214D01*
X19641071Y-14357643D02*
X19655357Y-14371929D01*
X19641071Y-14386214D01*
X19626786Y-14371929D01*
X19641071Y-14357643D01*
X19641071Y-14386214D01*
X19841071Y-14086214D02*
X19869643Y-14086214D01*
X19898214Y-14100500D01*
X19912500Y-14114786D01*
X19926786Y-14143357D01*
X19941071Y-14200500D01*
X19941071Y-14271929D01*
X19926786Y-14329071D01*
X19912500Y-14357643D01*
X19898214Y-14371929D01*
X19869643Y-14386214D01*
X19841071Y-14386214D01*
X19812500Y-14371929D01*
X19798214Y-14357643D01*
X19783928Y-14329071D01*
X19769643Y-14271929D01*
X19769643Y-14200500D01*
X19783928Y-14143357D01*
X19798214Y-14114786D01*
X19812500Y-14100500D01*
X19841071Y-14086214D01*
X20041071Y-14086214D02*
X20226786Y-14086214D01*
X20126786Y-14200500D01*
X20169643Y-14200500D01*
X20198214Y-14214786D01*
X20212500Y-14229071D01*
X20226786Y-14257643D01*
X20226786Y-14329071D01*
X20212500Y-14357643D01*
X20198214Y-14371929D01*
X20169643Y-14386214D01*
X20083928Y-14386214D01*
X20055357Y-14371929D01*
X20041071Y-14357643D01*
X20512500Y-14386214D02*
X20341071Y-14386214D01*
X20426786Y-14386214D02*
X20426786Y-14086214D01*
X20398214Y-14129071D01*
X20369643Y-14157643D01*
X20341071Y-14171929D01*
X20626786Y-14086214D02*
X20626786Y-14143357D01*
X20741071Y-14086214D02*
X20741071Y-14143357D01*
X21183928Y-14500500D02*
X21169643Y-14486214D01*
X21141071Y-14443357D01*
X21126786Y-14414786D01*
X21112500Y-14371929D01*
X21098214Y-14300500D01*
X21098214Y-14243357D01*
X21112500Y-14171929D01*
X21126786Y-14129071D01*
X21141071Y-14100500D01*
X21169643Y-14057643D01*
X21183928Y-14043357D01*
X21426786Y-14086214D02*
X21369643Y-14086214D01*
X21341071Y-14100500D01*
X21326786Y-14114786D01*
X21298214Y-14157643D01*
X21283928Y-14214786D01*
X21283928Y-14329071D01*
X21298214Y-14357643D01*
X21312500Y-14371929D01*
X21341071Y-14386214D01*
X21398214Y-14386214D01*
X21426786Y-14371929D01*
X21441071Y-14357643D01*
X21455357Y-14329071D01*
X21455357Y-14257643D01*
X21441071Y-14229071D01*
X21426786Y-14214786D01*
X21398214Y-14200500D01*
X21341071Y-14200500D01*
X21312500Y-14214786D01*
X21298214Y-14229071D01*
X21283928Y-14257643D01*
X21712500Y-14186214D02*
X21712500Y-14386214D01*
X21641071Y-14071929D02*
X21569643Y-14286214D01*
X21755357Y-14286214D01*
X22098214Y-14386214D02*
X22098214Y-14086214D01*
X22226786Y-14386214D02*
X22226786Y-14229071D01*
X22212500Y-14200500D01*
X22183928Y-14186214D01*
X22141071Y-14186214D01*
X22112500Y-14200500D01*
X22098214Y-14214786D01*
X22412500Y-14386214D02*
X22383928Y-14371929D01*
X22369643Y-14357643D01*
X22355357Y-14329071D01*
X22355357Y-14243357D01*
X22369643Y-14214786D01*
X22383928Y-14200500D01*
X22412500Y-14186214D01*
X22455357Y-14186214D01*
X22483928Y-14200500D01*
X22498214Y-14214786D01*
X22512500Y-14243357D01*
X22512500Y-14329071D01*
X22498214Y-14357643D01*
X22483928Y-14371929D01*
X22455357Y-14386214D01*
X22412500Y-14386214D01*
X22683928Y-14386214D02*
X22655357Y-14371929D01*
X22641071Y-14343357D01*
X22641071Y-14086214D01*
X22912500Y-14371929D02*
X22883928Y-14386214D01*
X22826786Y-14386214D01*
X22798214Y-14371929D01*
X22783928Y-14343357D01*
X22783928Y-14229071D01*
X22798214Y-14200500D01*
X22826786Y-14186214D01*
X22883928Y-14186214D01*
X22912500Y-14200500D01*
X22926786Y-14229071D01*
X22926786Y-14257643D01*
X22783928Y-14286214D01*
X23041071Y-14371929D02*
X23069643Y-14386214D01*
X23126786Y-14386214D01*
X23155357Y-14371929D01*
X23169643Y-14343357D01*
X23169643Y-14329071D01*
X23155357Y-14300500D01*
X23126786Y-14286214D01*
X23083928Y-14286214D01*
X23055357Y-14271929D01*
X23041071Y-14243357D01*
X23041071Y-14229071D01*
X23055357Y-14200500D01*
X23083928Y-14186214D01*
X23126786Y-14186214D01*
X23155357Y-14200500D01*
X23269643Y-14500500D02*
X23283928Y-14486214D01*
X23312500Y-14443357D01*
X23326786Y-14414786D01*
X23341071Y-14371929D01*
X23355357Y-14300500D01*
X23355357Y-14243357D01*
X23341071Y-14171929D01*
X23326786Y-14129071D01*
X23312500Y-14100500D01*
X23283928Y-14057643D01*
X23269643Y-14043357D01*
X16450000Y-14694000D02*
X16497500Y-14646500D01*
X16450000Y-14599000D01*
X16402500Y-14646500D01*
X16450000Y-14694000D01*
X16841071Y-14482214D02*
X16869643Y-14482214D01*
X16898214Y-14496500D01*
X16912500Y-14510786D01*
X16926786Y-14539357D01*
X16941071Y-14596500D01*
X16941071Y-14667929D01*
X16926786Y-14725071D01*
X16912500Y-14753643D01*
X16898214Y-14767929D01*
X16869643Y-14782214D01*
X16841071Y-14782214D01*
X16812500Y-14767929D01*
X16798214Y-14753643D01*
X16783928Y-14725071D01*
X16769643Y-14667929D01*
X16769643Y-14596500D01*
X16783928Y-14539357D01*
X16798214Y-14510786D01*
X16812500Y-14496500D01*
X16841071Y-14482214D01*
X17069643Y-14753643D02*
X17083928Y-14767929D01*
X17069643Y-14782214D01*
X17055357Y-14767929D01*
X17069643Y-14753643D01*
X17069643Y-14782214D01*
X17226786Y-14782214D02*
X17283928Y-14782214D01*
X17312500Y-14767929D01*
X17326786Y-14753643D01*
X17355357Y-14710786D01*
X17369643Y-14653643D01*
X17369643Y-14539357D01*
X17355357Y-14510786D01*
X17341071Y-14496500D01*
X17312500Y-14482214D01*
X17255357Y-14482214D01*
X17226786Y-14496500D01*
X17212500Y-14510786D01*
X17198214Y-14539357D01*
X17198214Y-14610786D01*
X17212500Y-14639357D01*
X17226786Y-14653643D01*
X17255357Y-14667929D01*
X17312500Y-14667929D01*
X17341071Y-14653643D01*
X17355357Y-14639357D01*
X17369643Y-14610786D01*
X17641071Y-14482214D02*
X17498214Y-14482214D01*
X17483928Y-14625071D01*
X17498214Y-14610786D01*
X17526786Y-14596500D01*
X17598214Y-14596500D01*
X17626786Y-14610786D01*
X17641071Y-14625071D01*
X17655357Y-14653643D01*
X17655357Y-14725071D01*
X17641071Y-14753643D01*
X17626786Y-14767929D01*
X17598214Y-14782214D01*
X17526786Y-14782214D01*
X17498214Y-14767929D01*
X17483928Y-14753643D01*
X17783928Y-14782214D02*
X17783928Y-14582214D01*
X17783928Y-14610786D02*
X17798214Y-14596500D01*
X17826786Y-14582214D01*
X17869643Y-14582214D01*
X17898214Y-14596500D01*
X17912500Y-14625071D01*
X17912500Y-14782214D01*
X17912500Y-14625071D02*
X17926786Y-14596500D01*
X17955357Y-14582214D01*
X17998214Y-14582214D01*
X18026786Y-14596500D01*
X18041071Y-14625071D01*
X18041071Y-14782214D01*
X18183928Y-14782214D02*
X18183928Y-14582214D01*
X18183928Y-14610786D02*
X18198214Y-14596500D01*
X18226786Y-14582214D01*
X18269643Y-14582214D01*
X18298214Y-14596500D01*
X18312500Y-14625071D01*
X18312500Y-14782214D01*
X18312500Y-14625071D02*
X18326786Y-14596500D01*
X18355357Y-14582214D01*
X18398214Y-14582214D01*
X18426786Y-14596500D01*
X18441071Y-14625071D01*
X18441071Y-14782214D01*
X19026786Y-14467929D02*
X18769643Y-14853643D01*
X19412500Y-14482214D02*
X19441071Y-14482214D01*
X19469643Y-14496500D01*
X19483928Y-14510786D01*
X19498214Y-14539357D01*
X19512500Y-14596500D01*
X19512500Y-14667929D01*
X19498214Y-14725071D01*
X19483928Y-14753643D01*
X19469643Y-14767929D01*
X19441071Y-14782214D01*
X19412500Y-14782214D01*
X19383928Y-14767929D01*
X19369643Y-14753643D01*
X19355357Y-14725071D01*
X19341071Y-14667929D01*
X19341071Y-14596500D01*
X19355357Y-14539357D01*
X19369643Y-14510786D01*
X19383928Y-14496500D01*
X19412500Y-14482214D01*
X19641071Y-14753643D02*
X19655357Y-14767929D01*
X19641071Y-14782214D01*
X19626786Y-14767929D01*
X19641071Y-14753643D01*
X19641071Y-14782214D01*
X19841071Y-14482214D02*
X19869643Y-14482214D01*
X19898214Y-14496500D01*
X19912500Y-14510786D01*
X19926786Y-14539357D01*
X19941071Y-14596500D01*
X19941071Y-14667929D01*
X19926786Y-14725071D01*
X19912500Y-14753643D01*
X19898214Y-14767929D01*
X19869643Y-14782214D01*
X19841071Y-14782214D01*
X19812500Y-14767929D01*
X19798214Y-14753643D01*
X19783928Y-14725071D01*
X19769643Y-14667929D01*
X19769643Y-14596500D01*
X19783928Y-14539357D01*
X19798214Y-14510786D01*
X19812500Y-14496500D01*
X19841071Y-14482214D01*
X20041071Y-14482214D02*
X20226786Y-14482214D01*
X20126786Y-14596500D01*
X20169643Y-14596500D01*
X20198214Y-14610786D01*
X20212500Y-14625071D01*
X20226786Y-14653643D01*
X20226786Y-14725071D01*
X20212500Y-14753643D01*
X20198214Y-14767929D01*
X20169643Y-14782214D01*
X20083928Y-14782214D01*
X20055357Y-14767929D01*
X20041071Y-14753643D01*
X20326786Y-14482214D02*
X20526786Y-14482214D01*
X20398214Y-14782214D01*
X20626786Y-14482214D02*
X20626786Y-14539357D01*
X20741071Y-14482214D02*
X20741071Y-14539357D01*
X21183928Y-14896500D02*
X21169643Y-14882214D01*
X21141071Y-14839357D01*
X21126786Y-14810786D01*
X21112500Y-14767929D01*
X21098214Y-14696500D01*
X21098214Y-14639357D01*
X21112500Y-14567929D01*
X21126786Y-14525071D01*
X21141071Y-14496500D01*
X21169643Y-14453643D01*
X21183928Y-14439357D01*
X21441071Y-14482214D02*
X21298214Y-14482214D01*
X21283928Y-14625071D01*
X21298214Y-14610786D01*
X21326786Y-14596500D01*
X21398214Y-14596500D01*
X21426786Y-14610786D01*
X21441071Y-14625071D01*
X21455357Y-14653643D01*
X21455357Y-14725071D01*
X21441071Y-14753643D01*
X21426786Y-14767929D01*
X21398214Y-14782214D01*
X21326786Y-14782214D01*
X21298214Y-14767929D01*
X21283928Y-14753643D01*
X21712500Y-14482214D02*
X21655357Y-14482214D01*
X21626786Y-14496500D01*
X21612500Y-14510786D01*
X21583928Y-14553643D01*
X21569643Y-14610786D01*
X21569643Y-14725071D01*
X21583928Y-14753643D01*
X21598214Y-14767929D01*
X21626786Y-14782214D01*
X21683928Y-14782214D01*
X21712500Y-14767929D01*
X21726786Y-14753643D01*
X21741071Y-14725071D01*
X21741071Y-14653643D01*
X21726786Y-14625071D01*
X21712500Y-14610786D01*
X21683928Y-14596500D01*
X21626786Y-14596500D01*
X21598214Y-14610786D01*
X21583928Y-14625071D01*
X21569643Y-14653643D01*
X22098214Y-14782214D02*
X22098214Y-14482214D01*
X22226786Y-14782214D02*
X22226786Y-14625071D01*
X22212500Y-14596500D01*
X22183928Y-14582214D01*
X22141071Y-14582214D01*
X22112500Y-14596500D01*
X22098214Y-14610786D01*
X22412500Y-14782214D02*
X22383928Y-14767929D01*
X22369643Y-14753643D01*
X22355357Y-14725071D01*
X22355357Y-14639357D01*
X22369643Y-14610786D01*
X22383928Y-14596500D01*
X22412500Y-14582214D01*
X22455357Y-14582214D01*
X22483928Y-14596500D01*
X22498214Y-14610786D01*
X22512500Y-14639357D01*
X22512500Y-14725071D01*
X22498214Y-14753643D01*
X22483928Y-14767929D01*
X22455357Y-14782214D01*
X22412500Y-14782214D01*
X22683928Y-14782214D02*
X22655357Y-14767929D01*
X22641071Y-14739357D01*
X22641071Y-14482214D01*
X22912500Y-14767929D02*
X22883928Y-14782214D01*
X22826786Y-14782214D01*
X22798214Y-14767929D01*
X22783928Y-14739357D01*
X22783928Y-14625071D01*
X22798214Y-14596500D01*
X22826786Y-14582214D01*
X22883928Y-14582214D01*
X22912500Y-14596500D01*
X22926786Y-14625071D01*
X22926786Y-14653643D01*
X22783928Y-14682214D01*
X23041071Y-14767929D02*
X23069643Y-14782214D01*
X23126786Y-14782214D01*
X23155357Y-14767929D01*
X23169643Y-14739357D01*
X23169643Y-14725071D01*
X23155357Y-14696500D01*
X23126786Y-14682214D01*
X23083928Y-14682214D01*
X23055357Y-14667929D01*
X23041071Y-14639357D01*
X23041071Y-14625071D01*
X23055357Y-14596500D01*
X23083928Y-14582214D01*
X23126786Y-14582214D01*
X23155357Y-14596500D01*
X23269643Y-14896500D02*
X23283928Y-14882214D01*
X23312500Y-14839357D01*
X23326786Y-14810786D01*
X23341071Y-14767929D01*
X23355357Y-14696500D01*
X23355357Y-14639357D01*
X23341071Y-14567929D01*
X23326786Y-14525071D01*
X23312500Y-14496500D01*
X23283928Y-14453643D01*
X23269643Y-14439357D01*
X16397500Y-14992500D02*
X16497500Y-15092500D01*
X16497500Y-14992500D02*
X16397500Y-15092500D01*
X16497500Y-15042500D02*
G75*
G03*
X16497500Y-15042500I-50000J0D01*
G01*
X16941071Y-15178214D02*
X16769643Y-15178214D01*
X16855357Y-15178214D02*
X16855357Y-14878214D01*
X16826786Y-14921071D01*
X16798214Y-14949643D01*
X16769643Y-14963929D01*
X17069643Y-15149643D02*
X17083928Y-15163929D01*
X17069643Y-15178214D01*
X17055357Y-15163929D01*
X17069643Y-15149643D01*
X17069643Y-15178214D01*
X17269643Y-14878214D02*
X17298214Y-14878214D01*
X17326786Y-14892500D01*
X17341071Y-14906786D01*
X17355357Y-14935357D01*
X17369643Y-14992500D01*
X17369643Y-15063929D01*
X17355357Y-15121071D01*
X17341071Y-15149643D01*
X17326786Y-15163929D01*
X17298214Y-15178214D01*
X17269643Y-15178214D01*
X17241071Y-15163929D01*
X17226786Y-15149643D01*
X17212500Y-15121071D01*
X17198214Y-15063929D01*
X17198214Y-14992500D01*
X17212500Y-14935357D01*
X17226786Y-14906786D01*
X17241071Y-14892500D01*
X17269643Y-14878214D01*
X17555357Y-14878214D02*
X17583928Y-14878214D01*
X17612500Y-14892500D01*
X17626786Y-14906786D01*
X17641071Y-14935357D01*
X17655357Y-14992500D01*
X17655357Y-15063929D01*
X17641071Y-15121071D01*
X17626786Y-15149643D01*
X17612500Y-15163929D01*
X17583928Y-15178214D01*
X17555357Y-15178214D01*
X17526786Y-15163929D01*
X17512500Y-15149643D01*
X17498214Y-15121071D01*
X17483928Y-15063929D01*
X17483928Y-14992500D01*
X17498214Y-14935357D01*
X17512500Y-14906786D01*
X17526786Y-14892500D01*
X17555357Y-14878214D01*
X17783928Y-15178214D02*
X17783928Y-14978214D01*
X17783928Y-15006786D02*
X17798214Y-14992500D01*
X17826786Y-14978214D01*
X17869643Y-14978214D01*
X17898214Y-14992500D01*
X17912500Y-15021071D01*
X17912500Y-15178214D01*
X17912500Y-15021071D02*
X17926786Y-14992500D01*
X17955357Y-14978214D01*
X17998214Y-14978214D01*
X18026786Y-14992500D01*
X18041071Y-15021071D01*
X18041071Y-15178214D01*
X18183928Y-15178214D02*
X18183928Y-14978214D01*
X18183928Y-15006786D02*
X18198214Y-14992500D01*
X18226786Y-14978214D01*
X18269643Y-14978214D01*
X18298214Y-14992500D01*
X18312500Y-15021071D01*
X18312500Y-15178214D01*
X18312500Y-15021071D02*
X18326786Y-14992500D01*
X18355357Y-14978214D01*
X18398214Y-14978214D01*
X18426786Y-14992500D01*
X18441071Y-15021071D01*
X18441071Y-15178214D01*
X19026786Y-14863929D02*
X18769643Y-15249643D01*
X19412500Y-14878214D02*
X19441071Y-14878214D01*
X19469643Y-14892500D01*
X19483928Y-14906786D01*
X19498214Y-14935357D01*
X19512500Y-14992500D01*
X19512500Y-15063929D01*
X19498214Y-15121071D01*
X19483928Y-15149643D01*
X19469643Y-15163929D01*
X19441071Y-15178214D01*
X19412500Y-15178214D01*
X19383928Y-15163929D01*
X19369643Y-15149643D01*
X19355357Y-15121071D01*
X19341071Y-15063929D01*
X19341071Y-14992500D01*
X19355357Y-14935357D01*
X19369643Y-14906786D01*
X19383928Y-14892500D01*
X19412500Y-14878214D01*
X19641071Y-15149643D02*
X19655357Y-15163929D01*
X19641071Y-15178214D01*
X19626786Y-15163929D01*
X19641071Y-15149643D01*
X19641071Y-15178214D01*
X19841071Y-14878214D02*
X19869643Y-14878214D01*
X19898214Y-14892500D01*
X19912500Y-14906786D01*
X19926786Y-14935357D01*
X19941071Y-14992500D01*
X19941071Y-15063929D01*
X19926786Y-15121071D01*
X19912500Y-15149643D01*
X19898214Y-15163929D01*
X19869643Y-15178214D01*
X19841071Y-15178214D01*
X19812500Y-15163929D01*
X19798214Y-15149643D01*
X19783928Y-15121071D01*
X19769643Y-15063929D01*
X19769643Y-14992500D01*
X19783928Y-14935357D01*
X19798214Y-14906786D01*
X19812500Y-14892500D01*
X19841071Y-14878214D01*
X20041071Y-14878214D02*
X20226786Y-14878214D01*
X20126786Y-14992500D01*
X20169643Y-14992500D01*
X20198214Y-15006786D01*
X20212500Y-15021071D01*
X20226786Y-15049643D01*
X20226786Y-15121071D01*
X20212500Y-15149643D01*
X20198214Y-15163929D01*
X20169643Y-15178214D01*
X20083928Y-15178214D01*
X20055357Y-15163929D01*
X20041071Y-15149643D01*
X20369643Y-15178214D02*
X20426786Y-15178214D01*
X20455357Y-15163929D01*
X20469643Y-15149643D01*
X20498214Y-15106786D01*
X20512500Y-15049643D01*
X20512500Y-14935357D01*
X20498214Y-14906786D01*
X20483928Y-14892500D01*
X20455357Y-14878214D01*
X20398214Y-14878214D01*
X20369643Y-14892500D01*
X20355357Y-14906786D01*
X20341071Y-14935357D01*
X20341071Y-15006786D01*
X20355357Y-15035357D01*
X20369643Y-15049643D01*
X20398214Y-15063929D01*
X20455357Y-15063929D01*
X20483928Y-15049643D01*
X20498214Y-15035357D01*
X20512500Y-15006786D01*
X20626786Y-14878214D02*
X20626786Y-14935357D01*
X20741071Y-14878214D02*
X20741071Y-14935357D01*
X21183928Y-15292500D02*
X21169643Y-15278214D01*
X21141071Y-15235357D01*
X21126786Y-15206786D01*
X21112500Y-15163929D01*
X21098214Y-15092500D01*
X21098214Y-15035357D01*
X21112500Y-14963929D01*
X21126786Y-14921071D01*
X21141071Y-14892500D01*
X21169643Y-14849643D01*
X21183928Y-14835357D01*
X21269643Y-14878214D02*
X21455357Y-14878214D01*
X21355357Y-14992500D01*
X21398214Y-14992500D01*
X21426786Y-15006786D01*
X21441071Y-15021071D01*
X21455357Y-15049643D01*
X21455357Y-15121071D01*
X21441071Y-15149643D01*
X21426786Y-15163929D01*
X21398214Y-15178214D01*
X21312500Y-15178214D01*
X21283928Y-15163929D01*
X21269643Y-15149643D01*
X21712500Y-14878214D02*
X21655357Y-14878214D01*
X21626786Y-14892500D01*
X21612500Y-14906786D01*
X21583928Y-14949643D01*
X21569643Y-15006786D01*
X21569643Y-15121071D01*
X21583928Y-15149643D01*
X21598214Y-15163929D01*
X21626786Y-15178214D01*
X21683928Y-15178214D01*
X21712500Y-15163929D01*
X21726786Y-15149643D01*
X21741071Y-15121071D01*
X21741071Y-15049643D01*
X21726786Y-15021071D01*
X21712500Y-15006786D01*
X21683928Y-14992500D01*
X21626786Y-14992500D01*
X21598214Y-15006786D01*
X21583928Y-15021071D01*
X21569643Y-15049643D01*
X22098214Y-15178214D02*
X22098214Y-14878214D01*
X22226786Y-15178214D02*
X22226786Y-15021071D01*
X22212500Y-14992500D01*
X22183928Y-14978214D01*
X22141071Y-14978214D01*
X22112500Y-14992500D01*
X22098214Y-15006786D01*
X22412500Y-15178214D02*
X22383928Y-15163929D01*
X22369643Y-15149643D01*
X22355357Y-15121071D01*
X22355357Y-15035357D01*
X22369643Y-15006786D01*
X22383928Y-14992500D01*
X22412500Y-14978214D01*
X22455357Y-14978214D01*
X22483928Y-14992500D01*
X22498214Y-15006786D01*
X22512500Y-15035357D01*
X22512500Y-15121071D01*
X22498214Y-15149643D01*
X22483928Y-15163929D01*
X22455357Y-15178214D01*
X22412500Y-15178214D01*
X22683928Y-15178214D02*
X22655357Y-15163929D01*
X22641071Y-15135357D01*
X22641071Y-14878214D01*
X22912500Y-15163929D02*
X22883928Y-15178214D01*
X22826786Y-15178214D01*
X22798214Y-15163929D01*
X22783928Y-15135357D01*
X22783928Y-15021071D01*
X22798214Y-14992500D01*
X22826786Y-14978214D01*
X22883928Y-14978214D01*
X22912500Y-14992500D01*
X22926786Y-15021071D01*
X22926786Y-15049643D01*
X22783928Y-15078214D01*
X23041071Y-15163929D02*
X23069643Y-15178214D01*
X23126786Y-15178214D01*
X23155357Y-15163929D01*
X23169643Y-15135357D01*
X23169643Y-15121071D01*
X23155357Y-15092500D01*
X23126786Y-15078214D01*
X23083928Y-15078214D01*
X23055357Y-15063929D01*
X23041071Y-15035357D01*
X23041071Y-15021071D01*
X23055357Y-14992500D01*
X23083928Y-14978214D01*
X23126786Y-14978214D01*
X23155357Y-14992500D01*
X23526786Y-15063929D02*
X23755357Y-15063929D01*
X23641071Y-15178214D02*
X23641071Y-14949643D01*
X24098214Y-14878214D02*
X24283928Y-14878214D01*
X24183928Y-14992500D01*
X24226786Y-14992500D01*
X24255357Y-15006786D01*
X24269643Y-15021071D01*
X24283928Y-15049643D01*
X24283928Y-15121071D01*
X24269643Y-15149643D01*
X24255357Y-15163929D01*
X24226786Y-15178214D01*
X24141071Y-15178214D01*
X24112500Y-15163929D01*
X24098214Y-15149643D01*
X24626786Y-15163929D02*
X24655357Y-15178214D01*
X24712500Y-15178214D01*
X24741071Y-15163929D01*
X24755357Y-15135357D01*
X24755357Y-15121071D01*
X24741071Y-15092500D01*
X24712500Y-15078214D01*
X24669643Y-15078214D01*
X24641071Y-15063929D01*
X24626786Y-15035357D01*
X24626786Y-15021071D01*
X24641071Y-14992500D01*
X24669643Y-14978214D01*
X24712500Y-14978214D01*
X24741071Y-14992500D01*
X24926786Y-15178214D02*
X24898214Y-15163929D01*
X24883928Y-15135357D01*
X24883928Y-14878214D01*
X25083928Y-15178214D02*
X25055357Y-15163929D01*
X25041071Y-15149643D01*
X25026786Y-15121071D01*
X25026786Y-15035357D01*
X25041071Y-15006786D01*
X25055357Y-14992500D01*
X25083928Y-14978214D01*
X25126786Y-14978214D01*
X25155357Y-14992500D01*
X25169643Y-15006786D01*
X25183928Y-15035357D01*
X25183928Y-15121071D01*
X25169643Y-15149643D01*
X25155357Y-15163929D01*
X25126786Y-15178214D01*
X25083928Y-15178214D01*
X25269643Y-14978214D02*
X25383928Y-14978214D01*
X25312500Y-14878214D02*
X25312500Y-15135357D01*
X25326786Y-15163929D01*
X25355357Y-15178214D01*
X25383928Y-15178214D01*
X25469643Y-15163929D02*
X25498214Y-15178214D01*
X25555357Y-15178214D01*
X25583928Y-15163929D01*
X25598214Y-15135357D01*
X25598214Y-15121071D01*
X25583928Y-15092500D01*
X25555357Y-15078214D01*
X25512500Y-15078214D01*
X25483928Y-15063929D01*
X25469643Y-15035357D01*
X25469643Y-15021071D01*
X25483928Y-14992500D01*
X25512500Y-14978214D01*
X25555357Y-14978214D01*
X25583928Y-14992500D01*
X25698214Y-15292500D02*
X25712500Y-15278214D01*
X25741071Y-15235357D01*
X25755357Y-15206786D01*
X25769643Y-15163929D01*
X25783928Y-15092500D01*
X25783928Y-15035357D01*
X25769643Y-14963929D01*
X25755357Y-14921071D01*
X25741071Y-14892500D01*
X25712500Y-14849643D01*
X25698214Y-14835357D01*
X16367500Y-15373500D02*
X16497500Y-15503500D01*
X16497500Y-15373500D02*
X16367500Y-15503500D01*
X16432500Y-15373500D02*
X16432500Y-15503500D01*
X16367500Y-15438500D02*
X16497500Y-15438500D01*
X16941071Y-15574214D02*
X16769643Y-15574214D01*
X16855357Y-15574214D02*
X16855357Y-15274214D01*
X16826786Y-15317071D01*
X16798214Y-15345643D01*
X16769643Y-15359929D01*
X17069643Y-15545643D02*
X17083928Y-15559929D01*
X17069643Y-15574214D01*
X17055357Y-15559929D01*
X17069643Y-15545643D01*
X17069643Y-15574214D01*
X17183928Y-15274214D02*
X17369643Y-15274214D01*
X17269643Y-15388500D01*
X17312500Y-15388500D01*
X17341071Y-15402786D01*
X17355357Y-15417071D01*
X17369643Y-15445643D01*
X17369643Y-15517071D01*
X17355357Y-15545643D01*
X17341071Y-15559929D01*
X17312500Y-15574214D01*
X17226786Y-15574214D01*
X17198214Y-15559929D01*
X17183928Y-15545643D01*
X17555357Y-15274214D02*
X17583928Y-15274214D01*
X17612500Y-15288500D01*
X17626786Y-15302786D01*
X17641071Y-15331357D01*
X17655357Y-15388500D01*
X17655357Y-15459929D01*
X17641071Y-15517071D01*
X17626786Y-15545643D01*
X17612500Y-15559929D01*
X17583928Y-15574214D01*
X17555357Y-15574214D01*
X17526786Y-15559929D01*
X17512500Y-15545643D01*
X17498214Y-15517071D01*
X17483928Y-15459929D01*
X17483928Y-15388500D01*
X17498214Y-15331357D01*
X17512500Y-15302786D01*
X17526786Y-15288500D01*
X17555357Y-15274214D01*
X17783928Y-15574214D02*
X17783928Y-15374214D01*
X17783928Y-15402786D02*
X17798214Y-15388500D01*
X17826786Y-15374214D01*
X17869643Y-15374214D01*
X17898214Y-15388500D01*
X17912500Y-15417071D01*
X17912500Y-15574214D01*
X17912500Y-15417071D02*
X17926786Y-15388500D01*
X17955357Y-15374214D01*
X17998214Y-15374214D01*
X18026786Y-15388500D01*
X18041071Y-15417071D01*
X18041071Y-15574214D01*
X18183928Y-15574214D02*
X18183928Y-15374214D01*
X18183928Y-15402786D02*
X18198214Y-15388500D01*
X18226786Y-15374214D01*
X18269643Y-15374214D01*
X18298214Y-15388500D01*
X18312500Y-15417071D01*
X18312500Y-15574214D01*
X18312500Y-15417071D02*
X18326786Y-15388500D01*
X18355357Y-15374214D01*
X18398214Y-15374214D01*
X18426786Y-15388500D01*
X18441071Y-15417071D01*
X18441071Y-15574214D01*
X19026786Y-15259929D02*
X18769643Y-15645643D01*
X19412500Y-15274214D02*
X19441071Y-15274214D01*
X19469643Y-15288500D01*
X19483928Y-15302786D01*
X19498214Y-15331357D01*
X19512500Y-15388500D01*
X19512500Y-15459929D01*
X19498214Y-15517071D01*
X19483928Y-15545643D01*
X19469643Y-15559929D01*
X19441071Y-15574214D01*
X19412500Y-15574214D01*
X19383928Y-15559929D01*
X19369643Y-15545643D01*
X19355357Y-15517071D01*
X19341071Y-15459929D01*
X19341071Y-15388500D01*
X19355357Y-15331357D01*
X19369643Y-15302786D01*
X19383928Y-15288500D01*
X19412500Y-15274214D01*
X19641071Y-15545643D02*
X19655357Y-15559929D01*
X19641071Y-15574214D01*
X19626786Y-15559929D01*
X19641071Y-15545643D01*
X19641071Y-15574214D01*
X19841071Y-15274214D02*
X19869643Y-15274214D01*
X19898214Y-15288500D01*
X19912500Y-15302786D01*
X19926786Y-15331357D01*
X19941071Y-15388500D01*
X19941071Y-15459929D01*
X19926786Y-15517071D01*
X19912500Y-15545643D01*
X19898214Y-15559929D01*
X19869643Y-15574214D01*
X19841071Y-15574214D01*
X19812500Y-15559929D01*
X19798214Y-15545643D01*
X19783928Y-15517071D01*
X19769643Y-15459929D01*
X19769643Y-15388500D01*
X19783928Y-15331357D01*
X19798214Y-15302786D01*
X19812500Y-15288500D01*
X19841071Y-15274214D01*
X20212500Y-15274214D02*
X20069643Y-15274214D01*
X20055357Y-15417071D01*
X20069643Y-15402786D01*
X20098214Y-15388500D01*
X20169643Y-15388500D01*
X20198214Y-15402786D01*
X20212500Y-15417071D01*
X20226786Y-15445643D01*
X20226786Y-15517071D01*
X20212500Y-15545643D01*
X20198214Y-15559929D01*
X20169643Y-15574214D01*
X20098214Y-15574214D01*
X20069643Y-15559929D01*
X20055357Y-15545643D01*
X20512500Y-15574214D02*
X20341071Y-15574214D01*
X20426786Y-15574214D02*
X20426786Y-15274214D01*
X20398214Y-15317071D01*
X20369643Y-15345643D01*
X20341071Y-15359929D01*
X20626786Y-15274214D02*
X20626786Y-15331357D01*
X20741071Y-15274214D02*
X20741071Y-15331357D01*
X21183928Y-15688500D02*
X21169643Y-15674214D01*
X21141071Y-15631357D01*
X21126786Y-15602786D01*
X21112500Y-15559929D01*
X21098214Y-15488500D01*
X21098214Y-15431357D01*
X21112500Y-15359929D01*
X21126786Y-15317071D01*
X21141071Y-15288500D01*
X21169643Y-15245643D01*
X21183928Y-15231357D01*
X21426786Y-15374214D02*
X21426786Y-15574214D01*
X21355357Y-15259929D02*
X21283928Y-15474214D01*
X21469643Y-15474214D01*
X21812500Y-15574214D02*
X21812500Y-15274214D01*
X21941071Y-15574214D02*
X21941071Y-15417071D01*
X21926786Y-15388500D01*
X21898214Y-15374214D01*
X21855357Y-15374214D01*
X21826786Y-15388500D01*
X21812500Y-15402786D01*
X22126786Y-15574214D02*
X22098214Y-15559929D01*
X22083928Y-15545643D01*
X22069643Y-15517071D01*
X22069643Y-15431357D01*
X22083928Y-15402786D01*
X22098214Y-15388500D01*
X22126786Y-15374214D01*
X22169643Y-15374214D01*
X22198214Y-15388500D01*
X22212500Y-15402786D01*
X22226786Y-15431357D01*
X22226786Y-15517071D01*
X22212500Y-15545643D01*
X22198214Y-15559929D01*
X22169643Y-15574214D01*
X22126786Y-15574214D01*
X22398214Y-15574214D02*
X22369643Y-15559929D01*
X22355357Y-15531357D01*
X22355357Y-15274214D01*
X22626786Y-15559929D02*
X22598214Y-15574214D01*
X22541071Y-15574214D01*
X22512500Y-15559929D01*
X22498214Y-15531357D01*
X22498214Y-15417071D01*
X22512500Y-15388500D01*
X22541071Y-15374214D01*
X22598214Y-15374214D01*
X22626786Y-15388500D01*
X22641071Y-15417071D01*
X22641071Y-15445643D01*
X22498214Y-15474214D01*
X22755357Y-15559929D02*
X22783928Y-15574214D01*
X22841071Y-15574214D01*
X22869643Y-15559929D01*
X22883928Y-15531357D01*
X22883928Y-15517071D01*
X22869643Y-15488500D01*
X22841071Y-15474214D01*
X22798214Y-15474214D01*
X22769643Y-15459929D01*
X22755357Y-15431357D01*
X22755357Y-15417071D01*
X22769643Y-15388500D01*
X22798214Y-15374214D01*
X22841071Y-15374214D01*
X22869643Y-15388500D01*
X22983928Y-15688500D02*
X22998214Y-15674214D01*
X23026786Y-15631357D01*
X23041071Y-15602786D01*
X23055357Y-15559929D01*
X23069643Y-15488500D01*
X23069643Y-15431357D01*
X23055357Y-15359929D01*
X23041071Y-15317071D01*
X23026786Y-15288500D01*
X22998214Y-15245643D01*
X22983928Y-15231357D01*
M02*
