G04 #@! TF.GenerationSoftware,KiCad,Pcbnew,(5.1.9)-1*
G04 #@! TF.CreationDate,2021-05-18T22:54:22-05:00*
G04 #@! TF.ProjectId,DevMagneticEncoders,4465764d-6167-46e6-9574-6963456e636f,rev?*
G04 #@! TF.SameCoordinates,Original*
G04 #@! TF.FileFunction,Legend,Bot*
G04 #@! TF.FilePolarity,Positive*
%FSLAX46Y46*%
G04 Gerber Fmt 4.6, Leading zero omitted, Abs format (unit mm)*
G04 Created by KiCad (PCBNEW (5.1.9)-1) date 2021-05-18 22:54:22*
%MOMM*%
%LPD*%
G01*
G04 APERTURE LIST*
%ADD10C,0.150000*%
%ADD11O,1.950000X1.700000*%
%ADD12C,0.600000*%
%ADD13O,1.750000X1.200000*%
%ADD14O,1.700000X1.700000*%
%ADD15R,1.700000X1.700000*%
%ADD16C,2.600000*%
%ADD17R,2.600000X2.600000*%
%ADD18O,1.600000X1.600000*%
%ADD19R,1.600000X1.600000*%
G04 APERTURE END LIST*
D10*
X99907857Y-58824761D02*
X99765000Y-58872380D01*
X99526904Y-58872380D01*
X99431666Y-58824761D01*
X99384047Y-58777142D01*
X99336428Y-58681904D01*
X99336428Y-58586666D01*
X99384047Y-58491428D01*
X99431666Y-58443809D01*
X99526904Y-58396190D01*
X99717380Y-58348571D01*
X99812619Y-58300952D01*
X99860238Y-58253333D01*
X99907857Y-58158095D01*
X99907857Y-58062857D01*
X99860238Y-57967619D01*
X99812619Y-57920000D01*
X99717380Y-57872380D01*
X99479285Y-57872380D01*
X99336428Y-57920000D01*
X98955476Y-58586666D02*
X98479285Y-58586666D01*
X99050714Y-58872380D02*
X98717380Y-57872380D01*
X98384047Y-58872380D01*
X97526904Y-57920000D02*
X97622142Y-57872380D01*
X97765000Y-57872380D01*
X97907857Y-57920000D01*
X98003095Y-58015238D01*
X98050714Y-58110476D01*
X98098333Y-58300952D01*
X98098333Y-58443809D01*
X98050714Y-58634285D01*
X98003095Y-58729523D01*
X97907857Y-58824761D01*
X97765000Y-58872380D01*
X97669761Y-58872380D01*
X97526904Y-58824761D01*
X97479285Y-58777142D01*
X97479285Y-58443809D01*
X97669761Y-58443809D01*
X97050714Y-58348571D02*
X96717380Y-58348571D01*
X96574523Y-58872380D02*
X97050714Y-58872380D01*
X97050714Y-57872380D01*
X96574523Y-57872380D01*
X94812619Y-58872380D02*
X95145952Y-58396190D01*
X95384047Y-58872380D02*
X95384047Y-57872380D01*
X95003095Y-57872380D01*
X94907857Y-57920000D01*
X94860238Y-57967619D01*
X94812619Y-58062857D01*
X94812619Y-58205714D01*
X94860238Y-58300952D01*
X94907857Y-58348571D01*
X95003095Y-58396190D01*
X95384047Y-58396190D01*
X94193571Y-57872380D02*
X94003095Y-57872380D01*
X93907857Y-57920000D01*
X93812619Y-58015238D01*
X93765000Y-58205714D01*
X93765000Y-58539047D01*
X93812619Y-58729523D01*
X93907857Y-58824761D01*
X94003095Y-58872380D01*
X94193571Y-58872380D01*
X94288809Y-58824761D01*
X94384047Y-58729523D01*
X94431666Y-58539047D01*
X94431666Y-58205714D01*
X94384047Y-58015238D01*
X94288809Y-57920000D01*
X94193571Y-57872380D01*
X93003095Y-58348571D02*
X92860238Y-58396190D01*
X92812619Y-58443809D01*
X92765000Y-58539047D01*
X92765000Y-58681904D01*
X92812619Y-58777142D01*
X92860238Y-58824761D01*
X92955476Y-58872380D01*
X93336428Y-58872380D01*
X93336428Y-57872380D01*
X93003095Y-57872380D01*
X92907857Y-57920000D01*
X92860238Y-57967619D01*
X92812619Y-58062857D01*
X92812619Y-58158095D01*
X92860238Y-58253333D01*
X92907857Y-58300952D01*
X93003095Y-58348571D01*
X93336428Y-58348571D01*
X92145952Y-57872380D02*
X91955476Y-57872380D01*
X91860238Y-57920000D01*
X91765000Y-58015238D01*
X91717380Y-58205714D01*
X91717380Y-58539047D01*
X91765000Y-58729523D01*
X91860238Y-58824761D01*
X91955476Y-58872380D01*
X92145952Y-58872380D01*
X92241190Y-58824761D01*
X92336428Y-58729523D01*
X92384047Y-58539047D01*
X92384047Y-58205714D01*
X92336428Y-58015238D01*
X92241190Y-57920000D01*
X92145952Y-57872380D01*
X91431666Y-57872380D02*
X90860238Y-57872380D01*
X91145952Y-58872380D02*
X91145952Y-57872380D01*
X90574523Y-58824761D02*
X90431666Y-58872380D01*
X90193571Y-58872380D01*
X90098333Y-58824761D01*
X90050714Y-58777142D01*
X90003095Y-58681904D01*
X90003095Y-58586666D01*
X90050714Y-58491428D01*
X90098333Y-58443809D01*
X90193571Y-58396190D01*
X90384047Y-58348571D01*
X90479285Y-58300952D01*
X90526904Y-58253333D01*
X90574523Y-58158095D01*
X90574523Y-58062857D01*
X90526904Y-57967619D01*
X90479285Y-57920000D01*
X90384047Y-57872380D01*
X90145952Y-57872380D01*
X90003095Y-57920000D01*
X88860238Y-58586666D02*
X88384047Y-58586666D01*
X88955476Y-58872380D02*
X88622142Y-57872380D01*
X88288809Y-58872380D01*
X87526904Y-58205714D02*
X87526904Y-58872380D01*
X87765000Y-57824761D02*
X88003095Y-58539047D01*
X87384047Y-58539047D01*
X86241190Y-58872380D02*
X86241190Y-57872380D01*
X86003095Y-57872380D01*
X85860238Y-57920000D01*
X85765000Y-58015238D01*
X85717380Y-58110476D01*
X85669761Y-58300952D01*
X85669761Y-58443809D01*
X85717380Y-58634285D01*
X85765000Y-58729523D01*
X85860238Y-58824761D01*
X86003095Y-58872380D01*
X86241190Y-58872380D01*
X85241190Y-58348571D02*
X84907857Y-58348571D01*
X84765000Y-58872380D02*
X85241190Y-58872380D01*
X85241190Y-57872380D01*
X84765000Y-57872380D01*
X84479285Y-57872380D02*
X84145952Y-58872380D01*
X83812619Y-57872380D01*
X82384047Y-58348571D02*
X82241190Y-58396190D01*
X82193571Y-58443809D01*
X82145952Y-58539047D01*
X82145952Y-58681904D01*
X82193571Y-58777142D01*
X82241190Y-58824761D01*
X82336428Y-58872380D01*
X82717380Y-58872380D01*
X82717380Y-57872380D01*
X82384047Y-57872380D01*
X82288809Y-57920000D01*
X82241190Y-57967619D01*
X82193571Y-58062857D01*
X82193571Y-58158095D01*
X82241190Y-58253333D01*
X82288809Y-58300952D01*
X82384047Y-58348571D01*
X82717380Y-58348571D01*
X81526904Y-57872380D02*
X81336428Y-57872380D01*
X81241190Y-57920000D01*
X81145952Y-58015238D01*
X81098333Y-58205714D01*
X81098333Y-58539047D01*
X81145952Y-58729523D01*
X81241190Y-58824761D01*
X81336428Y-58872380D01*
X81526904Y-58872380D01*
X81622142Y-58824761D01*
X81717380Y-58729523D01*
X81765000Y-58539047D01*
X81765000Y-58205714D01*
X81717380Y-58015238D01*
X81622142Y-57920000D01*
X81526904Y-57872380D01*
X80717380Y-58586666D02*
X80241190Y-58586666D01*
X80812619Y-58872380D02*
X80479285Y-57872380D01*
X80145952Y-58872380D01*
X79241190Y-58872380D02*
X79574523Y-58396190D01*
X79812619Y-58872380D02*
X79812619Y-57872380D01*
X79431666Y-57872380D01*
X79336428Y-57920000D01*
X79288809Y-57967619D01*
X79241190Y-58062857D01*
X79241190Y-58205714D01*
X79288809Y-58300952D01*
X79336428Y-58348571D01*
X79431666Y-58396190D01*
X79812619Y-58396190D01*
X78812619Y-58872380D02*
X78812619Y-57872380D01*
X78574523Y-57872380D01*
X78431666Y-57920000D01*
X78336428Y-58015238D01*
X78288809Y-58110476D01*
X78241190Y-58300952D01*
X78241190Y-58443809D01*
X78288809Y-58634285D01*
X78336428Y-58729523D01*
X78431666Y-58824761D01*
X78574523Y-58872380D01*
X78812619Y-58872380D01*
X77098333Y-58586666D02*
X76622142Y-58586666D01*
X77193571Y-58872380D02*
X76860238Y-57872380D01*
X76526904Y-58872380D01*
%LPC*%
D11*
X103500000Y-106500000D03*
X103500000Y-104000000D03*
X103500000Y-101500000D03*
X103500000Y-99000000D03*
X103500000Y-96500000D03*
G36*
G01*
X102775000Y-93150000D02*
X104225000Y-93150000D01*
G75*
G02*
X104475000Y-93400000I0J-250000D01*
G01*
X104475000Y-94600000D01*
G75*
G02*
X104225000Y-94850000I-250000J0D01*
G01*
X102775000Y-94850000D01*
G75*
G02*
X102525000Y-94600000I0J250000D01*
G01*
X102525000Y-93400000D01*
G75*
G02*
X102775000Y-93150000I250000J0D01*
G01*
G37*
X112000000Y-106500000D03*
X112000000Y-104000000D03*
X112000000Y-101500000D03*
X112000000Y-99000000D03*
X112000000Y-96500000D03*
G36*
G01*
X111275000Y-93150000D02*
X112725000Y-93150000D01*
G75*
G02*
X112975000Y-93400000I0J-250000D01*
G01*
X112975000Y-94600000D01*
G75*
G02*
X112725000Y-94850000I-250000J0D01*
G01*
X111275000Y-94850000D01*
G75*
G02*
X111025000Y-94600000I0J250000D01*
G01*
X111025000Y-93400000D01*
G75*
G02*
X111275000Y-93150000I250000J0D01*
G01*
G37*
D12*
X98000000Y-75500000D03*
X98750000Y-74750000D03*
X98750000Y-73250000D03*
X95750000Y-73250000D03*
X95750000Y-74750000D03*
X96500000Y-75500000D03*
X97300000Y-74750000D03*
X96500000Y-74000000D03*
X97300000Y-73250000D03*
X98000000Y-74000000D03*
X98000000Y-72500000D03*
X96500000Y-72500000D03*
D11*
X67000000Y-77500000D03*
X67000000Y-80000000D03*
X67000000Y-82500000D03*
G36*
G01*
X67725000Y-85850000D02*
X66275000Y-85850000D01*
G75*
G02*
X66025000Y-85600000I0J250000D01*
G01*
X66025000Y-84400000D01*
G75*
G02*
X66275000Y-84150000I250000J0D01*
G01*
X67725000Y-84150000D01*
G75*
G02*
X67975000Y-84400000I0J-250000D01*
G01*
X67975000Y-85600000D01*
G75*
G02*
X67725000Y-85850000I-250000J0D01*
G01*
G37*
X67000000Y-95500000D03*
X67000000Y-98000000D03*
X67000000Y-100500000D03*
G36*
G01*
X67725000Y-103850000D02*
X66275000Y-103850000D01*
G75*
G02*
X66025000Y-103600000I0J250000D01*
G01*
X66025000Y-102400000D01*
G75*
G02*
X66275000Y-102150000I250000J0D01*
G01*
X67725000Y-102150000D01*
G75*
G02*
X67975000Y-102400000I0J-250000D01*
G01*
X67975000Y-103600000D01*
G75*
G02*
X67725000Y-103850000I-250000J0D01*
G01*
G37*
D13*
X112500000Y-81000000D03*
X112500000Y-79000000D03*
X112500000Y-77000000D03*
X112500000Y-75000000D03*
X112500000Y-73000000D03*
G36*
G01*
X111874999Y-70400000D02*
X113125001Y-70400000D01*
G75*
G02*
X113375000Y-70649999I0J-249999D01*
G01*
X113375000Y-71350001D01*
G75*
G02*
X113125001Y-71600000I-249999J0D01*
G01*
X111874999Y-71600000D01*
G75*
G02*
X111625000Y-71350001I0J249999D01*
G01*
X111625000Y-70649999D01*
G75*
G02*
X111874999Y-70400000I249999J0D01*
G01*
G37*
D14*
X82540000Y-81080000D03*
X80000000Y-81080000D03*
X82540000Y-78540000D03*
X80000000Y-78540000D03*
X82540000Y-76000000D03*
D15*
X80000000Y-76000000D03*
D14*
X81080000Y-97960000D03*
X81080000Y-100500000D03*
X78540000Y-97960000D03*
X78540000Y-100500000D03*
X76000000Y-97960000D03*
D15*
X76000000Y-100500000D03*
D16*
X76500000Y-64500000D03*
D17*
X71500000Y-64500000D03*
D18*
X86200000Y-72000000D03*
X73500000Y-89780000D03*
X86200000Y-74540000D03*
X73500000Y-87240000D03*
X86200000Y-77080000D03*
X73500000Y-84700000D03*
X86200000Y-79620000D03*
X73500000Y-82160000D03*
X86200000Y-82160000D03*
X73500000Y-79620000D03*
X86200000Y-84700000D03*
X73500000Y-77080000D03*
X86200000Y-87240000D03*
X73500000Y-74540000D03*
X86200000Y-89780000D03*
D19*
X73500000Y-72000000D03*
D18*
X73500000Y-94300000D03*
X91280000Y-107000000D03*
X76040000Y-94300000D03*
X88740000Y-107000000D03*
X78580000Y-94300000D03*
X86200000Y-107000000D03*
X81120000Y-94300000D03*
X83660000Y-107000000D03*
X83660000Y-94300000D03*
X81120000Y-107000000D03*
X86200000Y-94300000D03*
X78580000Y-107000000D03*
X88740000Y-94300000D03*
X76040000Y-107000000D03*
X91280000Y-94300000D03*
D19*
X73500000Y-107000000D03*
M02*
