G04 #@! TF.GenerationSoftware,KiCad,Pcbnew,(5.1.9)-1*
G04 #@! TF.CreationDate,2021-08-10T13:47:58-05:00*
G04 #@! TF.ProjectId,DevMagneticEncoders,4465764d-6167-46e6-9574-6963456e636f,rev?*
G04 #@! TF.SameCoordinates,Original*
G04 #@! TF.FileFunction,Legend,Top*
G04 #@! TF.FilePolarity,Positive*
%FSLAX46Y46*%
G04 Gerber Fmt 4.6, Leading zero omitted, Abs format (unit mm)*
G04 Created by KiCad (PCBNEW (5.1.9)-1) date 2021-08-10 13:47:58*
%MOMM*%
%LPD*%
G01*
G04 APERTURE LIST*
%ADD10C,0.150000*%
%ADD11C,0.120000*%
%ADD12O,1.700000X1.950000*%
%ADD13R,2.290000X3.000000*%
%ADD14R,1.600000X1.400000*%
%ADD15O,1.700000X1.700000*%
%ADD16R,1.700000X1.700000*%
%ADD17O,1.700000X2.000000*%
%ADD18O,1.600000X1.600000*%
%ADD19R,1.600000X1.600000*%
%ADD20C,0.600000*%
%ADD21R,1.100000X1.100000*%
%ADD22R,1.500000X0.900000*%
%ADD23R,0.900000X1.500000*%
%ADD24R,2.000000X1.500000*%
%ADD25R,2.000000X3.800000*%
%ADD26O,1.950000X1.700000*%
%ADD27C,2.600000*%
%ADD28R,2.600000X2.600000*%
G04 APERTURE END LIST*
D10*
X71144047Y-55824380D02*
X70667857Y-55824380D01*
X70667857Y-54824380D01*
X72048809Y-55729142D02*
X72001190Y-55776761D01*
X71858333Y-55824380D01*
X71763095Y-55824380D01*
X71620238Y-55776761D01*
X71525000Y-55681523D01*
X71477380Y-55586285D01*
X71429761Y-55395809D01*
X71429761Y-55252952D01*
X71477380Y-55062476D01*
X71525000Y-54967238D01*
X71620238Y-54872000D01*
X71763095Y-54824380D01*
X71858333Y-54824380D01*
X72001190Y-54872000D01*
X72048809Y-54919619D01*
X72239285Y-55919619D02*
X73001190Y-55919619D01*
X73239285Y-55824380D02*
X73239285Y-54824380D01*
X73477380Y-54824380D01*
X73620238Y-54872000D01*
X73715476Y-54967238D01*
X73763095Y-55062476D01*
X73810714Y-55252952D01*
X73810714Y-55395809D01*
X73763095Y-55586285D01*
X73715476Y-55681523D01*
X73620238Y-55776761D01*
X73477380Y-55824380D01*
X73239285Y-55824380D01*
X74191666Y-55538666D02*
X74667857Y-55538666D01*
X74096428Y-55824380D02*
X74429761Y-54824380D01*
X74763095Y-55824380D01*
X74953571Y-54824380D02*
X75525000Y-54824380D01*
X75239285Y-55824380D02*
X75239285Y-54824380D01*
X113982476Y-89701714D02*
X113982476Y-90368380D01*
X113744380Y-89320761D02*
X113506285Y-90035047D01*
X114125333Y-90035047D01*
X114125380Y-61301380D02*
X114220619Y-61301380D01*
X114315857Y-61349000D01*
X114363476Y-61396619D01*
X114411095Y-61491857D01*
X114458714Y-61682333D01*
X114458714Y-61920428D01*
X114411095Y-62110904D01*
X114363476Y-62206142D01*
X114315857Y-62253761D01*
X114220619Y-62301380D01*
X114125380Y-62301380D01*
X114030142Y-62253761D01*
X113982523Y-62206142D01*
X113934904Y-62110904D01*
X113887285Y-61920428D01*
X113887285Y-61682333D01*
X113934904Y-61491857D01*
X113982523Y-61396619D01*
X114030142Y-61349000D01*
X114125380Y-61301380D01*
X122110476Y-120562714D02*
X122110476Y-121229380D01*
X121872380Y-120181761D02*
X121634285Y-120896047D01*
X122253333Y-120896047D01*
X106219666Y-119848380D02*
X106838714Y-119848380D01*
X106505380Y-120229333D01*
X106648238Y-120229333D01*
X106743476Y-120276952D01*
X106791095Y-120324571D01*
X106838714Y-120419809D01*
X106838714Y-120657904D01*
X106791095Y-120753142D01*
X106743476Y-120800761D01*
X106648238Y-120848380D01*
X106362523Y-120848380D01*
X106267285Y-120800761D01*
X106219666Y-120753142D01*
X90138285Y-120324619D02*
X90185904Y-120277000D01*
X90281142Y-120229380D01*
X90519238Y-120229380D01*
X90614476Y-120277000D01*
X90662095Y-120324619D01*
X90709714Y-120419857D01*
X90709714Y-120515095D01*
X90662095Y-120657952D01*
X90090666Y-121229380D01*
X90709714Y-121229380D01*
X67135380Y-91400380D02*
X67230619Y-91400380D01*
X67325857Y-91448000D01*
X67373476Y-91495619D01*
X67421095Y-91590857D01*
X67468714Y-91781333D01*
X67468714Y-92019428D01*
X67421095Y-92209904D01*
X67373476Y-92305142D01*
X67325857Y-92352761D01*
X67230619Y-92400380D01*
X67135380Y-92400380D01*
X67040142Y-92352761D01*
X66992523Y-92305142D01*
X66944904Y-92209904D01*
X66897285Y-92019428D01*
X66897285Y-91781333D01*
X66944904Y-91590857D01*
X66992523Y-91495619D01*
X67040142Y-91448000D01*
X67135380Y-91400380D01*
X67595714Y-74366380D02*
X67024285Y-74366380D01*
X67310000Y-74366380D02*
X67310000Y-73366380D01*
X67214761Y-73509238D01*
X67119523Y-73604476D01*
X67024285Y-73652095D01*
X73152095Y-66429000D02*
X73056857Y-66381380D01*
X72914000Y-66381380D01*
X72771142Y-66429000D01*
X72675904Y-66524238D01*
X72628285Y-66619476D01*
X72580666Y-66809952D01*
X72580666Y-66952809D01*
X72628285Y-67143285D01*
X72675904Y-67238523D01*
X72771142Y-67333761D01*
X72914000Y-67381380D01*
X73009238Y-67381380D01*
X73152095Y-67333761D01*
X73199714Y-67286142D01*
X73199714Y-66952809D01*
X73009238Y-66952809D01*
X73628285Y-67381380D02*
X73628285Y-66381380D01*
X74199714Y-67381380D01*
X74199714Y-66381380D01*
X74675904Y-67381380D02*
X74675904Y-66381380D01*
X74914000Y-66381380D01*
X75056857Y-66429000D01*
X75152095Y-66524238D01*
X75199714Y-66619476D01*
X75247333Y-66809952D01*
X75247333Y-66952809D01*
X75199714Y-67143285D01*
X75152095Y-67238523D01*
X75056857Y-67333761D01*
X74914000Y-67381380D01*
X74675904Y-67381380D01*
X73294952Y-62428380D02*
X72723523Y-62428380D01*
X73009238Y-62428380D02*
X73009238Y-61428380D01*
X72914000Y-61571238D01*
X72818761Y-61666476D01*
X72723523Y-61714095D01*
X73675904Y-61523619D02*
X73723523Y-61476000D01*
X73818761Y-61428380D01*
X74056857Y-61428380D01*
X74152095Y-61476000D01*
X74199714Y-61523619D01*
X74247333Y-61618857D01*
X74247333Y-61714095D01*
X74199714Y-61856952D01*
X73628285Y-62428380D01*
X74247333Y-62428380D01*
X74533047Y-61428380D02*
X74866380Y-62428380D01*
X75199714Y-61428380D01*
X133985047Y-90241428D02*
X134746952Y-90241428D01*
X134366000Y-90622380D02*
X134366000Y-89860476D01*
X133747000Y-56840380D02*
X133747000Y-55840380D01*
X134413666Y-55840380D02*
X134604142Y-55840380D01*
X134699380Y-55888000D01*
X134794619Y-55983238D01*
X134842238Y-56173714D01*
X134842238Y-56507047D01*
X134794619Y-56697523D01*
X134699380Y-56792761D01*
X134604142Y-56840380D01*
X134413666Y-56840380D01*
X134318428Y-56792761D01*
X134223190Y-56697523D01*
X134175571Y-56507047D01*
X134175571Y-56173714D01*
X134223190Y-55983238D01*
X134318428Y-55888000D01*
X134413666Y-55840380D01*
X135461285Y-55840380D02*
X135556523Y-55840380D01*
X135651761Y-55888000D01*
X135699380Y-55935619D01*
X135747000Y-56030857D01*
X135794619Y-56221333D01*
X135794619Y-56459428D01*
X135747000Y-56649904D01*
X135699380Y-56745142D01*
X135651761Y-56792761D01*
X135556523Y-56840380D01*
X135461285Y-56840380D01*
X135366047Y-56792761D01*
X135318428Y-56745142D01*
X135270809Y-56649904D01*
X135223190Y-56459428D01*
X135223190Y-56221333D01*
X135270809Y-56030857D01*
X135318428Y-55935619D01*
X135366047Y-55888000D01*
X135461285Y-55840380D01*
X112291904Y-56570571D02*
X112625238Y-56570571D01*
X112768095Y-57094380D02*
X112291904Y-57094380D01*
X112291904Y-56094380D01*
X112768095Y-56094380D01*
X113196666Y-57094380D02*
X113196666Y-56094380D01*
X113768095Y-57094380D01*
X113768095Y-56094380D01*
X113037904Y-76589000D02*
X112942666Y-76541380D01*
X112799809Y-76541380D01*
X112656952Y-76589000D01*
X112561714Y-76684238D01*
X112514095Y-76779476D01*
X112466476Y-76969952D01*
X112466476Y-77112809D01*
X112514095Y-77303285D01*
X112561714Y-77398523D01*
X112656952Y-77493761D01*
X112799809Y-77541380D01*
X112895047Y-77541380D01*
X113037904Y-77493761D01*
X113085523Y-77446142D01*
X113085523Y-77112809D01*
X112895047Y-77112809D01*
X112990333Y-74874380D02*
X112657000Y-74398190D01*
X112418904Y-74874380D02*
X112418904Y-73874380D01*
X112799857Y-73874380D01*
X112895095Y-73922000D01*
X112942714Y-73969619D01*
X112990333Y-74064857D01*
X112990333Y-74207714D01*
X112942714Y-74302952D01*
X112895095Y-74350571D01*
X112799857Y-74398190D01*
X112418904Y-74398190D01*
X113323666Y-73874380D02*
X113990333Y-74874380D01*
X113990333Y-73874380D02*
X113323666Y-74874380D01*
X112268095Y-71334380D02*
X112839523Y-71334380D01*
X112553809Y-72334380D02*
X112553809Y-71334380D01*
X113077619Y-71334380D02*
X113744285Y-72334380D01*
X113744285Y-71334380D02*
X113077619Y-72334380D01*
D11*
X68500000Y-118500000D02*
G75*
G03*
X68500000Y-118500000I-3000000J0D01*
G01*
X143500000Y-118500000D02*
G75*
G03*
X143500000Y-118500000I-3000000J0D01*
G01*
X68500000Y-55500000D02*
G75*
G03*
X68500000Y-55500000I-3000000J0D01*
G01*
X143500000Y-55500000D02*
G75*
G03*
X143500000Y-55500000I-3000000J0D01*
G01*
X88666000Y-57832000D02*
X88666000Y-51862000D01*
X88666000Y-51862000D02*
X76046000Y-51862000D01*
X76046000Y-51862000D02*
X76046000Y-57832000D01*
X76046000Y-57832000D02*
X88666000Y-57832000D01*
X85356000Y-57822000D02*
X85356000Y-57072000D01*
X85356000Y-57072000D02*
X79356000Y-57072000D01*
X79356000Y-57072000D02*
X79356000Y-57822000D01*
X79356000Y-57822000D02*
X85356000Y-57822000D01*
X88656000Y-57822000D02*
X88656000Y-57072000D01*
X88656000Y-57072000D02*
X86856000Y-57072000D01*
X86856000Y-57072000D02*
X86856000Y-57822000D01*
X86856000Y-57822000D02*
X88656000Y-57822000D01*
X77856000Y-57822000D02*
X77856000Y-57072000D01*
X77856000Y-57072000D02*
X76056000Y-57072000D01*
X76056000Y-57072000D02*
X76056000Y-57822000D01*
X76056000Y-57822000D02*
X77856000Y-57822000D01*
X88656000Y-55572000D02*
X87906000Y-55572000D01*
X87906000Y-55572000D02*
X87906000Y-52622000D01*
X87906000Y-52622000D02*
X82356000Y-52622000D01*
X76056000Y-55572000D02*
X76806000Y-55572000D01*
X76806000Y-55572000D02*
X76806000Y-52622000D01*
X76806000Y-52622000D02*
X82356000Y-52622000D01*
X87706000Y-58122000D02*
X88956000Y-58122000D01*
X88956000Y-58122000D02*
X88956000Y-56872000D01*
X132560000Y-64460000D02*
X132560000Y-58490000D01*
X132560000Y-58490000D02*
X114940000Y-58490000D01*
X114940000Y-58490000D02*
X114940000Y-64460000D01*
X114940000Y-64460000D02*
X132560000Y-64460000D01*
X129250000Y-64450000D02*
X129250000Y-63700000D01*
X129250000Y-63700000D02*
X118250000Y-63700000D01*
X118250000Y-63700000D02*
X118250000Y-64450000D01*
X118250000Y-64450000D02*
X129250000Y-64450000D01*
X132550000Y-64450000D02*
X132550000Y-63700000D01*
X132550000Y-63700000D02*
X130750000Y-63700000D01*
X130750000Y-63700000D02*
X130750000Y-64450000D01*
X130750000Y-64450000D02*
X132550000Y-64450000D01*
X116750000Y-64450000D02*
X116750000Y-63700000D01*
X116750000Y-63700000D02*
X114950000Y-63700000D01*
X114950000Y-63700000D02*
X114950000Y-64450000D01*
X114950000Y-64450000D02*
X116750000Y-64450000D01*
X132550000Y-62200000D02*
X131800000Y-62200000D01*
X131800000Y-62200000D02*
X131800000Y-59250000D01*
X131800000Y-59250000D02*
X123750000Y-59250000D01*
X114950000Y-62200000D02*
X115700000Y-62200000D01*
X115700000Y-62200000D02*
X115700000Y-59250000D01*
X115700000Y-59250000D02*
X123750000Y-59250000D01*
X131600000Y-64750000D02*
X132850000Y-64750000D01*
X132850000Y-64750000D02*
X132850000Y-63500000D01*
X137160000Y-77060000D02*
X139110000Y-77060000D01*
X137160000Y-77060000D02*
X135210000Y-77060000D01*
X137160000Y-71940000D02*
X139110000Y-71940000D01*
X137160000Y-71940000D02*
X133710000Y-71940000D01*
X139500000Y-84560000D02*
X141450000Y-84560000D01*
X139500000Y-84560000D02*
X137550000Y-84560000D01*
X139500000Y-79440000D02*
X141450000Y-79440000D01*
X139500000Y-79440000D02*
X136050000Y-79440000D01*
X126250000Y-52750000D02*
X130750000Y-52750000D01*
X130750000Y-52750000D02*
X130750000Y-57250000D01*
X130750000Y-57250000D02*
X126250000Y-57250000D01*
X126250000Y-57250000D02*
X126250000Y-52750000D01*
X130000000Y-55000000D02*
G75*
G03*
X130000000Y-55000000I-1500000J0D01*
G01*
X116750000Y-52750000D02*
X121250000Y-52750000D01*
X121250000Y-52750000D02*
X121250000Y-57250000D01*
X121250000Y-57250000D02*
X116750000Y-57250000D01*
X116750000Y-57250000D02*
X116750000Y-52750000D01*
X120500000Y-55000000D02*
G75*
G03*
X120500000Y-55000000I-1500000J0D01*
G01*
X141272936Y-62265000D02*
X141727064Y-62265000D01*
X141272936Y-63735000D02*
X141727064Y-63735000D01*
X122940000Y-116040000D02*
X122940000Y-122010000D01*
X122940000Y-122010000D02*
X135560000Y-122010000D01*
X135560000Y-122010000D02*
X135560000Y-116040000D01*
X135560000Y-116040000D02*
X122940000Y-116040000D01*
X126250000Y-116050000D02*
X126250000Y-116800000D01*
X126250000Y-116800000D02*
X132250000Y-116800000D01*
X132250000Y-116800000D02*
X132250000Y-116050000D01*
X132250000Y-116050000D02*
X126250000Y-116050000D01*
X122950000Y-116050000D02*
X122950000Y-116800000D01*
X122950000Y-116800000D02*
X124750000Y-116800000D01*
X124750000Y-116800000D02*
X124750000Y-116050000D01*
X124750000Y-116050000D02*
X122950000Y-116050000D01*
X133750000Y-116050000D02*
X133750000Y-116800000D01*
X133750000Y-116800000D02*
X135550000Y-116800000D01*
X135550000Y-116800000D02*
X135550000Y-116050000D01*
X135550000Y-116050000D02*
X133750000Y-116050000D01*
X122950000Y-118300000D02*
X123700000Y-118300000D01*
X123700000Y-118300000D02*
X123700000Y-121250000D01*
X123700000Y-121250000D02*
X129250000Y-121250000D01*
X135550000Y-118300000D02*
X134800000Y-118300000D01*
X134800000Y-118300000D02*
X134800000Y-121250000D01*
X134800000Y-121250000D02*
X129250000Y-121250000D01*
X123900000Y-115750000D02*
X122650000Y-115750000D01*
X122650000Y-115750000D02*
X122650000Y-117000000D01*
X107440000Y-116040000D02*
X107440000Y-122010000D01*
X107440000Y-122010000D02*
X120060000Y-122010000D01*
X120060000Y-122010000D02*
X120060000Y-116040000D01*
X120060000Y-116040000D02*
X107440000Y-116040000D01*
X110750000Y-116050000D02*
X110750000Y-116800000D01*
X110750000Y-116800000D02*
X116750000Y-116800000D01*
X116750000Y-116800000D02*
X116750000Y-116050000D01*
X116750000Y-116050000D02*
X110750000Y-116050000D01*
X107450000Y-116050000D02*
X107450000Y-116800000D01*
X107450000Y-116800000D02*
X109250000Y-116800000D01*
X109250000Y-116800000D02*
X109250000Y-116050000D01*
X109250000Y-116050000D02*
X107450000Y-116050000D01*
X118250000Y-116050000D02*
X118250000Y-116800000D01*
X118250000Y-116800000D02*
X120050000Y-116800000D01*
X120050000Y-116800000D02*
X120050000Y-116050000D01*
X120050000Y-116050000D02*
X118250000Y-116050000D01*
X107450000Y-118300000D02*
X108200000Y-118300000D01*
X108200000Y-118300000D02*
X108200000Y-121250000D01*
X108200000Y-121250000D02*
X113750000Y-121250000D01*
X120050000Y-118300000D02*
X119300000Y-118300000D01*
X119300000Y-118300000D02*
X119300000Y-121250000D01*
X119300000Y-121250000D02*
X113750000Y-121250000D01*
X108400000Y-115750000D02*
X107150000Y-115750000D01*
X107150000Y-115750000D02*
X107150000Y-117000000D01*
X92440000Y-116040000D02*
X92440000Y-122010000D01*
X92440000Y-122010000D02*
X105060000Y-122010000D01*
X105060000Y-122010000D02*
X105060000Y-116040000D01*
X105060000Y-116040000D02*
X92440000Y-116040000D01*
X95750000Y-116050000D02*
X95750000Y-116800000D01*
X95750000Y-116800000D02*
X101750000Y-116800000D01*
X101750000Y-116800000D02*
X101750000Y-116050000D01*
X101750000Y-116050000D02*
X95750000Y-116050000D01*
X92450000Y-116050000D02*
X92450000Y-116800000D01*
X92450000Y-116800000D02*
X94250000Y-116800000D01*
X94250000Y-116800000D02*
X94250000Y-116050000D01*
X94250000Y-116050000D02*
X92450000Y-116050000D01*
X103250000Y-116050000D02*
X103250000Y-116800000D01*
X103250000Y-116800000D02*
X105050000Y-116800000D01*
X105050000Y-116800000D02*
X105050000Y-116050000D01*
X105050000Y-116050000D02*
X103250000Y-116050000D01*
X92450000Y-118300000D02*
X93200000Y-118300000D01*
X93200000Y-118300000D02*
X93200000Y-121250000D01*
X93200000Y-121250000D02*
X98750000Y-121250000D01*
X105050000Y-118300000D02*
X104300000Y-118300000D01*
X104300000Y-118300000D02*
X104300000Y-121250000D01*
X104300000Y-121250000D02*
X98750000Y-121250000D01*
X93400000Y-115750000D02*
X92150000Y-115750000D01*
X92150000Y-115750000D02*
X92150000Y-117000000D01*
X134670000Y-102910000D02*
X139870000Y-102910000D01*
X134670000Y-97770000D02*
X134670000Y-102910000D01*
X139870000Y-95170000D02*
X139870000Y-102910000D01*
X134670000Y-97770000D02*
X137270000Y-97770000D01*
X137270000Y-97770000D02*
X137270000Y-95170000D01*
X137270000Y-95170000D02*
X139870000Y-95170000D01*
X134670000Y-96500000D02*
X134670000Y-95170000D01*
X134670000Y-95170000D02*
X136000000Y-95170000D01*
X115670000Y-102910000D02*
X120870000Y-102910000D01*
X115670000Y-97770000D02*
X115670000Y-102910000D01*
X120870000Y-95170000D02*
X120870000Y-102910000D01*
X115670000Y-97770000D02*
X118270000Y-97770000D01*
X118270000Y-97770000D02*
X118270000Y-95170000D01*
X118270000Y-95170000D02*
X120870000Y-95170000D01*
X115670000Y-96500000D02*
X115670000Y-95170000D01*
X115670000Y-95170000D02*
X117000000Y-95170000D01*
X97170000Y-102910000D02*
X102370000Y-102910000D01*
X97170000Y-97770000D02*
X97170000Y-102910000D01*
X102370000Y-95170000D02*
X102370000Y-102910000D01*
X97170000Y-97770000D02*
X99770000Y-97770000D01*
X99770000Y-97770000D02*
X99770000Y-95170000D01*
X99770000Y-95170000D02*
X102370000Y-95170000D01*
X97170000Y-96500000D02*
X97170000Y-95170000D01*
X97170000Y-95170000D02*
X98500000Y-95170000D01*
X132560000Y-92460000D02*
X132560000Y-86490000D01*
X132560000Y-86490000D02*
X114940000Y-86490000D01*
X114940000Y-86490000D02*
X114940000Y-92460000D01*
X114940000Y-92460000D02*
X132560000Y-92460000D01*
X129250000Y-92450000D02*
X129250000Y-91700000D01*
X129250000Y-91700000D02*
X118250000Y-91700000D01*
X118250000Y-91700000D02*
X118250000Y-92450000D01*
X118250000Y-92450000D02*
X129250000Y-92450000D01*
X132550000Y-92450000D02*
X132550000Y-91700000D01*
X132550000Y-91700000D02*
X130750000Y-91700000D01*
X130750000Y-91700000D02*
X130750000Y-92450000D01*
X130750000Y-92450000D02*
X132550000Y-92450000D01*
X116750000Y-92450000D02*
X116750000Y-91700000D01*
X116750000Y-91700000D02*
X114950000Y-91700000D01*
X114950000Y-91700000D02*
X114950000Y-92450000D01*
X114950000Y-92450000D02*
X116750000Y-92450000D01*
X132550000Y-90200000D02*
X131800000Y-90200000D01*
X131800000Y-90200000D02*
X131800000Y-87250000D01*
X131800000Y-87250000D02*
X123750000Y-87250000D01*
X114950000Y-90200000D02*
X115700000Y-90200000D01*
X115700000Y-90200000D02*
X115700000Y-87250000D01*
X115700000Y-87250000D02*
X123750000Y-87250000D01*
X131600000Y-92750000D02*
X132850000Y-92750000D01*
X132850000Y-92750000D02*
X132850000Y-91500000D01*
X132560000Y-85460000D02*
X132560000Y-79490000D01*
X132560000Y-79490000D02*
X114940000Y-79490000D01*
X114940000Y-79490000D02*
X114940000Y-85460000D01*
X114940000Y-85460000D02*
X132560000Y-85460000D01*
X129250000Y-85450000D02*
X129250000Y-84700000D01*
X129250000Y-84700000D02*
X118250000Y-84700000D01*
X118250000Y-84700000D02*
X118250000Y-85450000D01*
X118250000Y-85450000D02*
X129250000Y-85450000D01*
X132550000Y-85450000D02*
X132550000Y-84700000D01*
X132550000Y-84700000D02*
X130750000Y-84700000D01*
X130750000Y-84700000D02*
X130750000Y-85450000D01*
X130750000Y-85450000D02*
X132550000Y-85450000D01*
X116750000Y-85450000D02*
X116750000Y-84700000D01*
X116750000Y-84700000D02*
X114950000Y-84700000D01*
X114950000Y-84700000D02*
X114950000Y-85450000D01*
X114950000Y-85450000D02*
X116750000Y-85450000D01*
X132550000Y-83200000D02*
X131800000Y-83200000D01*
X131800000Y-83200000D02*
X131800000Y-80250000D01*
X131800000Y-80250000D02*
X123750000Y-80250000D01*
X114950000Y-83200000D02*
X115700000Y-83200000D01*
X115700000Y-83200000D02*
X115700000Y-80250000D01*
X115700000Y-80250000D02*
X123750000Y-80250000D01*
X131600000Y-85750000D02*
X132850000Y-85750000D01*
X132850000Y-85750000D02*
X132850000Y-84500000D01*
X132560000Y-78460000D02*
X132560000Y-72490000D01*
X132560000Y-72490000D02*
X114940000Y-72490000D01*
X114940000Y-72490000D02*
X114940000Y-78460000D01*
X114940000Y-78460000D02*
X132560000Y-78460000D01*
X129250000Y-78450000D02*
X129250000Y-77700000D01*
X129250000Y-77700000D02*
X118250000Y-77700000D01*
X118250000Y-77700000D02*
X118250000Y-78450000D01*
X118250000Y-78450000D02*
X129250000Y-78450000D01*
X132550000Y-78450000D02*
X132550000Y-77700000D01*
X132550000Y-77700000D02*
X130750000Y-77700000D01*
X130750000Y-77700000D02*
X130750000Y-78450000D01*
X130750000Y-78450000D02*
X132550000Y-78450000D01*
X116750000Y-78450000D02*
X116750000Y-77700000D01*
X116750000Y-77700000D02*
X114950000Y-77700000D01*
X114950000Y-77700000D02*
X114950000Y-78450000D01*
X114950000Y-78450000D02*
X116750000Y-78450000D01*
X132550000Y-76200000D02*
X131800000Y-76200000D01*
X131800000Y-76200000D02*
X131800000Y-73250000D01*
X131800000Y-73250000D02*
X123750000Y-73250000D01*
X114950000Y-76200000D02*
X115700000Y-76200000D01*
X115700000Y-76200000D02*
X115700000Y-73250000D01*
X115700000Y-73250000D02*
X123750000Y-73250000D01*
X131600000Y-78750000D02*
X132850000Y-78750000D01*
X132850000Y-78750000D02*
X132850000Y-77500000D01*
X143060000Y-92460000D02*
X143060000Y-86490000D01*
X143060000Y-86490000D02*
X135440000Y-86490000D01*
X135440000Y-86490000D02*
X135440000Y-92460000D01*
X135440000Y-92460000D02*
X143060000Y-92460000D01*
X139750000Y-92450000D02*
X139750000Y-91700000D01*
X139750000Y-91700000D02*
X138750000Y-91700000D01*
X138750000Y-91700000D02*
X138750000Y-92450000D01*
X138750000Y-92450000D02*
X139750000Y-92450000D01*
X143050000Y-92450000D02*
X143050000Y-91700000D01*
X143050000Y-91700000D02*
X141250000Y-91700000D01*
X141250000Y-91700000D02*
X141250000Y-92450000D01*
X141250000Y-92450000D02*
X143050000Y-92450000D01*
X137250000Y-92450000D02*
X137250000Y-91700000D01*
X137250000Y-91700000D02*
X135450000Y-91700000D01*
X135450000Y-91700000D02*
X135450000Y-92450000D01*
X135450000Y-92450000D02*
X137250000Y-92450000D01*
X143050000Y-90200000D02*
X142300000Y-90200000D01*
X142300000Y-90200000D02*
X142300000Y-87250000D01*
X142300000Y-87250000D02*
X139250000Y-87250000D01*
X135450000Y-90200000D02*
X136200000Y-90200000D01*
X136200000Y-90200000D02*
X136200000Y-87250000D01*
X136200000Y-87250000D02*
X139250000Y-87250000D01*
X142100000Y-92750000D02*
X143350000Y-92750000D01*
X143350000Y-92750000D02*
X143350000Y-91500000D01*
X109170000Y-78410000D02*
X111830000Y-78410000D01*
X109170000Y-73270000D02*
X109170000Y-78410000D01*
X111830000Y-73270000D02*
X111830000Y-78410000D01*
X109170000Y-73270000D02*
X111830000Y-73270000D01*
X109170000Y-72000000D02*
X109170000Y-70670000D01*
X109170000Y-70670000D02*
X110500000Y-70670000D01*
X138701248Y-112765000D02*
X139223752Y-112765000D01*
X138701248Y-114235000D02*
X139223752Y-114235000D01*
X119701248Y-112765000D02*
X120223752Y-112765000D01*
X119701248Y-114235000D02*
X120223752Y-114235000D01*
X101201248Y-112765000D02*
X101723752Y-112765000D01*
X101201248Y-114235000D02*
X101723752Y-114235000D01*
X139410000Y-105390000D02*
X137060000Y-105390000D01*
X132590000Y-105390000D02*
X134940000Y-105390000D01*
X132590000Y-111145563D02*
X132590000Y-105390000D01*
X139410000Y-111145563D02*
X139410000Y-105390000D01*
X138345563Y-112210000D02*
X137060000Y-112210000D01*
X133654437Y-112210000D02*
X134940000Y-112210000D01*
X133654437Y-112210000D02*
X132590000Y-111145563D01*
X138345563Y-112210000D02*
X139410000Y-111145563D01*
X134152500Y-113237500D02*
X134152500Y-112450000D01*
X133758750Y-112843750D02*
X134546250Y-112843750D01*
X120410000Y-105390000D02*
X118060000Y-105390000D01*
X113590000Y-105390000D02*
X115940000Y-105390000D01*
X113590000Y-111145563D02*
X113590000Y-105390000D01*
X120410000Y-111145563D02*
X120410000Y-105390000D01*
X119345563Y-112210000D02*
X118060000Y-112210000D01*
X114654437Y-112210000D02*
X115940000Y-112210000D01*
X114654437Y-112210000D02*
X113590000Y-111145563D01*
X119345563Y-112210000D02*
X120410000Y-111145563D01*
X115152500Y-113237500D02*
X115152500Y-112450000D01*
X114758750Y-112843750D02*
X115546250Y-112843750D01*
X101910000Y-105390000D02*
X99560000Y-105390000D01*
X95090000Y-105390000D02*
X97440000Y-105390000D01*
X95090000Y-111145563D02*
X95090000Y-105390000D01*
X101910000Y-111145563D02*
X101910000Y-105390000D01*
X100845563Y-112210000D02*
X99560000Y-112210000D01*
X96154437Y-112210000D02*
X97440000Y-112210000D01*
X96154437Y-112210000D02*
X95090000Y-111145563D01*
X100845563Y-112210000D02*
X101910000Y-111145563D01*
X96652500Y-113237500D02*
X96652500Y-112450000D01*
X96258750Y-112843750D02*
X97046250Y-112843750D01*
X142110000Y-70910000D02*
X142110000Y-68560000D01*
X142110000Y-64090000D02*
X142110000Y-66440000D01*
X136354437Y-64090000D02*
X142110000Y-64090000D01*
X136354437Y-70910000D02*
X142110000Y-70910000D01*
X135290000Y-69845563D02*
X135290000Y-68560000D01*
X135290000Y-65154437D02*
X135290000Y-66440000D01*
X135290000Y-65154437D02*
X136354437Y-64090000D01*
X135290000Y-69845563D02*
X136354437Y-70910000D01*
X134262500Y-65652500D02*
X135050000Y-65652500D01*
X134656250Y-65258750D02*
X134656250Y-66046250D01*
X136701248Y-62265000D02*
X137223752Y-62265000D01*
X136701248Y-63735000D02*
X137223752Y-63735000D01*
X135235000Y-83776248D02*
X135235000Y-84298752D01*
X133765000Y-83776248D02*
X133765000Y-84298752D01*
X82701248Y-89265000D02*
X83223752Y-89265000D01*
X82701248Y-90735000D02*
X83223752Y-90735000D01*
X82701248Y-112765000D02*
X83223752Y-112765000D01*
X82701248Y-114235000D02*
X83223752Y-114235000D01*
X140930000Y-93820000D02*
X140930000Y-114400000D01*
X130770000Y-96490000D02*
X130770000Y-114400000D01*
X129500000Y-93820000D02*
X128100000Y-93820000D01*
X128100000Y-93820000D02*
X128100000Y-95220000D01*
X130770000Y-93820000D02*
X130770000Y-96490000D01*
X130770000Y-96490000D02*
X128100000Y-96490000D01*
X128100000Y-96490000D02*
X128100000Y-114400000D01*
X128100000Y-114400000D02*
X143600000Y-114400000D01*
X143600000Y-114400000D02*
X143600000Y-93820000D01*
X143600000Y-93820000D02*
X130770000Y-93820000D01*
X121930000Y-93820000D02*
X121930000Y-114400000D01*
X111770000Y-96490000D02*
X111770000Y-114400000D01*
X110500000Y-93820000D02*
X109100000Y-93820000D01*
X109100000Y-93820000D02*
X109100000Y-95220000D01*
X111770000Y-93820000D02*
X111770000Y-96490000D01*
X111770000Y-96490000D02*
X109100000Y-96490000D01*
X109100000Y-96490000D02*
X109100000Y-114400000D01*
X109100000Y-114400000D02*
X124600000Y-114400000D01*
X124600000Y-114400000D02*
X124600000Y-93820000D01*
X124600000Y-93820000D02*
X111770000Y-93820000D01*
X103430000Y-93820000D02*
X103430000Y-114400000D01*
X93270000Y-96490000D02*
X93270000Y-114400000D01*
X92000000Y-93820000D02*
X90600000Y-93820000D01*
X90600000Y-93820000D02*
X90600000Y-95220000D01*
X93270000Y-93820000D02*
X93270000Y-96490000D01*
X93270000Y-96490000D02*
X90600000Y-96490000D01*
X90600000Y-96490000D02*
X90600000Y-114400000D01*
X90600000Y-114400000D02*
X106100000Y-114400000D01*
X106100000Y-114400000D02*
X106100000Y-93820000D01*
X106100000Y-93820000D02*
X93270000Y-93820000D01*
X132560000Y-71460000D02*
X132560000Y-65490000D01*
X132560000Y-65490000D02*
X114940000Y-65490000D01*
X114940000Y-65490000D02*
X114940000Y-71460000D01*
X114940000Y-71460000D02*
X132560000Y-71460000D01*
X129250000Y-71450000D02*
X129250000Y-70700000D01*
X129250000Y-70700000D02*
X118250000Y-70700000D01*
X118250000Y-70700000D02*
X118250000Y-71450000D01*
X118250000Y-71450000D02*
X129250000Y-71450000D01*
X132550000Y-71450000D02*
X132550000Y-70700000D01*
X132550000Y-70700000D02*
X130750000Y-70700000D01*
X130750000Y-70700000D02*
X130750000Y-71450000D01*
X130750000Y-71450000D02*
X132550000Y-71450000D01*
X116750000Y-71450000D02*
X116750000Y-70700000D01*
X116750000Y-70700000D02*
X114950000Y-70700000D01*
X114950000Y-70700000D02*
X114950000Y-71450000D01*
X114950000Y-71450000D02*
X116750000Y-71450000D01*
X132550000Y-69200000D02*
X131800000Y-69200000D01*
X131800000Y-69200000D02*
X131800000Y-66250000D01*
X131800000Y-66250000D02*
X123750000Y-66250000D01*
X114950000Y-69200000D02*
X115700000Y-69200000D01*
X115700000Y-69200000D02*
X115700000Y-66250000D01*
X115700000Y-66250000D02*
X123750000Y-66250000D01*
X131600000Y-71750000D02*
X132850000Y-71750000D01*
X132850000Y-71750000D02*
X132850000Y-70500000D01*
X106450000Y-58450000D02*
X107450000Y-58450000D01*
X107450000Y-58450000D02*
X107450000Y-59450000D01*
X90450000Y-58450000D02*
X89450000Y-58450000D01*
X89450000Y-58450000D02*
X89450000Y-59450000D01*
X90450000Y-64750000D02*
X89450000Y-64750000D01*
X89450000Y-64950000D02*
X89450000Y-63950000D01*
X106450000Y-64750000D02*
X107450000Y-64750000D01*
X107450000Y-64950000D02*
X107450000Y-63950000D01*
X89450000Y-88950000D02*
X89450000Y-89450000D01*
X89450000Y-89450000D02*
X90450000Y-89450000D01*
X106450000Y-89450000D02*
X107450000Y-89450000D01*
X107450000Y-89450000D02*
X107450000Y-88950000D01*
X85910000Y-65410000D02*
X85910000Y-64150000D01*
X85910000Y-58590000D02*
X85910000Y-59850000D01*
X82150000Y-65410000D02*
X85910000Y-65410000D01*
X79900000Y-58590000D02*
X85910000Y-58590000D01*
X99227064Y-93235000D02*
X98772936Y-93235000D01*
X99227064Y-91765000D02*
X98772936Y-91765000D01*
X112235000Y-65772936D02*
X112235000Y-66227064D01*
X110765000Y-65772936D02*
X110765000Y-66227064D01*
X86772936Y-91765000D02*
X87227064Y-91765000D01*
X86772936Y-93235000D02*
X87227064Y-93235000D01*
X82772936Y-91765000D02*
X83227064Y-91765000D01*
X82772936Y-93235000D02*
X83227064Y-93235000D01*
X64540000Y-87560000D02*
X70510000Y-87560000D01*
X70510000Y-87560000D02*
X70510000Y-74940000D01*
X70510000Y-74940000D02*
X64540000Y-74940000D01*
X64540000Y-74940000D02*
X64540000Y-87560000D01*
X64550000Y-84250000D02*
X65300000Y-84250000D01*
X65300000Y-84250000D02*
X65300000Y-78250000D01*
X65300000Y-78250000D02*
X64550000Y-78250000D01*
X64550000Y-78250000D02*
X64550000Y-84250000D01*
X64550000Y-87550000D02*
X65300000Y-87550000D01*
X65300000Y-87550000D02*
X65300000Y-85750000D01*
X65300000Y-85750000D02*
X64550000Y-85750000D01*
X64550000Y-85750000D02*
X64550000Y-87550000D01*
X64550000Y-76750000D02*
X65300000Y-76750000D01*
X65300000Y-76750000D02*
X65300000Y-74950000D01*
X65300000Y-74950000D02*
X64550000Y-74950000D01*
X64550000Y-74950000D02*
X64550000Y-76750000D01*
X66800000Y-87550000D02*
X66800000Y-86800000D01*
X66800000Y-86800000D02*
X69750000Y-86800000D01*
X69750000Y-86800000D02*
X69750000Y-81250000D01*
X66800000Y-74950000D02*
X66800000Y-75700000D01*
X66800000Y-75700000D02*
X69750000Y-75700000D01*
X69750000Y-75700000D02*
X69750000Y-81250000D01*
X64250000Y-86600000D02*
X64250000Y-87850000D01*
X64250000Y-87850000D02*
X65500000Y-87850000D01*
X64540000Y-105560000D02*
X70510000Y-105560000D01*
X70510000Y-105560000D02*
X70510000Y-92940000D01*
X70510000Y-92940000D02*
X64540000Y-92940000D01*
X64540000Y-92940000D02*
X64540000Y-105560000D01*
X64550000Y-102250000D02*
X65300000Y-102250000D01*
X65300000Y-102250000D02*
X65300000Y-96250000D01*
X65300000Y-96250000D02*
X64550000Y-96250000D01*
X64550000Y-96250000D02*
X64550000Y-102250000D01*
X64550000Y-105550000D02*
X65300000Y-105550000D01*
X65300000Y-105550000D02*
X65300000Y-103750000D01*
X65300000Y-103750000D02*
X64550000Y-103750000D01*
X64550000Y-103750000D02*
X64550000Y-105550000D01*
X64550000Y-94750000D02*
X65300000Y-94750000D01*
X65300000Y-94750000D02*
X65300000Y-92950000D01*
X65300000Y-92950000D02*
X64550000Y-92950000D01*
X64550000Y-92950000D02*
X64550000Y-94750000D01*
X66800000Y-105550000D02*
X66800000Y-104800000D01*
X66800000Y-104800000D02*
X69750000Y-104800000D01*
X69750000Y-104800000D02*
X69750000Y-99250000D01*
X66800000Y-92950000D02*
X66800000Y-93700000D01*
X66800000Y-93700000D02*
X69750000Y-93700000D01*
X69750000Y-93700000D02*
X69750000Y-99250000D01*
X64250000Y-104600000D02*
X64250000Y-105850000D01*
X64250000Y-105850000D02*
X65500000Y-105850000D01*
X78630000Y-79330000D02*
X83830000Y-79330000D01*
X78630000Y-74190000D02*
X78630000Y-79330000D01*
X83830000Y-71590000D02*
X83830000Y-79330000D01*
X78630000Y-74190000D02*
X81230000Y-74190000D01*
X81230000Y-74190000D02*
X81230000Y-71590000D01*
X81230000Y-71590000D02*
X83830000Y-71590000D01*
X78630000Y-72920000D02*
X78630000Y-71590000D01*
X78630000Y-71590000D02*
X79960000Y-71590000D01*
X78630000Y-102830000D02*
X83830000Y-102830000D01*
X78630000Y-97690000D02*
X78630000Y-102830000D01*
X83830000Y-95090000D02*
X83830000Y-102830000D01*
X78630000Y-97690000D02*
X81230000Y-97690000D01*
X81230000Y-97690000D02*
X81230000Y-95090000D01*
X81230000Y-95090000D02*
X83830000Y-95090000D01*
X78630000Y-96420000D02*
X78630000Y-95090000D01*
X78630000Y-95090000D02*
X79960000Y-95090000D01*
X68482000Y-66976000D02*
G75*
G03*
X68482000Y-66976000I-1680000J0D01*
G01*
X62702000Y-59416000D02*
X62702000Y-69536000D01*
X64202000Y-59416000D02*
X64202000Y-69536000D01*
X69103000Y-59416000D02*
X69103000Y-69536000D01*
X72063000Y-59416000D02*
X72063000Y-69536000D01*
X62142000Y-59416000D02*
X62142000Y-69536000D01*
X72063000Y-59416000D02*
X62142000Y-59416000D01*
X72063000Y-69536000D02*
X62142000Y-69536000D01*
X67871000Y-68251000D02*
X67825000Y-68204000D01*
X65563000Y-65942000D02*
X65528000Y-65907000D01*
X68077000Y-68046000D02*
X68041000Y-68011000D01*
X65779000Y-65749000D02*
X65733000Y-65702000D01*
X62642000Y-59176000D02*
X61902000Y-59176000D01*
X61902000Y-59176000D02*
X61902000Y-59676000D01*
X65121747Y-62004805D02*
G75*
G02*
X65267000Y-61292000I1680253J28805D01*
G01*
X66118958Y-60440574D02*
G75*
G02*
X67486000Y-60441000I683042J-1535426D01*
G01*
X68337426Y-61292958D02*
G75*
G02*
X68337000Y-62660000I-1535426J-683042D01*
G01*
X67485042Y-63511426D02*
G75*
G02*
X66118000Y-63511000I-683042J1535426D01*
G01*
X65267244Y-62659318D02*
G75*
G02*
X65122000Y-61976000I1534756J683318D01*
G01*
X108765000Y-66298752D02*
X108765000Y-65776248D01*
X110235000Y-66298752D02*
X110235000Y-65776248D01*
X84765000Y-67798752D02*
X84765000Y-67276248D01*
X86235000Y-67798752D02*
X86235000Y-67276248D01*
X82910000Y-81790000D02*
X80560000Y-81790000D01*
X76090000Y-81790000D02*
X78440000Y-81790000D01*
X76090000Y-87545563D02*
X76090000Y-81790000D01*
X82910000Y-87545563D02*
X82910000Y-81790000D01*
X81845563Y-88610000D02*
X80560000Y-88610000D01*
X77154437Y-88610000D02*
X78440000Y-88610000D01*
X77154437Y-88610000D02*
X76090000Y-87545563D01*
X81845563Y-88610000D02*
X82910000Y-87545563D01*
X77652500Y-89637500D02*
X77652500Y-88850000D01*
X77258750Y-89243750D02*
X78046250Y-89243750D01*
X83410000Y-105390000D02*
X81060000Y-105390000D01*
X76590000Y-105390000D02*
X78940000Y-105390000D01*
X76590000Y-111145563D02*
X76590000Y-105390000D01*
X83410000Y-111145563D02*
X83410000Y-105390000D01*
X82345563Y-112210000D02*
X81060000Y-112210000D01*
X77654437Y-112210000D02*
X78940000Y-112210000D01*
X77654437Y-112210000D02*
X76590000Y-111145563D01*
X82345563Y-112210000D02*
X83410000Y-111145563D01*
X78152500Y-113237500D02*
X78152500Y-112450000D01*
X77758750Y-112843750D02*
X78546250Y-112843750D01*
X86765000Y-67798752D02*
X86765000Y-67276248D01*
X88235000Y-67798752D02*
X88235000Y-67276248D01*
X81380000Y-66816248D02*
X81380000Y-67338752D01*
X79910000Y-66816248D02*
X79910000Y-67338752D01*
X84930000Y-70600000D02*
X84930000Y-91180000D01*
X74770000Y-73270000D02*
X74770000Y-91180000D01*
X73500000Y-70600000D02*
X72100000Y-70600000D01*
X72100000Y-70600000D02*
X72100000Y-72000000D01*
X74770000Y-70600000D02*
X74770000Y-73270000D01*
X74770000Y-73270000D02*
X72100000Y-73270000D01*
X72100000Y-73270000D02*
X72100000Y-91180000D01*
X72100000Y-91180000D02*
X87600000Y-91180000D01*
X87600000Y-91180000D02*
X87600000Y-70600000D01*
X87600000Y-70600000D02*
X74770000Y-70600000D01*
X84930000Y-93820000D02*
X84930000Y-114400000D01*
X74770000Y-96490000D02*
X74770000Y-114400000D01*
X73500000Y-93820000D02*
X72100000Y-93820000D01*
X72100000Y-93820000D02*
X72100000Y-95220000D01*
X74770000Y-93820000D02*
X74770000Y-96490000D01*
X74770000Y-96490000D02*
X72100000Y-96490000D01*
X72100000Y-96490000D02*
X72100000Y-114400000D01*
X72100000Y-114400000D02*
X87600000Y-114400000D01*
X87600000Y-114400000D02*
X87600000Y-93820000D01*
X87600000Y-93820000D02*
X74770000Y-93820000D01*
D10*
X73358476Y-52284380D02*
X73358476Y-52998666D01*
X73310857Y-53141523D01*
X73215619Y-53236761D01*
X73072761Y-53284380D01*
X72977523Y-53284380D01*
X74358476Y-53284380D02*
X73787047Y-53284380D01*
X74072761Y-53284380D02*
X74072761Y-52284380D01*
X73977523Y-52427238D01*
X73882285Y-52522476D01*
X73787047Y-52570095D01*
X74834666Y-53284380D02*
X75025142Y-53284380D01*
X75120380Y-53236761D01*
X75168000Y-53189142D01*
X75263238Y-53046285D01*
X75310857Y-52855809D01*
X75310857Y-52474857D01*
X75263238Y-52379619D01*
X75215619Y-52332000D01*
X75120380Y-52284380D01*
X74929904Y-52284380D01*
X74834666Y-52332000D01*
X74787047Y-52379619D01*
X74739428Y-52474857D01*
X74739428Y-52712952D01*
X74787047Y-52808190D01*
X74834666Y-52855809D01*
X74929904Y-52903428D01*
X75120380Y-52903428D01*
X75215619Y-52855809D01*
X75263238Y-52808190D01*
X75310857Y-52712952D01*
X133524666Y-58761380D02*
X133524666Y-59475666D01*
X133477047Y-59618523D01*
X133381809Y-59713761D01*
X133238952Y-59761380D01*
X133143714Y-59761380D01*
X134524666Y-59761380D02*
X133953238Y-59761380D01*
X134238952Y-59761380D02*
X134238952Y-58761380D01*
X134143714Y-58904238D01*
X134048476Y-58999476D01*
X133953238Y-59047095D01*
X133604095Y-70445380D02*
X133604095Y-71254904D01*
X133651714Y-71350142D01*
X133699333Y-71397761D01*
X133794571Y-71445380D01*
X133985047Y-71445380D01*
X134080285Y-71397761D01*
X134127904Y-71350142D01*
X134175523Y-71254904D01*
X134175523Y-70445380D01*
X135080285Y-70778714D02*
X135080285Y-71445380D01*
X134842190Y-70397761D02*
X134604095Y-71112047D01*
X135223142Y-71112047D01*
X138738095Y-78052380D02*
X138738095Y-78861904D01*
X138785714Y-78957142D01*
X138833333Y-79004761D01*
X138928571Y-79052380D01*
X139119047Y-79052380D01*
X139214285Y-79004761D01*
X139261904Y-78957142D01*
X139309523Y-78861904D01*
X139309523Y-78052380D01*
X139690476Y-78052380D02*
X140309523Y-78052380D01*
X139976190Y-78433333D01*
X140119047Y-78433333D01*
X140214285Y-78480952D01*
X140261904Y-78528571D01*
X140309523Y-78623809D01*
X140309523Y-78861904D01*
X140261904Y-78957142D01*
X140214285Y-79004761D01*
X140119047Y-79052380D01*
X139833333Y-79052380D01*
X139738095Y-79004761D01*
X139690476Y-78957142D01*
X133858095Y-53871761D02*
X134000952Y-53919380D01*
X134239047Y-53919380D01*
X134334285Y-53871761D01*
X134381904Y-53824142D01*
X134429523Y-53728904D01*
X134429523Y-53633666D01*
X134381904Y-53538428D01*
X134334285Y-53490809D01*
X134239047Y-53443190D01*
X134048571Y-53395571D01*
X133953333Y-53347952D01*
X133905714Y-53300333D01*
X133858095Y-53205095D01*
X133858095Y-53109857D01*
X133905714Y-53014619D01*
X133953333Y-52967000D01*
X134048571Y-52919380D01*
X134286666Y-52919380D01*
X134429523Y-52967000D01*
X134810476Y-53014619D02*
X134858095Y-52967000D01*
X134953333Y-52919380D01*
X135191428Y-52919380D01*
X135286666Y-52967000D01*
X135334285Y-53014619D01*
X135381904Y-53109857D01*
X135381904Y-53205095D01*
X135334285Y-53347952D01*
X134762857Y-53919380D01*
X135381904Y-53919380D01*
X112522095Y-53744761D02*
X112664952Y-53792380D01*
X112903047Y-53792380D01*
X112998285Y-53744761D01*
X113045904Y-53697142D01*
X113093523Y-53601904D01*
X113093523Y-53506666D01*
X113045904Y-53411428D01*
X112998285Y-53363809D01*
X112903047Y-53316190D01*
X112712571Y-53268571D01*
X112617333Y-53220952D01*
X112569714Y-53173333D01*
X112522095Y-53078095D01*
X112522095Y-52982857D01*
X112569714Y-52887619D01*
X112617333Y-52840000D01*
X112712571Y-52792380D01*
X112950666Y-52792380D01*
X113093523Y-52840000D01*
X114045904Y-53792380D02*
X113474476Y-53792380D01*
X113760190Y-53792380D02*
X113760190Y-52792380D01*
X113664952Y-52935238D01*
X113569714Y-53030476D01*
X113474476Y-53078095D01*
X141333333Y-61802380D02*
X141000000Y-61326190D01*
X140761904Y-61802380D02*
X140761904Y-60802380D01*
X141142857Y-60802380D01*
X141238095Y-60850000D01*
X141285714Y-60897619D01*
X141333333Y-60992857D01*
X141333333Y-61135714D01*
X141285714Y-61230952D01*
X141238095Y-61278571D01*
X141142857Y-61326190D01*
X140761904Y-61326190D01*
X142238095Y-60802380D02*
X141761904Y-60802380D01*
X141714285Y-61278571D01*
X141761904Y-61230952D01*
X141857142Y-61183333D01*
X142095238Y-61183333D01*
X142190476Y-61230952D01*
X142238095Y-61278571D01*
X142285714Y-61373809D01*
X142285714Y-61611904D01*
X142238095Y-61707142D01*
X142190476Y-61754761D01*
X142095238Y-61802380D01*
X141857142Y-61802380D01*
X141761904Y-61754761D01*
X141714285Y-61707142D01*
X125555476Y-114402380D02*
X125555476Y-115116666D01*
X125507857Y-115259523D01*
X125412619Y-115354761D01*
X125269761Y-115402380D01*
X125174523Y-115402380D01*
X126555476Y-115402380D02*
X125984047Y-115402380D01*
X126269761Y-115402380D02*
X126269761Y-114402380D01*
X126174523Y-114545238D01*
X126079285Y-114640476D01*
X125984047Y-114688095D01*
X127126904Y-114830952D02*
X127031666Y-114783333D01*
X126984047Y-114735714D01*
X126936428Y-114640476D01*
X126936428Y-114592857D01*
X126984047Y-114497619D01*
X127031666Y-114450000D01*
X127126904Y-114402380D01*
X127317380Y-114402380D01*
X127412619Y-114450000D01*
X127460238Y-114497619D01*
X127507857Y-114592857D01*
X127507857Y-114640476D01*
X127460238Y-114735714D01*
X127412619Y-114783333D01*
X127317380Y-114830952D01*
X127126904Y-114830952D01*
X127031666Y-114878571D01*
X126984047Y-114926190D01*
X126936428Y-115021428D01*
X126936428Y-115211904D01*
X126984047Y-115307142D01*
X127031666Y-115354761D01*
X127126904Y-115402380D01*
X127317380Y-115402380D01*
X127412619Y-115354761D01*
X127460238Y-115307142D01*
X127507857Y-115211904D01*
X127507857Y-115021428D01*
X127460238Y-114926190D01*
X127412619Y-114878571D01*
X127317380Y-114830952D01*
X110950476Y-114768380D02*
X110950476Y-115482666D01*
X110902857Y-115625523D01*
X110807619Y-115720761D01*
X110664761Y-115768380D01*
X110569523Y-115768380D01*
X111950476Y-115768380D02*
X111379047Y-115768380D01*
X111664761Y-115768380D02*
X111664761Y-114768380D01*
X111569523Y-114911238D01*
X111474285Y-115006476D01*
X111379047Y-115054095D01*
X112283809Y-114768380D02*
X112950476Y-114768380D01*
X112521904Y-115768380D01*
X89360476Y-118070380D02*
X89360476Y-118784666D01*
X89312857Y-118927523D01*
X89217619Y-119022761D01*
X89074761Y-119070380D01*
X88979523Y-119070380D01*
X90360476Y-119070380D02*
X89789047Y-119070380D01*
X90074761Y-119070380D02*
X90074761Y-118070380D01*
X89979523Y-118213238D01*
X89884285Y-118308476D01*
X89789047Y-118356095D01*
X91217619Y-118070380D02*
X91027142Y-118070380D01*
X90931904Y-118118000D01*
X90884285Y-118165619D01*
X90789047Y-118308476D01*
X90741428Y-118498952D01*
X90741428Y-118879904D01*
X90789047Y-118975142D01*
X90836666Y-119022761D01*
X90931904Y-119070380D01*
X91122380Y-119070380D01*
X91217619Y-119022761D01*
X91265238Y-118975142D01*
X91312857Y-118879904D01*
X91312857Y-118641809D01*
X91265238Y-118546571D01*
X91217619Y-118498952D01*
X91122380Y-118451333D01*
X90931904Y-118451333D01*
X90836666Y-118498952D01*
X90789047Y-118546571D01*
X90741428Y-118641809D01*
X133310380Y-97456523D02*
X134024666Y-97456523D01*
X134167523Y-97504142D01*
X134262761Y-97599380D01*
X134310380Y-97742238D01*
X134310380Y-97837476D01*
X134310380Y-96456523D02*
X134310380Y-97027952D01*
X134310380Y-96742238D02*
X133310380Y-96742238D01*
X133453238Y-96837476D01*
X133548476Y-96932714D01*
X133596095Y-97027952D01*
X133310380Y-95551761D02*
X133310380Y-96027952D01*
X133786571Y-96075571D01*
X133738952Y-96027952D01*
X133691333Y-95932714D01*
X133691333Y-95694619D01*
X133738952Y-95599380D01*
X133786571Y-95551761D01*
X133881809Y-95504142D01*
X134119904Y-95504142D01*
X134215142Y-95551761D01*
X134262761Y-95599380D01*
X134310380Y-95694619D01*
X134310380Y-95932714D01*
X134262761Y-96027952D01*
X134215142Y-96075571D01*
X114260380Y-97329523D02*
X114974666Y-97329523D01*
X115117523Y-97377142D01*
X115212761Y-97472380D01*
X115260380Y-97615238D01*
X115260380Y-97710476D01*
X115260380Y-96329523D02*
X115260380Y-96900952D01*
X115260380Y-96615238D02*
X114260380Y-96615238D01*
X114403238Y-96710476D01*
X114498476Y-96805714D01*
X114546095Y-96900952D01*
X114593714Y-95472380D02*
X115260380Y-95472380D01*
X114212761Y-95710476D02*
X114927047Y-95948571D01*
X114927047Y-95329523D01*
X95718380Y-97456523D02*
X96432666Y-97456523D01*
X96575523Y-97504142D01*
X96670761Y-97599380D01*
X96718380Y-97742238D01*
X96718380Y-97837476D01*
X96718380Y-96456523D02*
X96718380Y-97027952D01*
X96718380Y-96742238D02*
X95718380Y-96742238D01*
X95861238Y-96837476D01*
X95956476Y-96932714D01*
X96004095Y-97027952D01*
X95718380Y-96123190D02*
X95718380Y-95504142D01*
X96099333Y-95837476D01*
X96099333Y-95694619D01*
X96146952Y-95599380D01*
X96194571Y-95551761D01*
X96289809Y-95504142D01*
X96527904Y-95504142D01*
X96623142Y-95551761D01*
X96670761Y-95599380D01*
X96718380Y-95694619D01*
X96718380Y-95980333D01*
X96670761Y-96075571D01*
X96623142Y-96123190D01*
X112220476Y-86701380D02*
X112220476Y-87415666D01*
X112172857Y-87558523D01*
X112077619Y-87653761D01*
X111934761Y-87701380D01*
X111839523Y-87701380D01*
X113220476Y-87701380D02*
X112649047Y-87701380D01*
X112934761Y-87701380D02*
X112934761Y-86701380D01*
X112839523Y-86844238D01*
X112744285Y-86939476D01*
X112649047Y-86987095D01*
X113601428Y-86796619D02*
X113649047Y-86749000D01*
X113744285Y-86701380D01*
X113982380Y-86701380D01*
X114077619Y-86749000D01*
X114125238Y-86796619D01*
X114172857Y-86891857D01*
X114172857Y-86987095D01*
X114125238Y-87129952D01*
X113553809Y-87701380D01*
X114172857Y-87701380D01*
X112474476Y-82891380D02*
X112474476Y-83605666D01*
X112426857Y-83748523D01*
X112331619Y-83843761D01*
X112188761Y-83891380D01*
X112093523Y-83891380D01*
X113474476Y-83891380D02*
X112903047Y-83891380D01*
X113188761Y-83891380D02*
X113188761Y-82891380D01*
X113093523Y-83034238D01*
X112998285Y-83129476D01*
X112903047Y-83177095D01*
X114426857Y-83891380D02*
X113855428Y-83891380D01*
X114141142Y-83891380D02*
X114141142Y-82891380D01*
X114045904Y-83034238D01*
X113950666Y-83129476D01*
X113855428Y-83177095D01*
X134572476Y-77811380D02*
X134572476Y-78525666D01*
X134524857Y-78668523D01*
X134429619Y-78763761D01*
X134286761Y-78811380D01*
X134191523Y-78811380D01*
X135572476Y-78811380D02*
X135001047Y-78811380D01*
X135286761Y-78811380D02*
X135286761Y-77811380D01*
X135191523Y-77954238D01*
X135096285Y-78049476D01*
X135001047Y-78097095D01*
X136191523Y-77811380D02*
X136286761Y-77811380D01*
X136382000Y-77859000D01*
X136429619Y-77906619D01*
X136477238Y-78001857D01*
X136524857Y-78192333D01*
X136524857Y-78430428D01*
X136477238Y-78620904D01*
X136429619Y-78716142D01*
X136382000Y-78763761D01*
X136286761Y-78811380D01*
X136191523Y-78811380D01*
X136096285Y-78763761D01*
X136048666Y-78716142D01*
X136001047Y-78620904D01*
X135953428Y-78430428D01*
X135953428Y-78192333D01*
X136001047Y-78001857D01*
X136048666Y-77906619D01*
X136096285Y-77859000D01*
X136191523Y-77811380D01*
X133905666Y-87336380D02*
X133905666Y-88050666D01*
X133858047Y-88193523D01*
X133762809Y-88288761D01*
X133619952Y-88336380D01*
X133524714Y-88336380D01*
X134429476Y-88336380D02*
X134619952Y-88336380D01*
X134715190Y-88288761D01*
X134762809Y-88241142D01*
X134858047Y-88098285D01*
X134905666Y-87907809D01*
X134905666Y-87526857D01*
X134858047Y-87431619D01*
X134810428Y-87384000D01*
X134715190Y-87336380D01*
X134524714Y-87336380D01*
X134429476Y-87384000D01*
X134381857Y-87431619D01*
X134334238Y-87526857D01*
X134334238Y-87764952D01*
X134381857Y-87860190D01*
X134429476Y-87907809D01*
X134524714Y-87955428D01*
X134715190Y-87955428D01*
X134810428Y-87907809D01*
X134858047Y-87860190D01*
X134905666Y-87764952D01*
X110166666Y-69122380D02*
X110166666Y-69836666D01*
X110119047Y-69979523D01*
X110023809Y-70074761D01*
X109880952Y-70122380D01*
X109785714Y-70122380D01*
X111071428Y-69122380D02*
X110880952Y-69122380D01*
X110785714Y-69170000D01*
X110738095Y-69217619D01*
X110642857Y-69360476D01*
X110595238Y-69550952D01*
X110595238Y-69931904D01*
X110642857Y-70027142D01*
X110690476Y-70074761D01*
X110785714Y-70122380D01*
X110976190Y-70122380D01*
X111071428Y-70074761D01*
X111119047Y-70027142D01*
X111166666Y-69931904D01*
X111166666Y-69693809D01*
X111119047Y-69598571D01*
X111071428Y-69550952D01*
X110976190Y-69503333D01*
X110785714Y-69503333D01*
X110690476Y-69550952D01*
X110642857Y-69598571D01*
X110595238Y-69693809D01*
X136136142Y-115546142D02*
X136088523Y-115593761D01*
X135945666Y-115641380D01*
X135850428Y-115641380D01*
X135707571Y-115593761D01*
X135612333Y-115498523D01*
X135564714Y-115403285D01*
X135517095Y-115212809D01*
X135517095Y-115069952D01*
X135564714Y-114879476D01*
X135612333Y-114784238D01*
X135707571Y-114689000D01*
X135850428Y-114641380D01*
X135945666Y-114641380D01*
X136088523Y-114689000D01*
X136136142Y-114736619D01*
X137088523Y-115641380D02*
X136517095Y-115641380D01*
X136802809Y-115641380D02*
X136802809Y-114641380D01*
X136707571Y-114784238D01*
X136612333Y-114879476D01*
X136517095Y-114927095D01*
X137421857Y-114641380D02*
X138088523Y-114641380D01*
X137659952Y-115641380D01*
X119372142Y-115546142D02*
X119324523Y-115593761D01*
X119181666Y-115641380D01*
X119086428Y-115641380D01*
X118943571Y-115593761D01*
X118848333Y-115498523D01*
X118800714Y-115403285D01*
X118753095Y-115212809D01*
X118753095Y-115069952D01*
X118800714Y-114879476D01*
X118848333Y-114784238D01*
X118943571Y-114689000D01*
X119086428Y-114641380D01*
X119181666Y-114641380D01*
X119324523Y-114689000D01*
X119372142Y-114736619D01*
X120324523Y-115641380D02*
X119753095Y-115641380D01*
X120038809Y-115641380D02*
X120038809Y-114641380D01*
X119943571Y-114784238D01*
X119848333Y-114879476D01*
X119753095Y-114927095D01*
X121181666Y-114641380D02*
X120991190Y-114641380D01*
X120895952Y-114689000D01*
X120848333Y-114736619D01*
X120753095Y-114879476D01*
X120705476Y-115069952D01*
X120705476Y-115450904D01*
X120753095Y-115546142D01*
X120800714Y-115593761D01*
X120895952Y-115641380D01*
X121086428Y-115641380D01*
X121181666Y-115593761D01*
X121229285Y-115546142D01*
X121276904Y-115450904D01*
X121276904Y-115212809D01*
X121229285Y-115117571D01*
X121181666Y-115069952D01*
X121086428Y-115022333D01*
X120895952Y-115022333D01*
X120800714Y-115069952D01*
X120753095Y-115117571D01*
X120705476Y-115212809D01*
X100322142Y-115546142D02*
X100274523Y-115593761D01*
X100131666Y-115641380D01*
X100036428Y-115641380D01*
X99893571Y-115593761D01*
X99798333Y-115498523D01*
X99750714Y-115403285D01*
X99703095Y-115212809D01*
X99703095Y-115069952D01*
X99750714Y-114879476D01*
X99798333Y-114784238D01*
X99893571Y-114689000D01*
X100036428Y-114641380D01*
X100131666Y-114641380D01*
X100274523Y-114689000D01*
X100322142Y-114736619D01*
X101274523Y-115641380D02*
X100703095Y-115641380D01*
X100988809Y-115641380D02*
X100988809Y-114641380D01*
X100893571Y-114784238D01*
X100798333Y-114879476D01*
X100703095Y-114927095D01*
X102179285Y-114641380D02*
X101703095Y-114641380D01*
X101655476Y-115117571D01*
X101703095Y-115069952D01*
X101798333Y-115022333D01*
X102036428Y-115022333D01*
X102131666Y-115069952D01*
X102179285Y-115117571D01*
X102226904Y-115212809D01*
X102226904Y-115450904D01*
X102179285Y-115546142D01*
X102131666Y-115593761D01*
X102036428Y-115641380D01*
X101798333Y-115641380D01*
X101703095Y-115593761D01*
X101655476Y-115546142D01*
X132007142Y-109442857D02*
X132054761Y-109490476D01*
X132102380Y-109633333D01*
X132102380Y-109728571D01*
X132054761Y-109871428D01*
X131959523Y-109966666D01*
X131864285Y-110014285D01*
X131673809Y-110061904D01*
X131530952Y-110061904D01*
X131340476Y-110014285D01*
X131245238Y-109966666D01*
X131150000Y-109871428D01*
X131102380Y-109728571D01*
X131102380Y-109633333D01*
X131150000Y-109490476D01*
X131197619Y-109442857D01*
X132102380Y-108490476D02*
X132102380Y-109061904D01*
X132102380Y-108776190D02*
X131102380Y-108776190D01*
X131245238Y-108871428D01*
X131340476Y-108966666D01*
X131388095Y-109061904D01*
X131435714Y-107633333D02*
X132102380Y-107633333D01*
X131054761Y-107871428D02*
X131769047Y-108109523D01*
X131769047Y-107490476D01*
X113007142Y-109442857D02*
X113054761Y-109490476D01*
X113102380Y-109633333D01*
X113102380Y-109728571D01*
X113054761Y-109871428D01*
X112959523Y-109966666D01*
X112864285Y-110014285D01*
X112673809Y-110061904D01*
X112530952Y-110061904D01*
X112340476Y-110014285D01*
X112245238Y-109966666D01*
X112150000Y-109871428D01*
X112102380Y-109728571D01*
X112102380Y-109633333D01*
X112150000Y-109490476D01*
X112197619Y-109442857D01*
X113102380Y-108490476D02*
X113102380Y-109061904D01*
X113102380Y-108776190D02*
X112102380Y-108776190D01*
X112245238Y-108871428D01*
X112340476Y-108966666D01*
X112388095Y-109061904D01*
X112102380Y-108157142D02*
X112102380Y-107538095D01*
X112483333Y-107871428D01*
X112483333Y-107728571D01*
X112530952Y-107633333D01*
X112578571Y-107585714D01*
X112673809Y-107538095D01*
X112911904Y-107538095D01*
X113007142Y-107585714D01*
X113054761Y-107633333D01*
X113102380Y-107728571D01*
X113102380Y-108014285D01*
X113054761Y-108109523D01*
X113007142Y-108157142D01*
X94507142Y-109442857D02*
X94554761Y-109490476D01*
X94602380Y-109633333D01*
X94602380Y-109728571D01*
X94554761Y-109871428D01*
X94459523Y-109966666D01*
X94364285Y-110014285D01*
X94173809Y-110061904D01*
X94030952Y-110061904D01*
X93840476Y-110014285D01*
X93745238Y-109966666D01*
X93650000Y-109871428D01*
X93602380Y-109728571D01*
X93602380Y-109633333D01*
X93650000Y-109490476D01*
X93697619Y-109442857D01*
X94602380Y-108490476D02*
X94602380Y-109061904D01*
X94602380Y-108776190D02*
X93602380Y-108776190D01*
X93745238Y-108871428D01*
X93840476Y-108966666D01*
X93888095Y-109061904D01*
X93697619Y-108109523D02*
X93650000Y-108061904D01*
X93602380Y-107966666D01*
X93602380Y-107728571D01*
X93650000Y-107633333D01*
X93697619Y-107585714D01*
X93792857Y-107538095D01*
X93888095Y-107538095D01*
X94030952Y-107585714D01*
X94602380Y-108157142D01*
X94602380Y-107538095D01*
X143613142Y-70746857D02*
X143660761Y-70794476D01*
X143708380Y-70937333D01*
X143708380Y-71032571D01*
X143660761Y-71175428D01*
X143565523Y-71270666D01*
X143470285Y-71318285D01*
X143279809Y-71365904D01*
X143136952Y-71365904D01*
X142946476Y-71318285D01*
X142851238Y-71270666D01*
X142756000Y-71175428D01*
X142708380Y-71032571D01*
X142708380Y-70937333D01*
X142756000Y-70794476D01*
X142803619Y-70746857D01*
X143708380Y-69794476D02*
X143708380Y-70365904D01*
X143708380Y-70080190D02*
X142708380Y-70080190D01*
X142851238Y-70175428D01*
X142946476Y-70270666D01*
X142994095Y-70365904D01*
X143708380Y-68842095D02*
X143708380Y-69413523D01*
X143708380Y-69127809D02*
X142708380Y-69127809D01*
X142851238Y-69223047D01*
X142946476Y-69318285D01*
X142994095Y-69413523D01*
X136319642Y-61677142D02*
X136272023Y-61724761D01*
X136129166Y-61772380D01*
X136033928Y-61772380D01*
X135891071Y-61724761D01*
X135795833Y-61629523D01*
X135748214Y-61534285D01*
X135700595Y-61343809D01*
X135700595Y-61200952D01*
X135748214Y-61010476D01*
X135795833Y-60915238D01*
X135891071Y-60820000D01*
X136033928Y-60772380D01*
X136129166Y-60772380D01*
X136272023Y-60820000D01*
X136319642Y-60867619D01*
X137272023Y-61772380D02*
X136700595Y-61772380D01*
X136986309Y-61772380D02*
X136986309Y-60772380D01*
X136891071Y-60915238D01*
X136795833Y-61010476D01*
X136700595Y-61058095D01*
X137891071Y-60772380D02*
X137986309Y-60772380D01*
X138081547Y-60820000D01*
X138129166Y-60867619D01*
X138176785Y-60962857D01*
X138224404Y-61153333D01*
X138224404Y-61391428D01*
X138176785Y-61581904D01*
X138129166Y-61677142D01*
X138081547Y-61724761D01*
X137986309Y-61772380D01*
X137891071Y-61772380D01*
X137795833Y-61724761D01*
X137748214Y-61677142D01*
X137700595Y-61581904D01*
X137652976Y-61391428D01*
X137652976Y-61153333D01*
X137700595Y-60962857D01*
X137748214Y-60867619D01*
X137795833Y-60820000D01*
X137891071Y-60772380D01*
X134469142Y-81192666D02*
X134516761Y-81240285D01*
X134564380Y-81383142D01*
X134564380Y-81478380D01*
X134516761Y-81621238D01*
X134421523Y-81716476D01*
X134326285Y-81764095D01*
X134135809Y-81811714D01*
X133992952Y-81811714D01*
X133802476Y-81764095D01*
X133707238Y-81716476D01*
X133612000Y-81621238D01*
X133564380Y-81478380D01*
X133564380Y-81383142D01*
X133612000Y-81240285D01*
X133659619Y-81192666D01*
X134564380Y-80716476D02*
X134564380Y-80526000D01*
X134516761Y-80430761D01*
X134469142Y-80383142D01*
X134326285Y-80287904D01*
X134135809Y-80240285D01*
X133754857Y-80240285D01*
X133659619Y-80287904D01*
X133612000Y-80335523D01*
X133564380Y-80430761D01*
X133564380Y-80621238D01*
X133612000Y-80716476D01*
X133659619Y-80764095D01*
X133754857Y-80811714D01*
X133992952Y-80811714D01*
X134088190Y-80764095D01*
X134135809Y-80716476D01*
X134183428Y-80621238D01*
X134183428Y-80430761D01*
X134135809Y-80335523D01*
X134088190Y-80287904D01*
X133992952Y-80240285D01*
X83526333Y-88677142D02*
X83478714Y-88724761D01*
X83335857Y-88772380D01*
X83240619Y-88772380D01*
X83097761Y-88724761D01*
X83002523Y-88629523D01*
X82954904Y-88534285D01*
X82907285Y-88343809D01*
X82907285Y-88200952D01*
X82954904Y-88010476D01*
X83002523Y-87915238D01*
X83097761Y-87820000D01*
X83240619Y-87772380D01*
X83335857Y-87772380D01*
X83478714Y-87820000D01*
X83526333Y-87867619D01*
X84097761Y-88200952D02*
X84002523Y-88153333D01*
X83954904Y-88105714D01*
X83907285Y-88010476D01*
X83907285Y-87962857D01*
X83954904Y-87867619D01*
X84002523Y-87820000D01*
X84097761Y-87772380D01*
X84288238Y-87772380D01*
X84383476Y-87820000D01*
X84431095Y-87867619D01*
X84478714Y-87962857D01*
X84478714Y-88010476D01*
X84431095Y-88105714D01*
X84383476Y-88153333D01*
X84288238Y-88200952D01*
X84097761Y-88200952D01*
X84002523Y-88248571D01*
X83954904Y-88296190D01*
X83907285Y-88391428D01*
X83907285Y-88581904D01*
X83954904Y-88677142D01*
X84002523Y-88724761D01*
X84097761Y-88772380D01*
X84288238Y-88772380D01*
X84383476Y-88724761D01*
X84431095Y-88677142D01*
X84478714Y-88581904D01*
X84478714Y-88391428D01*
X84431095Y-88296190D01*
X84383476Y-88248571D01*
X84288238Y-88200952D01*
X80986333Y-115927142D02*
X80938714Y-115974761D01*
X80795857Y-116022380D01*
X80700619Y-116022380D01*
X80557761Y-115974761D01*
X80462523Y-115879523D01*
X80414904Y-115784285D01*
X80367285Y-115593809D01*
X80367285Y-115450952D01*
X80414904Y-115260476D01*
X80462523Y-115165238D01*
X80557761Y-115070000D01*
X80700619Y-115022380D01*
X80795857Y-115022380D01*
X80938714Y-115070000D01*
X80986333Y-115117619D01*
X81319666Y-115022380D02*
X81986333Y-115022380D01*
X81557761Y-116022380D01*
X133397714Y-93130666D02*
X133873904Y-93130666D01*
X133302476Y-93416380D02*
X133635809Y-92416380D01*
X133969142Y-93416380D01*
X134778666Y-92416380D02*
X134302476Y-92416380D01*
X134254857Y-92892571D01*
X134302476Y-92844952D01*
X134397714Y-92797333D01*
X134635809Y-92797333D01*
X134731047Y-92844952D01*
X134778666Y-92892571D01*
X134826285Y-92987809D01*
X134826285Y-93225904D01*
X134778666Y-93321142D01*
X134731047Y-93368761D01*
X134635809Y-93416380D01*
X134397714Y-93416380D01*
X134302476Y-93368761D01*
X134254857Y-93321142D01*
X111680714Y-92876666D02*
X112156904Y-92876666D01*
X111585476Y-93162380D02*
X111918809Y-92162380D01*
X112252142Y-93162380D01*
X113014047Y-92495714D02*
X113014047Y-93162380D01*
X112775952Y-92114761D02*
X112537857Y-92829047D01*
X113156904Y-92829047D01*
X93900714Y-93003666D02*
X94376904Y-93003666D01*
X93805476Y-93289380D02*
X94138809Y-92289380D01*
X94472142Y-93289380D01*
X94710238Y-92289380D02*
X95329285Y-92289380D01*
X94995952Y-92670333D01*
X95138809Y-92670333D01*
X95234047Y-92717952D01*
X95281666Y-92765571D01*
X95329285Y-92860809D01*
X95329285Y-93098904D01*
X95281666Y-93194142D01*
X95234047Y-93241761D01*
X95138809Y-93289380D01*
X94853095Y-93289380D01*
X94757857Y-93241761D01*
X94710238Y-93194142D01*
X133524666Y-69048380D02*
X133524666Y-69762666D01*
X133477047Y-69905523D01*
X133381809Y-70000761D01*
X133238952Y-70048380D01*
X133143714Y-70048380D01*
X133953238Y-69143619D02*
X134000857Y-69096000D01*
X134096095Y-69048380D01*
X134334190Y-69048380D01*
X134429428Y-69096000D01*
X134477047Y-69143619D01*
X134524666Y-69238857D01*
X134524666Y-69334095D01*
X134477047Y-69476952D01*
X133905619Y-70048380D01*
X134524666Y-70048380D01*
X97688095Y-56902380D02*
X97688095Y-57711904D01*
X97735714Y-57807142D01*
X97783333Y-57854761D01*
X97878571Y-57902380D01*
X98069047Y-57902380D01*
X98164285Y-57854761D01*
X98211904Y-57807142D01*
X98259523Y-57711904D01*
X98259523Y-56902380D01*
X98688095Y-56997619D02*
X98735714Y-56950000D01*
X98830952Y-56902380D01*
X99069047Y-56902380D01*
X99164285Y-56950000D01*
X99211904Y-56997619D01*
X99259523Y-57092857D01*
X99259523Y-57188095D01*
X99211904Y-57330952D01*
X98640476Y-57902380D01*
X99259523Y-57902380D01*
X77597095Y-61682380D02*
X77597095Y-62491904D01*
X77644714Y-62587142D01*
X77692333Y-62634761D01*
X77787571Y-62682380D01*
X77978047Y-62682380D01*
X78073285Y-62634761D01*
X78120904Y-62587142D01*
X78168523Y-62491904D01*
X78168523Y-61682380D01*
X79168523Y-62682380D02*
X78597095Y-62682380D01*
X78882809Y-62682380D02*
X78882809Y-61682380D01*
X78787571Y-61825238D01*
X78692333Y-61920476D01*
X78597095Y-61968095D01*
X97877333Y-91384380D02*
X97544000Y-90908190D01*
X97305904Y-91384380D02*
X97305904Y-90384380D01*
X97686857Y-90384380D01*
X97782095Y-90432000D01*
X97829714Y-90479619D01*
X97877333Y-90574857D01*
X97877333Y-90717714D01*
X97829714Y-90812952D01*
X97782095Y-90860571D01*
X97686857Y-90908190D01*
X97305904Y-90908190D01*
X98734476Y-90717714D02*
X98734476Y-91384380D01*
X98496380Y-90336761D02*
X98258285Y-91051047D01*
X98877333Y-91051047D01*
X113602380Y-66166666D02*
X113126190Y-66500000D01*
X113602380Y-66738095D02*
X112602380Y-66738095D01*
X112602380Y-66357142D01*
X112650000Y-66261904D01*
X112697619Y-66214285D01*
X112792857Y-66166666D01*
X112935714Y-66166666D01*
X113030952Y-66214285D01*
X113078571Y-66261904D01*
X113126190Y-66357142D01*
X113126190Y-66738095D01*
X112602380Y-65833333D02*
X112602380Y-65214285D01*
X112983333Y-65547619D01*
X112983333Y-65404761D01*
X113030952Y-65309523D01*
X113078571Y-65261904D01*
X113173809Y-65214285D01*
X113411904Y-65214285D01*
X113507142Y-65261904D01*
X113554761Y-65309523D01*
X113602380Y-65404761D01*
X113602380Y-65690476D01*
X113554761Y-65785714D01*
X113507142Y-65833333D01*
X89749333Y-92908380D02*
X89416000Y-92432190D01*
X89177904Y-92908380D02*
X89177904Y-91908380D01*
X89558857Y-91908380D01*
X89654095Y-91956000D01*
X89701714Y-92003619D01*
X89749333Y-92098857D01*
X89749333Y-92241714D01*
X89701714Y-92336952D01*
X89654095Y-92384571D01*
X89558857Y-92432190D01*
X89177904Y-92432190D01*
X90130285Y-92003619D02*
X90177904Y-91956000D01*
X90273142Y-91908380D01*
X90511238Y-91908380D01*
X90606476Y-91956000D01*
X90654095Y-92003619D01*
X90701714Y-92098857D01*
X90701714Y-92194095D01*
X90654095Y-92336952D01*
X90082666Y-92908380D01*
X90701714Y-92908380D01*
X79801333Y-92952380D02*
X79468000Y-92476190D01*
X79229904Y-92952380D02*
X79229904Y-91952380D01*
X79610857Y-91952380D01*
X79706095Y-92000000D01*
X79753714Y-92047619D01*
X79801333Y-92142857D01*
X79801333Y-92285714D01*
X79753714Y-92380952D01*
X79706095Y-92428571D01*
X79610857Y-92476190D01*
X79229904Y-92476190D01*
X80753714Y-92952380D02*
X80182285Y-92952380D01*
X80468000Y-92952380D02*
X80468000Y-91952380D01*
X80372761Y-92095238D01*
X80277523Y-92190476D01*
X80182285Y-92238095D01*
X62902380Y-81583333D02*
X63616666Y-81583333D01*
X63759523Y-81630952D01*
X63854761Y-81726190D01*
X63902380Y-81869047D01*
X63902380Y-81964285D01*
X63330952Y-80964285D02*
X63283333Y-81059523D01*
X63235714Y-81107142D01*
X63140476Y-81154761D01*
X63092857Y-81154761D01*
X62997619Y-81107142D01*
X62950000Y-81059523D01*
X62902380Y-80964285D01*
X62902380Y-80773809D01*
X62950000Y-80678571D01*
X62997619Y-80630952D01*
X63092857Y-80583333D01*
X63140476Y-80583333D01*
X63235714Y-80630952D01*
X63283333Y-80678571D01*
X63330952Y-80773809D01*
X63330952Y-80964285D01*
X63378571Y-81059523D01*
X63426190Y-81107142D01*
X63521428Y-81154761D01*
X63711904Y-81154761D01*
X63807142Y-81107142D01*
X63854761Y-81059523D01*
X63902380Y-80964285D01*
X63902380Y-80773809D01*
X63854761Y-80678571D01*
X63807142Y-80630952D01*
X63711904Y-80583333D01*
X63521428Y-80583333D01*
X63426190Y-80630952D01*
X63378571Y-80678571D01*
X63330952Y-80773809D01*
X62902380Y-99583333D02*
X63616666Y-99583333D01*
X63759523Y-99630952D01*
X63854761Y-99726190D01*
X63902380Y-99869047D01*
X63902380Y-99964285D01*
X62902380Y-99202380D02*
X62902380Y-98535714D01*
X63902380Y-98964285D01*
X76922380Y-73358333D02*
X77636666Y-73358333D01*
X77779523Y-73405952D01*
X77874761Y-73501190D01*
X77922380Y-73644047D01*
X77922380Y-73739285D01*
X76922380Y-72405952D02*
X76922380Y-72882142D01*
X77398571Y-72929761D01*
X77350952Y-72882142D01*
X77303333Y-72786904D01*
X77303333Y-72548809D01*
X77350952Y-72453571D01*
X77398571Y-72405952D01*
X77493809Y-72358333D01*
X77731904Y-72358333D01*
X77827142Y-72405952D01*
X77874761Y-72453571D01*
X77922380Y-72548809D01*
X77922380Y-72786904D01*
X77874761Y-72882142D01*
X77827142Y-72929761D01*
X77049380Y-96726333D02*
X77763666Y-96726333D01*
X77906523Y-96773952D01*
X78001761Y-96869190D01*
X78049380Y-97012047D01*
X78049380Y-97107285D01*
X77382714Y-95821571D02*
X78049380Y-95821571D01*
X77001761Y-96059666D02*
X77716047Y-96297761D01*
X77716047Y-95678714D01*
X62571380Y-71326333D02*
X63285666Y-71326333D01*
X63428523Y-71373952D01*
X63523761Y-71469190D01*
X63571380Y-71612047D01*
X63571380Y-71707285D01*
X62571380Y-70945380D02*
X62571380Y-70326333D01*
X62952333Y-70659666D01*
X62952333Y-70516809D01*
X62999952Y-70421571D01*
X63047571Y-70373952D01*
X63142809Y-70326333D01*
X63380904Y-70326333D01*
X63476142Y-70373952D01*
X63523761Y-70421571D01*
X63571380Y-70516809D01*
X63571380Y-70802523D01*
X63523761Y-70897761D01*
X63476142Y-70945380D01*
X109831142Y-61888666D02*
X109878761Y-61936285D01*
X109926380Y-62079142D01*
X109926380Y-62174380D01*
X109878761Y-62317238D01*
X109783523Y-62412476D01*
X109688285Y-62460095D01*
X109497809Y-62507714D01*
X109354952Y-62507714D01*
X109164476Y-62460095D01*
X109069238Y-62412476D01*
X108974000Y-62317238D01*
X108926380Y-62174380D01*
X108926380Y-62079142D01*
X108974000Y-61936285D01*
X109021619Y-61888666D01*
X108926380Y-61031523D02*
X108926380Y-61222000D01*
X108974000Y-61317238D01*
X109021619Y-61364857D01*
X109164476Y-61460095D01*
X109354952Y-61507714D01*
X109735904Y-61507714D01*
X109831142Y-61460095D01*
X109878761Y-61412476D01*
X109926380Y-61317238D01*
X109926380Y-61126761D01*
X109878761Y-61031523D01*
X109831142Y-60983904D01*
X109735904Y-60936285D01*
X109497809Y-60936285D01*
X109402571Y-60983904D01*
X109354952Y-61031523D01*
X109307333Y-61126761D01*
X109307333Y-61317238D01*
X109354952Y-61412476D01*
X109402571Y-61460095D01*
X109497809Y-61507714D01*
X82780142Y-67730666D02*
X82827761Y-67778285D01*
X82875380Y-67921142D01*
X82875380Y-68016380D01*
X82827761Y-68159238D01*
X82732523Y-68254476D01*
X82637285Y-68302095D01*
X82446809Y-68349714D01*
X82303952Y-68349714D01*
X82113476Y-68302095D01*
X82018238Y-68254476D01*
X81923000Y-68159238D01*
X81875380Y-68016380D01*
X81875380Y-67921142D01*
X81923000Y-67778285D01*
X81970619Y-67730666D01*
X81875380Y-66825904D02*
X81875380Y-67302095D01*
X82351571Y-67349714D01*
X82303952Y-67302095D01*
X82256333Y-67206857D01*
X82256333Y-66968761D01*
X82303952Y-66873523D01*
X82351571Y-66825904D01*
X82446809Y-66778285D01*
X82684904Y-66778285D01*
X82780142Y-66825904D01*
X82827761Y-66873523D01*
X82875380Y-66968761D01*
X82875380Y-67206857D01*
X82827761Y-67302095D01*
X82780142Y-67349714D01*
X77946142Y-80416666D02*
X77993761Y-80464285D01*
X78041380Y-80607142D01*
X78041380Y-80702380D01*
X77993761Y-80845238D01*
X77898523Y-80940476D01*
X77803285Y-80988095D01*
X77612809Y-81035714D01*
X77469952Y-81035714D01*
X77279476Y-80988095D01*
X77184238Y-80940476D01*
X77089000Y-80845238D01*
X77041380Y-80702380D01*
X77041380Y-80607142D01*
X77089000Y-80464285D01*
X77136619Y-80416666D01*
X77374714Y-79559523D02*
X78041380Y-79559523D01*
X76993761Y-79797619D02*
X77708047Y-80035714D01*
X77708047Y-79416666D01*
X77098142Y-104016666D02*
X77145761Y-104064285D01*
X77193380Y-104207142D01*
X77193380Y-104302380D01*
X77145761Y-104445238D01*
X77050523Y-104540476D01*
X76955285Y-104588095D01*
X76764809Y-104635714D01*
X76621952Y-104635714D01*
X76431476Y-104588095D01*
X76336238Y-104540476D01*
X76241000Y-104445238D01*
X76193380Y-104302380D01*
X76193380Y-104207142D01*
X76241000Y-104064285D01*
X76288619Y-104016666D01*
X76193380Y-103683333D02*
X76193380Y-103064285D01*
X76574333Y-103397619D01*
X76574333Y-103254761D01*
X76621952Y-103159523D01*
X76669571Y-103111904D01*
X76764809Y-103064285D01*
X77002904Y-103064285D01*
X77098142Y-103111904D01*
X77145761Y-103159523D01*
X77193380Y-103254761D01*
X77193380Y-103540476D01*
X77145761Y-103635714D01*
X77098142Y-103683333D01*
X84304142Y-67730666D02*
X84351761Y-67778285D01*
X84399380Y-67921142D01*
X84399380Y-68016380D01*
X84351761Y-68159238D01*
X84256523Y-68254476D01*
X84161285Y-68302095D01*
X83970809Y-68349714D01*
X83827952Y-68349714D01*
X83637476Y-68302095D01*
X83542238Y-68254476D01*
X83447000Y-68159238D01*
X83399380Y-68016380D01*
X83399380Y-67921142D01*
X83447000Y-67778285D01*
X83494619Y-67730666D01*
X83494619Y-67349714D02*
X83447000Y-67302095D01*
X83399380Y-67206857D01*
X83399380Y-66968761D01*
X83447000Y-66873523D01*
X83494619Y-66825904D01*
X83589857Y-66778285D01*
X83685095Y-66778285D01*
X83827952Y-66825904D01*
X84399380Y-67397333D01*
X84399380Y-66778285D01*
X80351333Y-70207142D02*
X80303714Y-70254761D01*
X80160857Y-70302380D01*
X80065619Y-70302380D01*
X79922761Y-70254761D01*
X79827523Y-70159523D01*
X79779904Y-70064285D01*
X79732285Y-69873809D01*
X79732285Y-69730952D01*
X79779904Y-69540476D01*
X79827523Y-69445238D01*
X79922761Y-69350000D01*
X80065619Y-69302380D01*
X80160857Y-69302380D01*
X80303714Y-69350000D01*
X80351333Y-69397619D01*
X81303714Y-70302380D02*
X80732285Y-70302380D01*
X81018000Y-70302380D02*
X81018000Y-69302380D01*
X80922761Y-69445238D01*
X80827523Y-69540476D01*
X80732285Y-69588095D01*
X70024714Y-71921666D02*
X70500904Y-71921666D01*
X69929476Y-72207380D02*
X70262809Y-71207380D01*
X70596142Y-72207380D01*
X70881857Y-71302619D02*
X70929476Y-71255000D01*
X71024714Y-71207380D01*
X71262809Y-71207380D01*
X71358047Y-71255000D01*
X71405666Y-71302619D01*
X71453285Y-71397857D01*
X71453285Y-71493095D01*
X71405666Y-71635952D01*
X70834238Y-72207380D01*
X71453285Y-72207380D01*
X73072714Y-93003666D02*
X73548904Y-93003666D01*
X72977476Y-93289380D02*
X73310809Y-92289380D01*
X73644142Y-93289380D01*
X74501285Y-93289380D02*
X73929857Y-93289380D01*
X74215571Y-93289380D02*
X74215571Y-92289380D01*
X74120333Y-92432238D01*
X74025095Y-92527476D01*
X73929857Y-92575095D01*
%LPC*%
D12*
X78606000Y-55372000D03*
X81106000Y-55372000D03*
X83606000Y-55372000D03*
G36*
G01*
X86956000Y-54647000D02*
X86956000Y-56097000D01*
G75*
G02*
X86706000Y-56347000I-250000J0D01*
G01*
X85506000Y-56347000D01*
G75*
G02*
X85256000Y-56097000I0J250000D01*
G01*
X85256000Y-54647000D01*
G75*
G02*
X85506000Y-54397000I250000J0D01*
G01*
X86706000Y-54397000D01*
G75*
G02*
X86956000Y-54647000I0J-250000D01*
G01*
G37*
X117500000Y-62000000D03*
X120000000Y-62000000D03*
X122500000Y-62000000D03*
X125000000Y-62000000D03*
X127500000Y-62000000D03*
G36*
G01*
X130850000Y-61275000D02*
X130850000Y-62725000D01*
G75*
G02*
X130600000Y-62975000I-250000J0D01*
G01*
X129400000Y-62975000D01*
G75*
G02*
X129150000Y-62725000I0J250000D01*
G01*
X129150000Y-61275000D01*
G75*
G02*
X129400000Y-61025000I250000J0D01*
G01*
X130600000Y-61025000D01*
G75*
G02*
X130850000Y-61275000I0J-250000D01*
G01*
G37*
D13*
X137160000Y-74500000D03*
G36*
G01*
X138660000Y-72745000D02*
X138660000Y-72445000D01*
G75*
G02*
X138810000Y-72295000I150000J0D01*
G01*
X140460000Y-72295000D01*
G75*
G02*
X140610000Y-72445000I0J-150000D01*
G01*
X140610000Y-72745000D01*
G75*
G02*
X140460000Y-72895000I-150000J0D01*
G01*
X138810000Y-72895000D01*
G75*
G02*
X138660000Y-72745000I0J150000D01*
G01*
G37*
G36*
G01*
X138660000Y-74015000D02*
X138660000Y-73715000D01*
G75*
G02*
X138810000Y-73565000I150000J0D01*
G01*
X140460000Y-73565000D01*
G75*
G02*
X140610000Y-73715000I0J-150000D01*
G01*
X140610000Y-74015000D01*
G75*
G02*
X140460000Y-74165000I-150000J0D01*
G01*
X138810000Y-74165000D01*
G75*
G02*
X138660000Y-74015000I0J150000D01*
G01*
G37*
G36*
G01*
X138660000Y-75285000D02*
X138660000Y-74985000D01*
G75*
G02*
X138810000Y-74835000I150000J0D01*
G01*
X140460000Y-74835000D01*
G75*
G02*
X140610000Y-74985000I0J-150000D01*
G01*
X140610000Y-75285000D01*
G75*
G02*
X140460000Y-75435000I-150000J0D01*
G01*
X138810000Y-75435000D01*
G75*
G02*
X138660000Y-75285000I0J150000D01*
G01*
G37*
G36*
G01*
X138660000Y-76555000D02*
X138660000Y-76255000D01*
G75*
G02*
X138810000Y-76105000I150000J0D01*
G01*
X140460000Y-76105000D01*
G75*
G02*
X140610000Y-76255000I0J-150000D01*
G01*
X140610000Y-76555000D01*
G75*
G02*
X140460000Y-76705000I-150000J0D01*
G01*
X138810000Y-76705000D01*
G75*
G02*
X138660000Y-76555000I0J150000D01*
G01*
G37*
G36*
G01*
X133710000Y-76555000D02*
X133710000Y-76255000D01*
G75*
G02*
X133860000Y-76105000I150000J0D01*
G01*
X135510000Y-76105000D01*
G75*
G02*
X135660000Y-76255000I0J-150000D01*
G01*
X135660000Y-76555000D01*
G75*
G02*
X135510000Y-76705000I-150000J0D01*
G01*
X133860000Y-76705000D01*
G75*
G02*
X133710000Y-76555000I0J150000D01*
G01*
G37*
G36*
G01*
X133710000Y-75285000D02*
X133710000Y-74985000D01*
G75*
G02*
X133860000Y-74835000I150000J0D01*
G01*
X135510000Y-74835000D01*
G75*
G02*
X135660000Y-74985000I0J-150000D01*
G01*
X135660000Y-75285000D01*
G75*
G02*
X135510000Y-75435000I-150000J0D01*
G01*
X133860000Y-75435000D01*
G75*
G02*
X133710000Y-75285000I0J150000D01*
G01*
G37*
G36*
G01*
X133710000Y-74015000D02*
X133710000Y-73715000D01*
G75*
G02*
X133860000Y-73565000I150000J0D01*
G01*
X135510000Y-73565000D01*
G75*
G02*
X135660000Y-73715000I0J-150000D01*
G01*
X135660000Y-74015000D01*
G75*
G02*
X135510000Y-74165000I-150000J0D01*
G01*
X133860000Y-74165000D01*
G75*
G02*
X133710000Y-74015000I0J150000D01*
G01*
G37*
G36*
G01*
X133710000Y-72745000D02*
X133710000Y-72445000D01*
G75*
G02*
X133860000Y-72295000I150000J0D01*
G01*
X135510000Y-72295000D01*
G75*
G02*
X135660000Y-72445000I0J-150000D01*
G01*
X135660000Y-72745000D01*
G75*
G02*
X135510000Y-72895000I-150000J0D01*
G01*
X133860000Y-72895000D01*
G75*
G02*
X133710000Y-72745000I0J150000D01*
G01*
G37*
G36*
G01*
X141000000Y-80245000D02*
X141000000Y-79945000D01*
G75*
G02*
X141150000Y-79795000I150000J0D01*
G01*
X142800000Y-79795000D01*
G75*
G02*
X142950000Y-79945000I0J-150000D01*
G01*
X142950000Y-80245000D01*
G75*
G02*
X142800000Y-80395000I-150000J0D01*
G01*
X141150000Y-80395000D01*
G75*
G02*
X141000000Y-80245000I0J150000D01*
G01*
G37*
G36*
G01*
X141000000Y-81515000D02*
X141000000Y-81215000D01*
G75*
G02*
X141150000Y-81065000I150000J0D01*
G01*
X142800000Y-81065000D01*
G75*
G02*
X142950000Y-81215000I0J-150000D01*
G01*
X142950000Y-81515000D01*
G75*
G02*
X142800000Y-81665000I-150000J0D01*
G01*
X141150000Y-81665000D01*
G75*
G02*
X141000000Y-81515000I0J150000D01*
G01*
G37*
G36*
G01*
X141000000Y-82785000D02*
X141000000Y-82485000D01*
G75*
G02*
X141150000Y-82335000I150000J0D01*
G01*
X142800000Y-82335000D01*
G75*
G02*
X142950000Y-82485000I0J-150000D01*
G01*
X142950000Y-82785000D01*
G75*
G02*
X142800000Y-82935000I-150000J0D01*
G01*
X141150000Y-82935000D01*
G75*
G02*
X141000000Y-82785000I0J150000D01*
G01*
G37*
G36*
G01*
X141000000Y-84055000D02*
X141000000Y-83755000D01*
G75*
G02*
X141150000Y-83605000I150000J0D01*
G01*
X142800000Y-83605000D01*
G75*
G02*
X142950000Y-83755000I0J-150000D01*
G01*
X142950000Y-84055000D01*
G75*
G02*
X142800000Y-84205000I-150000J0D01*
G01*
X141150000Y-84205000D01*
G75*
G02*
X141000000Y-84055000I0J150000D01*
G01*
G37*
G36*
G01*
X136050000Y-84055000D02*
X136050000Y-83755000D01*
G75*
G02*
X136200000Y-83605000I150000J0D01*
G01*
X137850000Y-83605000D01*
G75*
G02*
X138000000Y-83755000I0J-150000D01*
G01*
X138000000Y-84055000D01*
G75*
G02*
X137850000Y-84205000I-150000J0D01*
G01*
X136200000Y-84205000D01*
G75*
G02*
X136050000Y-84055000I0J150000D01*
G01*
G37*
G36*
G01*
X136050000Y-82785000D02*
X136050000Y-82485000D01*
G75*
G02*
X136200000Y-82335000I150000J0D01*
G01*
X137850000Y-82335000D01*
G75*
G02*
X138000000Y-82485000I0J-150000D01*
G01*
X138000000Y-82785000D01*
G75*
G02*
X137850000Y-82935000I-150000J0D01*
G01*
X136200000Y-82935000D01*
G75*
G02*
X136050000Y-82785000I0J150000D01*
G01*
G37*
G36*
G01*
X136050000Y-81515000D02*
X136050000Y-81215000D01*
G75*
G02*
X136200000Y-81065000I150000J0D01*
G01*
X137850000Y-81065000D01*
G75*
G02*
X138000000Y-81215000I0J-150000D01*
G01*
X138000000Y-81515000D01*
G75*
G02*
X137850000Y-81665000I-150000J0D01*
G01*
X136200000Y-81665000D01*
G75*
G02*
X136050000Y-81515000I0J150000D01*
G01*
G37*
G36*
G01*
X136050000Y-80245000D02*
X136050000Y-79945000D01*
G75*
G02*
X136200000Y-79795000I150000J0D01*
G01*
X137850000Y-79795000D01*
G75*
G02*
X138000000Y-79945000I0J-150000D01*
G01*
X138000000Y-80245000D01*
G75*
G02*
X137850000Y-80395000I-150000J0D01*
G01*
X136200000Y-80395000D01*
G75*
G02*
X136050000Y-80245000I0J150000D01*
G01*
G37*
D14*
X124900000Y-56500000D03*
X132100000Y-56500000D03*
X132100000Y-53500000D03*
X124900000Y-53500000D03*
X115400000Y-56500000D03*
X122600000Y-56500000D03*
X122600000Y-53500000D03*
X115400000Y-53500000D03*
G36*
G01*
X141900000Y-63450001D02*
X141900000Y-62549999D01*
G75*
G02*
X142149999Y-62300000I249999J0D01*
G01*
X142850001Y-62300000D01*
G75*
G02*
X143100000Y-62549999I0J-249999D01*
G01*
X143100000Y-63450001D01*
G75*
G02*
X142850001Y-63700000I-249999J0D01*
G01*
X142149999Y-63700000D01*
G75*
G02*
X141900000Y-63450001I0J249999D01*
G01*
G37*
G36*
G01*
X139900000Y-63450001D02*
X139900000Y-62549999D01*
G75*
G02*
X140149999Y-62300000I249999J0D01*
G01*
X140850001Y-62300000D01*
G75*
G02*
X141100000Y-62549999I0J-249999D01*
G01*
X141100000Y-63450001D01*
G75*
G02*
X140850001Y-63700000I-249999J0D01*
G01*
X140149999Y-63700000D01*
G75*
G02*
X139900000Y-63450001I0J249999D01*
G01*
G37*
D12*
X133000000Y-118500000D03*
X130500000Y-118500000D03*
X128000000Y-118500000D03*
G36*
G01*
X124650000Y-119225000D02*
X124650000Y-117775000D01*
G75*
G02*
X124900000Y-117525000I250000J0D01*
G01*
X126100000Y-117525000D01*
G75*
G02*
X126350000Y-117775000I0J-250000D01*
G01*
X126350000Y-119225000D01*
G75*
G02*
X126100000Y-119475000I-250000J0D01*
G01*
X124900000Y-119475000D01*
G75*
G02*
X124650000Y-119225000I0J250000D01*
G01*
G37*
X117500000Y-118500000D03*
X115000000Y-118500000D03*
X112500000Y-118500000D03*
G36*
G01*
X109150000Y-119225000D02*
X109150000Y-117775000D01*
G75*
G02*
X109400000Y-117525000I250000J0D01*
G01*
X110600000Y-117525000D01*
G75*
G02*
X110850000Y-117775000I0J-250000D01*
G01*
X110850000Y-119225000D01*
G75*
G02*
X110600000Y-119475000I-250000J0D01*
G01*
X109400000Y-119475000D01*
G75*
G02*
X109150000Y-119225000I0J250000D01*
G01*
G37*
X102500000Y-118500000D03*
X100000000Y-118500000D03*
X97500000Y-118500000D03*
G36*
G01*
X94150000Y-119225000D02*
X94150000Y-117775000D01*
G75*
G02*
X94400000Y-117525000I250000J0D01*
G01*
X95600000Y-117525000D01*
G75*
G02*
X95850000Y-117775000I0J-250000D01*
G01*
X95850000Y-119225000D01*
G75*
G02*
X95600000Y-119475000I-250000J0D01*
G01*
X94400000Y-119475000D01*
G75*
G02*
X94150000Y-119225000I0J250000D01*
G01*
G37*
D15*
X138540000Y-101580000D03*
X136000000Y-101580000D03*
X138540000Y-99040000D03*
X136000000Y-99040000D03*
X138540000Y-96500000D03*
D16*
X136000000Y-96500000D03*
D15*
X119540000Y-101580000D03*
X117000000Y-101580000D03*
X119540000Y-99040000D03*
X117000000Y-99040000D03*
X119540000Y-96500000D03*
D16*
X117000000Y-96500000D03*
D15*
X101040000Y-101580000D03*
X98500000Y-101580000D03*
X101040000Y-99040000D03*
X98500000Y-99040000D03*
X101040000Y-96500000D03*
D16*
X98500000Y-96500000D03*
D12*
X117500000Y-90000000D03*
X120000000Y-90000000D03*
X122500000Y-90000000D03*
X125000000Y-90000000D03*
X127500000Y-90000000D03*
G36*
G01*
X130850000Y-89275000D02*
X130850000Y-90725000D01*
G75*
G02*
X130600000Y-90975000I-250000J0D01*
G01*
X129400000Y-90975000D01*
G75*
G02*
X129150000Y-90725000I0J250000D01*
G01*
X129150000Y-89275000D01*
G75*
G02*
X129400000Y-89025000I250000J0D01*
G01*
X130600000Y-89025000D01*
G75*
G02*
X130850000Y-89275000I0J-250000D01*
G01*
G37*
X117500000Y-83000000D03*
X120000000Y-83000000D03*
X122500000Y-83000000D03*
X125000000Y-83000000D03*
X127500000Y-83000000D03*
G36*
G01*
X130850000Y-82275000D02*
X130850000Y-83725000D01*
G75*
G02*
X130600000Y-83975000I-250000J0D01*
G01*
X129400000Y-83975000D01*
G75*
G02*
X129150000Y-83725000I0J250000D01*
G01*
X129150000Y-82275000D01*
G75*
G02*
X129400000Y-82025000I250000J0D01*
G01*
X130600000Y-82025000D01*
G75*
G02*
X130850000Y-82275000I0J-250000D01*
G01*
G37*
X117500000Y-76000000D03*
X120000000Y-76000000D03*
X122500000Y-76000000D03*
X125000000Y-76000000D03*
X127500000Y-76000000D03*
G36*
G01*
X130850000Y-75275000D02*
X130850000Y-76725000D01*
G75*
G02*
X130600000Y-76975000I-250000J0D01*
G01*
X129400000Y-76975000D01*
G75*
G02*
X129150000Y-76725000I0J250000D01*
G01*
X129150000Y-75275000D01*
G75*
G02*
X129400000Y-75025000I250000J0D01*
G01*
X130600000Y-75025000D01*
G75*
G02*
X130850000Y-75275000I0J-250000D01*
G01*
G37*
D17*
X138000000Y-90000000D03*
G36*
G01*
X141350000Y-89250000D02*
X141350000Y-90750000D01*
G75*
G02*
X141100000Y-91000000I-250000J0D01*
G01*
X139900000Y-91000000D01*
G75*
G02*
X139650000Y-90750000I0J250000D01*
G01*
X139650000Y-89250000D01*
G75*
G02*
X139900000Y-89000000I250000J0D01*
G01*
X141100000Y-89000000D01*
G75*
G02*
X141350000Y-89250000I0J-250000D01*
G01*
G37*
D15*
X110500000Y-77080000D03*
X110500000Y-74540000D03*
D16*
X110500000Y-72000000D03*
G36*
G01*
X139412500Y-113975000D02*
X139412500Y-113025000D01*
G75*
G02*
X139662500Y-112775000I250000J0D01*
G01*
X140337500Y-112775000D01*
G75*
G02*
X140587500Y-113025000I0J-250000D01*
G01*
X140587500Y-113975000D01*
G75*
G02*
X140337500Y-114225000I-250000J0D01*
G01*
X139662500Y-114225000D01*
G75*
G02*
X139412500Y-113975000I0J250000D01*
G01*
G37*
G36*
G01*
X137337500Y-113975000D02*
X137337500Y-113025000D01*
G75*
G02*
X137587500Y-112775000I250000J0D01*
G01*
X138262500Y-112775000D01*
G75*
G02*
X138512500Y-113025000I0J-250000D01*
G01*
X138512500Y-113975000D01*
G75*
G02*
X138262500Y-114225000I-250000J0D01*
G01*
X137587500Y-114225000D01*
G75*
G02*
X137337500Y-113975000I0J250000D01*
G01*
G37*
G36*
G01*
X120412500Y-113975000D02*
X120412500Y-113025000D01*
G75*
G02*
X120662500Y-112775000I250000J0D01*
G01*
X121337500Y-112775000D01*
G75*
G02*
X121587500Y-113025000I0J-250000D01*
G01*
X121587500Y-113975000D01*
G75*
G02*
X121337500Y-114225000I-250000J0D01*
G01*
X120662500Y-114225000D01*
G75*
G02*
X120412500Y-113975000I0J250000D01*
G01*
G37*
G36*
G01*
X118337500Y-113975000D02*
X118337500Y-113025000D01*
G75*
G02*
X118587500Y-112775000I250000J0D01*
G01*
X119262500Y-112775000D01*
G75*
G02*
X119512500Y-113025000I0J-250000D01*
G01*
X119512500Y-113975000D01*
G75*
G02*
X119262500Y-114225000I-250000J0D01*
G01*
X118587500Y-114225000D01*
G75*
G02*
X118337500Y-113975000I0J250000D01*
G01*
G37*
G36*
G01*
X101912500Y-113975000D02*
X101912500Y-113025000D01*
G75*
G02*
X102162500Y-112775000I250000J0D01*
G01*
X102837500Y-112775000D01*
G75*
G02*
X103087500Y-113025000I0J-250000D01*
G01*
X103087500Y-113975000D01*
G75*
G02*
X102837500Y-114225000I-250000J0D01*
G01*
X102162500Y-114225000D01*
G75*
G02*
X101912500Y-113975000I0J250000D01*
G01*
G37*
G36*
G01*
X99837500Y-113975000D02*
X99837500Y-113025000D01*
G75*
G02*
X100087500Y-112775000I250000J0D01*
G01*
X100762500Y-112775000D01*
G75*
G02*
X101012500Y-113025000I0J-250000D01*
G01*
X101012500Y-113975000D01*
G75*
G02*
X100762500Y-114225000I-250000J0D01*
G01*
X100087500Y-114225000D01*
G75*
G02*
X99837500Y-113975000I0J250000D01*
G01*
G37*
G36*
G01*
X136550000Y-107850000D02*
X135450000Y-107850000D01*
G75*
G02*
X135200000Y-107600000I0J250000D01*
G01*
X135200000Y-104600000D01*
G75*
G02*
X135450000Y-104350000I250000J0D01*
G01*
X136550000Y-104350000D01*
G75*
G02*
X136800000Y-104600000I0J-250000D01*
G01*
X136800000Y-107600000D01*
G75*
G02*
X136550000Y-107850000I-250000J0D01*
G01*
G37*
G36*
G01*
X136550000Y-113250000D02*
X135450000Y-113250000D01*
G75*
G02*
X135200000Y-113000000I0J250000D01*
G01*
X135200000Y-110000000D01*
G75*
G02*
X135450000Y-109750000I250000J0D01*
G01*
X136550000Y-109750000D01*
G75*
G02*
X136800000Y-110000000I0J-250000D01*
G01*
X136800000Y-113000000D01*
G75*
G02*
X136550000Y-113250000I-250000J0D01*
G01*
G37*
G36*
G01*
X117550000Y-107850000D02*
X116450000Y-107850000D01*
G75*
G02*
X116200000Y-107600000I0J250000D01*
G01*
X116200000Y-104600000D01*
G75*
G02*
X116450000Y-104350000I250000J0D01*
G01*
X117550000Y-104350000D01*
G75*
G02*
X117800000Y-104600000I0J-250000D01*
G01*
X117800000Y-107600000D01*
G75*
G02*
X117550000Y-107850000I-250000J0D01*
G01*
G37*
G36*
G01*
X117550000Y-113250000D02*
X116450000Y-113250000D01*
G75*
G02*
X116200000Y-113000000I0J250000D01*
G01*
X116200000Y-110000000D01*
G75*
G02*
X116450000Y-109750000I250000J0D01*
G01*
X117550000Y-109750000D01*
G75*
G02*
X117800000Y-110000000I0J-250000D01*
G01*
X117800000Y-113000000D01*
G75*
G02*
X117550000Y-113250000I-250000J0D01*
G01*
G37*
G36*
G01*
X99050000Y-107850000D02*
X97950000Y-107850000D01*
G75*
G02*
X97700000Y-107600000I0J250000D01*
G01*
X97700000Y-104600000D01*
G75*
G02*
X97950000Y-104350000I250000J0D01*
G01*
X99050000Y-104350000D01*
G75*
G02*
X99300000Y-104600000I0J-250000D01*
G01*
X99300000Y-107600000D01*
G75*
G02*
X99050000Y-107850000I-250000J0D01*
G01*
G37*
G36*
G01*
X99050000Y-113250000D02*
X97950000Y-113250000D01*
G75*
G02*
X97700000Y-113000000I0J250000D01*
G01*
X97700000Y-110000000D01*
G75*
G02*
X97950000Y-109750000I250000J0D01*
G01*
X99050000Y-109750000D01*
G75*
G02*
X99300000Y-110000000I0J-250000D01*
G01*
X99300000Y-113000000D01*
G75*
G02*
X99050000Y-113250000I-250000J0D01*
G01*
G37*
G36*
G01*
X139650000Y-68050000D02*
X139650000Y-66950000D01*
G75*
G02*
X139900000Y-66700000I250000J0D01*
G01*
X142900000Y-66700000D01*
G75*
G02*
X143150000Y-66950000I0J-250000D01*
G01*
X143150000Y-68050000D01*
G75*
G02*
X142900000Y-68300000I-250000J0D01*
G01*
X139900000Y-68300000D01*
G75*
G02*
X139650000Y-68050000I0J250000D01*
G01*
G37*
G36*
G01*
X134250000Y-68050000D02*
X134250000Y-66950000D01*
G75*
G02*
X134500000Y-66700000I250000J0D01*
G01*
X137500000Y-66700000D01*
G75*
G02*
X137750000Y-66950000I0J-250000D01*
G01*
X137750000Y-68050000D01*
G75*
G02*
X137500000Y-68300000I-250000J0D01*
G01*
X134500000Y-68300000D01*
G75*
G02*
X134250000Y-68050000I0J250000D01*
G01*
G37*
G36*
G01*
X137412500Y-63475000D02*
X137412500Y-62525000D01*
G75*
G02*
X137662500Y-62275000I250000J0D01*
G01*
X138337500Y-62275000D01*
G75*
G02*
X138587500Y-62525000I0J-250000D01*
G01*
X138587500Y-63475000D01*
G75*
G02*
X138337500Y-63725000I-250000J0D01*
G01*
X137662500Y-63725000D01*
G75*
G02*
X137412500Y-63475000I0J250000D01*
G01*
G37*
G36*
G01*
X135337500Y-63475000D02*
X135337500Y-62525000D01*
G75*
G02*
X135587500Y-62275000I250000J0D01*
G01*
X136262500Y-62275000D01*
G75*
G02*
X136512500Y-62525000I0J-250000D01*
G01*
X136512500Y-63475000D01*
G75*
G02*
X136262500Y-63725000I-250000J0D01*
G01*
X135587500Y-63725000D01*
G75*
G02*
X135337500Y-63475000I0J250000D01*
G01*
G37*
G36*
G01*
X134025000Y-84487500D02*
X134975000Y-84487500D01*
G75*
G02*
X135225000Y-84737500I0J-250000D01*
G01*
X135225000Y-85412500D01*
G75*
G02*
X134975000Y-85662500I-250000J0D01*
G01*
X134025000Y-85662500D01*
G75*
G02*
X133775000Y-85412500I0J250000D01*
G01*
X133775000Y-84737500D01*
G75*
G02*
X134025000Y-84487500I250000J0D01*
G01*
G37*
G36*
G01*
X134025000Y-82412500D02*
X134975000Y-82412500D01*
G75*
G02*
X135225000Y-82662500I0J-250000D01*
G01*
X135225000Y-83337500D01*
G75*
G02*
X134975000Y-83587500I-250000J0D01*
G01*
X134025000Y-83587500D01*
G75*
G02*
X133775000Y-83337500I0J250000D01*
G01*
X133775000Y-82662500D01*
G75*
G02*
X134025000Y-82412500I250000J0D01*
G01*
G37*
G36*
G01*
X83412500Y-90475000D02*
X83412500Y-89525000D01*
G75*
G02*
X83662500Y-89275000I250000J0D01*
G01*
X84337500Y-89275000D01*
G75*
G02*
X84587500Y-89525000I0J-250000D01*
G01*
X84587500Y-90475000D01*
G75*
G02*
X84337500Y-90725000I-250000J0D01*
G01*
X83662500Y-90725000D01*
G75*
G02*
X83412500Y-90475000I0J250000D01*
G01*
G37*
G36*
G01*
X81337500Y-90475000D02*
X81337500Y-89525000D01*
G75*
G02*
X81587500Y-89275000I250000J0D01*
G01*
X82262500Y-89275000D01*
G75*
G02*
X82512500Y-89525000I0J-250000D01*
G01*
X82512500Y-90475000D01*
G75*
G02*
X82262500Y-90725000I-250000J0D01*
G01*
X81587500Y-90725000D01*
G75*
G02*
X81337500Y-90475000I0J250000D01*
G01*
G37*
G36*
G01*
X83412500Y-113975000D02*
X83412500Y-113025000D01*
G75*
G02*
X83662500Y-112775000I250000J0D01*
G01*
X84337500Y-112775000D01*
G75*
G02*
X84587500Y-113025000I0J-250000D01*
G01*
X84587500Y-113975000D01*
G75*
G02*
X84337500Y-114225000I-250000J0D01*
G01*
X83662500Y-114225000D01*
G75*
G02*
X83412500Y-113975000I0J250000D01*
G01*
G37*
G36*
G01*
X81337500Y-113975000D02*
X81337500Y-113025000D01*
G75*
G02*
X81587500Y-112775000I250000J0D01*
G01*
X82262500Y-112775000D01*
G75*
G02*
X82512500Y-113025000I0J-250000D01*
G01*
X82512500Y-113975000D01*
G75*
G02*
X82262500Y-114225000I-250000J0D01*
G01*
X81587500Y-114225000D01*
G75*
G02*
X81337500Y-113975000I0J250000D01*
G01*
G37*
D18*
X142200000Y-95220000D03*
X129500000Y-113000000D03*
X142200000Y-97760000D03*
X129500000Y-110460000D03*
X142200000Y-100300000D03*
X129500000Y-107920000D03*
X142200000Y-102840000D03*
X129500000Y-105380000D03*
X142200000Y-105380000D03*
X129500000Y-102840000D03*
X142200000Y-107920000D03*
X129500000Y-100300000D03*
X142200000Y-110460000D03*
X129500000Y-97760000D03*
X142200000Y-113000000D03*
D19*
X129500000Y-95220000D03*
D18*
X123200000Y-95220000D03*
X110500000Y-113000000D03*
X123200000Y-97760000D03*
X110500000Y-110460000D03*
X123200000Y-100300000D03*
X110500000Y-107920000D03*
X123200000Y-102840000D03*
X110500000Y-105380000D03*
X123200000Y-105380000D03*
X110500000Y-102840000D03*
X123200000Y-107920000D03*
X110500000Y-100300000D03*
X123200000Y-110460000D03*
X110500000Y-97760000D03*
X123200000Y-113000000D03*
D19*
X110500000Y-95220000D03*
D18*
X104700000Y-95220000D03*
X92000000Y-113000000D03*
X104700000Y-97760000D03*
X92000000Y-110460000D03*
X104700000Y-100300000D03*
X92000000Y-107920000D03*
X104700000Y-102840000D03*
X92000000Y-105380000D03*
X104700000Y-105380000D03*
X92000000Y-102840000D03*
X104700000Y-107920000D03*
X92000000Y-100300000D03*
X104700000Y-110460000D03*
X92000000Y-97760000D03*
X104700000Y-113000000D03*
D19*
X92000000Y-95220000D03*
D12*
X117500000Y-69000000D03*
X120000000Y-69000000D03*
X122500000Y-69000000D03*
X125000000Y-69000000D03*
X127500000Y-69000000D03*
G36*
G01*
X130850000Y-68275000D02*
X130850000Y-69725000D01*
G75*
G02*
X130600000Y-69975000I-250000J0D01*
G01*
X129400000Y-69975000D01*
G75*
G02*
X129150000Y-69725000I0J250000D01*
G01*
X129150000Y-68275000D01*
G75*
G02*
X129400000Y-68025000I250000J0D01*
G01*
X130600000Y-68025000D01*
G75*
G02*
X130850000Y-68275000I0J-250000D01*
G01*
G37*
D20*
X98000000Y-75500000D03*
X98750000Y-74750000D03*
X98750000Y-73250000D03*
X95750000Y-73250000D03*
X95750000Y-74750000D03*
X96500000Y-75500000D03*
X97300000Y-74750000D03*
X96500000Y-74000000D03*
X97300000Y-73250000D03*
X98000000Y-74000000D03*
X98000000Y-72500000D03*
X96500000Y-72500000D03*
D21*
X98760000Y-75500000D03*
X97260000Y-75500000D03*
X95760000Y-75500000D03*
X95760000Y-74000000D03*
X95760000Y-72500000D03*
X97260000Y-72500000D03*
X98760000Y-72500000D03*
X98760000Y-74000000D03*
X97260000Y-74000000D03*
D22*
X107200000Y-65950000D03*
X107200000Y-67450000D03*
X107200000Y-68950000D03*
X107200000Y-70450000D03*
X107200000Y-71950000D03*
X107200000Y-73450000D03*
X107200000Y-74950000D03*
X107200000Y-76450000D03*
X107200000Y-77950000D03*
X107200000Y-79450000D03*
X107200000Y-80950000D03*
X107200000Y-82450000D03*
X107200000Y-83950000D03*
X107200000Y-85450000D03*
X107200000Y-86950000D03*
X107200000Y-88450000D03*
D23*
X105200000Y-89200000D03*
X103700000Y-89200000D03*
X102200000Y-89200000D03*
X100700000Y-89200000D03*
X99200000Y-89200000D03*
X97700000Y-89200000D03*
X96200000Y-89200000D03*
X94700000Y-89200000D03*
X93200000Y-89200000D03*
X91700000Y-89200000D03*
D22*
X89700000Y-65950000D03*
X89700000Y-67450000D03*
X89700000Y-68950000D03*
X89700000Y-70450000D03*
X89700000Y-71950000D03*
X89700000Y-73450000D03*
X89700000Y-74950000D03*
X89700000Y-76450000D03*
X89700000Y-77950000D03*
X89700000Y-79450000D03*
X89700000Y-80950000D03*
X89700000Y-82450000D03*
X89700000Y-83950000D03*
X89700000Y-85450000D03*
X89700000Y-86950000D03*
X89700000Y-88450000D03*
D24*
X80850000Y-59700000D03*
X80850000Y-64300000D03*
X80850000Y-62000000D03*
D25*
X87150000Y-62000000D03*
G36*
G01*
X98600000Y-92049999D02*
X98600000Y-92950001D01*
G75*
G02*
X98350001Y-93200000I-249999J0D01*
G01*
X97649999Y-93200000D01*
G75*
G02*
X97400000Y-92950001I0J249999D01*
G01*
X97400000Y-92049999D01*
G75*
G02*
X97649999Y-91800000I249999J0D01*
G01*
X98350001Y-91800000D01*
G75*
G02*
X98600000Y-92049999I0J-249999D01*
G01*
G37*
G36*
G01*
X100600000Y-92049999D02*
X100600000Y-92950001D01*
G75*
G02*
X100350001Y-93200000I-249999J0D01*
G01*
X99649999Y-93200000D01*
G75*
G02*
X99400000Y-92950001I0J249999D01*
G01*
X99400000Y-92049999D01*
G75*
G02*
X99649999Y-91800000I249999J0D01*
G01*
X100350001Y-91800000D01*
G75*
G02*
X100600000Y-92049999I0J-249999D01*
G01*
G37*
G36*
G01*
X111049999Y-66400000D02*
X111950001Y-66400000D01*
G75*
G02*
X112200000Y-66649999I0J-249999D01*
G01*
X112200000Y-67350001D01*
G75*
G02*
X111950001Y-67600000I-249999J0D01*
G01*
X111049999Y-67600000D01*
G75*
G02*
X110800000Y-67350001I0J249999D01*
G01*
X110800000Y-66649999D01*
G75*
G02*
X111049999Y-66400000I249999J0D01*
G01*
G37*
G36*
G01*
X111049999Y-64400000D02*
X111950001Y-64400000D01*
G75*
G02*
X112200000Y-64649999I0J-249999D01*
G01*
X112200000Y-65350001D01*
G75*
G02*
X111950001Y-65600000I-249999J0D01*
G01*
X111049999Y-65600000D01*
G75*
G02*
X110800000Y-65350001I0J249999D01*
G01*
X110800000Y-64649999D01*
G75*
G02*
X111049999Y-64400000I249999J0D01*
G01*
G37*
G36*
G01*
X87400000Y-92950001D02*
X87400000Y-92049999D01*
G75*
G02*
X87649999Y-91800000I249999J0D01*
G01*
X88350001Y-91800000D01*
G75*
G02*
X88600000Y-92049999I0J-249999D01*
G01*
X88600000Y-92950001D01*
G75*
G02*
X88350001Y-93200000I-249999J0D01*
G01*
X87649999Y-93200000D01*
G75*
G02*
X87400000Y-92950001I0J249999D01*
G01*
G37*
G36*
G01*
X85400000Y-92950001D02*
X85400000Y-92049999D01*
G75*
G02*
X85649999Y-91800000I249999J0D01*
G01*
X86350001Y-91800000D01*
G75*
G02*
X86600000Y-92049999I0J-249999D01*
G01*
X86600000Y-92950001D01*
G75*
G02*
X86350001Y-93200000I-249999J0D01*
G01*
X85649999Y-93200000D01*
G75*
G02*
X85400000Y-92950001I0J249999D01*
G01*
G37*
G36*
G01*
X83400000Y-92950001D02*
X83400000Y-92049999D01*
G75*
G02*
X83649999Y-91800000I249999J0D01*
G01*
X84350001Y-91800000D01*
G75*
G02*
X84600000Y-92049999I0J-249999D01*
G01*
X84600000Y-92950001D01*
G75*
G02*
X84350001Y-93200000I-249999J0D01*
G01*
X83649999Y-93200000D01*
G75*
G02*
X83400000Y-92950001I0J249999D01*
G01*
G37*
G36*
G01*
X81400000Y-92950001D02*
X81400000Y-92049999D01*
G75*
G02*
X81649999Y-91800000I249999J0D01*
G01*
X82350001Y-91800000D01*
G75*
G02*
X82600000Y-92049999I0J-249999D01*
G01*
X82600000Y-92950001D01*
G75*
G02*
X82350001Y-93200000I-249999J0D01*
G01*
X81649999Y-93200000D01*
G75*
G02*
X81400000Y-92950001I0J249999D01*
G01*
G37*
D26*
X67000000Y-77500000D03*
X67000000Y-80000000D03*
X67000000Y-82500000D03*
G36*
G01*
X67725000Y-85850000D02*
X66275000Y-85850000D01*
G75*
G02*
X66025000Y-85600000I0J250000D01*
G01*
X66025000Y-84400000D01*
G75*
G02*
X66275000Y-84150000I250000J0D01*
G01*
X67725000Y-84150000D01*
G75*
G02*
X67975000Y-84400000I0J-250000D01*
G01*
X67975000Y-85600000D01*
G75*
G02*
X67725000Y-85850000I-250000J0D01*
G01*
G37*
X67000000Y-95500000D03*
X67000000Y-98000000D03*
X67000000Y-100500000D03*
G36*
G01*
X67725000Y-103850000D02*
X66275000Y-103850000D01*
G75*
G02*
X66025000Y-103600000I0J250000D01*
G01*
X66025000Y-102400000D01*
G75*
G02*
X66275000Y-102150000I250000J0D01*
G01*
X67725000Y-102150000D01*
G75*
G02*
X67975000Y-102400000I0J-250000D01*
G01*
X67975000Y-103600000D01*
G75*
G02*
X67725000Y-103850000I-250000J0D01*
G01*
G37*
D15*
X82500000Y-78000000D03*
X79960000Y-78000000D03*
X82500000Y-75460000D03*
X79960000Y-75460000D03*
X82500000Y-72920000D03*
D16*
X79960000Y-72920000D03*
D15*
X82500000Y-101500000D03*
X79960000Y-101500000D03*
X82500000Y-98960000D03*
X79960000Y-98960000D03*
X82500000Y-96420000D03*
D16*
X79960000Y-96420000D03*
D27*
X66802000Y-66976000D03*
D28*
X66802000Y-61976000D03*
G36*
G01*
X109975000Y-65587500D02*
X109025000Y-65587500D01*
G75*
G02*
X108775000Y-65337500I0J250000D01*
G01*
X108775000Y-64662500D01*
G75*
G02*
X109025000Y-64412500I250000J0D01*
G01*
X109975000Y-64412500D01*
G75*
G02*
X110225000Y-64662500I0J-250000D01*
G01*
X110225000Y-65337500D01*
G75*
G02*
X109975000Y-65587500I-250000J0D01*
G01*
G37*
G36*
G01*
X109975000Y-67662500D02*
X109025000Y-67662500D01*
G75*
G02*
X108775000Y-67412500I0J250000D01*
G01*
X108775000Y-66737500D01*
G75*
G02*
X109025000Y-66487500I250000J0D01*
G01*
X109975000Y-66487500D01*
G75*
G02*
X110225000Y-66737500I0J-250000D01*
G01*
X110225000Y-67412500D01*
G75*
G02*
X109975000Y-67662500I-250000J0D01*
G01*
G37*
G36*
G01*
X85975000Y-67087500D02*
X85025000Y-67087500D01*
G75*
G02*
X84775000Y-66837500I0J250000D01*
G01*
X84775000Y-66162500D01*
G75*
G02*
X85025000Y-65912500I250000J0D01*
G01*
X85975000Y-65912500D01*
G75*
G02*
X86225000Y-66162500I0J-250000D01*
G01*
X86225000Y-66837500D01*
G75*
G02*
X85975000Y-67087500I-250000J0D01*
G01*
G37*
G36*
G01*
X85975000Y-69162500D02*
X85025000Y-69162500D01*
G75*
G02*
X84775000Y-68912500I0J250000D01*
G01*
X84775000Y-68237500D01*
G75*
G02*
X85025000Y-67987500I250000J0D01*
G01*
X85975000Y-67987500D01*
G75*
G02*
X86225000Y-68237500I0J-250000D01*
G01*
X86225000Y-68912500D01*
G75*
G02*
X85975000Y-69162500I-250000J0D01*
G01*
G37*
G36*
G01*
X80050000Y-84250000D02*
X78950000Y-84250000D01*
G75*
G02*
X78700000Y-84000000I0J250000D01*
G01*
X78700000Y-81000000D01*
G75*
G02*
X78950000Y-80750000I250000J0D01*
G01*
X80050000Y-80750000D01*
G75*
G02*
X80300000Y-81000000I0J-250000D01*
G01*
X80300000Y-84000000D01*
G75*
G02*
X80050000Y-84250000I-250000J0D01*
G01*
G37*
G36*
G01*
X80050000Y-89650000D02*
X78950000Y-89650000D01*
G75*
G02*
X78700000Y-89400000I0J250000D01*
G01*
X78700000Y-86400000D01*
G75*
G02*
X78950000Y-86150000I250000J0D01*
G01*
X80050000Y-86150000D01*
G75*
G02*
X80300000Y-86400000I0J-250000D01*
G01*
X80300000Y-89400000D01*
G75*
G02*
X80050000Y-89650000I-250000J0D01*
G01*
G37*
G36*
G01*
X80550000Y-107850000D02*
X79450000Y-107850000D01*
G75*
G02*
X79200000Y-107600000I0J250000D01*
G01*
X79200000Y-104600000D01*
G75*
G02*
X79450000Y-104350000I250000J0D01*
G01*
X80550000Y-104350000D01*
G75*
G02*
X80800000Y-104600000I0J-250000D01*
G01*
X80800000Y-107600000D01*
G75*
G02*
X80550000Y-107850000I-250000J0D01*
G01*
G37*
G36*
G01*
X80550000Y-113250000D02*
X79450000Y-113250000D01*
G75*
G02*
X79200000Y-113000000I0J250000D01*
G01*
X79200000Y-110000000D01*
G75*
G02*
X79450000Y-109750000I250000J0D01*
G01*
X80550000Y-109750000D01*
G75*
G02*
X80800000Y-110000000I0J-250000D01*
G01*
X80800000Y-113000000D01*
G75*
G02*
X80550000Y-113250000I-250000J0D01*
G01*
G37*
G36*
G01*
X87975000Y-67087500D02*
X87025000Y-67087500D01*
G75*
G02*
X86775000Y-66837500I0J250000D01*
G01*
X86775000Y-66162500D01*
G75*
G02*
X87025000Y-65912500I250000J0D01*
G01*
X87975000Y-65912500D01*
G75*
G02*
X88225000Y-66162500I0J-250000D01*
G01*
X88225000Y-66837500D01*
G75*
G02*
X87975000Y-67087500I-250000J0D01*
G01*
G37*
G36*
G01*
X87975000Y-69162500D02*
X87025000Y-69162500D01*
G75*
G02*
X86775000Y-68912500I0J250000D01*
G01*
X86775000Y-68237500D01*
G75*
G02*
X87025000Y-67987500I250000J0D01*
G01*
X87975000Y-67987500D01*
G75*
G02*
X88225000Y-68237500I0J-250000D01*
G01*
X88225000Y-68912500D01*
G75*
G02*
X87975000Y-69162500I-250000J0D01*
G01*
G37*
G36*
G01*
X80170000Y-67527500D02*
X81120000Y-67527500D01*
G75*
G02*
X81370000Y-67777500I0J-250000D01*
G01*
X81370000Y-68452500D01*
G75*
G02*
X81120000Y-68702500I-250000J0D01*
G01*
X80170000Y-68702500D01*
G75*
G02*
X79920000Y-68452500I0J250000D01*
G01*
X79920000Y-67777500D01*
G75*
G02*
X80170000Y-67527500I250000J0D01*
G01*
G37*
G36*
G01*
X80170000Y-65452500D02*
X81120000Y-65452500D01*
G75*
G02*
X81370000Y-65702500I0J-250000D01*
G01*
X81370000Y-66377500D01*
G75*
G02*
X81120000Y-66627500I-250000J0D01*
G01*
X80170000Y-66627500D01*
G75*
G02*
X79920000Y-66377500I0J250000D01*
G01*
X79920000Y-65702500D01*
G75*
G02*
X80170000Y-65452500I250000J0D01*
G01*
G37*
D18*
X86200000Y-72000000D03*
X73500000Y-89780000D03*
X86200000Y-74540000D03*
X73500000Y-87240000D03*
X86200000Y-77080000D03*
X73500000Y-84700000D03*
X86200000Y-79620000D03*
X73500000Y-82160000D03*
X86200000Y-82160000D03*
X73500000Y-79620000D03*
X86200000Y-84700000D03*
X73500000Y-77080000D03*
X86200000Y-87240000D03*
X73500000Y-74540000D03*
X86200000Y-89780000D03*
D19*
X73500000Y-72000000D03*
D18*
X86200000Y-95220000D03*
X73500000Y-113000000D03*
X86200000Y-97760000D03*
X73500000Y-110460000D03*
X86200000Y-100300000D03*
X73500000Y-107920000D03*
X86200000Y-102840000D03*
X73500000Y-105380000D03*
X86200000Y-105380000D03*
X73500000Y-102840000D03*
X86200000Y-107920000D03*
X73500000Y-100300000D03*
X86200000Y-110460000D03*
X73500000Y-97760000D03*
X86200000Y-113000000D03*
D19*
X73500000Y-95220000D03*
M02*
