G04 #@! TF.GenerationSoftware,KiCad,Pcbnew,(5.1.9)-1*
G04 #@! TF.CreationDate,2021-08-10T13:47:58-05:00*
G04 #@! TF.ProjectId,DevMagneticEncoders,4465764d-6167-46e6-9574-6963456e636f,rev?*
G04 #@! TF.SameCoordinates,Original*
G04 #@! TF.FileFunction,Soldermask,Top*
G04 #@! TF.FilePolarity,Negative*
%FSLAX46Y46*%
G04 Gerber Fmt 4.6, Leading zero omitted, Abs format (unit mm)*
G04 Created by KiCad (PCBNEW (5.1.9)-1) date 2021-08-10 13:47:58*
%MOMM*%
%LPD*%
G01*
G04 APERTURE LIST*
%ADD10O,1.700000X1.950000*%
%ADD11R,2.290000X3.000000*%
%ADD12R,1.600000X1.400000*%
%ADD13O,1.700000X1.700000*%
%ADD14R,1.700000X1.700000*%
%ADD15O,1.700000X2.000000*%
%ADD16O,1.600000X1.600000*%
%ADD17R,1.600000X1.600000*%
%ADD18C,0.600000*%
%ADD19R,1.100000X1.100000*%
%ADD20R,1.500000X0.900000*%
%ADD21R,0.900000X1.500000*%
%ADD22R,2.000000X1.500000*%
%ADD23R,2.000000X3.800000*%
%ADD24O,1.950000X1.700000*%
%ADD25C,2.600000*%
%ADD26R,2.600000X2.600000*%
G04 APERTURE END LIST*
D10*
X78606000Y-55372000D03*
X81106000Y-55372000D03*
X83606000Y-55372000D03*
G36*
G01*
X86956000Y-54647000D02*
X86956000Y-56097000D01*
G75*
G02*
X86706000Y-56347000I-250000J0D01*
G01*
X85506000Y-56347000D01*
G75*
G02*
X85256000Y-56097000I0J250000D01*
G01*
X85256000Y-54647000D01*
G75*
G02*
X85506000Y-54397000I250000J0D01*
G01*
X86706000Y-54397000D01*
G75*
G02*
X86956000Y-54647000I0J-250000D01*
G01*
G37*
X117500000Y-62000000D03*
X120000000Y-62000000D03*
X122500000Y-62000000D03*
X125000000Y-62000000D03*
X127500000Y-62000000D03*
G36*
G01*
X130850000Y-61275000D02*
X130850000Y-62725000D01*
G75*
G02*
X130600000Y-62975000I-250000J0D01*
G01*
X129400000Y-62975000D01*
G75*
G02*
X129150000Y-62725000I0J250000D01*
G01*
X129150000Y-61275000D01*
G75*
G02*
X129400000Y-61025000I250000J0D01*
G01*
X130600000Y-61025000D01*
G75*
G02*
X130850000Y-61275000I0J-250000D01*
G01*
G37*
D11*
X137160000Y-74500000D03*
G36*
G01*
X138660000Y-72745000D02*
X138660000Y-72445000D01*
G75*
G02*
X138810000Y-72295000I150000J0D01*
G01*
X140460000Y-72295000D01*
G75*
G02*
X140610000Y-72445000I0J-150000D01*
G01*
X140610000Y-72745000D01*
G75*
G02*
X140460000Y-72895000I-150000J0D01*
G01*
X138810000Y-72895000D01*
G75*
G02*
X138660000Y-72745000I0J150000D01*
G01*
G37*
G36*
G01*
X138660000Y-74015000D02*
X138660000Y-73715000D01*
G75*
G02*
X138810000Y-73565000I150000J0D01*
G01*
X140460000Y-73565000D01*
G75*
G02*
X140610000Y-73715000I0J-150000D01*
G01*
X140610000Y-74015000D01*
G75*
G02*
X140460000Y-74165000I-150000J0D01*
G01*
X138810000Y-74165000D01*
G75*
G02*
X138660000Y-74015000I0J150000D01*
G01*
G37*
G36*
G01*
X138660000Y-75285000D02*
X138660000Y-74985000D01*
G75*
G02*
X138810000Y-74835000I150000J0D01*
G01*
X140460000Y-74835000D01*
G75*
G02*
X140610000Y-74985000I0J-150000D01*
G01*
X140610000Y-75285000D01*
G75*
G02*
X140460000Y-75435000I-150000J0D01*
G01*
X138810000Y-75435000D01*
G75*
G02*
X138660000Y-75285000I0J150000D01*
G01*
G37*
G36*
G01*
X138660000Y-76555000D02*
X138660000Y-76255000D01*
G75*
G02*
X138810000Y-76105000I150000J0D01*
G01*
X140460000Y-76105000D01*
G75*
G02*
X140610000Y-76255000I0J-150000D01*
G01*
X140610000Y-76555000D01*
G75*
G02*
X140460000Y-76705000I-150000J0D01*
G01*
X138810000Y-76705000D01*
G75*
G02*
X138660000Y-76555000I0J150000D01*
G01*
G37*
G36*
G01*
X133710000Y-76555000D02*
X133710000Y-76255000D01*
G75*
G02*
X133860000Y-76105000I150000J0D01*
G01*
X135510000Y-76105000D01*
G75*
G02*
X135660000Y-76255000I0J-150000D01*
G01*
X135660000Y-76555000D01*
G75*
G02*
X135510000Y-76705000I-150000J0D01*
G01*
X133860000Y-76705000D01*
G75*
G02*
X133710000Y-76555000I0J150000D01*
G01*
G37*
G36*
G01*
X133710000Y-75285000D02*
X133710000Y-74985000D01*
G75*
G02*
X133860000Y-74835000I150000J0D01*
G01*
X135510000Y-74835000D01*
G75*
G02*
X135660000Y-74985000I0J-150000D01*
G01*
X135660000Y-75285000D01*
G75*
G02*
X135510000Y-75435000I-150000J0D01*
G01*
X133860000Y-75435000D01*
G75*
G02*
X133710000Y-75285000I0J150000D01*
G01*
G37*
G36*
G01*
X133710000Y-74015000D02*
X133710000Y-73715000D01*
G75*
G02*
X133860000Y-73565000I150000J0D01*
G01*
X135510000Y-73565000D01*
G75*
G02*
X135660000Y-73715000I0J-150000D01*
G01*
X135660000Y-74015000D01*
G75*
G02*
X135510000Y-74165000I-150000J0D01*
G01*
X133860000Y-74165000D01*
G75*
G02*
X133710000Y-74015000I0J150000D01*
G01*
G37*
G36*
G01*
X133710000Y-72745000D02*
X133710000Y-72445000D01*
G75*
G02*
X133860000Y-72295000I150000J0D01*
G01*
X135510000Y-72295000D01*
G75*
G02*
X135660000Y-72445000I0J-150000D01*
G01*
X135660000Y-72745000D01*
G75*
G02*
X135510000Y-72895000I-150000J0D01*
G01*
X133860000Y-72895000D01*
G75*
G02*
X133710000Y-72745000I0J150000D01*
G01*
G37*
G36*
G01*
X141000000Y-80245000D02*
X141000000Y-79945000D01*
G75*
G02*
X141150000Y-79795000I150000J0D01*
G01*
X142800000Y-79795000D01*
G75*
G02*
X142950000Y-79945000I0J-150000D01*
G01*
X142950000Y-80245000D01*
G75*
G02*
X142800000Y-80395000I-150000J0D01*
G01*
X141150000Y-80395000D01*
G75*
G02*
X141000000Y-80245000I0J150000D01*
G01*
G37*
G36*
G01*
X141000000Y-81515000D02*
X141000000Y-81215000D01*
G75*
G02*
X141150000Y-81065000I150000J0D01*
G01*
X142800000Y-81065000D01*
G75*
G02*
X142950000Y-81215000I0J-150000D01*
G01*
X142950000Y-81515000D01*
G75*
G02*
X142800000Y-81665000I-150000J0D01*
G01*
X141150000Y-81665000D01*
G75*
G02*
X141000000Y-81515000I0J150000D01*
G01*
G37*
G36*
G01*
X141000000Y-82785000D02*
X141000000Y-82485000D01*
G75*
G02*
X141150000Y-82335000I150000J0D01*
G01*
X142800000Y-82335000D01*
G75*
G02*
X142950000Y-82485000I0J-150000D01*
G01*
X142950000Y-82785000D01*
G75*
G02*
X142800000Y-82935000I-150000J0D01*
G01*
X141150000Y-82935000D01*
G75*
G02*
X141000000Y-82785000I0J150000D01*
G01*
G37*
G36*
G01*
X141000000Y-84055000D02*
X141000000Y-83755000D01*
G75*
G02*
X141150000Y-83605000I150000J0D01*
G01*
X142800000Y-83605000D01*
G75*
G02*
X142950000Y-83755000I0J-150000D01*
G01*
X142950000Y-84055000D01*
G75*
G02*
X142800000Y-84205000I-150000J0D01*
G01*
X141150000Y-84205000D01*
G75*
G02*
X141000000Y-84055000I0J150000D01*
G01*
G37*
G36*
G01*
X136050000Y-84055000D02*
X136050000Y-83755000D01*
G75*
G02*
X136200000Y-83605000I150000J0D01*
G01*
X137850000Y-83605000D01*
G75*
G02*
X138000000Y-83755000I0J-150000D01*
G01*
X138000000Y-84055000D01*
G75*
G02*
X137850000Y-84205000I-150000J0D01*
G01*
X136200000Y-84205000D01*
G75*
G02*
X136050000Y-84055000I0J150000D01*
G01*
G37*
G36*
G01*
X136050000Y-82785000D02*
X136050000Y-82485000D01*
G75*
G02*
X136200000Y-82335000I150000J0D01*
G01*
X137850000Y-82335000D01*
G75*
G02*
X138000000Y-82485000I0J-150000D01*
G01*
X138000000Y-82785000D01*
G75*
G02*
X137850000Y-82935000I-150000J0D01*
G01*
X136200000Y-82935000D01*
G75*
G02*
X136050000Y-82785000I0J150000D01*
G01*
G37*
G36*
G01*
X136050000Y-81515000D02*
X136050000Y-81215000D01*
G75*
G02*
X136200000Y-81065000I150000J0D01*
G01*
X137850000Y-81065000D01*
G75*
G02*
X138000000Y-81215000I0J-150000D01*
G01*
X138000000Y-81515000D01*
G75*
G02*
X137850000Y-81665000I-150000J0D01*
G01*
X136200000Y-81665000D01*
G75*
G02*
X136050000Y-81515000I0J150000D01*
G01*
G37*
G36*
G01*
X136050000Y-80245000D02*
X136050000Y-79945000D01*
G75*
G02*
X136200000Y-79795000I150000J0D01*
G01*
X137850000Y-79795000D01*
G75*
G02*
X138000000Y-79945000I0J-150000D01*
G01*
X138000000Y-80245000D01*
G75*
G02*
X137850000Y-80395000I-150000J0D01*
G01*
X136200000Y-80395000D01*
G75*
G02*
X136050000Y-80245000I0J150000D01*
G01*
G37*
D12*
X124900000Y-56500000D03*
X132100000Y-56500000D03*
X132100000Y-53500000D03*
X124900000Y-53500000D03*
X115400000Y-56500000D03*
X122600000Y-56500000D03*
X122600000Y-53500000D03*
X115400000Y-53500000D03*
G36*
G01*
X141900000Y-63450001D02*
X141900000Y-62549999D01*
G75*
G02*
X142149999Y-62300000I249999J0D01*
G01*
X142850001Y-62300000D01*
G75*
G02*
X143100000Y-62549999I0J-249999D01*
G01*
X143100000Y-63450001D01*
G75*
G02*
X142850001Y-63700000I-249999J0D01*
G01*
X142149999Y-63700000D01*
G75*
G02*
X141900000Y-63450001I0J249999D01*
G01*
G37*
G36*
G01*
X139900000Y-63450001D02*
X139900000Y-62549999D01*
G75*
G02*
X140149999Y-62300000I249999J0D01*
G01*
X140850001Y-62300000D01*
G75*
G02*
X141100000Y-62549999I0J-249999D01*
G01*
X141100000Y-63450001D01*
G75*
G02*
X140850001Y-63700000I-249999J0D01*
G01*
X140149999Y-63700000D01*
G75*
G02*
X139900000Y-63450001I0J249999D01*
G01*
G37*
D10*
X133000000Y-118500000D03*
X130500000Y-118500000D03*
X128000000Y-118500000D03*
G36*
G01*
X124650000Y-119225000D02*
X124650000Y-117775000D01*
G75*
G02*
X124900000Y-117525000I250000J0D01*
G01*
X126100000Y-117525000D01*
G75*
G02*
X126350000Y-117775000I0J-250000D01*
G01*
X126350000Y-119225000D01*
G75*
G02*
X126100000Y-119475000I-250000J0D01*
G01*
X124900000Y-119475000D01*
G75*
G02*
X124650000Y-119225000I0J250000D01*
G01*
G37*
X117500000Y-118500000D03*
X115000000Y-118500000D03*
X112500000Y-118500000D03*
G36*
G01*
X109150000Y-119225000D02*
X109150000Y-117775000D01*
G75*
G02*
X109400000Y-117525000I250000J0D01*
G01*
X110600000Y-117525000D01*
G75*
G02*
X110850000Y-117775000I0J-250000D01*
G01*
X110850000Y-119225000D01*
G75*
G02*
X110600000Y-119475000I-250000J0D01*
G01*
X109400000Y-119475000D01*
G75*
G02*
X109150000Y-119225000I0J250000D01*
G01*
G37*
X102500000Y-118500000D03*
X100000000Y-118500000D03*
X97500000Y-118500000D03*
G36*
G01*
X94150000Y-119225000D02*
X94150000Y-117775000D01*
G75*
G02*
X94400000Y-117525000I250000J0D01*
G01*
X95600000Y-117525000D01*
G75*
G02*
X95850000Y-117775000I0J-250000D01*
G01*
X95850000Y-119225000D01*
G75*
G02*
X95600000Y-119475000I-250000J0D01*
G01*
X94400000Y-119475000D01*
G75*
G02*
X94150000Y-119225000I0J250000D01*
G01*
G37*
D13*
X138540000Y-101580000D03*
X136000000Y-101580000D03*
X138540000Y-99040000D03*
X136000000Y-99040000D03*
X138540000Y-96500000D03*
D14*
X136000000Y-96500000D03*
D13*
X119540000Y-101580000D03*
X117000000Y-101580000D03*
X119540000Y-99040000D03*
X117000000Y-99040000D03*
X119540000Y-96500000D03*
D14*
X117000000Y-96500000D03*
D13*
X101040000Y-101580000D03*
X98500000Y-101580000D03*
X101040000Y-99040000D03*
X98500000Y-99040000D03*
X101040000Y-96500000D03*
D14*
X98500000Y-96500000D03*
D10*
X117500000Y-90000000D03*
X120000000Y-90000000D03*
X122500000Y-90000000D03*
X125000000Y-90000000D03*
X127500000Y-90000000D03*
G36*
G01*
X130850000Y-89275000D02*
X130850000Y-90725000D01*
G75*
G02*
X130600000Y-90975000I-250000J0D01*
G01*
X129400000Y-90975000D01*
G75*
G02*
X129150000Y-90725000I0J250000D01*
G01*
X129150000Y-89275000D01*
G75*
G02*
X129400000Y-89025000I250000J0D01*
G01*
X130600000Y-89025000D01*
G75*
G02*
X130850000Y-89275000I0J-250000D01*
G01*
G37*
X117500000Y-83000000D03*
X120000000Y-83000000D03*
X122500000Y-83000000D03*
X125000000Y-83000000D03*
X127500000Y-83000000D03*
G36*
G01*
X130850000Y-82275000D02*
X130850000Y-83725000D01*
G75*
G02*
X130600000Y-83975000I-250000J0D01*
G01*
X129400000Y-83975000D01*
G75*
G02*
X129150000Y-83725000I0J250000D01*
G01*
X129150000Y-82275000D01*
G75*
G02*
X129400000Y-82025000I250000J0D01*
G01*
X130600000Y-82025000D01*
G75*
G02*
X130850000Y-82275000I0J-250000D01*
G01*
G37*
X117500000Y-76000000D03*
X120000000Y-76000000D03*
X122500000Y-76000000D03*
X125000000Y-76000000D03*
X127500000Y-76000000D03*
G36*
G01*
X130850000Y-75275000D02*
X130850000Y-76725000D01*
G75*
G02*
X130600000Y-76975000I-250000J0D01*
G01*
X129400000Y-76975000D01*
G75*
G02*
X129150000Y-76725000I0J250000D01*
G01*
X129150000Y-75275000D01*
G75*
G02*
X129400000Y-75025000I250000J0D01*
G01*
X130600000Y-75025000D01*
G75*
G02*
X130850000Y-75275000I0J-250000D01*
G01*
G37*
D15*
X138000000Y-90000000D03*
G36*
G01*
X141350000Y-89250000D02*
X141350000Y-90750000D01*
G75*
G02*
X141100000Y-91000000I-250000J0D01*
G01*
X139900000Y-91000000D01*
G75*
G02*
X139650000Y-90750000I0J250000D01*
G01*
X139650000Y-89250000D01*
G75*
G02*
X139900000Y-89000000I250000J0D01*
G01*
X141100000Y-89000000D01*
G75*
G02*
X141350000Y-89250000I0J-250000D01*
G01*
G37*
D13*
X110500000Y-77080000D03*
X110500000Y-74540000D03*
D14*
X110500000Y-72000000D03*
G36*
G01*
X139412500Y-113975000D02*
X139412500Y-113025000D01*
G75*
G02*
X139662500Y-112775000I250000J0D01*
G01*
X140337500Y-112775000D01*
G75*
G02*
X140587500Y-113025000I0J-250000D01*
G01*
X140587500Y-113975000D01*
G75*
G02*
X140337500Y-114225000I-250000J0D01*
G01*
X139662500Y-114225000D01*
G75*
G02*
X139412500Y-113975000I0J250000D01*
G01*
G37*
G36*
G01*
X137337500Y-113975000D02*
X137337500Y-113025000D01*
G75*
G02*
X137587500Y-112775000I250000J0D01*
G01*
X138262500Y-112775000D01*
G75*
G02*
X138512500Y-113025000I0J-250000D01*
G01*
X138512500Y-113975000D01*
G75*
G02*
X138262500Y-114225000I-250000J0D01*
G01*
X137587500Y-114225000D01*
G75*
G02*
X137337500Y-113975000I0J250000D01*
G01*
G37*
G36*
G01*
X120412500Y-113975000D02*
X120412500Y-113025000D01*
G75*
G02*
X120662500Y-112775000I250000J0D01*
G01*
X121337500Y-112775000D01*
G75*
G02*
X121587500Y-113025000I0J-250000D01*
G01*
X121587500Y-113975000D01*
G75*
G02*
X121337500Y-114225000I-250000J0D01*
G01*
X120662500Y-114225000D01*
G75*
G02*
X120412500Y-113975000I0J250000D01*
G01*
G37*
G36*
G01*
X118337500Y-113975000D02*
X118337500Y-113025000D01*
G75*
G02*
X118587500Y-112775000I250000J0D01*
G01*
X119262500Y-112775000D01*
G75*
G02*
X119512500Y-113025000I0J-250000D01*
G01*
X119512500Y-113975000D01*
G75*
G02*
X119262500Y-114225000I-250000J0D01*
G01*
X118587500Y-114225000D01*
G75*
G02*
X118337500Y-113975000I0J250000D01*
G01*
G37*
G36*
G01*
X101912500Y-113975000D02*
X101912500Y-113025000D01*
G75*
G02*
X102162500Y-112775000I250000J0D01*
G01*
X102837500Y-112775000D01*
G75*
G02*
X103087500Y-113025000I0J-250000D01*
G01*
X103087500Y-113975000D01*
G75*
G02*
X102837500Y-114225000I-250000J0D01*
G01*
X102162500Y-114225000D01*
G75*
G02*
X101912500Y-113975000I0J250000D01*
G01*
G37*
G36*
G01*
X99837500Y-113975000D02*
X99837500Y-113025000D01*
G75*
G02*
X100087500Y-112775000I250000J0D01*
G01*
X100762500Y-112775000D01*
G75*
G02*
X101012500Y-113025000I0J-250000D01*
G01*
X101012500Y-113975000D01*
G75*
G02*
X100762500Y-114225000I-250000J0D01*
G01*
X100087500Y-114225000D01*
G75*
G02*
X99837500Y-113975000I0J250000D01*
G01*
G37*
G36*
G01*
X136550000Y-107850000D02*
X135450000Y-107850000D01*
G75*
G02*
X135200000Y-107600000I0J250000D01*
G01*
X135200000Y-104600000D01*
G75*
G02*
X135450000Y-104350000I250000J0D01*
G01*
X136550000Y-104350000D01*
G75*
G02*
X136800000Y-104600000I0J-250000D01*
G01*
X136800000Y-107600000D01*
G75*
G02*
X136550000Y-107850000I-250000J0D01*
G01*
G37*
G36*
G01*
X136550000Y-113250000D02*
X135450000Y-113250000D01*
G75*
G02*
X135200000Y-113000000I0J250000D01*
G01*
X135200000Y-110000000D01*
G75*
G02*
X135450000Y-109750000I250000J0D01*
G01*
X136550000Y-109750000D01*
G75*
G02*
X136800000Y-110000000I0J-250000D01*
G01*
X136800000Y-113000000D01*
G75*
G02*
X136550000Y-113250000I-250000J0D01*
G01*
G37*
G36*
G01*
X117550000Y-107850000D02*
X116450000Y-107850000D01*
G75*
G02*
X116200000Y-107600000I0J250000D01*
G01*
X116200000Y-104600000D01*
G75*
G02*
X116450000Y-104350000I250000J0D01*
G01*
X117550000Y-104350000D01*
G75*
G02*
X117800000Y-104600000I0J-250000D01*
G01*
X117800000Y-107600000D01*
G75*
G02*
X117550000Y-107850000I-250000J0D01*
G01*
G37*
G36*
G01*
X117550000Y-113250000D02*
X116450000Y-113250000D01*
G75*
G02*
X116200000Y-113000000I0J250000D01*
G01*
X116200000Y-110000000D01*
G75*
G02*
X116450000Y-109750000I250000J0D01*
G01*
X117550000Y-109750000D01*
G75*
G02*
X117800000Y-110000000I0J-250000D01*
G01*
X117800000Y-113000000D01*
G75*
G02*
X117550000Y-113250000I-250000J0D01*
G01*
G37*
G36*
G01*
X99050000Y-107850000D02*
X97950000Y-107850000D01*
G75*
G02*
X97700000Y-107600000I0J250000D01*
G01*
X97700000Y-104600000D01*
G75*
G02*
X97950000Y-104350000I250000J0D01*
G01*
X99050000Y-104350000D01*
G75*
G02*
X99300000Y-104600000I0J-250000D01*
G01*
X99300000Y-107600000D01*
G75*
G02*
X99050000Y-107850000I-250000J0D01*
G01*
G37*
G36*
G01*
X99050000Y-113250000D02*
X97950000Y-113250000D01*
G75*
G02*
X97700000Y-113000000I0J250000D01*
G01*
X97700000Y-110000000D01*
G75*
G02*
X97950000Y-109750000I250000J0D01*
G01*
X99050000Y-109750000D01*
G75*
G02*
X99300000Y-110000000I0J-250000D01*
G01*
X99300000Y-113000000D01*
G75*
G02*
X99050000Y-113250000I-250000J0D01*
G01*
G37*
G36*
G01*
X139650000Y-68050000D02*
X139650000Y-66950000D01*
G75*
G02*
X139900000Y-66700000I250000J0D01*
G01*
X142900000Y-66700000D01*
G75*
G02*
X143150000Y-66950000I0J-250000D01*
G01*
X143150000Y-68050000D01*
G75*
G02*
X142900000Y-68300000I-250000J0D01*
G01*
X139900000Y-68300000D01*
G75*
G02*
X139650000Y-68050000I0J250000D01*
G01*
G37*
G36*
G01*
X134250000Y-68050000D02*
X134250000Y-66950000D01*
G75*
G02*
X134500000Y-66700000I250000J0D01*
G01*
X137500000Y-66700000D01*
G75*
G02*
X137750000Y-66950000I0J-250000D01*
G01*
X137750000Y-68050000D01*
G75*
G02*
X137500000Y-68300000I-250000J0D01*
G01*
X134500000Y-68300000D01*
G75*
G02*
X134250000Y-68050000I0J250000D01*
G01*
G37*
G36*
G01*
X137412500Y-63475000D02*
X137412500Y-62525000D01*
G75*
G02*
X137662500Y-62275000I250000J0D01*
G01*
X138337500Y-62275000D01*
G75*
G02*
X138587500Y-62525000I0J-250000D01*
G01*
X138587500Y-63475000D01*
G75*
G02*
X138337500Y-63725000I-250000J0D01*
G01*
X137662500Y-63725000D01*
G75*
G02*
X137412500Y-63475000I0J250000D01*
G01*
G37*
G36*
G01*
X135337500Y-63475000D02*
X135337500Y-62525000D01*
G75*
G02*
X135587500Y-62275000I250000J0D01*
G01*
X136262500Y-62275000D01*
G75*
G02*
X136512500Y-62525000I0J-250000D01*
G01*
X136512500Y-63475000D01*
G75*
G02*
X136262500Y-63725000I-250000J0D01*
G01*
X135587500Y-63725000D01*
G75*
G02*
X135337500Y-63475000I0J250000D01*
G01*
G37*
G36*
G01*
X134025000Y-84487500D02*
X134975000Y-84487500D01*
G75*
G02*
X135225000Y-84737500I0J-250000D01*
G01*
X135225000Y-85412500D01*
G75*
G02*
X134975000Y-85662500I-250000J0D01*
G01*
X134025000Y-85662500D01*
G75*
G02*
X133775000Y-85412500I0J250000D01*
G01*
X133775000Y-84737500D01*
G75*
G02*
X134025000Y-84487500I250000J0D01*
G01*
G37*
G36*
G01*
X134025000Y-82412500D02*
X134975000Y-82412500D01*
G75*
G02*
X135225000Y-82662500I0J-250000D01*
G01*
X135225000Y-83337500D01*
G75*
G02*
X134975000Y-83587500I-250000J0D01*
G01*
X134025000Y-83587500D01*
G75*
G02*
X133775000Y-83337500I0J250000D01*
G01*
X133775000Y-82662500D01*
G75*
G02*
X134025000Y-82412500I250000J0D01*
G01*
G37*
G36*
G01*
X83412500Y-90475000D02*
X83412500Y-89525000D01*
G75*
G02*
X83662500Y-89275000I250000J0D01*
G01*
X84337500Y-89275000D01*
G75*
G02*
X84587500Y-89525000I0J-250000D01*
G01*
X84587500Y-90475000D01*
G75*
G02*
X84337500Y-90725000I-250000J0D01*
G01*
X83662500Y-90725000D01*
G75*
G02*
X83412500Y-90475000I0J250000D01*
G01*
G37*
G36*
G01*
X81337500Y-90475000D02*
X81337500Y-89525000D01*
G75*
G02*
X81587500Y-89275000I250000J0D01*
G01*
X82262500Y-89275000D01*
G75*
G02*
X82512500Y-89525000I0J-250000D01*
G01*
X82512500Y-90475000D01*
G75*
G02*
X82262500Y-90725000I-250000J0D01*
G01*
X81587500Y-90725000D01*
G75*
G02*
X81337500Y-90475000I0J250000D01*
G01*
G37*
G36*
G01*
X83412500Y-113975000D02*
X83412500Y-113025000D01*
G75*
G02*
X83662500Y-112775000I250000J0D01*
G01*
X84337500Y-112775000D01*
G75*
G02*
X84587500Y-113025000I0J-250000D01*
G01*
X84587500Y-113975000D01*
G75*
G02*
X84337500Y-114225000I-250000J0D01*
G01*
X83662500Y-114225000D01*
G75*
G02*
X83412500Y-113975000I0J250000D01*
G01*
G37*
G36*
G01*
X81337500Y-113975000D02*
X81337500Y-113025000D01*
G75*
G02*
X81587500Y-112775000I250000J0D01*
G01*
X82262500Y-112775000D01*
G75*
G02*
X82512500Y-113025000I0J-250000D01*
G01*
X82512500Y-113975000D01*
G75*
G02*
X82262500Y-114225000I-250000J0D01*
G01*
X81587500Y-114225000D01*
G75*
G02*
X81337500Y-113975000I0J250000D01*
G01*
G37*
D16*
X142200000Y-95220000D03*
X129500000Y-113000000D03*
X142200000Y-97760000D03*
X129500000Y-110460000D03*
X142200000Y-100300000D03*
X129500000Y-107920000D03*
X142200000Y-102840000D03*
X129500000Y-105380000D03*
X142200000Y-105380000D03*
X129500000Y-102840000D03*
X142200000Y-107920000D03*
X129500000Y-100300000D03*
X142200000Y-110460000D03*
X129500000Y-97760000D03*
X142200000Y-113000000D03*
D17*
X129500000Y-95220000D03*
D16*
X123200000Y-95220000D03*
X110500000Y-113000000D03*
X123200000Y-97760000D03*
X110500000Y-110460000D03*
X123200000Y-100300000D03*
X110500000Y-107920000D03*
X123200000Y-102840000D03*
X110500000Y-105380000D03*
X123200000Y-105380000D03*
X110500000Y-102840000D03*
X123200000Y-107920000D03*
X110500000Y-100300000D03*
X123200000Y-110460000D03*
X110500000Y-97760000D03*
X123200000Y-113000000D03*
D17*
X110500000Y-95220000D03*
D16*
X104700000Y-95220000D03*
X92000000Y-113000000D03*
X104700000Y-97760000D03*
X92000000Y-110460000D03*
X104700000Y-100300000D03*
X92000000Y-107920000D03*
X104700000Y-102840000D03*
X92000000Y-105380000D03*
X104700000Y-105380000D03*
X92000000Y-102840000D03*
X104700000Y-107920000D03*
X92000000Y-100300000D03*
X104700000Y-110460000D03*
X92000000Y-97760000D03*
X104700000Y-113000000D03*
D17*
X92000000Y-95220000D03*
D10*
X117500000Y-69000000D03*
X120000000Y-69000000D03*
X122500000Y-69000000D03*
X125000000Y-69000000D03*
X127500000Y-69000000D03*
G36*
G01*
X130850000Y-68275000D02*
X130850000Y-69725000D01*
G75*
G02*
X130600000Y-69975000I-250000J0D01*
G01*
X129400000Y-69975000D01*
G75*
G02*
X129150000Y-69725000I0J250000D01*
G01*
X129150000Y-68275000D01*
G75*
G02*
X129400000Y-68025000I250000J0D01*
G01*
X130600000Y-68025000D01*
G75*
G02*
X130850000Y-68275000I0J-250000D01*
G01*
G37*
D18*
X98000000Y-75500000D03*
X98750000Y-74750000D03*
X98750000Y-73250000D03*
X95750000Y-73250000D03*
X95750000Y-74750000D03*
X96500000Y-75500000D03*
X97300000Y-74750000D03*
X96500000Y-74000000D03*
X97300000Y-73250000D03*
X98000000Y-74000000D03*
X98000000Y-72500000D03*
X96500000Y-72500000D03*
D19*
X98760000Y-75500000D03*
X97260000Y-75500000D03*
X95760000Y-75500000D03*
X95760000Y-74000000D03*
X95760000Y-72500000D03*
X97260000Y-72500000D03*
X98760000Y-72500000D03*
X98760000Y-74000000D03*
X97260000Y-74000000D03*
D20*
X107200000Y-65950000D03*
X107200000Y-67450000D03*
X107200000Y-68950000D03*
X107200000Y-70450000D03*
X107200000Y-71950000D03*
X107200000Y-73450000D03*
X107200000Y-74950000D03*
X107200000Y-76450000D03*
X107200000Y-77950000D03*
X107200000Y-79450000D03*
X107200000Y-80950000D03*
X107200000Y-82450000D03*
X107200000Y-83950000D03*
X107200000Y-85450000D03*
X107200000Y-86950000D03*
X107200000Y-88450000D03*
D21*
X105200000Y-89200000D03*
X103700000Y-89200000D03*
X102200000Y-89200000D03*
X100700000Y-89200000D03*
X99200000Y-89200000D03*
X97700000Y-89200000D03*
X96200000Y-89200000D03*
X94700000Y-89200000D03*
X93200000Y-89200000D03*
X91700000Y-89200000D03*
D20*
X89700000Y-65950000D03*
X89700000Y-67450000D03*
X89700000Y-68950000D03*
X89700000Y-70450000D03*
X89700000Y-71950000D03*
X89700000Y-73450000D03*
X89700000Y-74950000D03*
X89700000Y-76450000D03*
X89700000Y-77950000D03*
X89700000Y-79450000D03*
X89700000Y-80950000D03*
X89700000Y-82450000D03*
X89700000Y-83950000D03*
X89700000Y-85450000D03*
X89700000Y-86950000D03*
X89700000Y-88450000D03*
D22*
X80850000Y-59700000D03*
X80850000Y-64300000D03*
X80850000Y-62000000D03*
D23*
X87150000Y-62000000D03*
G36*
G01*
X98600000Y-92049999D02*
X98600000Y-92950001D01*
G75*
G02*
X98350001Y-93200000I-249999J0D01*
G01*
X97649999Y-93200000D01*
G75*
G02*
X97400000Y-92950001I0J249999D01*
G01*
X97400000Y-92049999D01*
G75*
G02*
X97649999Y-91800000I249999J0D01*
G01*
X98350001Y-91800000D01*
G75*
G02*
X98600000Y-92049999I0J-249999D01*
G01*
G37*
G36*
G01*
X100600000Y-92049999D02*
X100600000Y-92950001D01*
G75*
G02*
X100350001Y-93200000I-249999J0D01*
G01*
X99649999Y-93200000D01*
G75*
G02*
X99400000Y-92950001I0J249999D01*
G01*
X99400000Y-92049999D01*
G75*
G02*
X99649999Y-91800000I249999J0D01*
G01*
X100350001Y-91800000D01*
G75*
G02*
X100600000Y-92049999I0J-249999D01*
G01*
G37*
G36*
G01*
X111049999Y-66400000D02*
X111950001Y-66400000D01*
G75*
G02*
X112200000Y-66649999I0J-249999D01*
G01*
X112200000Y-67350001D01*
G75*
G02*
X111950001Y-67600000I-249999J0D01*
G01*
X111049999Y-67600000D01*
G75*
G02*
X110800000Y-67350001I0J249999D01*
G01*
X110800000Y-66649999D01*
G75*
G02*
X111049999Y-66400000I249999J0D01*
G01*
G37*
G36*
G01*
X111049999Y-64400000D02*
X111950001Y-64400000D01*
G75*
G02*
X112200000Y-64649999I0J-249999D01*
G01*
X112200000Y-65350001D01*
G75*
G02*
X111950001Y-65600000I-249999J0D01*
G01*
X111049999Y-65600000D01*
G75*
G02*
X110800000Y-65350001I0J249999D01*
G01*
X110800000Y-64649999D01*
G75*
G02*
X111049999Y-64400000I249999J0D01*
G01*
G37*
G36*
G01*
X87400000Y-92950001D02*
X87400000Y-92049999D01*
G75*
G02*
X87649999Y-91800000I249999J0D01*
G01*
X88350001Y-91800000D01*
G75*
G02*
X88600000Y-92049999I0J-249999D01*
G01*
X88600000Y-92950001D01*
G75*
G02*
X88350001Y-93200000I-249999J0D01*
G01*
X87649999Y-93200000D01*
G75*
G02*
X87400000Y-92950001I0J249999D01*
G01*
G37*
G36*
G01*
X85400000Y-92950001D02*
X85400000Y-92049999D01*
G75*
G02*
X85649999Y-91800000I249999J0D01*
G01*
X86350001Y-91800000D01*
G75*
G02*
X86600000Y-92049999I0J-249999D01*
G01*
X86600000Y-92950001D01*
G75*
G02*
X86350001Y-93200000I-249999J0D01*
G01*
X85649999Y-93200000D01*
G75*
G02*
X85400000Y-92950001I0J249999D01*
G01*
G37*
G36*
G01*
X83400000Y-92950001D02*
X83400000Y-92049999D01*
G75*
G02*
X83649999Y-91800000I249999J0D01*
G01*
X84350001Y-91800000D01*
G75*
G02*
X84600000Y-92049999I0J-249999D01*
G01*
X84600000Y-92950001D01*
G75*
G02*
X84350001Y-93200000I-249999J0D01*
G01*
X83649999Y-93200000D01*
G75*
G02*
X83400000Y-92950001I0J249999D01*
G01*
G37*
G36*
G01*
X81400000Y-92950001D02*
X81400000Y-92049999D01*
G75*
G02*
X81649999Y-91800000I249999J0D01*
G01*
X82350001Y-91800000D01*
G75*
G02*
X82600000Y-92049999I0J-249999D01*
G01*
X82600000Y-92950001D01*
G75*
G02*
X82350001Y-93200000I-249999J0D01*
G01*
X81649999Y-93200000D01*
G75*
G02*
X81400000Y-92950001I0J249999D01*
G01*
G37*
D24*
X67000000Y-77500000D03*
X67000000Y-80000000D03*
X67000000Y-82500000D03*
G36*
G01*
X67725000Y-85850000D02*
X66275000Y-85850000D01*
G75*
G02*
X66025000Y-85600000I0J250000D01*
G01*
X66025000Y-84400000D01*
G75*
G02*
X66275000Y-84150000I250000J0D01*
G01*
X67725000Y-84150000D01*
G75*
G02*
X67975000Y-84400000I0J-250000D01*
G01*
X67975000Y-85600000D01*
G75*
G02*
X67725000Y-85850000I-250000J0D01*
G01*
G37*
X67000000Y-95500000D03*
X67000000Y-98000000D03*
X67000000Y-100500000D03*
G36*
G01*
X67725000Y-103850000D02*
X66275000Y-103850000D01*
G75*
G02*
X66025000Y-103600000I0J250000D01*
G01*
X66025000Y-102400000D01*
G75*
G02*
X66275000Y-102150000I250000J0D01*
G01*
X67725000Y-102150000D01*
G75*
G02*
X67975000Y-102400000I0J-250000D01*
G01*
X67975000Y-103600000D01*
G75*
G02*
X67725000Y-103850000I-250000J0D01*
G01*
G37*
D13*
X82500000Y-78000000D03*
X79960000Y-78000000D03*
X82500000Y-75460000D03*
X79960000Y-75460000D03*
X82500000Y-72920000D03*
D14*
X79960000Y-72920000D03*
D13*
X82500000Y-101500000D03*
X79960000Y-101500000D03*
X82500000Y-98960000D03*
X79960000Y-98960000D03*
X82500000Y-96420000D03*
D14*
X79960000Y-96420000D03*
D25*
X66802000Y-66976000D03*
D26*
X66802000Y-61976000D03*
G36*
G01*
X109975000Y-65587500D02*
X109025000Y-65587500D01*
G75*
G02*
X108775000Y-65337500I0J250000D01*
G01*
X108775000Y-64662500D01*
G75*
G02*
X109025000Y-64412500I250000J0D01*
G01*
X109975000Y-64412500D01*
G75*
G02*
X110225000Y-64662500I0J-250000D01*
G01*
X110225000Y-65337500D01*
G75*
G02*
X109975000Y-65587500I-250000J0D01*
G01*
G37*
G36*
G01*
X109975000Y-67662500D02*
X109025000Y-67662500D01*
G75*
G02*
X108775000Y-67412500I0J250000D01*
G01*
X108775000Y-66737500D01*
G75*
G02*
X109025000Y-66487500I250000J0D01*
G01*
X109975000Y-66487500D01*
G75*
G02*
X110225000Y-66737500I0J-250000D01*
G01*
X110225000Y-67412500D01*
G75*
G02*
X109975000Y-67662500I-250000J0D01*
G01*
G37*
G36*
G01*
X85975000Y-67087500D02*
X85025000Y-67087500D01*
G75*
G02*
X84775000Y-66837500I0J250000D01*
G01*
X84775000Y-66162500D01*
G75*
G02*
X85025000Y-65912500I250000J0D01*
G01*
X85975000Y-65912500D01*
G75*
G02*
X86225000Y-66162500I0J-250000D01*
G01*
X86225000Y-66837500D01*
G75*
G02*
X85975000Y-67087500I-250000J0D01*
G01*
G37*
G36*
G01*
X85975000Y-69162500D02*
X85025000Y-69162500D01*
G75*
G02*
X84775000Y-68912500I0J250000D01*
G01*
X84775000Y-68237500D01*
G75*
G02*
X85025000Y-67987500I250000J0D01*
G01*
X85975000Y-67987500D01*
G75*
G02*
X86225000Y-68237500I0J-250000D01*
G01*
X86225000Y-68912500D01*
G75*
G02*
X85975000Y-69162500I-250000J0D01*
G01*
G37*
G36*
G01*
X80050000Y-84250000D02*
X78950000Y-84250000D01*
G75*
G02*
X78700000Y-84000000I0J250000D01*
G01*
X78700000Y-81000000D01*
G75*
G02*
X78950000Y-80750000I250000J0D01*
G01*
X80050000Y-80750000D01*
G75*
G02*
X80300000Y-81000000I0J-250000D01*
G01*
X80300000Y-84000000D01*
G75*
G02*
X80050000Y-84250000I-250000J0D01*
G01*
G37*
G36*
G01*
X80050000Y-89650000D02*
X78950000Y-89650000D01*
G75*
G02*
X78700000Y-89400000I0J250000D01*
G01*
X78700000Y-86400000D01*
G75*
G02*
X78950000Y-86150000I250000J0D01*
G01*
X80050000Y-86150000D01*
G75*
G02*
X80300000Y-86400000I0J-250000D01*
G01*
X80300000Y-89400000D01*
G75*
G02*
X80050000Y-89650000I-250000J0D01*
G01*
G37*
G36*
G01*
X80550000Y-107850000D02*
X79450000Y-107850000D01*
G75*
G02*
X79200000Y-107600000I0J250000D01*
G01*
X79200000Y-104600000D01*
G75*
G02*
X79450000Y-104350000I250000J0D01*
G01*
X80550000Y-104350000D01*
G75*
G02*
X80800000Y-104600000I0J-250000D01*
G01*
X80800000Y-107600000D01*
G75*
G02*
X80550000Y-107850000I-250000J0D01*
G01*
G37*
G36*
G01*
X80550000Y-113250000D02*
X79450000Y-113250000D01*
G75*
G02*
X79200000Y-113000000I0J250000D01*
G01*
X79200000Y-110000000D01*
G75*
G02*
X79450000Y-109750000I250000J0D01*
G01*
X80550000Y-109750000D01*
G75*
G02*
X80800000Y-110000000I0J-250000D01*
G01*
X80800000Y-113000000D01*
G75*
G02*
X80550000Y-113250000I-250000J0D01*
G01*
G37*
G36*
G01*
X87975000Y-67087500D02*
X87025000Y-67087500D01*
G75*
G02*
X86775000Y-66837500I0J250000D01*
G01*
X86775000Y-66162500D01*
G75*
G02*
X87025000Y-65912500I250000J0D01*
G01*
X87975000Y-65912500D01*
G75*
G02*
X88225000Y-66162500I0J-250000D01*
G01*
X88225000Y-66837500D01*
G75*
G02*
X87975000Y-67087500I-250000J0D01*
G01*
G37*
G36*
G01*
X87975000Y-69162500D02*
X87025000Y-69162500D01*
G75*
G02*
X86775000Y-68912500I0J250000D01*
G01*
X86775000Y-68237500D01*
G75*
G02*
X87025000Y-67987500I250000J0D01*
G01*
X87975000Y-67987500D01*
G75*
G02*
X88225000Y-68237500I0J-250000D01*
G01*
X88225000Y-68912500D01*
G75*
G02*
X87975000Y-69162500I-250000J0D01*
G01*
G37*
G36*
G01*
X80170000Y-67527500D02*
X81120000Y-67527500D01*
G75*
G02*
X81370000Y-67777500I0J-250000D01*
G01*
X81370000Y-68452500D01*
G75*
G02*
X81120000Y-68702500I-250000J0D01*
G01*
X80170000Y-68702500D01*
G75*
G02*
X79920000Y-68452500I0J250000D01*
G01*
X79920000Y-67777500D01*
G75*
G02*
X80170000Y-67527500I250000J0D01*
G01*
G37*
G36*
G01*
X80170000Y-65452500D02*
X81120000Y-65452500D01*
G75*
G02*
X81370000Y-65702500I0J-250000D01*
G01*
X81370000Y-66377500D01*
G75*
G02*
X81120000Y-66627500I-250000J0D01*
G01*
X80170000Y-66627500D01*
G75*
G02*
X79920000Y-66377500I0J250000D01*
G01*
X79920000Y-65702500D01*
G75*
G02*
X80170000Y-65452500I250000J0D01*
G01*
G37*
D16*
X86200000Y-72000000D03*
X73500000Y-89780000D03*
X86200000Y-74540000D03*
X73500000Y-87240000D03*
X86200000Y-77080000D03*
X73500000Y-84700000D03*
X86200000Y-79620000D03*
X73500000Y-82160000D03*
X86200000Y-82160000D03*
X73500000Y-79620000D03*
X86200000Y-84700000D03*
X73500000Y-77080000D03*
X86200000Y-87240000D03*
X73500000Y-74540000D03*
X86200000Y-89780000D03*
D17*
X73500000Y-72000000D03*
D16*
X86200000Y-95220000D03*
X73500000Y-113000000D03*
X86200000Y-97760000D03*
X73500000Y-110460000D03*
X86200000Y-100300000D03*
X73500000Y-107920000D03*
X86200000Y-102840000D03*
X73500000Y-105380000D03*
X86200000Y-105380000D03*
X73500000Y-102840000D03*
X86200000Y-107920000D03*
X73500000Y-100300000D03*
X86200000Y-110460000D03*
X73500000Y-97760000D03*
X86200000Y-113000000D03*
D17*
X73500000Y-95220000D03*
M02*
