%FSLAX45Y45*%
G04 Gerber Fmt 4.5, Leading zero omitted, Abs format (unit mm)*
G04 Created by KiCad (PCBNEW (5.1.9)-1) date 2021-08-10 13:48:07*
%MOMM*%
%LPD*%
G01*
G04 APERTURE LIST*
%TA.AperFunction,Profile*%
%ADD10C,0.050000*%
%TD*%
%ADD11C,0.200000*%
%ADD12C,0.300000*%
G04 APERTURE END LIST*
D10*
X6150000Y-12250000D02*
X6150000Y-5150000D01*
X14450000Y-12250000D02*
X6150000Y-12250000D01*
X14450000Y-5150000D02*
X14450000Y-12250000D01*
X6150000Y-5150000D02*
X14450000Y-5150000D01*
X6725000Y-11850000D02*
G75*
G03*
X6725000Y-11850000I-175000J0D01*
G01*
X14225000Y-11850000D02*
G75*
G03*
X14225000Y-11850000I-175000J0D01*
G01*
X6725000Y-5550000D02*
G75*
G03*
X6725000Y-5550000I-175000J0D01*
G01*
X14225000Y-5550000D02*
G75*
G03*
X14225000Y-5550000I-175000J0D01*
G01*
D11*
D12*
X6433928Y-12718214D02*
X6433928Y-12418214D01*
X6505357Y-12418214D01*
X6548214Y-12432500D01*
X6576786Y-12461071D01*
X6591071Y-12489643D01*
X6605357Y-12546786D01*
X6605357Y-12589643D01*
X6591071Y-12646786D01*
X6576786Y-12675357D01*
X6548214Y-12703929D01*
X6505357Y-12718214D01*
X6433928Y-12718214D01*
X6733928Y-12718214D02*
X6733928Y-12518214D01*
X6733928Y-12575357D02*
X6748214Y-12546786D01*
X6762500Y-12532500D01*
X6791071Y-12518214D01*
X6819643Y-12518214D01*
X6919643Y-12718214D02*
X6919643Y-12518214D01*
X6919643Y-12418214D02*
X6905357Y-12432500D01*
X6919643Y-12446786D01*
X6933928Y-12432500D01*
X6919643Y-12418214D01*
X6919643Y-12446786D01*
X7105357Y-12718214D02*
X7076786Y-12703929D01*
X7062500Y-12675357D01*
X7062500Y-12418214D01*
X7262500Y-12718214D02*
X7233928Y-12703929D01*
X7219643Y-12675357D01*
X7219643Y-12418214D01*
X7605357Y-12718214D02*
X7605357Y-12418214D01*
X7705357Y-12632500D01*
X7805357Y-12418214D01*
X7805357Y-12718214D01*
X8076786Y-12718214D02*
X8076786Y-12561071D01*
X8062500Y-12532500D01*
X8033928Y-12518214D01*
X7976786Y-12518214D01*
X7948214Y-12532500D01*
X8076786Y-12703929D02*
X8048214Y-12718214D01*
X7976786Y-12718214D01*
X7948214Y-12703929D01*
X7933928Y-12675357D01*
X7933928Y-12646786D01*
X7948214Y-12618214D01*
X7976786Y-12603929D01*
X8048214Y-12603929D01*
X8076786Y-12589643D01*
X8219643Y-12518214D02*
X8219643Y-12818214D01*
X8219643Y-12532500D02*
X8248214Y-12518214D01*
X8305357Y-12518214D01*
X8333928Y-12532500D01*
X8348214Y-12546786D01*
X8362500Y-12575357D01*
X8362500Y-12661071D01*
X8348214Y-12689643D01*
X8333928Y-12703929D01*
X8305357Y-12718214D01*
X8248214Y-12718214D01*
X8219643Y-12703929D01*
X8491071Y-12689643D02*
X8505357Y-12703929D01*
X8491071Y-12718214D01*
X8476786Y-12703929D01*
X8491071Y-12689643D01*
X8491071Y-12718214D01*
X8491071Y-12532500D02*
X8505357Y-12546786D01*
X8491071Y-12561071D01*
X8476786Y-12546786D01*
X8491071Y-12532500D01*
X8491071Y-12561071D01*
M02*
