M48
; DRILL file {KiCad (5.1.9)-1} date 05/18/21 22:54:29
; FORMAT={-:-/ absolute / metric / decimal}
; #@! TF.CreationDate,2021-05-18T22:54:29-05:00
; #@! TF.GenerationSoftware,Kicad,Pcbnew,(5.1.9)-1
; #@! TF.FileFunction,Plated,1,2,PTH
FMAT,2
METRIC
T1C0.300
T2C0.305
T3C0.750
T4C0.800
T5C0.950
T6C1.000
T7C1.300
%
G90
G05
T1
X95.75Y-73.25
X95.75Y-74.75
X96.5Y-72.5
X96.5Y-74.0
X96.5Y-75.5
X97.3Y-73.25
X97.3Y-74.75
X98.0Y-72.5
X98.0Y-74.0
X98.0Y-75.5
X98.75Y-73.25
X98.75Y-74.75
T2
X79.121Y-68.199
X96.139Y-101.854
X105.156Y-90.805
X105.537Y-70.485
X109.474Y-63.373
X114.3Y-90.043
X114.935Y-76.962
T3
X112.5Y-71.0
X112.5Y-73.0
X112.5Y-75.0
X112.5Y-77.0
X112.5Y-79.0
X112.5Y-81.0
T4
X73.5Y-72.0
X73.5Y-74.54
X73.5Y-77.08
X73.5Y-79.62
X73.5Y-82.16
X73.5Y-84.7
X73.5Y-87.24
X73.5Y-89.78
X73.5Y-94.3
X73.5Y-107.0
X76.04Y-94.3
X76.04Y-107.0
X78.58Y-94.3
X78.58Y-107.0
X81.12Y-94.3
X81.12Y-107.0
X83.66Y-94.3
X83.66Y-107.0
X86.2Y-72.0
X86.2Y-74.54
X86.2Y-77.08
X86.2Y-79.62
X86.2Y-82.16
X86.2Y-84.7
X86.2Y-87.24
X86.2Y-89.78
X86.2Y-94.3
X86.2Y-107.0
X88.74Y-94.3
X88.74Y-107.0
X91.28Y-94.3
X91.28Y-107.0
T5
X67.0Y-77.5
X67.0Y-80.0
X67.0Y-82.5
X67.0Y-85.0
X67.0Y-95.5
X67.0Y-98.0
X67.0Y-100.5
X67.0Y-103.0
X103.5Y-94.0
X103.5Y-96.5
X103.5Y-99.0
X103.5Y-101.5
X103.5Y-104.0
X103.5Y-106.5
X112.0Y-94.0
X112.0Y-96.5
X112.0Y-99.0
X112.0Y-101.5
X112.0Y-104.0
X112.0Y-106.5
T6
X76.0Y-97.96
X76.0Y-100.5
X78.54Y-97.96
X78.54Y-100.5
X80.0Y-76.0
X80.0Y-78.54
X80.0Y-81.08
X81.08Y-97.96
X81.08Y-100.5
X82.54Y-76.0
X82.54Y-78.54
X82.54Y-81.08
T7
X71.5Y-64.5
X76.5Y-64.5
T0
M30
