G04 #@! TF.GenerationSoftware,KiCad,Pcbnew,(5.1.9)-1*
G04 #@! TF.CreationDate,2021-05-18T22:54:22-05:00*
G04 #@! TF.ProjectId,DevMagneticEncoders,4465764d-6167-46e6-9574-6963456e636f,rev?*
G04 #@! TF.SameCoordinates,Original*
G04 #@! TF.FileFunction,Paste,Top*
G04 #@! TF.FilePolarity,Positive*
%FSLAX46Y46*%
G04 Gerber Fmt 4.6, Leading zero omitted, Abs format (unit mm)*
G04 Created by KiCad (PCBNEW (5.1.9)-1) date 2021-05-18 22:54:22*
%MOMM*%
%LPD*%
G01*
G04 APERTURE LIST*
%ADD10R,1.550000X1.000000*%
%ADD11R,1.100000X1.100000*%
%ADD12R,1.500000X0.900000*%
%ADD13R,0.900000X1.500000*%
%ADD14R,2.000000X1.500000*%
%ADD15R,2.000000X3.800000*%
G04 APERTURE END LIST*
D10*
X109375000Y-88600000D03*
X114625000Y-88600000D03*
X114625000Y-85400000D03*
X109375000Y-85400000D03*
D11*
X98760000Y-75500000D03*
X97260000Y-75500000D03*
X95760000Y-75500000D03*
X95760000Y-74000000D03*
X95760000Y-72500000D03*
X97260000Y-72500000D03*
X98760000Y-72500000D03*
X98760000Y-74000000D03*
X97260000Y-74000000D03*
D12*
X107200000Y-65950000D03*
X107200000Y-67450000D03*
X107200000Y-68950000D03*
X107200000Y-70450000D03*
X107200000Y-71950000D03*
X107200000Y-73450000D03*
X107200000Y-74950000D03*
X107200000Y-76450000D03*
X107200000Y-77950000D03*
X107200000Y-79450000D03*
X107200000Y-80950000D03*
X107200000Y-82450000D03*
X107200000Y-83950000D03*
X107200000Y-85450000D03*
X107200000Y-86950000D03*
X107200000Y-88450000D03*
D13*
X105200000Y-89200000D03*
X103700000Y-89200000D03*
X102200000Y-89200000D03*
X100700000Y-89200000D03*
X99200000Y-89200000D03*
X97700000Y-89200000D03*
X96200000Y-89200000D03*
X94700000Y-89200000D03*
X93200000Y-89200000D03*
X91700000Y-89200000D03*
D12*
X89700000Y-65950000D03*
X89700000Y-67450000D03*
X89700000Y-68950000D03*
X89700000Y-70450000D03*
X89700000Y-71950000D03*
X89700000Y-73450000D03*
X89700000Y-74950000D03*
X89700000Y-76450000D03*
X89700000Y-77950000D03*
X89700000Y-79450000D03*
X89700000Y-80950000D03*
X89700000Y-82450000D03*
X89700000Y-83950000D03*
X89700000Y-85450000D03*
X89700000Y-86950000D03*
X89700000Y-88450000D03*
D14*
X80850000Y-59700000D03*
X80850000Y-64300000D03*
X80850000Y-62000000D03*
D15*
X87150000Y-62000000D03*
G36*
G01*
X97950001Y-92100000D02*
X97049999Y-92100000D01*
G75*
G02*
X96800000Y-91850001I0J249999D01*
G01*
X96800000Y-91149999D01*
G75*
G02*
X97049999Y-90900000I249999J0D01*
G01*
X97950001Y-90900000D01*
G75*
G02*
X98200000Y-91149999I0J-249999D01*
G01*
X98200000Y-91850001D01*
G75*
G02*
X97950001Y-92100000I-249999J0D01*
G01*
G37*
G36*
G01*
X97950001Y-94100000D02*
X97049999Y-94100000D01*
G75*
G02*
X96800000Y-93850001I0J249999D01*
G01*
X96800000Y-93149999D01*
G75*
G02*
X97049999Y-92900000I249999J0D01*
G01*
X97950001Y-92900000D01*
G75*
G02*
X98200000Y-93149999I0J-249999D01*
G01*
X98200000Y-93850001D01*
G75*
G02*
X97950001Y-94100000I-249999J0D01*
G01*
G37*
G36*
G01*
X111049999Y-66400000D02*
X111950001Y-66400000D01*
G75*
G02*
X112200000Y-66649999I0J-249999D01*
G01*
X112200000Y-67350001D01*
G75*
G02*
X111950001Y-67600000I-249999J0D01*
G01*
X111049999Y-67600000D01*
G75*
G02*
X110800000Y-67350001I0J249999D01*
G01*
X110800000Y-66649999D01*
G75*
G02*
X111049999Y-66400000I249999J0D01*
G01*
G37*
G36*
G01*
X111049999Y-64400000D02*
X111950001Y-64400000D01*
G75*
G02*
X112200000Y-64649999I0J-249999D01*
G01*
X112200000Y-65350001D01*
G75*
G02*
X111950001Y-65600000I-249999J0D01*
G01*
X111049999Y-65600000D01*
G75*
G02*
X110800000Y-65350001I0J249999D01*
G01*
X110800000Y-64649999D01*
G75*
G02*
X111049999Y-64400000I249999J0D01*
G01*
G37*
G36*
G01*
X95688999Y-99825000D02*
X96589001Y-99825000D01*
G75*
G02*
X96839000Y-100074999I0J-249999D01*
G01*
X96839000Y-100775001D01*
G75*
G02*
X96589001Y-101025000I-249999J0D01*
G01*
X95688999Y-101025000D01*
G75*
G02*
X95439000Y-100775001I0J249999D01*
G01*
X95439000Y-100074999D01*
G75*
G02*
X95688999Y-99825000I249999J0D01*
G01*
G37*
G36*
G01*
X95688999Y-97825000D02*
X96589001Y-97825000D01*
G75*
G02*
X96839000Y-98074999I0J-249999D01*
G01*
X96839000Y-98775001D01*
G75*
G02*
X96589001Y-99025000I-249999J0D01*
G01*
X95688999Y-99025000D01*
G75*
G02*
X95439000Y-98775001I0J249999D01*
G01*
X95439000Y-98074999D01*
G75*
G02*
X95688999Y-97825000I249999J0D01*
G01*
G37*
G36*
G01*
X94557001Y-99057000D02*
X93656999Y-99057000D01*
G75*
G02*
X93407000Y-98807001I0J249999D01*
G01*
X93407000Y-98106999D01*
G75*
G02*
X93656999Y-97857000I249999J0D01*
G01*
X94557001Y-97857000D01*
G75*
G02*
X94807000Y-98106999I0J-249999D01*
G01*
X94807000Y-98807001D01*
G75*
G02*
X94557001Y-99057000I-249999J0D01*
G01*
G37*
G36*
G01*
X94557001Y-101057000D02*
X93656999Y-101057000D01*
G75*
G02*
X93407000Y-100807001I0J249999D01*
G01*
X93407000Y-100106999D01*
G75*
G02*
X93656999Y-99857000I249999J0D01*
G01*
X94557001Y-99857000D01*
G75*
G02*
X94807000Y-100106999I0J-249999D01*
G01*
X94807000Y-100807001D01*
G75*
G02*
X94557001Y-101057000I-249999J0D01*
G01*
G37*
G36*
G01*
X109975000Y-65587500D02*
X109025000Y-65587500D01*
G75*
G02*
X108775000Y-65337500I0J250000D01*
G01*
X108775000Y-64662500D01*
G75*
G02*
X109025000Y-64412500I250000J0D01*
G01*
X109975000Y-64412500D01*
G75*
G02*
X110225000Y-64662500I0J-250000D01*
G01*
X110225000Y-65337500D01*
G75*
G02*
X109975000Y-65587500I-250000J0D01*
G01*
G37*
G36*
G01*
X109975000Y-67662500D02*
X109025000Y-67662500D01*
G75*
G02*
X108775000Y-67412500I0J250000D01*
G01*
X108775000Y-66737500D01*
G75*
G02*
X109025000Y-66487500I250000J0D01*
G01*
X109975000Y-66487500D01*
G75*
G02*
X110225000Y-66737500I0J-250000D01*
G01*
X110225000Y-67412500D01*
G75*
G02*
X109975000Y-67662500I-250000J0D01*
G01*
G37*
G36*
G01*
X85975000Y-67087500D02*
X85025000Y-67087500D01*
G75*
G02*
X84775000Y-66837500I0J250000D01*
G01*
X84775000Y-66162500D01*
G75*
G02*
X85025000Y-65912500I250000J0D01*
G01*
X85975000Y-65912500D01*
G75*
G02*
X86225000Y-66162500I0J-250000D01*
G01*
X86225000Y-66837500D01*
G75*
G02*
X85975000Y-67087500I-250000J0D01*
G01*
G37*
G36*
G01*
X85975000Y-69162500D02*
X85025000Y-69162500D01*
G75*
G02*
X84775000Y-68912500I0J250000D01*
G01*
X84775000Y-68237500D01*
G75*
G02*
X85025000Y-67987500I250000J0D01*
G01*
X85975000Y-67987500D01*
G75*
G02*
X86225000Y-68237500I0J-250000D01*
G01*
X86225000Y-68912500D01*
G75*
G02*
X85975000Y-69162500I-250000J0D01*
G01*
G37*
G36*
G01*
X79550000Y-86550000D02*
X78450000Y-86550000D01*
G75*
G02*
X78200000Y-86300000I0J250000D01*
G01*
X78200000Y-83300000D01*
G75*
G02*
X78450000Y-83050000I250000J0D01*
G01*
X79550000Y-83050000D01*
G75*
G02*
X79800000Y-83300000I0J-250000D01*
G01*
X79800000Y-86300000D01*
G75*
G02*
X79550000Y-86550000I-250000J0D01*
G01*
G37*
G36*
G01*
X79550000Y-91950000D02*
X78450000Y-91950000D01*
G75*
G02*
X78200000Y-91700000I0J250000D01*
G01*
X78200000Y-88700000D01*
G75*
G02*
X78450000Y-88450000I250000J0D01*
G01*
X79550000Y-88450000D01*
G75*
G02*
X79800000Y-88700000I0J-250000D01*
G01*
X79800000Y-91700000D01*
G75*
G02*
X79550000Y-91950000I-250000J0D01*
G01*
G37*
G36*
G01*
X86550000Y-99950000D02*
X86550000Y-101050000D01*
G75*
G02*
X86300000Y-101300000I-250000J0D01*
G01*
X83300000Y-101300000D01*
G75*
G02*
X83050000Y-101050000I0J250000D01*
G01*
X83050000Y-99950000D01*
G75*
G02*
X83300000Y-99700000I250000J0D01*
G01*
X86300000Y-99700000D01*
G75*
G02*
X86550000Y-99950000I0J-250000D01*
G01*
G37*
G36*
G01*
X91950000Y-99950000D02*
X91950000Y-101050000D01*
G75*
G02*
X91700000Y-101300000I-250000J0D01*
G01*
X88700000Y-101300000D01*
G75*
G02*
X88450000Y-101050000I0J250000D01*
G01*
X88450000Y-99950000D01*
G75*
G02*
X88700000Y-99700000I250000J0D01*
G01*
X91700000Y-99700000D01*
G75*
G02*
X91950000Y-99950000I0J-250000D01*
G01*
G37*
G36*
G01*
X87975000Y-67087500D02*
X87025000Y-67087500D01*
G75*
G02*
X86775000Y-66837500I0J250000D01*
G01*
X86775000Y-66162500D01*
G75*
G02*
X87025000Y-65912500I250000J0D01*
G01*
X87975000Y-65912500D01*
G75*
G02*
X88225000Y-66162500I0J-250000D01*
G01*
X88225000Y-66837500D01*
G75*
G02*
X87975000Y-67087500I-250000J0D01*
G01*
G37*
G36*
G01*
X87975000Y-69162500D02*
X87025000Y-69162500D01*
G75*
G02*
X86775000Y-68912500I0J250000D01*
G01*
X86775000Y-68237500D01*
G75*
G02*
X87025000Y-67987500I250000J0D01*
G01*
X87975000Y-67987500D01*
G75*
G02*
X88225000Y-68237500I0J-250000D01*
G01*
X88225000Y-68912500D01*
G75*
G02*
X87975000Y-69162500I-250000J0D01*
G01*
G37*
G36*
G01*
X80170000Y-67527500D02*
X81120000Y-67527500D01*
G75*
G02*
X81370000Y-67777500I0J-250000D01*
G01*
X81370000Y-68452500D01*
G75*
G02*
X81120000Y-68702500I-250000J0D01*
G01*
X80170000Y-68702500D01*
G75*
G02*
X79920000Y-68452500I0J250000D01*
G01*
X79920000Y-67777500D01*
G75*
G02*
X80170000Y-67527500I250000J0D01*
G01*
G37*
G36*
G01*
X80170000Y-65452500D02*
X81120000Y-65452500D01*
G75*
G02*
X81370000Y-65702500I0J-250000D01*
G01*
X81370000Y-66377500D01*
G75*
G02*
X81120000Y-66627500I-250000J0D01*
G01*
X80170000Y-66627500D01*
G75*
G02*
X79920000Y-66377500I0J250000D01*
G01*
X79920000Y-65702500D01*
G75*
G02*
X80170000Y-65452500I250000J0D01*
G01*
G37*
M02*
