G04 #@! TF.GenerationSoftware,KiCad,Pcbnew,(5.1.9)-1*
G04 #@! TF.CreationDate,2021-05-18T22:54:22-05:00*
G04 #@! TF.ProjectId,DevMagneticEncoders,4465764d-6167-46e6-9574-6963456e636f,rev?*
G04 #@! TF.SameCoordinates,Original*
G04 #@! TF.FileFunction,Copper,L2,Bot*
G04 #@! TF.FilePolarity,Positive*
%FSLAX46Y46*%
G04 Gerber Fmt 4.6, Leading zero omitted, Abs format (unit mm)*
G04 Created by KiCad (PCBNEW (5.1.9)-1) date 2021-05-18 22:54:22*
%MOMM*%
%LPD*%
G01*
G04 APERTURE LIST*
G04 #@! TA.AperFunction,ComponentPad*
%ADD10O,1.950000X1.700000*%
G04 #@! TD*
G04 #@! TA.AperFunction,ComponentPad*
%ADD11C,0.600000*%
G04 #@! TD*
G04 #@! TA.AperFunction,ComponentPad*
%ADD12O,1.750000X1.200000*%
G04 #@! TD*
G04 #@! TA.AperFunction,ComponentPad*
%ADD13O,1.700000X1.700000*%
G04 #@! TD*
G04 #@! TA.AperFunction,ComponentPad*
%ADD14R,1.700000X1.700000*%
G04 #@! TD*
G04 #@! TA.AperFunction,ComponentPad*
%ADD15C,2.600000*%
G04 #@! TD*
G04 #@! TA.AperFunction,ComponentPad*
%ADD16R,2.600000X2.600000*%
G04 #@! TD*
G04 #@! TA.AperFunction,ComponentPad*
%ADD17O,1.600000X1.600000*%
G04 #@! TD*
G04 #@! TA.AperFunction,ComponentPad*
%ADD18R,1.600000X1.600000*%
G04 #@! TD*
G04 #@! TA.AperFunction,ViaPad*
%ADD19C,0.609600*%
G04 #@! TD*
G04 #@! TA.AperFunction,Conductor*
%ADD20C,0.762000*%
G04 #@! TD*
G04 #@! TA.AperFunction,Conductor*
%ADD21C,0.254000*%
G04 #@! TD*
G04 #@! TA.AperFunction,Conductor*
%ADD22C,0.100000*%
G04 #@! TD*
G04 APERTURE END LIST*
D10*
X103500000Y-106500000D03*
X103500000Y-104000000D03*
X103500000Y-101500000D03*
X103500000Y-99000000D03*
X103500000Y-96500000D03*
G04 #@! TA.AperFunction,ComponentPad*
G36*
G01*
X102775000Y-93150000D02*
X104225000Y-93150000D01*
G75*
G02*
X104475000Y-93400000I0J-250000D01*
G01*
X104475000Y-94600000D01*
G75*
G02*
X104225000Y-94850000I-250000J0D01*
G01*
X102775000Y-94850000D01*
G75*
G02*
X102525000Y-94600000I0J250000D01*
G01*
X102525000Y-93400000D01*
G75*
G02*
X102775000Y-93150000I250000J0D01*
G01*
G37*
G04 #@! TD.AperFunction*
X112000000Y-106500000D03*
X112000000Y-104000000D03*
X112000000Y-101500000D03*
X112000000Y-99000000D03*
X112000000Y-96500000D03*
G04 #@! TA.AperFunction,ComponentPad*
G36*
G01*
X111275000Y-93150000D02*
X112725000Y-93150000D01*
G75*
G02*
X112975000Y-93400000I0J-250000D01*
G01*
X112975000Y-94600000D01*
G75*
G02*
X112725000Y-94850000I-250000J0D01*
G01*
X111275000Y-94850000D01*
G75*
G02*
X111025000Y-94600000I0J250000D01*
G01*
X111025000Y-93400000D01*
G75*
G02*
X111275000Y-93150000I250000J0D01*
G01*
G37*
G04 #@! TD.AperFunction*
D11*
X98000000Y-75500000D03*
X98750000Y-74750000D03*
X98750000Y-73250000D03*
X95750000Y-73250000D03*
X95750000Y-74750000D03*
X96500000Y-75500000D03*
X97300000Y-74750000D03*
X96500000Y-74000000D03*
X97300000Y-73250000D03*
X98000000Y-74000000D03*
X98000000Y-72500000D03*
X96500000Y-72500000D03*
D10*
X67000000Y-77500000D03*
X67000000Y-80000000D03*
X67000000Y-82500000D03*
G04 #@! TA.AperFunction,ComponentPad*
G36*
G01*
X67725000Y-85850000D02*
X66275000Y-85850000D01*
G75*
G02*
X66025000Y-85600000I0J250000D01*
G01*
X66025000Y-84400000D01*
G75*
G02*
X66275000Y-84150000I250000J0D01*
G01*
X67725000Y-84150000D01*
G75*
G02*
X67975000Y-84400000I0J-250000D01*
G01*
X67975000Y-85600000D01*
G75*
G02*
X67725000Y-85850000I-250000J0D01*
G01*
G37*
G04 #@! TD.AperFunction*
X67000000Y-95500000D03*
X67000000Y-98000000D03*
X67000000Y-100500000D03*
G04 #@! TA.AperFunction,ComponentPad*
G36*
G01*
X67725000Y-103850000D02*
X66275000Y-103850000D01*
G75*
G02*
X66025000Y-103600000I0J250000D01*
G01*
X66025000Y-102400000D01*
G75*
G02*
X66275000Y-102150000I250000J0D01*
G01*
X67725000Y-102150000D01*
G75*
G02*
X67975000Y-102400000I0J-250000D01*
G01*
X67975000Y-103600000D01*
G75*
G02*
X67725000Y-103850000I-250000J0D01*
G01*
G37*
G04 #@! TD.AperFunction*
D12*
X112500000Y-81000000D03*
X112500000Y-79000000D03*
X112500000Y-77000000D03*
X112500000Y-75000000D03*
X112500000Y-73000000D03*
G04 #@! TA.AperFunction,ComponentPad*
G36*
G01*
X111874999Y-70400000D02*
X113125001Y-70400000D01*
G75*
G02*
X113375000Y-70649999I0J-249999D01*
G01*
X113375000Y-71350001D01*
G75*
G02*
X113125001Y-71600000I-249999J0D01*
G01*
X111874999Y-71600000D01*
G75*
G02*
X111625000Y-71350001I0J249999D01*
G01*
X111625000Y-70649999D01*
G75*
G02*
X111874999Y-70400000I249999J0D01*
G01*
G37*
G04 #@! TD.AperFunction*
D13*
X82540000Y-81080000D03*
X80000000Y-81080000D03*
X82540000Y-78540000D03*
X80000000Y-78540000D03*
X82540000Y-76000000D03*
D14*
X80000000Y-76000000D03*
D13*
X81080000Y-97960000D03*
X81080000Y-100500000D03*
X78540000Y-97960000D03*
X78540000Y-100500000D03*
X76000000Y-97960000D03*
D14*
X76000000Y-100500000D03*
D15*
X76500000Y-64500000D03*
D16*
X71500000Y-64500000D03*
D17*
X86200000Y-72000000D03*
X73500000Y-89780000D03*
X86200000Y-74540000D03*
X73500000Y-87240000D03*
X86200000Y-77080000D03*
X73500000Y-84700000D03*
X86200000Y-79620000D03*
X73500000Y-82160000D03*
X86200000Y-82160000D03*
X73500000Y-79620000D03*
X86200000Y-84700000D03*
X73500000Y-77080000D03*
X86200000Y-87240000D03*
X73500000Y-74540000D03*
X86200000Y-89780000D03*
D18*
X73500000Y-72000000D03*
D17*
X73500000Y-94300000D03*
X91280000Y-107000000D03*
X76040000Y-94300000D03*
X88740000Y-107000000D03*
X78580000Y-94300000D03*
X86200000Y-107000000D03*
X81120000Y-94300000D03*
X83660000Y-107000000D03*
X83660000Y-94300000D03*
X81120000Y-107000000D03*
X86200000Y-94300000D03*
X78580000Y-107000000D03*
X88740000Y-94300000D03*
X76040000Y-107000000D03*
X91280000Y-94300000D03*
D18*
X73500000Y-107000000D03*
D19*
X79121000Y-68199000D03*
X96139000Y-101854000D03*
X105156000Y-90805000D03*
X114300000Y-90043000D03*
X109474000Y-63373000D03*
X114935000Y-76962000D03*
X105537000Y-70485000D03*
D20*
X69383010Y-89780000D02*
X73500000Y-89780000D01*
X65516990Y-85913980D02*
X69383010Y-89780000D01*
X65516990Y-70483010D02*
X65516990Y-85913980D01*
X71500000Y-64500000D02*
X65516990Y-70483010D01*
X87304969Y-110975031D02*
X91280000Y-107000000D01*
X71188882Y-110975031D02*
X87304969Y-110975031D01*
X65516990Y-105303139D02*
X71188882Y-110975031D01*
X65516990Y-85913980D02*
X65516990Y-105303139D01*
X76500000Y-83635842D02*
X73500000Y-86635842D01*
X73500000Y-86635842D02*
X73500000Y-87240000D01*
X76500000Y-64500000D02*
X76500000Y-83635842D01*
D21*
X112538000Y-76962000D02*
X112500000Y-77000000D01*
X114935000Y-76962000D02*
X112538000Y-76962000D01*
D20*
X83113979Y-110086021D02*
X86200000Y-107000000D01*
X71557121Y-110086021D02*
X83113979Y-110086021D01*
X67000000Y-105528899D02*
X71557121Y-110086021D01*
X67000000Y-103000000D02*
X67000000Y-105528899D01*
X81462989Y-109197011D02*
X83660000Y-107000000D01*
X71925360Y-109197011D02*
X81462989Y-109197011D01*
X70110990Y-107382641D02*
X71925360Y-109197011D01*
X70110990Y-103610990D02*
X70110990Y-107382641D01*
X67000000Y-100500000D02*
X70110990Y-103610990D01*
X67718593Y-98000000D02*
X71000000Y-101281407D01*
X67000000Y-98000000D02*
X67718593Y-98000000D01*
X79811999Y-108308001D02*
X81120000Y-107000000D01*
X72293599Y-108308001D02*
X79811999Y-108308001D01*
X71000000Y-107014402D02*
X72293599Y-108308001D01*
X71000000Y-101281407D02*
X71000000Y-107014402D01*
X78080000Y-106500000D02*
X78580000Y-107000000D01*
X77475842Y-106500000D02*
X78080000Y-106500000D01*
X68483010Y-97507168D02*
X77475842Y-106500000D01*
X68483010Y-96983010D02*
X68483010Y-97507168D01*
X67000000Y-95500000D02*
X68483010Y-96983010D01*
X73200000Y-85000000D02*
X73500000Y-84700000D01*
X67000000Y-85000000D02*
X73200000Y-85000000D01*
X73160000Y-82500000D02*
X73500000Y-82160000D01*
X67000000Y-82500000D02*
X73160000Y-82500000D01*
X73120000Y-80000000D02*
X73500000Y-79620000D01*
X67000000Y-80000000D02*
X73120000Y-80000000D01*
X73080000Y-77500000D02*
X73500000Y-77080000D01*
X67000000Y-77500000D02*
X73080000Y-77500000D01*
D21*
X108052000Y-73000000D02*
X112500000Y-73000000D01*
X105537000Y-70485000D02*
X108052000Y-73000000D01*
X116594001Y-111594000D02*
X87751899Y-111594000D01*
X87846391Y-111516453D01*
X87870253Y-111487377D01*
X91176631Y-108181000D01*
X91396318Y-108181000D01*
X91624485Y-108135614D01*
X91839413Y-108046588D01*
X92032843Y-107917342D01*
X92197342Y-107752843D01*
X92326588Y-107559413D01*
X92415614Y-107344485D01*
X92461000Y-107116318D01*
X92461000Y-106883682D01*
X92415614Y-106655515D01*
X92351198Y-106500000D01*
X102138044Y-106500000D01*
X102161812Y-106741318D01*
X102232202Y-106973363D01*
X102346509Y-107187216D01*
X102500340Y-107374660D01*
X102687784Y-107528491D01*
X102901637Y-107642798D01*
X103133682Y-107713188D01*
X103314528Y-107731000D01*
X103685472Y-107731000D01*
X103866318Y-107713188D01*
X104098363Y-107642798D01*
X104312216Y-107528491D01*
X104499660Y-107374660D01*
X104653491Y-107187216D01*
X104767798Y-106973363D01*
X104838188Y-106741318D01*
X104861956Y-106500000D01*
X110638044Y-106500000D01*
X110661812Y-106741318D01*
X110732202Y-106973363D01*
X110846509Y-107187216D01*
X111000340Y-107374660D01*
X111187784Y-107528491D01*
X111401637Y-107642798D01*
X111633682Y-107713188D01*
X111814528Y-107731000D01*
X112185472Y-107731000D01*
X112366318Y-107713188D01*
X112598363Y-107642798D01*
X112812216Y-107528491D01*
X112999660Y-107374660D01*
X113153491Y-107187216D01*
X113267798Y-106973363D01*
X113338188Y-106741318D01*
X113361956Y-106500000D01*
X113338188Y-106258682D01*
X113267798Y-106026637D01*
X113153491Y-105812784D01*
X112999660Y-105625340D01*
X112812216Y-105471509D01*
X112598363Y-105357202D01*
X112366318Y-105286812D01*
X112185472Y-105269000D01*
X111814528Y-105269000D01*
X111633682Y-105286812D01*
X111401637Y-105357202D01*
X111187784Y-105471509D01*
X111000340Y-105625340D01*
X110846509Y-105812784D01*
X110732202Y-106026637D01*
X110661812Y-106258682D01*
X110638044Y-106500000D01*
X104861956Y-106500000D01*
X104838188Y-106258682D01*
X104767798Y-106026637D01*
X104653491Y-105812784D01*
X104499660Y-105625340D01*
X104312216Y-105471509D01*
X104098363Y-105357202D01*
X103866318Y-105286812D01*
X103685472Y-105269000D01*
X103314528Y-105269000D01*
X103133682Y-105286812D01*
X102901637Y-105357202D01*
X102687784Y-105471509D01*
X102500340Y-105625340D01*
X102346509Y-105812784D01*
X102232202Y-106026637D01*
X102161812Y-106258682D01*
X102138044Y-106500000D01*
X92351198Y-106500000D01*
X92326588Y-106440587D01*
X92197342Y-106247157D01*
X92032843Y-106082658D01*
X91839413Y-105953412D01*
X91624485Y-105864386D01*
X91396318Y-105819000D01*
X91163682Y-105819000D01*
X90935515Y-105864386D01*
X90720587Y-105953412D01*
X90527157Y-106082658D01*
X90362658Y-106247157D01*
X90233412Y-106440587D01*
X90144386Y-106655515D01*
X90101125Y-106872998D01*
X90010625Y-106872998D01*
X90131909Y-106650960D01*
X90037070Y-106386119D01*
X89892385Y-106144869D01*
X89703414Y-105936481D01*
X89477420Y-105768963D01*
X89223087Y-105648754D01*
X89089039Y-105608096D01*
X88867000Y-105730085D01*
X88867000Y-106873000D01*
X88887000Y-106873000D01*
X88887000Y-107127000D01*
X88867000Y-107127000D01*
X88867000Y-108269915D01*
X88909245Y-108293125D01*
X86989339Y-110213031D01*
X84064599Y-110213031D01*
X86096631Y-108181000D01*
X86316318Y-108181000D01*
X86544485Y-108135614D01*
X86759413Y-108046588D01*
X86952843Y-107917342D01*
X87117342Y-107752843D01*
X87246588Y-107559413D01*
X87335614Y-107344485D01*
X87378875Y-107127002D01*
X87469375Y-107127002D01*
X87348091Y-107349040D01*
X87442930Y-107613881D01*
X87587615Y-107855131D01*
X87776586Y-108063519D01*
X88002580Y-108231037D01*
X88256913Y-108351246D01*
X88390961Y-108391904D01*
X88613000Y-108269915D01*
X88613000Y-107127000D01*
X88593000Y-107127000D01*
X88593000Y-106873000D01*
X88613000Y-106873000D01*
X88613000Y-105730085D01*
X88390961Y-105608096D01*
X88256913Y-105648754D01*
X88002580Y-105768963D01*
X87776586Y-105936481D01*
X87587615Y-106144869D01*
X87442930Y-106386119D01*
X87348091Y-106650960D01*
X87469375Y-106872998D01*
X87378875Y-106872998D01*
X87335614Y-106655515D01*
X87246588Y-106440587D01*
X87117342Y-106247157D01*
X86952843Y-106082658D01*
X86759413Y-105953412D01*
X86544485Y-105864386D01*
X86316318Y-105819000D01*
X86083682Y-105819000D01*
X85855515Y-105864386D01*
X85640587Y-105953412D01*
X85447157Y-106082658D01*
X85282658Y-106247157D01*
X85153412Y-106440587D01*
X85064386Y-106655515D01*
X85019000Y-106883682D01*
X85019000Y-107103369D01*
X84800016Y-107322353D01*
X84841000Y-107116318D01*
X84841000Y-106883682D01*
X84795614Y-106655515D01*
X84706588Y-106440587D01*
X84577342Y-106247157D01*
X84412843Y-106082658D01*
X84219413Y-105953412D01*
X84004485Y-105864386D01*
X83776318Y-105819000D01*
X83543682Y-105819000D01*
X83315515Y-105864386D01*
X83100587Y-105953412D01*
X82907157Y-106082658D01*
X82742658Y-106247157D01*
X82613412Y-106440587D01*
X82524386Y-106655515D01*
X82479000Y-106883682D01*
X82479000Y-107103369D01*
X82260016Y-107322353D01*
X82301000Y-107116318D01*
X82301000Y-106883682D01*
X82255614Y-106655515D01*
X82166588Y-106440587D01*
X82037342Y-106247157D01*
X81872843Y-106082658D01*
X81679413Y-105953412D01*
X81464485Y-105864386D01*
X81236318Y-105819000D01*
X81003682Y-105819000D01*
X80775515Y-105864386D01*
X80560587Y-105953412D01*
X80367157Y-106082658D01*
X80202658Y-106247157D01*
X80073412Y-106440587D01*
X79984386Y-106655515D01*
X79939000Y-106883682D01*
X79939000Y-107103369D01*
X79720016Y-107322353D01*
X79761000Y-107116318D01*
X79761000Y-106883682D01*
X79715614Y-106655515D01*
X79626588Y-106440587D01*
X79497342Y-106247157D01*
X79332843Y-106082658D01*
X79139413Y-105953412D01*
X78924485Y-105864386D01*
X78696318Y-105819000D01*
X78463682Y-105819000D01*
X78433603Y-105824983D01*
X78373015Y-105792598D01*
X78229378Y-105749026D01*
X78117426Y-105738000D01*
X78117423Y-105738000D01*
X78080000Y-105734314D01*
X78042577Y-105738000D01*
X77791473Y-105738000D01*
X76053473Y-104000000D01*
X102138044Y-104000000D01*
X102161812Y-104241318D01*
X102232202Y-104473363D01*
X102346509Y-104687216D01*
X102500340Y-104874660D01*
X102687784Y-105028491D01*
X102901637Y-105142798D01*
X103133682Y-105213188D01*
X103314528Y-105231000D01*
X103685472Y-105231000D01*
X103866318Y-105213188D01*
X104098363Y-105142798D01*
X104312216Y-105028491D01*
X104499660Y-104874660D01*
X104653491Y-104687216D01*
X104767798Y-104473363D01*
X104838188Y-104241318D01*
X104861956Y-104000000D01*
X110638044Y-104000000D01*
X110661812Y-104241318D01*
X110732202Y-104473363D01*
X110846509Y-104687216D01*
X111000340Y-104874660D01*
X111187784Y-105028491D01*
X111401637Y-105142798D01*
X111633682Y-105213188D01*
X111814528Y-105231000D01*
X112185472Y-105231000D01*
X112366318Y-105213188D01*
X112598363Y-105142798D01*
X112812216Y-105028491D01*
X112999660Y-104874660D01*
X113153491Y-104687216D01*
X113267798Y-104473363D01*
X113338188Y-104241318D01*
X113361956Y-104000000D01*
X113338188Y-103758682D01*
X113267798Y-103526637D01*
X113153491Y-103312784D01*
X112999660Y-103125340D01*
X112812216Y-102971509D01*
X112598363Y-102857202D01*
X112366318Y-102786812D01*
X112185472Y-102769000D01*
X111814528Y-102769000D01*
X111633682Y-102786812D01*
X111401637Y-102857202D01*
X111187784Y-102971509D01*
X111000340Y-103125340D01*
X110846509Y-103312784D01*
X110732202Y-103526637D01*
X110661812Y-103758682D01*
X110638044Y-104000000D01*
X104861956Y-104000000D01*
X104838188Y-103758682D01*
X104767798Y-103526637D01*
X104653491Y-103312784D01*
X104499660Y-103125340D01*
X104312216Y-102971509D01*
X104098363Y-102857202D01*
X103866318Y-102786812D01*
X103685472Y-102769000D01*
X103314528Y-102769000D01*
X103133682Y-102786812D01*
X102901637Y-102857202D01*
X102687784Y-102971509D01*
X102500340Y-103125340D01*
X102346509Y-103312784D01*
X102232202Y-103526637D01*
X102161812Y-103758682D01*
X102138044Y-104000000D01*
X76053473Y-104000000D01*
X71703473Y-99650000D01*
X74767157Y-99650000D01*
X74767157Y-101350000D01*
X74774513Y-101424689D01*
X74796299Y-101496508D01*
X74831678Y-101562696D01*
X74879289Y-101620711D01*
X74937304Y-101668322D01*
X75003492Y-101703701D01*
X75075311Y-101725487D01*
X75150000Y-101732843D01*
X76850000Y-101732843D01*
X76924689Y-101725487D01*
X76996508Y-101703701D01*
X77062696Y-101668322D01*
X77120711Y-101620711D01*
X77168322Y-101562696D01*
X77203701Y-101496508D01*
X77225487Y-101424689D01*
X77232843Y-101350000D01*
X77232843Y-100378757D01*
X77309000Y-100378757D01*
X77309000Y-100621243D01*
X77356307Y-100859069D01*
X77449102Y-101083097D01*
X77583820Y-101284717D01*
X77755283Y-101456180D01*
X77956903Y-101590898D01*
X78180931Y-101683693D01*
X78418757Y-101731000D01*
X78661243Y-101731000D01*
X78899069Y-101683693D01*
X79123097Y-101590898D01*
X79324717Y-101456180D01*
X79496180Y-101284717D01*
X79630898Y-101083097D01*
X79723693Y-100859069D01*
X79771000Y-100621243D01*
X79771000Y-100378757D01*
X79849000Y-100378757D01*
X79849000Y-100621243D01*
X79896307Y-100859069D01*
X79989102Y-101083097D01*
X80123820Y-101284717D01*
X80295283Y-101456180D01*
X80496903Y-101590898D01*
X80720931Y-101683693D01*
X80958757Y-101731000D01*
X81201243Y-101731000D01*
X81439069Y-101683693D01*
X81663097Y-101590898D01*
X81799135Y-101500000D01*
X102138044Y-101500000D01*
X102161812Y-101741318D01*
X102232202Y-101973363D01*
X102346509Y-102187216D01*
X102500340Y-102374660D01*
X102687784Y-102528491D01*
X102901637Y-102642798D01*
X103133682Y-102713188D01*
X103314528Y-102731000D01*
X103685472Y-102731000D01*
X103866318Y-102713188D01*
X104098363Y-102642798D01*
X104312216Y-102528491D01*
X104499660Y-102374660D01*
X104653491Y-102187216D01*
X104767798Y-101973363D01*
X104838188Y-101741318D01*
X104861956Y-101500000D01*
X110638044Y-101500000D01*
X110661812Y-101741318D01*
X110732202Y-101973363D01*
X110846509Y-102187216D01*
X111000340Y-102374660D01*
X111187784Y-102528491D01*
X111401637Y-102642798D01*
X111633682Y-102713188D01*
X111814528Y-102731000D01*
X112185472Y-102731000D01*
X112366318Y-102713188D01*
X112598363Y-102642798D01*
X112812216Y-102528491D01*
X112999660Y-102374660D01*
X113153491Y-102187216D01*
X113267798Y-101973363D01*
X113338188Y-101741318D01*
X113361956Y-101500000D01*
X113338188Y-101258682D01*
X113267798Y-101026637D01*
X113153491Y-100812784D01*
X112999660Y-100625340D01*
X112812216Y-100471509D01*
X112598363Y-100357202D01*
X112366318Y-100286812D01*
X112185472Y-100269000D01*
X111814528Y-100269000D01*
X111633682Y-100286812D01*
X111401637Y-100357202D01*
X111187784Y-100471509D01*
X111000340Y-100625340D01*
X110846509Y-100812784D01*
X110732202Y-101026637D01*
X110661812Y-101258682D01*
X110638044Y-101500000D01*
X104861956Y-101500000D01*
X104838188Y-101258682D01*
X104767798Y-101026637D01*
X104653491Y-100812784D01*
X104499660Y-100625340D01*
X104312216Y-100471509D01*
X104098363Y-100357202D01*
X103866318Y-100286812D01*
X103685472Y-100269000D01*
X103314528Y-100269000D01*
X103133682Y-100286812D01*
X102901637Y-100357202D01*
X102687784Y-100471509D01*
X102500340Y-100625340D01*
X102346509Y-100812784D01*
X102232202Y-101026637D01*
X102161812Y-101258682D01*
X102138044Y-101500000D01*
X81799135Y-101500000D01*
X81864717Y-101456180D01*
X82036180Y-101284717D01*
X82170898Y-101083097D01*
X82263693Y-100859069D01*
X82311000Y-100621243D01*
X82311000Y-100378757D01*
X82263693Y-100140931D01*
X82170898Y-99916903D01*
X82036180Y-99715283D01*
X81864717Y-99543820D01*
X81663097Y-99409102D01*
X81439069Y-99316307D01*
X81201243Y-99269000D01*
X80958757Y-99269000D01*
X80720931Y-99316307D01*
X80496903Y-99409102D01*
X80295283Y-99543820D01*
X80123820Y-99715283D01*
X79989102Y-99916903D01*
X79896307Y-100140931D01*
X79849000Y-100378757D01*
X79771000Y-100378757D01*
X79723693Y-100140931D01*
X79630898Y-99916903D01*
X79496180Y-99715283D01*
X79324717Y-99543820D01*
X79123097Y-99409102D01*
X78899069Y-99316307D01*
X78661243Y-99269000D01*
X78418757Y-99269000D01*
X78180931Y-99316307D01*
X77956903Y-99409102D01*
X77755283Y-99543820D01*
X77583820Y-99715283D01*
X77449102Y-99916903D01*
X77356307Y-100140931D01*
X77309000Y-100378757D01*
X77232843Y-100378757D01*
X77232843Y-99650000D01*
X77225487Y-99575311D01*
X77203701Y-99503492D01*
X77168322Y-99437304D01*
X77120711Y-99379289D01*
X77062696Y-99331678D01*
X76996508Y-99296299D01*
X76924689Y-99274513D01*
X76850000Y-99267157D01*
X75150000Y-99267157D01*
X75075311Y-99274513D01*
X75003492Y-99296299D01*
X74937304Y-99331678D01*
X74879289Y-99379289D01*
X74831678Y-99437304D01*
X74796299Y-99503492D01*
X74774513Y-99575311D01*
X74767157Y-99650000D01*
X71703473Y-99650000D01*
X69892230Y-97838757D01*
X74769000Y-97838757D01*
X74769000Y-98081243D01*
X74816307Y-98319069D01*
X74909102Y-98543097D01*
X75043820Y-98744717D01*
X75215283Y-98916180D01*
X75416903Y-99050898D01*
X75640931Y-99143693D01*
X75878757Y-99191000D01*
X76121243Y-99191000D01*
X76359069Y-99143693D01*
X76583097Y-99050898D01*
X76784717Y-98916180D01*
X76956180Y-98744717D01*
X77090898Y-98543097D01*
X77183693Y-98319069D01*
X77231000Y-98081243D01*
X77231000Y-97838757D01*
X77309000Y-97838757D01*
X77309000Y-98081243D01*
X77356307Y-98319069D01*
X77449102Y-98543097D01*
X77583820Y-98744717D01*
X77755283Y-98916180D01*
X77956903Y-99050898D01*
X78180931Y-99143693D01*
X78418757Y-99191000D01*
X78661243Y-99191000D01*
X78899069Y-99143693D01*
X79123097Y-99050898D01*
X79324717Y-98916180D01*
X79496180Y-98744717D01*
X79630898Y-98543097D01*
X79723693Y-98319069D01*
X79771000Y-98081243D01*
X79771000Y-97838757D01*
X79849000Y-97838757D01*
X79849000Y-98081243D01*
X79896307Y-98319069D01*
X79989102Y-98543097D01*
X80123820Y-98744717D01*
X80295283Y-98916180D01*
X80496903Y-99050898D01*
X80720931Y-99143693D01*
X80958757Y-99191000D01*
X81201243Y-99191000D01*
X81439069Y-99143693D01*
X81663097Y-99050898D01*
X81864717Y-98916180D01*
X82036180Y-98744717D01*
X82170898Y-98543097D01*
X82263693Y-98319069D01*
X82311000Y-98081243D01*
X82311000Y-97838757D01*
X82263693Y-97600931D01*
X82170898Y-97376903D01*
X82036180Y-97175283D01*
X81864717Y-97003820D01*
X81663097Y-96869102D01*
X81633615Y-96856890D01*
X101933524Y-96856890D01*
X102025648Y-97119858D01*
X102172504Y-97371193D01*
X102365571Y-97589049D01*
X102597430Y-97765053D01*
X102846890Y-97886465D01*
X102687784Y-97971509D01*
X102500340Y-98125340D01*
X102346509Y-98312784D01*
X102232202Y-98526637D01*
X102161812Y-98758682D01*
X102138044Y-99000000D01*
X102161812Y-99241318D01*
X102232202Y-99473363D01*
X102346509Y-99687216D01*
X102500340Y-99874660D01*
X102687784Y-100028491D01*
X102901637Y-100142798D01*
X103133682Y-100213188D01*
X103314528Y-100231000D01*
X103685472Y-100231000D01*
X103866318Y-100213188D01*
X104098363Y-100142798D01*
X104312216Y-100028491D01*
X104499660Y-99874660D01*
X104653491Y-99687216D01*
X104767798Y-99473363D01*
X104838188Y-99241318D01*
X104861956Y-99000000D01*
X104838188Y-98758682D01*
X104767798Y-98526637D01*
X104653491Y-98312784D01*
X104499660Y-98125340D01*
X104312216Y-97971509D01*
X104153110Y-97886465D01*
X104402570Y-97765053D01*
X104634429Y-97589049D01*
X104827496Y-97371193D01*
X104974352Y-97119858D01*
X105066476Y-96856890D01*
X110433524Y-96856890D01*
X110525648Y-97119858D01*
X110672504Y-97371193D01*
X110865571Y-97589049D01*
X111097430Y-97765053D01*
X111346890Y-97886465D01*
X111187784Y-97971509D01*
X111000340Y-98125340D01*
X110846509Y-98312784D01*
X110732202Y-98526637D01*
X110661812Y-98758682D01*
X110638044Y-99000000D01*
X110661812Y-99241318D01*
X110732202Y-99473363D01*
X110846509Y-99687216D01*
X111000340Y-99874660D01*
X111187784Y-100028491D01*
X111401637Y-100142798D01*
X111633682Y-100213188D01*
X111814528Y-100231000D01*
X112185472Y-100231000D01*
X112366318Y-100213188D01*
X112598363Y-100142798D01*
X112812216Y-100028491D01*
X112999660Y-99874660D01*
X113153491Y-99687216D01*
X113267798Y-99473363D01*
X113338188Y-99241318D01*
X113361956Y-99000000D01*
X113338188Y-98758682D01*
X113267798Y-98526637D01*
X113153491Y-98312784D01*
X112999660Y-98125340D01*
X112812216Y-97971509D01*
X112653110Y-97886465D01*
X112902570Y-97765053D01*
X113134429Y-97589049D01*
X113327496Y-97371193D01*
X113474352Y-97119858D01*
X113566476Y-96856890D01*
X113445155Y-96627000D01*
X112127000Y-96627000D01*
X112127000Y-96647000D01*
X111873000Y-96647000D01*
X111873000Y-96627000D01*
X110554845Y-96627000D01*
X110433524Y-96856890D01*
X105066476Y-96856890D01*
X104945155Y-96627000D01*
X103627000Y-96627000D01*
X103627000Y-96647000D01*
X103373000Y-96647000D01*
X103373000Y-96627000D01*
X102054845Y-96627000D01*
X101933524Y-96856890D01*
X81633615Y-96856890D01*
X81439069Y-96776307D01*
X81201243Y-96729000D01*
X80958757Y-96729000D01*
X80720931Y-96776307D01*
X80496903Y-96869102D01*
X80295283Y-97003820D01*
X80123820Y-97175283D01*
X79989102Y-97376903D01*
X79896307Y-97600931D01*
X79849000Y-97838757D01*
X79771000Y-97838757D01*
X79723693Y-97600931D01*
X79630898Y-97376903D01*
X79496180Y-97175283D01*
X79324717Y-97003820D01*
X79123097Y-96869102D01*
X78899069Y-96776307D01*
X78661243Y-96729000D01*
X78418757Y-96729000D01*
X78180931Y-96776307D01*
X77956903Y-96869102D01*
X77755283Y-97003820D01*
X77583820Y-97175283D01*
X77449102Y-97376903D01*
X77356307Y-97600931D01*
X77309000Y-97838757D01*
X77231000Y-97838757D01*
X77183693Y-97600931D01*
X77090898Y-97376903D01*
X76956180Y-97175283D01*
X76784717Y-97003820D01*
X76583097Y-96869102D01*
X76359069Y-96776307D01*
X76121243Y-96729000D01*
X75878757Y-96729000D01*
X75640931Y-96776307D01*
X75416903Y-96869102D01*
X75215283Y-97003820D01*
X75043820Y-97175283D01*
X74909102Y-97376903D01*
X74816307Y-97600931D01*
X74769000Y-97838757D01*
X69892230Y-97838757D01*
X69245010Y-97191538D01*
X69245010Y-97020433D01*
X69248696Y-96983010D01*
X69236305Y-96857202D01*
X69233984Y-96833632D01*
X69190412Y-96689995D01*
X69119656Y-96557619D01*
X69119655Y-96557617D01*
X69048289Y-96470658D01*
X69024432Y-96441588D01*
X68995363Y-96417732D01*
X68720741Y-96143110D01*
X101933524Y-96143110D01*
X102054845Y-96373000D01*
X103373000Y-96373000D01*
X103373000Y-96353000D01*
X103627000Y-96353000D01*
X103627000Y-96373000D01*
X104945155Y-96373000D01*
X105066476Y-96143110D01*
X110433524Y-96143110D01*
X110554845Y-96373000D01*
X111873000Y-96373000D01*
X111873000Y-96353000D01*
X112127000Y-96353000D01*
X112127000Y-96373000D01*
X113445155Y-96373000D01*
X113566476Y-96143110D01*
X113474352Y-95880142D01*
X113327496Y-95628807D01*
X113134429Y-95410951D01*
X112902570Y-95234947D01*
X112863740Y-95216048D01*
X112967179Y-95184671D01*
X113076589Y-95126190D01*
X113172488Y-95047488D01*
X113251190Y-94951589D01*
X113309671Y-94842179D01*
X113345683Y-94723462D01*
X113357843Y-94600000D01*
X113357843Y-93400000D01*
X113345683Y-93276538D01*
X113309671Y-93157821D01*
X113251190Y-93048411D01*
X113172488Y-92952512D01*
X113076589Y-92873810D01*
X112967179Y-92815329D01*
X112848462Y-92779317D01*
X112725000Y-92767157D01*
X111275000Y-92767157D01*
X111151538Y-92779317D01*
X111032821Y-92815329D01*
X110923411Y-92873810D01*
X110827512Y-92952512D01*
X110748810Y-93048411D01*
X110690329Y-93157821D01*
X110654317Y-93276538D01*
X110642157Y-93400000D01*
X110642157Y-94600000D01*
X110654317Y-94723462D01*
X110690329Y-94842179D01*
X110748810Y-94951589D01*
X110827512Y-95047488D01*
X110923411Y-95126190D01*
X111032821Y-95184671D01*
X111136260Y-95216048D01*
X111097430Y-95234947D01*
X110865571Y-95410951D01*
X110672504Y-95628807D01*
X110525648Y-95880142D01*
X110433524Y-96143110D01*
X105066476Y-96143110D01*
X104974352Y-95880142D01*
X104827496Y-95628807D01*
X104634429Y-95410951D01*
X104402570Y-95234947D01*
X104363740Y-95216048D01*
X104467179Y-95184671D01*
X104576589Y-95126190D01*
X104672488Y-95047488D01*
X104751190Y-94951589D01*
X104809671Y-94842179D01*
X104845683Y-94723462D01*
X104857843Y-94600000D01*
X104857843Y-93400000D01*
X104845683Y-93276538D01*
X104809671Y-93157821D01*
X104751190Y-93048411D01*
X104672488Y-92952512D01*
X104576589Y-92873810D01*
X104467179Y-92815329D01*
X104348462Y-92779317D01*
X104225000Y-92767157D01*
X102775000Y-92767157D01*
X102651538Y-92779317D01*
X102532821Y-92815329D01*
X102423411Y-92873810D01*
X102327512Y-92952512D01*
X102248810Y-93048411D01*
X102190329Y-93157821D01*
X102154317Y-93276538D01*
X102142157Y-93400000D01*
X102142157Y-94600000D01*
X102154317Y-94723462D01*
X102190329Y-94842179D01*
X102248810Y-94951589D01*
X102327512Y-95047488D01*
X102423411Y-95126190D01*
X102532821Y-95184671D01*
X102636260Y-95216048D01*
X102597430Y-95234947D01*
X102365571Y-95410951D01*
X102172504Y-95628807D01*
X102025648Y-95880142D01*
X101933524Y-96143110D01*
X68720741Y-96143110D01*
X68333710Y-95756080D01*
X68338188Y-95741318D01*
X68361956Y-95500000D01*
X68338188Y-95258682D01*
X68267798Y-95026637D01*
X68153491Y-94812784D01*
X67999660Y-94625340D01*
X67812216Y-94471509D01*
X67598363Y-94357202D01*
X67366318Y-94286812D01*
X67185472Y-94269000D01*
X66814528Y-94269000D01*
X66633682Y-94286812D01*
X66401637Y-94357202D01*
X66278990Y-94422758D01*
X66278990Y-94183682D01*
X72319000Y-94183682D01*
X72319000Y-94416318D01*
X72364386Y-94644485D01*
X72453412Y-94859413D01*
X72582658Y-95052843D01*
X72747157Y-95217342D01*
X72940587Y-95346588D01*
X73155515Y-95435614D01*
X73383682Y-95481000D01*
X73616318Y-95481000D01*
X73844485Y-95435614D01*
X74059413Y-95346588D01*
X74252843Y-95217342D01*
X74417342Y-95052843D01*
X74546588Y-94859413D01*
X74635614Y-94644485D01*
X74681000Y-94416318D01*
X74681000Y-94183682D01*
X74859000Y-94183682D01*
X74859000Y-94416318D01*
X74904386Y-94644485D01*
X74993412Y-94859413D01*
X75122658Y-95052843D01*
X75287157Y-95217342D01*
X75480587Y-95346588D01*
X75695515Y-95435614D01*
X75923682Y-95481000D01*
X76156318Y-95481000D01*
X76384485Y-95435614D01*
X76599413Y-95346588D01*
X76792843Y-95217342D01*
X76957342Y-95052843D01*
X77086588Y-94859413D01*
X77175614Y-94644485D01*
X77221000Y-94416318D01*
X77221000Y-94183682D01*
X77399000Y-94183682D01*
X77399000Y-94416318D01*
X77444386Y-94644485D01*
X77533412Y-94859413D01*
X77662658Y-95052843D01*
X77827157Y-95217342D01*
X78020587Y-95346588D01*
X78235515Y-95435614D01*
X78463682Y-95481000D01*
X78696318Y-95481000D01*
X78924485Y-95435614D01*
X79139413Y-95346588D01*
X79332843Y-95217342D01*
X79497342Y-95052843D01*
X79626588Y-94859413D01*
X79715614Y-94644485D01*
X79761000Y-94416318D01*
X79761000Y-94183682D01*
X79939000Y-94183682D01*
X79939000Y-94416318D01*
X79984386Y-94644485D01*
X80073412Y-94859413D01*
X80202658Y-95052843D01*
X80367157Y-95217342D01*
X80560587Y-95346588D01*
X80775515Y-95435614D01*
X81003682Y-95481000D01*
X81236318Y-95481000D01*
X81464485Y-95435614D01*
X81679413Y-95346588D01*
X81872843Y-95217342D01*
X82037342Y-95052843D01*
X82166588Y-94859413D01*
X82255614Y-94644485D01*
X82301000Y-94416318D01*
X82301000Y-94183682D01*
X82479000Y-94183682D01*
X82479000Y-94416318D01*
X82524386Y-94644485D01*
X82613412Y-94859413D01*
X82742658Y-95052843D01*
X82907157Y-95217342D01*
X83100587Y-95346588D01*
X83315515Y-95435614D01*
X83543682Y-95481000D01*
X83776318Y-95481000D01*
X84004485Y-95435614D01*
X84219413Y-95346588D01*
X84412843Y-95217342D01*
X84577342Y-95052843D01*
X84706588Y-94859413D01*
X84795614Y-94644485D01*
X84841000Y-94416318D01*
X84841000Y-94183682D01*
X85019000Y-94183682D01*
X85019000Y-94416318D01*
X85064386Y-94644485D01*
X85153412Y-94859413D01*
X85282658Y-95052843D01*
X85447157Y-95217342D01*
X85640587Y-95346588D01*
X85855515Y-95435614D01*
X86083682Y-95481000D01*
X86316318Y-95481000D01*
X86544485Y-95435614D01*
X86759413Y-95346588D01*
X86952843Y-95217342D01*
X87117342Y-95052843D01*
X87246588Y-94859413D01*
X87335614Y-94644485D01*
X87381000Y-94416318D01*
X87381000Y-94183682D01*
X87559000Y-94183682D01*
X87559000Y-94416318D01*
X87604386Y-94644485D01*
X87693412Y-94859413D01*
X87822658Y-95052843D01*
X87987157Y-95217342D01*
X88180587Y-95346588D01*
X88395515Y-95435614D01*
X88623682Y-95481000D01*
X88856318Y-95481000D01*
X89084485Y-95435614D01*
X89299413Y-95346588D01*
X89492843Y-95217342D01*
X89657342Y-95052843D01*
X89786588Y-94859413D01*
X89875614Y-94644485D01*
X89921000Y-94416318D01*
X89921000Y-94183682D01*
X90099000Y-94183682D01*
X90099000Y-94416318D01*
X90144386Y-94644485D01*
X90233412Y-94859413D01*
X90362658Y-95052843D01*
X90527157Y-95217342D01*
X90720587Y-95346588D01*
X90935515Y-95435614D01*
X91163682Y-95481000D01*
X91396318Y-95481000D01*
X91624485Y-95435614D01*
X91839413Y-95346588D01*
X92032843Y-95217342D01*
X92197342Y-95052843D01*
X92326588Y-94859413D01*
X92415614Y-94644485D01*
X92461000Y-94416318D01*
X92461000Y-94183682D01*
X92415614Y-93955515D01*
X92326588Y-93740587D01*
X92197342Y-93547157D01*
X92032843Y-93382658D01*
X91839413Y-93253412D01*
X91624485Y-93164386D01*
X91396318Y-93119000D01*
X91163682Y-93119000D01*
X90935515Y-93164386D01*
X90720587Y-93253412D01*
X90527157Y-93382658D01*
X90362658Y-93547157D01*
X90233412Y-93740587D01*
X90144386Y-93955515D01*
X90099000Y-94183682D01*
X89921000Y-94183682D01*
X89875614Y-93955515D01*
X89786588Y-93740587D01*
X89657342Y-93547157D01*
X89492843Y-93382658D01*
X89299413Y-93253412D01*
X89084485Y-93164386D01*
X88856318Y-93119000D01*
X88623682Y-93119000D01*
X88395515Y-93164386D01*
X88180587Y-93253412D01*
X87987157Y-93382658D01*
X87822658Y-93547157D01*
X87693412Y-93740587D01*
X87604386Y-93955515D01*
X87559000Y-94183682D01*
X87381000Y-94183682D01*
X87335614Y-93955515D01*
X87246588Y-93740587D01*
X87117342Y-93547157D01*
X86952843Y-93382658D01*
X86759413Y-93253412D01*
X86544485Y-93164386D01*
X86316318Y-93119000D01*
X86083682Y-93119000D01*
X85855515Y-93164386D01*
X85640587Y-93253412D01*
X85447157Y-93382658D01*
X85282658Y-93547157D01*
X85153412Y-93740587D01*
X85064386Y-93955515D01*
X85019000Y-94183682D01*
X84841000Y-94183682D01*
X84795614Y-93955515D01*
X84706588Y-93740587D01*
X84577342Y-93547157D01*
X84412843Y-93382658D01*
X84219413Y-93253412D01*
X84004485Y-93164386D01*
X83776318Y-93119000D01*
X83543682Y-93119000D01*
X83315515Y-93164386D01*
X83100587Y-93253412D01*
X82907157Y-93382658D01*
X82742658Y-93547157D01*
X82613412Y-93740587D01*
X82524386Y-93955515D01*
X82479000Y-94183682D01*
X82301000Y-94183682D01*
X82255614Y-93955515D01*
X82166588Y-93740587D01*
X82037342Y-93547157D01*
X81872843Y-93382658D01*
X81679413Y-93253412D01*
X81464485Y-93164386D01*
X81236318Y-93119000D01*
X81003682Y-93119000D01*
X80775515Y-93164386D01*
X80560587Y-93253412D01*
X80367157Y-93382658D01*
X80202658Y-93547157D01*
X80073412Y-93740587D01*
X79984386Y-93955515D01*
X79939000Y-94183682D01*
X79761000Y-94183682D01*
X79715614Y-93955515D01*
X79626588Y-93740587D01*
X79497342Y-93547157D01*
X79332843Y-93382658D01*
X79139413Y-93253412D01*
X78924485Y-93164386D01*
X78696318Y-93119000D01*
X78463682Y-93119000D01*
X78235515Y-93164386D01*
X78020587Y-93253412D01*
X77827157Y-93382658D01*
X77662658Y-93547157D01*
X77533412Y-93740587D01*
X77444386Y-93955515D01*
X77399000Y-94183682D01*
X77221000Y-94183682D01*
X77175614Y-93955515D01*
X77086588Y-93740587D01*
X76957342Y-93547157D01*
X76792843Y-93382658D01*
X76599413Y-93253412D01*
X76384485Y-93164386D01*
X76156318Y-93119000D01*
X75923682Y-93119000D01*
X75695515Y-93164386D01*
X75480587Y-93253412D01*
X75287157Y-93382658D01*
X75122658Y-93547157D01*
X74993412Y-93740587D01*
X74904386Y-93955515D01*
X74859000Y-94183682D01*
X74681000Y-94183682D01*
X74635614Y-93955515D01*
X74546588Y-93740587D01*
X74417342Y-93547157D01*
X74252843Y-93382658D01*
X74059413Y-93253412D01*
X73844485Y-93164386D01*
X73616318Y-93119000D01*
X73383682Y-93119000D01*
X73155515Y-93164386D01*
X72940587Y-93253412D01*
X72747157Y-93382658D01*
X72582658Y-93547157D01*
X72453412Y-93740587D01*
X72364386Y-93955515D01*
X72319000Y-94183682D01*
X66278990Y-94183682D01*
X66278990Y-87753610D01*
X68817731Y-90292352D01*
X68841588Y-90321422D01*
X68870658Y-90345279D01*
X68957617Y-90416645D01*
X69028374Y-90454465D01*
X69089995Y-90487402D01*
X69233632Y-90530974D01*
X69345584Y-90542000D01*
X69345587Y-90542000D01*
X69383010Y-90545686D01*
X69420433Y-90542000D01*
X72591815Y-90542000D01*
X72747157Y-90697342D01*
X72940587Y-90826588D01*
X73155515Y-90915614D01*
X73383682Y-90961000D01*
X73616318Y-90961000D01*
X73844485Y-90915614D01*
X74059413Y-90826588D01*
X74252843Y-90697342D01*
X74417342Y-90532843D01*
X74546588Y-90339413D01*
X74635614Y-90124485D01*
X74681000Y-89896318D01*
X74681000Y-89663682D01*
X85019000Y-89663682D01*
X85019000Y-89896318D01*
X85064386Y-90124485D01*
X85153412Y-90339413D01*
X85282658Y-90532843D01*
X85447157Y-90697342D01*
X85640587Y-90826588D01*
X85855515Y-90915614D01*
X86083682Y-90961000D01*
X86316318Y-90961000D01*
X86544485Y-90915614D01*
X86759413Y-90826588D01*
X86952843Y-90697342D01*
X87117342Y-90532843D01*
X87246588Y-90339413D01*
X87335614Y-90124485D01*
X87381000Y-89896318D01*
X87381000Y-89663682D01*
X87335614Y-89435515D01*
X87246588Y-89220587D01*
X87117342Y-89027157D01*
X86952843Y-88862658D01*
X86759413Y-88733412D01*
X86544485Y-88644386D01*
X86316318Y-88599000D01*
X86083682Y-88599000D01*
X85855515Y-88644386D01*
X85640587Y-88733412D01*
X85447157Y-88862658D01*
X85282658Y-89027157D01*
X85153412Y-89220587D01*
X85064386Y-89435515D01*
X85019000Y-89663682D01*
X74681000Y-89663682D01*
X74635614Y-89435515D01*
X74546588Y-89220587D01*
X74417342Y-89027157D01*
X74252843Y-88862658D01*
X74059413Y-88733412D01*
X73844485Y-88644386D01*
X73627002Y-88601125D01*
X73627002Y-88510625D01*
X73849040Y-88631909D01*
X74113881Y-88537070D01*
X74355131Y-88392385D01*
X74563519Y-88203414D01*
X74731037Y-87977420D01*
X74851246Y-87723087D01*
X74891904Y-87589039D01*
X74769915Y-87367000D01*
X73627000Y-87367000D01*
X73627000Y-87387000D01*
X73373000Y-87387000D01*
X73373000Y-87367000D01*
X72230085Y-87367000D01*
X72108096Y-87589039D01*
X72148754Y-87723087D01*
X72268963Y-87977420D01*
X72436481Y-88203414D01*
X72644869Y-88392385D01*
X72886119Y-88537070D01*
X73150960Y-88631909D01*
X73372998Y-88510625D01*
X73372998Y-88601125D01*
X73155515Y-88644386D01*
X72940587Y-88733412D01*
X72747157Y-88862658D01*
X72591815Y-89018000D01*
X69698641Y-89018000D01*
X67804323Y-87123682D01*
X85019000Y-87123682D01*
X85019000Y-87356318D01*
X85064386Y-87584485D01*
X85153412Y-87799413D01*
X85282658Y-87992843D01*
X85447157Y-88157342D01*
X85640587Y-88286588D01*
X85855515Y-88375614D01*
X86083682Y-88421000D01*
X86316318Y-88421000D01*
X86544485Y-88375614D01*
X86759413Y-88286588D01*
X86952843Y-88157342D01*
X87117342Y-87992843D01*
X87246588Y-87799413D01*
X87335614Y-87584485D01*
X87381000Y-87356318D01*
X87381000Y-87123682D01*
X87335614Y-86895515D01*
X87246588Y-86680587D01*
X87117342Y-86487157D01*
X86952843Y-86322658D01*
X86759413Y-86193412D01*
X86544485Y-86104386D01*
X86316318Y-86059000D01*
X86083682Y-86059000D01*
X85855515Y-86104386D01*
X85640587Y-86193412D01*
X85447157Y-86322658D01*
X85282658Y-86487157D01*
X85153412Y-86680587D01*
X85064386Y-86895515D01*
X85019000Y-87123682D01*
X67804323Y-87123682D01*
X66913483Y-86232843D01*
X67725000Y-86232843D01*
X67848462Y-86220683D01*
X67967179Y-86184671D01*
X68076589Y-86126190D01*
X68172488Y-86047488D01*
X68251190Y-85951589D01*
X68309671Y-85842179D01*
X68333993Y-85762000D01*
X72977795Y-85762000D01*
X73155515Y-85835614D01*
X73372998Y-85878875D01*
X73372998Y-85969375D01*
X73150960Y-85848091D01*
X72886119Y-85942930D01*
X72644869Y-86087615D01*
X72436481Y-86276586D01*
X72268963Y-86502580D01*
X72148754Y-86756913D01*
X72108096Y-86890961D01*
X72230085Y-87113000D01*
X73373000Y-87113000D01*
X73373000Y-87093000D01*
X73627000Y-87093000D01*
X73627000Y-87113000D01*
X74769915Y-87113000D01*
X74891904Y-86890961D01*
X74851246Y-86756913D01*
X74731037Y-86502580D01*
X74563519Y-86276586D01*
X74355131Y-86087615D01*
X74113881Y-85942930D01*
X73849040Y-85848091D01*
X73627002Y-85969375D01*
X73627002Y-85878875D01*
X73844485Y-85835614D01*
X74059413Y-85746588D01*
X74252843Y-85617342D01*
X74417342Y-85452843D01*
X74546588Y-85259413D01*
X74635614Y-85044485D01*
X74681000Y-84816318D01*
X74681000Y-84583682D01*
X85019000Y-84583682D01*
X85019000Y-84816318D01*
X85064386Y-85044485D01*
X85153412Y-85259413D01*
X85282658Y-85452843D01*
X85447157Y-85617342D01*
X85640587Y-85746588D01*
X85855515Y-85835614D01*
X86083682Y-85881000D01*
X86316318Y-85881000D01*
X86544485Y-85835614D01*
X86759413Y-85746588D01*
X86952843Y-85617342D01*
X87117342Y-85452843D01*
X87246588Y-85259413D01*
X87335614Y-85044485D01*
X87381000Y-84816318D01*
X87381000Y-84583682D01*
X87335614Y-84355515D01*
X87246588Y-84140587D01*
X87117342Y-83947157D01*
X86952843Y-83782658D01*
X86759413Y-83653412D01*
X86544485Y-83564386D01*
X86316318Y-83519000D01*
X86083682Y-83519000D01*
X85855515Y-83564386D01*
X85640587Y-83653412D01*
X85447157Y-83782658D01*
X85282658Y-83947157D01*
X85153412Y-84140587D01*
X85064386Y-84355515D01*
X85019000Y-84583682D01*
X74681000Y-84583682D01*
X74635614Y-84355515D01*
X74546588Y-84140587D01*
X74417342Y-83947157D01*
X74252843Y-83782658D01*
X74059413Y-83653412D01*
X73844485Y-83564386D01*
X73616318Y-83519000D01*
X73383682Y-83519000D01*
X73155515Y-83564386D01*
X72940587Y-83653412D01*
X72747157Y-83782658D01*
X72582658Y-83947157D01*
X72453412Y-84140587D01*
X72413062Y-84238000D01*
X68333993Y-84238000D01*
X68309671Y-84157821D01*
X68251190Y-84048411D01*
X68172488Y-83952512D01*
X68076589Y-83873810D01*
X67967179Y-83815329D01*
X67848462Y-83779317D01*
X67725000Y-83767157D01*
X66278990Y-83767157D01*
X66278990Y-83577242D01*
X66401637Y-83642798D01*
X66633682Y-83713188D01*
X66814528Y-83731000D01*
X67185472Y-83731000D01*
X67366318Y-83713188D01*
X67598363Y-83642798D01*
X67812216Y-83528491D01*
X67999660Y-83374660D01*
X68092117Y-83262000D01*
X73074364Y-83262000D01*
X73155515Y-83295614D01*
X73383682Y-83341000D01*
X73616318Y-83341000D01*
X73844485Y-83295614D01*
X74059413Y-83206588D01*
X74252843Y-83077342D01*
X74417342Y-82912843D01*
X74546588Y-82719413D01*
X74635614Y-82504485D01*
X74681000Y-82276318D01*
X74681000Y-82043682D01*
X74635614Y-81815515D01*
X74546588Y-81600587D01*
X74417342Y-81407157D01*
X74252843Y-81242658D01*
X74059413Y-81113412D01*
X73844485Y-81024386D01*
X73616318Y-80979000D01*
X73383682Y-80979000D01*
X73155515Y-81024386D01*
X72940587Y-81113412D01*
X72747157Y-81242658D01*
X72582658Y-81407157D01*
X72453412Y-81600587D01*
X72396494Y-81738000D01*
X68092117Y-81738000D01*
X67999660Y-81625340D01*
X67812216Y-81471509D01*
X67598363Y-81357202D01*
X67366318Y-81286812D01*
X67185472Y-81269000D01*
X66814528Y-81269000D01*
X66633682Y-81286812D01*
X66401637Y-81357202D01*
X66278990Y-81422758D01*
X66278990Y-81077242D01*
X66401637Y-81142798D01*
X66633682Y-81213188D01*
X66814528Y-81231000D01*
X67185472Y-81231000D01*
X67366318Y-81213188D01*
X67598363Y-81142798D01*
X67812216Y-81028491D01*
X67897187Y-80958757D01*
X78769000Y-80958757D01*
X78769000Y-81201243D01*
X78816307Y-81439069D01*
X78909102Y-81663097D01*
X79043820Y-81864717D01*
X79215283Y-82036180D01*
X79416903Y-82170898D01*
X79640931Y-82263693D01*
X79878757Y-82311000D01*
X80121243Y-82311000D01*
X80359069Y-82263693D01*
X80583097Y-82170898D01*
X80784717Y-82036180D01*
X80956180Y-81864717D01*
X81090898Y-81663097D01*
X81183693Y-81439069D01*
X81231000Y-81201243D01*
X81231000Y-80958757D01*
X81309000Y-80958757D01*
X81309000Y-81201243D01*
X81356307Y-81439069D01*
X81449102Y-81663097D01*
X81583820Y-81864717D01*
X81755283Y-82036180D01*
X81956903Y-82170898D01*
X82180931Y-82263693D01*
X82418757Y-82311000D01*
X82661243Y-82311000D01*
X82899069Y-82263693D01*
X83123097Y-82170898D01*
X83313489Y-82043682D01*
X85019000Y-82043682D01*
X85019000Y-82276318D01*
X85064386Y-82504485D01*
X85153412Y-82719413D01*
X85282658Y-82912843D01*
X85447157Y-83077342D01*
X85640587Y-83206588D01*
X85855515Y-83295614D01*
X86083682Y-83341000D01*
X86316318Y-83341000D01*
X86544485Y-83295614D01*
X86759413Y-83206588D01*
X86952843Y-83077342D01*
X87117342Y-82912843D01*
X87246588Y-82719413D01*
X87335614Y-82504485D01*
X87381000Y-82276318D01*
X87381000Y-82043682D01*
X87335614Y-81815515D01*
X87246588Y-81600587D01*
X87117342Y-81407157D01*
X86952843Y-81242658D01*
X86759413Y-81113412D01*
X86544485Y-81024386D01*
X86421891Y-81000000D01*
X111239254Y-81000000D01*
X111258195Y-81192310D01*
X111314289Y-81377229D01*
X111405382Y-81547651D01*
X111527972Y-81697028D01*
X111677349Y-81819618D01*
X111847771Y-81910711D01*
X112032690Y-81966805D01*
X112176813Y-81981000D01*
X112823187Y-81981000D01*
X112967310Y-81966805D01*
X113152229Y-81910711D01*
X113322651Y-81819618D01*
X113472028Y-81697028D01*
X113594618Y-81547651D01*
X113685711Y-81377229D01*
X113741805Y-81192310D01*
X113760746Y-81000000D01*
X113741805Y-80807690D01*
X113685711Y-80622771D01*
X113594618Y-80452349D01*
X113472028Y-80302972D01*
X113322651Y-80180382D01*
X113152229Y-80089289D01*
X112967310Y-80033195D01*
X112823187Y-80019000D01*
X112176813Y-80019000D01*
X112032690Y-80033195D01*
X111847771Y-80089289D01*
X111677349Y-80180382D01*
X111527972Y-80302972D01*
X111405382Y-80452349D01*
X111314289Y-80622771D01*
X111258195Y-80807690D01*
X111239254Y-81000000D01*
X86421891Y-81000000D01*
X86316318Y-80979000D01*
X86083682Y-80979000D01*
X85855515Y-81024386D01*
X85640587Y-81113412D01*
X85447157Y-81242658D01*
X85282658Y-81407157D01*
X85153412Y-81600587D01*
X85064386Y-81815515D01*
X85019000Y-82043682D01*
X83313489Y-82043682D01*
X83324717Y-82036180D01*
X83496180Y-81864717D01*
X83630898Y-81663097D01*
X83723693Y-81439069D01*
X83771000Y-81201243D01*
X83771000Y-80958757D01*
X83723693Y-80720931D01*
X83630898Y-80496903D01*
X83496180Y-80295283D01*
X83324717Y-80123820D01*
X83123097Y-79989102D01*
X82899069Y-79896307D01*
X82661243Y-79849000D01*
X82418757Y-79849000D01*
X82180931Y-79896307D01*
X81956903Y-79989102D01*
X81755283Y-80123820D01*
X81583820Y-80295283D01*
X81449102Y-80496903D01*
X81356307Y-80720931D01*
X81309000Y-80958757D01*
X81231000Y-80958757D01*
X81183693Y-80720931D01*
X81090898Y-80496903D01*
X80956180Y-80295283D01*
X80784717Y-80123820D01*
X80583097Y-79989102D01*
X80359069Y-79896307D01*
X80121243Y-79849000D01*
X79878757Y-79849000D01*
X79640931Y-79896307D01*
X79416903Y-79989102D01*
X79215283Y-80123820D01*
X79043820Y-80295283D01*
X78909102Y-80496903D01*
X78816307Y-80720931D01*
X78769000Y-80958757D01*
X67897187Y-80958757D01*
X67999660Y-80874660D01*
X68092117Y-80762000D01*
X73082577Y-80762000D01*
X73120000Y-80765686D01*
X73157423Y-80762000D01*
X73157426Y-80762000D01*
X73177620Y-80760011D01*
X73383682Y-80801000D01*
X73616318Y-80801000D01*
X73844485Y-80755614D01*
X74059413Y-80666588D01*
X74252843Y-80537342D01*
X74417342Y-80372843D01*
X74546588Y-80179413D01*
X74635614Y-79964485D01*
X74681000Y-79736318D01*
X74681000Y-79503682D01*
X74635614Y-79275515D01*
X74546588Y-79060587D01*
X74417342Y-78867157D01*
X74252843Y-78702658D01*
X74059413Y-78573412D01*
X73844485Y-78484386D01*
X73616318Y-78439000D01*
X73383682Y-78439000D01*
X73155515Y-78484386D01*
X72940587Y-78573412D01*
X72747157Y-78702658D01*
X72582658Y-78867157D01*
X72453412Y-79060587D01*
X72379925Y-79238000D01*
X68092117Y-79238000D01*
X67999660Y-79125340D01*
X67812216Y-78971509D01*
X67598363Y-78857202D01*
X67366318Y-78786812D01*
X67185472Y-78769000D01*
X66814528Y-78769000D01*
X66633682Y-78786812D01*
X66401637Y-78857202D01*
X66278990Y-78922758D01*
X66278990Y-78577242D01*
X66401637Y-78642798D01*
X66633682Y-78713188D01*
X66814528Y-78731000D01*
X67185472Y-78731000D01*
X67366318Y-78713188D01*
X67598363Y-78642798D01*
X67812216Y-78528491D01*
X67945927Y-78418757D01*
X78769000Y-78418757D01*
X78769000Y-78661243D01*
X78816307Y-78899069D01*
X78909102Y-79123097D01*
X79043820Y-79324717D01*
X79215283Y-79496180D01*
X79416903Y-79630898D01*
X79640931Y-79723693D01*
X79878757Y-79771000D01*
X80121243Y-79771000D01*
X80359069Y-79723693D01*
X80583097Y-79630898D01*
X80784717Y-79496180D01*
X80956180Y-79324717D01*
X81090898Y-79123097D01*
X81183693Y-78899069D01*
X81231000Y-78661243D01*
X81231000Y-78418757D01*
X81309000Y-78418757D01*
X81309000Y-78661243D01*
X81356307Y-78899069D01*
X81449102Y-79123097D01*
X81583820Y-79324717D01*
X81755283Y-79496180D01*
X81956903Y-79630898D01*
X82180931Y-79723693D01*
X82418757Y-79771000D01*
X82661243Y-79771000D01*
X82899069Y-79723693D01*
X83123097Y-79630898D01*
X83313489Y-79503682D01*
X85019000Y-79503682D01*
X85019000Y-79736318D01*
X85064386Y-79964485D01*
X85153412Y-80179413D01*
X85282658Y-80372843D01*
X85447157Y-80537342D01*
X85640587Y-80666588D01*
X85855515Y-80755614D01*
X86083682Y-80801000D01*
X86316318Y-80801000D01*
X86544485Y-80755614D01*
X86759413Y-80666588D01*
X86952843Y-80537342D01*
X87117342Y-80372843D01*
X87246588Y-80179413D01*
X87335614Y-79964485D01*
X87381000Y-79736318D01*
X87381000Y-79503682D01*
X87335614Y-79275515D01*
X87246588Y-79060587D01*
X87206105Y-79000000D01*
X111239254Y-79000000D01*
X111258195Y-79192310D01*
X111314289Y-79377229D01*
X111405382Y-79547651D01*
X111527972Y-79697028D01*
X111677349Y-79819618D01*
X111847771Y-79910711D01*
X112032690Y-79966805D01*
X112176813Y-79981000D01*
X112823187Y-79981000D01*
X112967310Y-79966805D01*
X113152229Y-79910711D01*
X113322651Y-79819618D01*
X113472028Y-79697028D01*
X113594618Y-79547651D01*
X113685711Y-79377229D01*
X113741805Y-79192310D01*
X113760746Y-79000000D01*
X113741805Y-78807690D01*
X113685711Y-78622771D01*
X113594618Y-78452349D01*
X113472028Y-78302972D01*
X113322651Y-78180382D01*
X113152229Y-78089289D01*
X112967310Y-78033195D01*
X112823187Y-78019000D01*
X112176813Y-78019000D01*
X112032690Y-78033195D01*
X111847771Y-78089289D01*
X111677349Y-78180382D01*
X111527972Y-78302972D01*
X111405382Y-78452349D01*
X111314289Y-78622771D01*
X111258195Y-78807690D01*
X111239254Y-79000000D01*
X87206105Y-79000000D01*
X87117342Y-78867157D01*
X86952843Y-78702658D01*
X86759413Y-78573412D01*
X86544485Y-78484386D01*
X86316318Y-78439000D01*
X86083682Y-78439000D01*
X85855515Y-78484386D01*
X85640587Y-78573412D01*
X85447157Y-78702658D01*
X85282658Y-78867157D01*
X85153412Y-79060587D01*
X85064386Y-79275515D01*
X85019000Y-79503682D01*
X83313489Y-79503682D01*
X83324717Y-79496180D01*
X83496180Y-79324717D01*
X83630898Y-79123097D01*
X83723693Y-78899069D01*
X83771000Y-78661243D01*
X83771000Y-78418757D01*
X83723693Y-78180931D01*
X83630898Y-77956903D01*
X83496180Y-77755283D01*
X83324717Y-77583820D01*
X83123097Y-77449102D01*
X82899069Y-77356307D01*
X82661243Y-77309000D01*
X82418757Y-77309000D01*
X82180931Y-77356307D01*
X81956903Y-77449102D01*
X81755283Y-77583820D01*
X81583820Y-77755283D01*
X81449102Y-77956903D01*
X81356307Y-78180931D01*
X81309000Y-78418757D01*
X81231000Y-78418757D01*
X81183693Y-78180931D01*
X81090898Y-77956903D01*
X80956180Y-77755283D01*
X80784717Y-77583820D01*
X80583097Y-77449102D01*
X80359069Y-77356307D01*
X80121243Y-77309000D01*
X79878757Y-77309000D01*
X79640931Y-77356307D01*
X79416903Y-77449102D01*
X79215283Y-77583820D01*
X79043820Y-77755283D01*
X78909102Y-77956903D01*
X78816307Y-78180931D01*
X78769000Y-78418757D01*
X67945927Y-78418757D01*
X67999660Y-78374660D01*
X68092117Y-78262000D01*
X73042577Y-78262000D01*
X73080000Y-78265686D01*
X73117423Y-78262000D01*
X73117426Y-78262000D01*
X73229378Y-78250974D01*
X73270527Y-78238492D01*
X73383682Y-78261000D01*
X73616318Y-78261000D01*
X73844485Y-78215614D01*
X74059413Y-78126588D01*
X74252843Y-77997342D01*
X74417342Y-77832843D01*
X74546588Y-77639413D01*
X74635614Y-77424485D01*
X74681000Y-77196318D01*
X74681000Y-76963682D01*
X74635614Y-76735515D01*
X74546588Y-76520587D01*
X74417342Y-76327157D01*
X74252843Y-76162658D01*
X74059413Y-76033412D01*
X73844485Y-75944386D01*
X73616318Y-75899000D01*
X73383682Y-75899000D01*
X73155515Y-75944386D01*
X72940587Y-76033412D01*
X72747157Y-76162658D01*
X72582658Y-76327157D01*
X72453412Y-76520587D01*
X72364386Y-76735515D01*
X72363892Y-76738000D01*
X68092117Y-76738000D01*
X67999660Y-76625340D01*
X67812216Y-76471509D01*
X67598363Y-76357202D01*
X67366318Y-76286812D01*
X67185472Y-76269000D01*
X66814528Y-76269000D01*
X66633682Y-76286812D01*
X66401637Y-76357202D01*
X66278990Y-76422758D01*
X66278990Y-72800000D01*
X72061928Y-72800000D01*
X72074188Y-72924482D01*
X72110498Y-73044180D01*
X72169463Y-73154494D01*
X72248815Y-73251185D01*
X72345506Y-73330537D01*
X72455820Y-73389502D01*
X72575518Y-73425812D01*
X72700000Y-73438072D01*
X73079665Y-73435804D01*
X72940587Y-73493412D01*
X72747157Y-73622658D01*
X72582658Y-73787157D01*
X72453412Y-73980587D01*
X72364386Y-74195515D01*
X72319000Y-74423682D01*
X72319000Y-74656318D01*
X72364386Y-74884485D01*
X72453412Y-75099413D01*
X72582658Y-75292843D01*
X72747157Y-75457342D01*
X72940587Y-75586588D01*
X73155515Y-75675614D01*
X73383682Y-75721000D01*
X73616318Y-75721000D01*
X73844485Y-75675614D01*
X74059413Y-75586588D01*
X74252843Y-75457342D01*
X74417342Y-75292843D01*
X74512786Y-75150000D01*
X78767157Y-75150000D01*
X78767157Y-76850000D01*
X78774513Y-76924689D01*
X78796299Y-76996508D01*
X78831678Y-77062696D01*
X78879289Y-77120711D01*
X78937304Y-77168322D01*
X79003492Y-77203701D01*
X79075311Y-77225487D01*
X79150000Y-77232843D01*
X80850000Y-77232843D01*
X80924689Y-77225487D01*
X80996508Y-77203701D01*
X81062696Y-77168322D01*
X81120711Y-77120711D01*
X81168322Y-77062696D01*
X81203701Y-76996508D01*
X81225487Y-76924689D01*
X81232843Y-76850000D01*
X81232843Y-75878757D01*
X81309000Y-75878757D01*
X81309000Y-76121243D01*
X81356307Y-76359069D01*
X81449102Y-76583097D01*
X81583820Y-76784717D01*
X81755283Y-76956180D01*
X81956903Y-77090898D01*
X82180931Y-77183693D01*
X82418757Y-77231000D01*
X82661243Y-77231000D01*
X82899069Y-77183693D01*
X83123097Y-77090898D01*
X83313489Y-76963682D01*
X85019000Y-76963682D01*
X85019000Y-77196318D01*
X85064386Y-77424485D01*
X85153412Y-77639413D01*
X85282658Y-77832843D01*
X85447157Y-77997342D01*
X85640587Y-78126588D01*
X85855515Y-78215614D01*
X86083682Y-78261000D01*
X86316318Y-78261000D01*
X86544485Y-78215614D01*
X86759413Y-78126588D01*
X86952843Y-77997342D01*
X87117342Y-77832843D01*
X87246588Y-77639413D01*
X87335614Y-77424485D01*
X87381000Y-77196318D01*
X87381000Y-77000000D01*
X111239254Y-77000000D01*
X111258195Y-77192310D01*
X111314289Y-77377229D01*
X111405382Y-77547651D01*
X111527972Y-77697028D01*
X111677349Y-77819618D01*
X111847771Y-77910711D01*
X112032690Y-77966805D01*
X112176813Y-77981000D01*
X112823187Y-77981000D01*
X112967310Y-77966805D01*
X113152229Y-77910711D01*
X113322651Y-77819618D01*
X113472028Y-77697028D01*
X113594618Y-77547651D01*
X113636124Y-77470000D01*
X114473133Y-77470000D01*
X114497828Y-77494695D01*
X114610152Y-77569748D01*
X114734960Y-77621445D01*
X114867455Y-77647800D01*
X115002545Y-77647800D01*
X115135040Y-77621445D01*
X115259848Y-77569748D01*
X115372172Y-77494695D01*
X115467695Y-77399172D01*
X115542748Y-77286848D01*
X115594445Y-77162040D01*
X115620800Y-77029545D01*
X115620800Y-76894455D01*
X115594445Y-76761960D01*
X115542748Y-76637152D01*
X115467695Y-76524828D01*
X115372172Y-76429305D01*
X115259848Y-76354252D01*
X115135040Y-76302555D01*
X115002545Y-76276200D01*
X114867455Y-76276200D01*
X114734960Y-76302555D01*
X114610152Y-76354252D01*
X114497828Y-76429305D01*
X114473133Y-76454000D01*
X113595500Y-76454000D01*
X113594618Y-76452349D01*
X113472028Y-76302972D01*
X113322651Y-76180382D01*
X113152229Y-76089289D01*
X112967310Y-76033195D01*
X112823187Y-76019000D01*
X112176813Y-76019000D01*
X112032690Y-76033195D01*
X111847771Y-76089289D01*
X111677349Y-76180382D01*
X111527972Y-76302972D01*
X111405382Y-76452349D01*
X111314289Y-76622771D01*
X111258195Y-76807690D01*
X111239254Y-77000000D01*
X87381000Y-77000000D01*
X87381000Y-76963682D01*
X87335614Y-76735515D01*
X87246588Y-76520587D01*
X87117342Y-76327157D01*
X86952843Y-76162658D01*
X86910764Y-76134541D01*
X96045064Y-76134541D01*
X96055575Y-76327763D01*
X96225603Y-76398562D01*
X96406176Y-76434828D01*
X96590355Y-76435171D01*
X96771061Y-76399574D01*
X96941351Y-76329408D01*
X96944425Y-76327763D01*
X96954936Y-76134541D01*
X97545064Y-76134541D01*
X97555575Y-76327763D01*
X97725603Y-76398562D01*
X97906176Y-76434828D01*
X98090355Y-76435171D01*
X98271061Y-76399574D01*
X98441351Y-76329408D01*
X98444425Y-76327763D01*
X98454936Y-76134541D01*
X98000000Y-75679605D01*
X97545064Y-76134541D01*
X96954936Y-76134541D01*
X96500000Y-75679605D01*
X96045064Y-76134541D01*
X86910764Y-76134541D01*
X86759413Y-76033412D01*
X86544485Y-75944386D01*
X86316318Y-75899000D01*
X86083682Y-75899000D01*
X85855515Y-75944386D01*
X85640587Y-76033412D01*
X85447157Y-76162658D01*
X85282658Y-76327157D01*
X85153412Y-76520587D01*
X85064386Y-76735515D01*
X85019000Y-76963682D01*
X83313489Y-76963682D01*
X83324717Y-76956180D01*
X83496180Y-76784717D01*
X83630898Y-76583097D01*
X83723693Y-76359069D01*
X83771000Y-76121243D01*
X83771000Y-75878757D01*
X83723693Y-75640931D01*
X83630898Y-75416903D01*
X83496180Y-75215283D01*
X83324717Y-75043820D01*
X83123097Y-74909102D01*
X82899069Y-74816307D01*
X82661243Y-74769000D01*
X82418757Y-74769000D01*
X82180931Y-74816307D01*
X81956903Y-74909102D01*
X81755283Y-75043820D01*
X81583820Y-75215283D01*
X81449102Y-75416903D01*
X81356307Y-75640931D01*
X81309000Y-75878757D01*
X81232843Y-75878757D01*
X81232843Y-75150000D01*
X81225487Y-75075311D01*
X81203701Y-75003492D01*
X81168322Y-74937304D01*
X81120711Y-74879289D01*
X81062696Y-74831678D01*
X80996508Y-74796299D01*
X80924689Y-74774513D01*
X80850000Y-74767157D01*
X79150000Y-74767157D01*
X79075311Y-74774513D01*
X79003492Y-74796299D01*
X78937304Y-74831678D01*
X78879289Y-74879289D01*
X78831678Y-74937304D01*
X78796299Y-75003492D01*
X78774513Y-75075311D01*
X78767157Y-75150000D01*
X74512786Y-75150000D01*
X74546588Y-75099413D01*
X74635614Y-74884485D01*
X74681000Y-74656318D01*
X74681000Y-74423682D01*
X85019000Y-74423682D01*
X85019000Y-74656318D01*
X85064386Y-74884485D01*
X85153412Y-75099413D01*
X85282658Y-75292843D01*
X85447157Y-75457342D01*
X85640587Y-75586588D01*
X85855515Y-75675614D01*
X86083682Y-75721000D01*
X86316318Y-75721000D01*
X86544485Y-75675614D01*
X86759413Y-75586588D01*
X86952843Y-75457342D01*
X87025644Y-75384541D01*
X95295064Y-75384541D01*
X95305575Y-75577763D01*
X95475603Y-75648562D01*
X95580443Y-75669618D01*
X95600426Y-75771061D01*
X95670592Y-75941351D01*
X95672237Y-75944425D01*
X95865459Y-75954936D01*
X96320395Y-75500000D01*
X96679605Y-75500000D01*
X97134541Y-75954936D01*
X97250000Y-75948655D01*
X97365459Y-75954936D01*
X97740732Y-75579663D01*
X97741351Y-75579408D01*
X97744425Y-75577763D01*
X97744528Y-75575867D01*
X97820395Y-75500000D01*
X98179605Y-75500000D01*
X98634541Y-75954936D01*
X98827763Y-75944425D01*
X98898562Y-75774397D01*
X98919618Y-75669557D01*
X99021061Y-75649574D01*
X99191351Y-75579408D01*
X99194425Y-75577763D01*
X99204936Y-75384541D01*
X98750000Y-74929605D01*
X98179605Y-75500000D01*
X97820395Y-75500000D01*
X97752356Y-75431961D01*
X97754936Y-75384541D01*
X97300000Y-74929605D01*
X97181961Y-75047644D01*
X97134541Y-75045064D01*
X96679605Y-75500000D01*
X96320395Y-75500000D01*
X95750000Y-74929605D01*
X95295064Y-75384541D01*
X87025644Y-75384541D01*
X87117342Y-75292843D01*
X87246588Y-75099413D01*
X87335614Y-74884485D01*
X87344392Y-74840355D01*
X94814829Y-74840355D01*
X94850426Y-75021061D01*
X94920592Y-75191351D01*
X94922237Y-75194425D01*
X95115459Y-75204936D01*
X95570395Y-74750000D01*
X95929605Y-74750000D01*
X96500000Y-75320395D01*
X96618039Y-75202356D01*
X96665459Y-75204936D01*
X97120395Y-74750000D01*
X97479605Y-74750000D01*
X97547644Y-74818039D01*
X97545064Y-74865459D01*
X98000000Y-75320395D01*
X98125867Y-75194528D01*
X98127763Y-75194425D01*
X98129042Y-75191353D01*
X98570395Y-74750000D01*
X98929605Y-74750000D01*
X99384541Y-75204936D01*
X99577763Y-75194425D01*
X99648562Y-75024397D01*
X99653461Y-75000000D01*
X111239254Y-75000000D01*
X111258195Y-75192310D01*
X111314289Y-75377229D01*
X111405382Y-75547651D01*
X111527972Y-75697028D01*
X111677349Y-75819618D01*
X111847771Y-75910711D01*
X112032690Y-75966805D01*
X112176813Y-75981000D01*
X112823187Y-75981000D01*
X112967310Y-75966805D01*
X113152229Y-75910711D01*
X113322651Y-75819618D01*
X113472028Y-75697028D01*
X113594618Y-75547651D01*
X113685711Y-75377229D01*
X113741805Y-75192310D01*
X113760746Y-75000000D01*
X113741805Y-74807690D01*
X113685711Y-74622771D01*
X113594618Y-74452349D01*
X113472028Y-74302972D01*
X113322651Y-74180382D01*
X113152229Y-74089289D01*
X112967310Y-74033195D01*
X112823187Y-74019000D01*
X112176813Y-74019000D01*
X112032690Y-74033195D01*
X111847771Y-74089289D01*
X111677349Y-74180382D01*
X111527972Y-74302972D01*
X111405382Y-74452349D01*
X111314289Y-74622771D01*
X111258195Y-74807690D01*
X111239254Y-75000000D01*
X99653461Y-75000000D01*
X99684828Y-74843824D01*
X99685171Y-74659645D01*
X99649574Y-74478939D01*
X99579408Y-74308649D01*
X99577763Y-74305575D01*
X99384541Y-74295064D01*
X98929605Y-74750000D01*
X98570395Y-74750000D01*
X98129663Y-74309268D01*
X98129408Y-74308649D01*
X98127763Y-74305575D01*
X98125867Y-74305472D01*
X98000000Y-74179605D01*
X97545064Y-74634541D01*
X97547644Y-74681961D01*
X97479605Y-74750000D01*
X97120395Y-74750000D01*
X96665459Y-74295064D01*
X96618039Y-74297644D01*
X96500000Y-74179605D01*
X95929605Y-74750000D01*
X95570395Y-74750000D01*
X95115459Y-74295064D01*
X94922237Y-74305575D01*
X94851438Y-74475603D01*
X94815172Y-74656176D01*
X94814829Y-74840355D01*
X87344392Y-74840355D01*
X87381000Y-74656318D01*
X87381000Y-74423682D01*
X87335614Y-74195515D01*
X87246588Y-73980587D01*
X87182413Y-73884541D01*
X95295064Y-73884541D01*
X95301345Y-74000000D01*
X95295064Y-74115459D01*
X95750000Y-74570395D01*
X96320395Y-74000000D01*
X96679605Y-74000000D01*
X97134541Y-74454936D01*
X97181961Y-74452356D01*
X97300000Y-74570395D01*
X97754936Y-74115459D01*
X97752356Y-74068039D01*
X97820395Y-74000000D01*
X98179605Y-74000000D01*
X98750000Y-74570395D01*
X99204936Y-74115459D01*
X99198655Y-74000000D01*
X99204936Y-73884541D01*
X98750000Y-73429605D01*
X98179605Y-74000000D01*
X97820395Y-74000000D01*
X97752356Y-73931961D01*
X97754936Y-73884541D01*
X97300000Y-73429605D01*
X97181961Y-73547644D01*
X97134541Y-73545064D01*
X96679605Y-74000000D01*
X96320395Y-74000000D01*
X95750000Y-73429605D01*
X95295064Y-73884541D01*
X87182413Y-73884541D01*
X87117342Y-73787157D01*
X86952843Y-73622658D01*
X86759413Y-73493412D01*
X86544485Y-73404386D01*
X86316318Y-73359000D01*
X86083682Y-73359000D01*
X85855515Y-73404386D01*
X85640587Y-73493412D01*
X85447157Y-73622658D01*
X85282658Y-73787157D01*
X85153412Y-73980587D01*
X85064386Y-74195515D01*
X85019000Y-74423682D01*
X74681000Y-74423682D01*
X74635614Y-74195515D01*
X74546588Y-73980587D01*
X74417342Y-73787157D01*
X74252843Y-73622658D01*
X74059413Y-73493412D01*
X73920335Y-73435804D01*
X74300000Y-73438072D01*
X74424482Y-73425812D01*
X74544180Y-73389502D01*
X74636126Y-73340355D01*
X94814829Y-73340355D01*
X94850426Y-73521061D01*
X94920592Y-73691351D01*
X94922237Y-73694425D01*
X95115459Y-73704936D01*
X95570395Y-73250000D01*
X95929605Y-73250000D01*
X96500000Y-73820395D01*
X96618039Y-73702356D01*
X96665459Y-73704936D01*
X97120395Y-73250000D01*
X97479605Y-73250000D01*
X97547644Y-73318039D01*
X97545064Y-73365459D01*
X98000000Y-73820395D01*
X98125867Y-73694528D01*
X98127763Y-73694425D01*
X98129042Y-73691353D01*
X98570395Y-73250000D01*
X98929605Y-73250000D01*
X99384541Y-73704936D01*
X99577763Y-73694425D01*
X99648562Y-73524397D01*
X99684828Y-73343824D01*
X99685171Y-73159645D01*
X99649574Y-72978939D01*
X99579408Y-72808649D01*
X99577763Y-72805575D01*
X99384541Y-72795064D01*
X98929605Y-73250000D01*
X98570395Y-73250000D01*
X98129663Y-72809268D01*
X98129408Y-72808649D01*
X98127763Y-72805575D01*
X98125867Y-72805472D01*
X98000000Y-72679605D01*
X97545064Y-73134541D01*
X97547644Y-73181961D01*
X97479605Y-73250000D01*
X97120395Y-73250000D01*
X96665459Y-72795064D01*
X96618039Y-72797644D01*
X96500000Y-72679605D01*
X95929605Y-73250000D01*
X95570395Y-73250000D01*
X95115459Y-72795064D01*
X94922237Y-72805575D01*
X94851438Y-72975603D01*
X94815172Y-73156176D01*
X94814829Y-73340355D01*
X74636126Y-73340355D01*
X74654494Y-73330537D01*
X74751185Y-73251185D01*
X74830537Y-73154494D01*
X74889502Y-73044180D01*
X74925812Y-72924482D01*
X74938072Y-72800000D01*
X74935000Y-72285750D01*
X74776250Y-72127000D01*
X73627000Y-72127000D01*
X73627000Y-72147000D01*
X73373000Y-72147000D01*
X73373000Y-72127000D01*
X72223750Y-72127000D01*
X72065000Y-72285750D01*
X72061928Y-72800000D01*
X66278990Y-72800000D01*
X66278990Y-71883682D01*
X85019000Y-71883682D01*
X85019000Y-72116318D01*
X85064386Y-72344485D01*
X85153412Y-72559413D01*
X85282658Y-72752843D01*
X85447157Y-72917342D01*
X85640587Y-73046588D01*
X85855515Y-73135614D01*
X86083682Y-73181000D01*
X86316318Y-73181000D01*
X86544485Y-73135614D01*
X86759413Y-73046588D01*
X86952843Y-72917342D01*
X87117342Y-72752843D01*
X87209139Y-72615459D01*
X95295064Y-72615459D01*
X95750000Y-73070395D01*
X96320395Y-72500000D01*
X96679605Y-72500000D01*
X97134541Y-72954936D01*
X97181961Y-72952356D01*
X97300000Y-73070395D01*
X97754936Y-72615459D01*
X97752356Y-72568039D01*
X97820395Y-72500000D01*
X98179605Y-72500000D01*
X98750000Y-73070395D01*
X99204936Y-72615459D01*
X99194425Y-72422237D01*
X99024397Y-72351438D01*
X98919557Y-72330382D01*
X98899574Y-72228939D01*
X98829408Y-72058649D01*
X98827763Y-72055575D01*
X98634541Y-72045064D01*
X98179605Y-72500000D01*
X97820395Y-72500000D01*
X97744528Y-72424133D01*
X97744425Y-72422237D01*
X97741353Y-72420958D01*
X97365459Y-72045064D01*
X97250000Y-72051345D01*
X97134541Y-72045064D01*
X96679605Y-72500000D01*
X96320395Y-72500000D01*
X95865459Y-72045064D01*
X95672237Y-72055575D01*
X95601438Y-72225603D01*
X95580382Y-72330443D01*
X95478939Y-72350426D01*
X95308649Y-72420592D01*
X95305575Y-72422237D01*
X95295064Y-72615459D01*
X87209139Y-72615459D01*
X87246588Y-72559413D01*
X87335614Y-72344485D01*
X87381000Y-72116318D01*
X87381000Y-71883682D01*
X87377376Y-71865459D01*
X96045064Y-71865459D01*
X96500000Y-72320395D01*
X96954936Y-71865459D01*
X97545064Y-71865459D01*
X98000000Y-72320395D01*
X98454936Y-71865459D01*
X98444425Y-71672237D01*
X98274397Y-71601438D01*
X98093824Y-71565172D01*
X97909645Y-71564829D01*
X97728939Y-71600426D01*
X97558649Y-71670592D01*
X97555575Y-71672237D01*
X97545064Y-71865459D01*
X96954936Y-71865459D01*
X96944425Y-71672237D01*
X96774397Y-71601438D01*
X96593824Y-71565172D01*
X96409645Y-71564829D01*
X96228939Y-71600426D01*
X96058649Y-71670592D01*
X96055575Y-71672237D01*
X96045064Y-71865459D01*
X87377376Y-71865459D01*
X87335614Y-71655515D01*
X87246588Y-71440587D01*
X87117342Y-71247157D01*
X86952843Y-71082658D01*
X86759413Y-70953412D01*
X86544485Y-70864386D01*
X86316318Y-70819000D01*
X86083682Y-70819000D01*
X85855515Y-70864386D01*
X85640587Y-70953412D01*
X85447157Y-71082658D01*
X85282658Y-71247157D01*
X85153412Y-71440587D01*
X85064386Y-71655515D01*
X85019000Y-71883682D01*
X66278990Y-71883682D01*
X66278990Y-71200000D01*
X72061928Y-71200000D01*
X72065000Y-71714250D01*
X72223750Y-71873000D01*
X73373000Y-71873000D01*
X73373000Y-70723750D01*
X73627000Y-70723750D01*
X73627000Y-71873000D01*
X74776250Y-71873000D01*
X74935000Y-71714250D01*
X74938072Y-71200000D01*
X74925812Y-71075518D01*
X74889502Y-70955820D01*
X74830537Y-70845506D01*
X74751185Y-70748815D01*
X74654494Y-70669463D01*
X74544180Y-70610498D01*
X74424482Y-70574188D01*
X74300000Y-70561928D01*
X73785750Y-70565000D01*
X73627000Y-70723750D01*
X73373000Y-70723750D01*
X73214250Y-70565000D01*
X72700000Y-70561928D01*
X72575518Y-70574188D01*
X72455820Y-70610498D01*
X72345506Y-70669463D01*
X72248815Y-70748815D01*
X72169463Y-70845506D01*
X72110498Y-70955820D01*
X72074188Y-71075518D01*
X72061928Y-71200000D01*
X66278990Y-71200000D01*
X66278990Y-70798640D01*
X66660175Y-70417455D01*
X104851200Y-70417455D01*
X104851200Y-70552545D01*
X104877555Y-70685040D01*
X104929252Y-70809848D01*
X105004305Y-70922172D01*
X105099828Y-71017695D01*
X105212152Y-71092748D01*
X105336960Y-71144445D01*
X105469455Y-71170800D01*
X105504380Y-71170800D01*
X107675150Y-73341571D01*
X107691052Y-73360948D01*
X107710429Y-73376850D01*
X107768404Y-73424429D01*
X107793929Y-73438072D01*
X107856657Y-73471601D01*
X107952415Y-73500649D01*
X108027053Y-73508000D01*
X108027055Y-73508000D01*
X108051999Y-73510457D01*
X108076943Y-73508000D01*
X111384188Y-73508000D01*
X111405382Y-73547651D01*
X111527972Y-73697028D01*
X111677349Y-73819618D01*
X111847771Y-73910711D01*
X112032690Y-73966805D01*
X112176813Y-73981000D01*
X112823187Y-73981000D01*
X112967310Y-73966805D01*
X113152229Y-73910711D01*
X113322651Y-73819618D01*
X113472028Y-73697028D01*
X113594618Y-73547651D01*
X113685711Y-73377229D01*
X113741805Y-73192310D01*
X113760746Y-73000000D01*
X113741805Y-72807690D01*
X113685711Y-72622771D01*
X113594618Y-72452349D01*
X113472028Y-72302972D01*
X113391024Y-72236494D01*
X113499482Y-72225812D01*
X113619180Y-72189502D01*
X113729494Y-72130537D01*
X113826185Y-72051185D01*
X113905537Y-71954494D01*
X113964502Y-71844180D01*
X114000812Y-71724482D01*
X114013072Y-71600000D01*
X114010000Y-71285750D01*
X113851250Y-71127000D01*
X112627000Y-71127000D01*
X112627000Y-71147000D01*
X112373000Y-71147000D01*
X112373000Y-71127000D01*
X111148750Y-71127000D01*
X110990000Y-71285750D01*
X110986928Y-71600000D01*
X110999188Y-71724482D01*
X111035498Y-71844180D01*
X111094463Y-71954494D01*
X111173815Y-72051185D01*
X111270506Y-72130537D01*
X111380820Y-72189502D01*
X111500518Y-72225812D01*
X111608976Y-72236494D01*
X111527972Y-72302972D01*
X111405382Y-72452349D01*
X111384188Y-72492000D01*
X108262421Y-72492000D01*
X106222800Y-70452380D01*
X106222800Y-70417455D01*
X106219328Y-70400000D01*
X110986928Y-70400000D01*
X110990000Y-70714250D01*
X111148750Y-70873000D01*
X112373000Y-70873000D01*
X112373000Y-69923750D01*
X112627000Y-69923750D01*
X112627000Y-70873000D01*
X113851250Y-70873000D01*
X114010000Y-70714250D01*
X114013072Y-70400000D01*
X114000812Y-70275518D01*
X113964502Y-70155820D01*
X113905537Y-70045506D01*
X113826185Y-69948815D01*
X113729494Y-69869463D01*
X113619180Y-69810498D01*
X113499482Y-69774188D01*
X113375000Y-69761928D01*
X112785750Y-69765000D01*
X112627000Y-69923750D01*
X112373000Y-69923750D01*
X112214250Y-69765000D01*
X111625000Y-69761928D01*
X111500518Y-69774188D01*
X111380820Y-69810498D01*
X111270506Y-69869463D01*
X111173815Y-69948815D01*
X111094463Y-70045506D01*
X111035498Y-70155820D01*
X110999188Y-70275518D01*
X110986928Y-70400000D01*
X106219328Y-70400000D01*
X106196445Y-70284960D01*
X106144748Y-70160152D01*
X106069695Y-70047828D01*
X105974172Y-69952305D01*
X105861848Y-69877252D01*
X105737040Y-69825555D01*
X105604545Y-69799200D01*
X105469455Y-69799200D01*
X105336960Y-69825555D01*
X105212152Y-69877252D01*
X105099828Y-69952305D01*
X105004305Y-70047828D01*
X104929252Y-70160152D01*
X104877555Y-70284960D01*
X104851200Y-70417455D01*
X66660175Y-70417455D01*
X70894788Y-66182843D01*
X72800000Y-66182843D01*
X72874689Y-66175487D01*
X72946508Y-66153701D01*
X73012696Y-66118322D01*
X73070711Y-66070711D01*
X73118322Y-66012696D01*
X73153701Y-65946508D01*
X73175487Y-65874689D01*
X73177995Y-65849224D01*
X75330381Y-65849224D01*
X75462317Y-66144312D01*
X75803045Y-66315159D01*
X76170557Y-66416250D01*
X76550729Y-66443701D01*
X76928951Y-66396457D01*
X77290690Y-66276333D01*
X77537683Y-66144312D01*
X77669619Y-65849224D01*
X76500000Y-64679605D01*
X75330381Y-65849224D01*
X73177995Y-65849224D01*
X73182843Y-65800000D01*
X73182843Y-64550729D01*
X74556299Y-64550729D01*
X74603543Y-64928951D01*
X74723667Y-65290690D01*
X74855688Y-65537683D01*
X75150776Y-65669619D01*
X76320395Y-64500000D01*
X76679605Y-64500000D01*
X77849224Y-65669619D01*
X78144312Y-65537683D01*
X78315159Y-65196955D01*
X78416250Y-64829443D01*
X78443701Y-64449271D01*
X78396457Y-64071049D01*
X78276333Y-63709310D01*
X78144312Y-63462317D01*
X77849224Y-63330381D01*
X76679605Y-64500000D01*
X76320395Y-64500000D01*
X75150776Y-63330381D01*
X74855688Y-63462317D01*
X74684841Y-63803045D01*
X74583750Y-64170557D01*
X74556299Y-64550729D01*
X73182843Y-64550729D01*
X73182843Y-63200000D01*
X73177996Y-63150776D01*
X75330381Y-63150776D01*
X76500000Y-64320395D01*
X77669619Y-63150776D01*
X77537683Y-62855688D01*
X77196955Y-62684841D01*
X76829443Y-62583750D01*
X76449271Y-62556299D01*
X76071049Y-62603543D01*
X75709310Y-62723667D01*
X75462317Y-62855688D01*
X75330381Y-63150776D01*
X73177996Y-63150776D01*
X73175487Y-63125311D01*
X73153701Y-63053492D01*
X73118322Y-62987304D01*
X73070711Y-62929289D01*
X73012696Y-62881678D01*
X72946508Y-62846299D01*
X72874689Y-62824513D01*
X72800000Y-62817157D01*
X70200000Y-62817157D01*
X70125311Y-62824513D01*
X70053492Y-62846299D01*
X69987304Y-62881678D01*
X69929289Y-62929289D01*
X69881678Y-62987304D01*
X69846299Y-63053492D01*
X69824513Y-63125311D01*
X69817157Y-63200000D01*
X69817157Y-65105212D01*
X65004644Y-69917726D01*
X64975568Y-69941588D01*
X64948523Y-69974543D01*
X64880345Y-70057618D01*
X64844835Y-70124053D01*
X64809588Y-70189996D01*
X64766016Y-70333633D01*
X64754990Y-70445584D01*
X64751304Y-70483010D01*
X64754990Y-70520433D01*
X64754991Y-85876545D01*
X64754990Y-85876554D01*
X64751304Y-85913980D01*
X64754990Y-85951403D01*
X64754991Y-105265706D01*
X64751304Y-105303139D01*
X64766017Y-105452517D01*
X64809589Y-105596154D01*
X64880345Y-105728531D01*
X64932924Y-105792598D01*
X64975569Y-105844561D01*
X65004639Y-105868418D01*
X70623598Y-111487377D01*
X70647460Y-111516453D01*
X70721101Y-111576888D01*
X70741951Y-111594000D01*
X62406000Y-111594000D01*
X62406000Y-56406000D01*
X116594000Y-56406000D01*
X116594001Y-111594000D01*
G04 #@! TA.AperFunction,Conductor*
D22*
G36*
X116594001Y-111594000D02*
G01*
X87751899Y-111594000D01*
X87846391Y-111516453D01*
X87870253Y-111487377D01*
X91176631Y-108181000D01*
X91396318Y-108181000D01*
X91624485Y-108135614D01*
X91839413Y-108046588D01*
X92032843Y-107917342D01*
X92197342Y-107752843D01*
X92326588Y-107559413D01*
X92415614Y-107344485D01*
X92461000Y-107116318D01*
X92461000Y-106883682D01*
X92415614Y-106655515D01*
X92351198Y-106500000D01*
X102138044Y-106500000D01*
X102161812Y-106741318D01*
X102232202Y-106973363D01*
X102346509Y-107187216D01*
X102500340Y-107374660D01*
X102687784Y-107528491D01*
X102901637Y-107642798D01*
X103133682Y-107713188D01*
X103314528Y-107731000D01*
X103685472Y-107731000D01*
X103866318Y-107713188D01*
X104098363Y-107642798D01*
X104312216Y-107528491D01*
X104499660Y-107374660D01*
X104653491Y-107187216D01*
X104767798Y-106973363D01*
X104838188Y-106741318D01*
X104861956Y-106500000D01*
X110638044Y-106500000D01*
X110661812Y-106741318D01*
X110732202Y-106973363D01*
X110846509Y-107187216D01*
X111000340Y-107374660D01*
X111187784Y-107528491D01*
X111401637Y-107642798D01*
X111633682Y-107713188D01*
X111814528Y-107731000D01*
X112185472Y-107731000D01*
X112366318Y-107713188D01*
X112598363Y-107642798D01*
X112812216Y-107528491D01*
X112999660Y-107374660D01*
X113153491Y-107187216D01*
X113267798Y-106973363D01*
X113338188Y-106741318D01*
X113361956Y-106500000D01*
X113338188Y-106258682D01*
X113267798Y-106026637D01*
X113153491Y-105812784D01*
X112999660Y-105625340D01*
X112812216Y-105471509D01*
X112598363Y-105357202D01*
X112366318Y-105286812D01*
X112185472Y-105269000D01*
X111814528Y-105269000D01*
X111633682Y-105286812D01*
X111401637Y-105357202D01*
X111187784Y-105471509D01*
X111000340Y-105625340D01*
X110846509Y-105812784D01*
X110732202Y-106026637D01*
X110661812Y-106258682D01*
X110638044Y-106500000D01*
X104861956Y-106500000D01*
X104838188Y-106258682D01*
X104767798Y-106026637D01*
X104653491Y-105812784D01*
X104499660Y-105625340D01*
X104312216Y-105471509D01*
X104098363Y-105357202D01*
X103866318Y-105286812D01*
X103685472Y-105269000D01*
X103314528Y-105269000D01*
X103133682Y-105286812D01*
X102901637Y-105357202D01*
X102687784Y-105471509D01*
X102500340Y-105625340D01*
X102346509Y-105812784D01*
X102232202Y-106026637D01*
X102161812Y-106258682D01*
X102138044Y-106500000D01*
X92351198Y-106500000D01*
X92326588Y-106440587D01*
X92197342Y-106247157D01*
X92032843Y-106082658D01*
X91839413Y-105953412D01*
X91624485Y-105864386D01*
X91396318Y-105819000D01*
X91163682Y-105819000D01*
X90935515Y-105864386D01*
X90720587Y-105953412D01*
X90527157Y-106082658D01*
X90362658Y-106247157D01*
X90233412Y-106440587D01*
X90144386Y-106655515D01*
X90101125Y-106872998D01*
X90010625Y-106872998D01*
X90131909Y-106650960D01*
X90037070Y-106386119D01*
X89892385Y-106144869D01*
X89703414Y-105936481D01*
X89477420Y-105768963D01*
X89223087Y-105648754D01*
X89089039Y-105608096D01*
X88867000Y-105730085D01*
X88867000Y-106873000D01*
X88887000Y-106873000D01*
X88887000Y-107127000D01*
X88867000Y-107127000D01*
X88867000Y-108269915D01*
X88909245Y-108293125D01*
X86989339Y-110213031D01*
X84064599Y-110213031D01*
X86096631Y-108181000D01*
X86316318Y-108181000D01*
X86544485Y-108135614D01*
X86759413Y-108046588D01*
X86952843Y-107917342D01*
X87117342Y-107752843D01*
X87246588Y-107559413D01*
X87335614Y-107344485D01*
X87378875Y-107127002D01*
X87469375Y-107127002D01*
X87348091Y-107349040D01*
X87442930Y-107613881D01*
X87587615Y-107855131D01*
X87776586Y-108063519D01*
X88002580Y-108231037D01*
X88256913Y-108351246D01*
X88390961Y-108391904D01*
X88613000Y-108269915D01*
X88613000Y-107127000D01*
X88593000Y-107127000D01*
X88593000Y-106873000D01*
X88613000Y-106873000D01*
X88613000Y-105730085D01*
X88390961Y-105608096D01*
X88256913Y-105648754D01*
X88002580Y-105768963D01*
X87776586Y-105936481D01*
X87587615Y-106144869D01*
X87442930Y-106386119D01*
X87348091Y-106650960D01*
X87469375Y-106872998D01*
X87378875Y-106872998D01*
X87335614Y-106655515D01*
X87246588Y-106440587D01*
X87117342Y-106247157D01*
X86952843Y-106082658D01*
X86759413Y-105953412D01*
X86544485Y-105864386D01*
X86316318Y-105819000D01*
X86083682Y-105819000D01*
X85855515Y-105864386D01*
X85640587Y-105953412D01*
X85447157Y-106082658D01*
X85282658Y-106247157D01*
X85153412Y-106440587D01*
X85064386Y-106655515D01*
X85019000Y-106883682D01*
X85019000Y-107103369D01*
X84800016Y-107322353D01*
X84841000Y-107116318D01*
X84841000Y-106883682D01*
X84795614Y-106655515D01*
X84706588Y-106440587D01*
X84577342Y-106247157D01*
X84412843Y-106082658D01*
X84219413Y-105953412D01*
X84004485Y-105864386D01*
X83776318Y-105819000D01*
X83543682Y-105819000D01*
X83315515Y-105864386D01*
X83100587Y-105953412D01*
X82907157Y-106082658D01*
X82742658Y-106247157D01*
X82613412Y-106440587D01*
X82524386Y-106655515D01*
X82479000Y-106883682D01*
X82479000Y-107103369D01*
X82260016Y-107322353D01*
X82301000Y-107116318D01*
X82301000Y-106883682D01*
X82255614Y-106655515D01*
X82166588Y-106440587D01*
X82037342Y-106247157D01*
X81872843Y-106082658D01*
X81679413Y-105953412D01*
X81464485Y-105864386D01*
X81236318Y-105819000D01*
X81003682Y-105819000D01*
X80775515Y-105864386D01*
X80560587Y-105953412D01*
X80367157Y-106082658D01*
X80202658Y-106247157D01*
X80073412Y-106440587D01*
X79984386Y-106655515D01*
X79939000Y-106883682D01*
X79939000Y-107103369D01*
X79720016Y-107322353D01*
X79761000Y-107116318D01*
X79761000Y-106883682D01*
X79715614Y-106655515D01*
X79626588Y-106440587D01*
X79497342Y-106247157D01*
X79332843Y-106082658D01*
X79139413Y-105953412D01*
X78924485Y-105864386D01*
X78696318Y-105819000D01*
X78463682Y-105819000D01*
X78433603Y-105824983D01*
X78373015Y-105792598D01*
X78229378Y-105749026D01*
X78117426Y-105738000D01*
X78117423Y-105738000D01*
X78080000Y-105734314D01*
X78042577Y-105738000D01*
X77791473Y-105738000D01*
X76053473Y-104000000D01*
X102138044Y-104000000D01*
X102161812Y-104241318D01*
X102232202Y-104473363D01*
X102346509Y-104687216D01*
X102500340Y-104874660D01*
X102687784Y-105028491D01*
X102901637Y-105142798D01*
X103133682Y-105213188D01*
X103314528Y-105231000D01*
X103685472Y-105231000D01*
X103866318Y-105213188D01*
X104098363Y-105142798D01*
X104312216Y-105028491D01*
X104499660Y-104874660D01*
X104653491Y-104687216D01*
X104767798Y-104473363D01*
X104838188Y-104241318D01*
X104861956Y-104000000D01*
X110638044Y-104000000D01*
X110661812Y-104241318D01*
X110732202Y-104473363D01*
X110846509Y-104687216D01*
X111000340Y-104874660D01*
X111187784Y-105028491D01*
X111401637Y-105142798D01*
X111633682Y-105213188D01*
X111814528Y-105231000D01*
X112185472Y-105231000D01*
X112366318Y-105213188D01*
X112598363Y-105142798D01*
X112812216Y-105028491D01*
X112999660Y-104874660D01*
X113153491Y-104687216D01*
X113267798Y-104473363D01*
X113338188Y-104241318D01*
X113361956Y-104000000D01*
X113338188Y-103758682D01*
X113267798Y-103526637D01*
X113153491Y-103312784D01*
X112999660Y-103125340D01*
X112812216Y-102971509D01*
X112598363Y-102857202D01*
X112366318Y-102786812D01*
X112185472Y-102769000D01*
X111814528Y-102769000D01*
X111633682Y-102786812D01*
X111401637Y-102857202D01*
X111187784Y-102971509D01*
X111000340Y-103125340D01*
X110846509Y-103312784D01*
X110732202Y-103526637D01*
X110661812Y-103758682D01*
X110638044Y-104000000D01*
X104861956Y-104000000D01*
X104838188Y-103758682D01*
X104767798Y-103526637D01*
X104653491Y-103312784D01*
X104499660Y-103125340D01*
X104312216Y-102971509D01*
X104098363Y-102857202D01*
X103866318Y-102786812D01*
X103685472Y-102769000D01*
X103314528Y-102769000D01*
X103133682Y-102786812D01*
X102901637Y-102857202D01*
X102687784Y-102971509D01*
X102500340Y-103125340D01*
X102346509Y-103312784D01*
X102232202Y-103526637D01*
X102161812Y-103758682D01*
X102138044Y-104000000D01*
X76053473Y-104000000D01*
X71703473Y-99650000D01*
X74767157Y-99650000D01*
X74767157Y-101350000D01*
X74774513Y-101424689D01*
X74796299Y-101496508D01*
X74831678Y-101562696D01*
X74879289Y-101620711D01*
X74937304Y-101668322D01*
X75003492Y-101703701D01*
X75075311Y-101725487D01*
X75150000Y-101732843D01*
X76850000Y-101732843D01*
X76924689Y-101725487D01*
X76996508Y-101703701D01*
X77062696Y-101668322D01*
X77120711Y-101620711D01*
X77168322Y-101562696D01*
X77203701Y-101496508D01*
X77225487Y-101424689D01*
X77232843Y-101350000D01*
X77232843Y-100378757D01*
X77309000Y-100378757D01*
X77309000Y-100621243D01*
X77356307Y-100859069D01*
X77449102Y-101083097D01*
X77583820Y-101284717D01*
X77755283Y-101456180D01*
X77956903Y-101590898D01*
X78180931Y-101683693D01*
X78418757Y-101731000D01*
X78661243Y-101731000D01*
X78899069Y-101683693D01*
X79123097Y-101590898D01*
X79324717Y-101456180D01*
X79496180Y-101284717D01*
X79630898Y-101083097D01*
X79723693Y-100859069D01*
X79771000Y-100621243D01*
X79771000Y-100378757D01*
X79849000Y-100378757D01*
X79849000Y-100621243D01*
X79896307Y-100859069D01*
X79989102Y-101083097D01*
X80123820Y-101284717D01*
X80295283Y-101456180D01*
X80496903Y-101590898D01*
X80720931Y-101683693D01*
X80958757Y-101731000D01*
X81201243Y-101731000D01*
X81439069Y-101683693D01*
X81663097Y-101590898D01*
X81799135Y-101500000D01*
X102138044Y-101500000D01*
X102161812Y-101741318D01*
X102232202Y-101973363D01*
X102346509Y-102187216D01*
X102500340Y-102374660D01*
X102687784Y-102528491D01*
X102901637Y-102642798D01*
X103133682Y-102713188D01*
X103314528Y-102731000D01*
X103685472Y-102731000D01*
X103866318Y-102713188D01*
X104098363Y-102642798D01*
X104312216Y-102528491D01*
X104499660Y-102374660D01*
X104653491Y-102187216D01*
X104767798Y-101973363D01*
X104838188Y-101741318D01*
X104861956Y-101500000D01*
X110638044Y-101500000D01*
X110661812Y-101741318D01*
X110732202Y-101973363D01*
X110846509Y-102187216D01*
X111000340Y-102374660D01*
X111187784Y-102528491D01*
X111401637Y-102642798D01*
X111633682Y-102713188D01*
X111814528Y-102731000D01*
X112185472Y-102731000D01*
X112366318Y-102713188D01*
X112598363Y-102642798D01*
X112812216Y-102528491D01*
X112999660Y-102374660D01*
X113153491Y-102187216D01*
X113267798Y-101973363D01*
X113338188Y-101741318D01*
X113361956Y-101500000D01*
X113338188Y-101258682D01*
X113267798Y-101026637D01*
X113153491Y-100812784D01*
X112999660Y-100625340D01*
X112812216Y-100471509D01*
X112598363Y-100357202D01*
X112366318Y-100286812D01*
X112185472Y-100269000D01*
X111814528Y-100269000D01*
X111633682Y-100286812D01*
X111401637Y-100357202D01*
X111187784Y-100471509D01*
X111000340Y-100625340D01*
X110846509Y-100812784D01*
X110732202Y-101026637D01*
X110661812Y-101258682D01*
X110638044Y-101500000D01*
X104861956Y-101500000D01*
X104838188Y-101258682D01*
X104767798Y-101026637D01*
X104653491Y-100812784D01*
X104499660Y-100625340D01*
X104312216Y-100471509D01*
X104098363Y-100357202D01*
X103866318Y-100286812D01*
X103685472Y-100269000D01*
X103314528Y-100269000D01*
X103133682Y-100286812D01*
X102901637Y-100357202D01*
X102687784Y-100471509D01*
X102500340Y-100625340D01*
X102346509Y-100812784D01*
X102232202Y-101026637D01*
X102161812Y-101258682D01*
X102138044Y-101500000D01*
X81799135Y-101500000D01*
X81864717Y-101456180D01*
X82036180Y-101284717D01*
X82170898Y-101083097D01*
X82263693Y-100859069D01*
X82311000Y-100621243D01*
X82311000Y-100378757D01*
X82263693Y-100140931D01*
X82170898Y-99916903D01*
X82036180Y-99715283D01*
X81864717Y-99543820D01*
X81663097Y-99409102D01*
X81439069Y-99316307D01*
X81201243Y-99269000D01*
X80958757Y-99269000D01*
X80720931Y-99316307D01*
X80496903Y-99409102D01*
X80295283Y-99543820D01*
X80123820Y-99715283D01*
X79989102Y-99916903D01*
X79896307Y-100140931D01*
X79849000Y-100378757D01*
X79771000Y-100378757D01*
X79723693Y-100140931D01*
X79630898Y-99916903D01*
X79496180Y-99715283D01*
X79324717Y-99543820D01*
X79123097Y-99409102D01*
X78899069Y-99316307D01*
X78661243Y-99269000D01*
X78418757Y-99269000D01*
X78180931Y-99316307D01*
X77956903Y-99409102D01*
X77755283Y-99543820D01*
X77583820Y-99715283D01*
X77449102Y-99916903D01*
X77356307Y-100140931D01*
X77309000Y-100378757D01*
X77232843Y-100378757D01*
X77232843Y-99650000D01*
X77225487Y-99575311D01*
X77203701Y-99503492D01*
X77168322Y-99437304D01*
X77120711Y-99379289D01*
X77062696Y-99331678D01*
X76996508Y-99296299D01*
X76924689Y-99274513D01*
X76850000Y-99267157D01*
X75150000Y-99267157D01*
X75075311Y-99274513D01*
X75003492Y-99296299D01*
X74937304Y-99331678D01*
X74879289Y-99379289D01*
X74831678Y-99437304D01*
X74796299Y-99503492D01*
X74774513Y-99575311D01*
X74767157Y-99650000D01*
X71703473Y-99650000D01*
X69892230Y-97838757D01*
X74769000Y-97838757D01*
X74769000Y-98081243D01*
X74816307Y-98319069D01*
X74909102Y-98543097D01*
X75043820Y-98744717D01*
X75215283Y-98916180D01*
X75416903Y-99050898D01*
X75640931Y-99143693D01*
X75878757Y-99191000D01*
X76121243Y-99191000D01*
X76359069Y-99143693D01*
X76583097Y-99050898D01*
X76784717Y-98916180D01*
X76956180Y-98744717D01*
X77090898Y-98543097D01*
X77183693Y-98319069D01*
X77231000Y-98081243D01*
X77231000Y-97838757D01*
X77309000Y-97838757D01*
X77309000Y-98081243D01*
X77356307Y-98319069D01*
X77449102Y-98543097D01*
X77583820Y-98744717D01*
X77755283Y-98916180D01*
X77956903Y-99050898D01*
X78180931Y-99143693D01*
X78418757Y-99191000D01*
X78661243Y-99191000D01*
X78899069Y-99143693D01*
X79123097Y-99050898D01*
X79324717Y-98916180D01*
X79496180Y-98744717D01*
X79630898Y-98543097D01*
X79723693Y-98319069D01*
X79771000Y-98081243D01*
X79771000Y-97838757D01*
X79849000Y-97838757D01*
X79849000Y-98081243D01*
X79896307Y-98319069D01*
X79989102Y-98543097D01*
X80123820Y-98744717D01*
X80295283Y-98916180D01*
X80496903Y-99050898D01*
X80720931Y-99143693D01*
X80958757Y-99191000D01*
X81201243Y-99191000D01*
X81439069Y-99143693D01*
X81663097Y-99050898D01*
X81864717Y-98916180D01*
X82036180Y-98744717D01*
X82170898Y-98543097D01*
X82263693Y-98319069D01*
X82311000Y-98081243D01*
X82311000Y-97838757D01*
X82263693Y-97600931D01*
X82170898Y-97376903D01*
X82036180Y-97175283D01*
X81864717Y-97003820D01*
X81663097Y-96869102D01*
X81633615Y-96856890D01*
X101933524Y-96856890D01*
X102025648Y-97119858D01*
X102172504Y-97371193D01*
X102365571Y-97589049D01*
X102597430Y-97765053D01*
X102846890Y-97886465D01*
X102687784Y-97971509D01*
X102500340Y-98125340D01*
X102346509Y-98312784D01*
X102232202Y-98526637D01*
X102161812Y-98758682D01*
X102138044Y-99000000D01*
X102161812Y-99241318D01*
X102232202Y-99473363D01*
X102346509Y-99687216D01*
X102500340Y-99874660D01*
X102687784Y-100028491D01*
X102901637Y-100142798D01*
X103133682Y-100213188D01*
X103314528Y-100231000D01*
X103685472Y-100231000D01*
X103866318Y-100213188D01*
X104098363Y-100142798D01*
X104312216Y-100028491D01*
X104499660Y-99874660D01*
X104653491Y-99687216D01*
X104767798Y-99473363D01*
X104838188Y-99241318D01*
X104861956Y-99000000D01*
X104838188Y-98758682D01*
X104767798Y-98526637D01*
X104653491Y-98312784D01*
X104499660Y-98125340D01*
X104312216Y-97971509D01*
X104153110Y-97886465D01*
X104402570Y-97765053D01*
X104634429Y-97589049D01*
X104827496Y-97371193D01*
X104974352Y-97119858D01*
X105066476Y-96856890D01*
X110433524Y-96856890D01*
X110525648Y-97119858D01*
X110672504Y-97371193D01*
X110865571Y-97589049D01*
X111097430Y-97765053D01*
X111346890Y-97886465D01*
X111187784Y-97971509D01*
X111000340Y-98125340D01*
X110846509Y-98312784D01*
X110732202Y-98526637D01*
X110661812Y-98758682D01*
X110638044Y-99000000D01*
X110661812Y-99241318D01*
X110732202Y-99473363D01*
X110846509Y-99687216D01*
X111000340Y-99874660D01*
X111187784Y-100028491D01*
X111401637Y-100142798D01*
X111633682Y-100213188D01*
X111814528Y-100231000D01*
X112185472Y-100231000D01*
X112366318Y-100213188D01*
X112598363Y-100142798D01*
X112812216Y-100028491D01*
X112999660Y-99874660D01*
X113153491Y-99687216D01*
X113267798Y-99473363D01*
X113338188Y-99241318D01*
X113361956Y-99000000D01*
X113338188Y-98758682D01*
X113267798Y-98526637D01*
X113153491Y-98312784D01*
X112999660Y-98125340D01*
X112812216Y-97971509D01*
X112653110Y-97886465D01*
X112902570Y-97765053D01*
X113134429Y-97589049D01*
X113327496Y-97371193D01*
X113474352Y-97119858D01*
X113566476Y-96856890D01*
X113445155Y-96627000D01*
X112127000Y-96627000D01*
X112127000Y-96647000D01*
X111873000Y-96647000D01*
X111873000Y-96627000D01*
X110554845Y-96627000D01*
X110433524Y-96856890D01*
X105066476Y-96856890D01*
X104945155Y-96627000D01*
X103627000Y-96627000D01*
X103627000Y-96647000D01*
X103373000Y-96647000D01*
X103373000Y-96627000D01*
X102054845Y-96627000D01*
X101933524Y-96856890D01*
X81633615Y-96856890D01*
X81439069Y-96776307D01*
X81201243Y-96729000D01*
X80958757Y-96729000D01*
X80720931Y-96776307D01*
X80496903Y-96869102D01*
X80295283Y-97003820D01*
X80123820Y-97175283D01*
X79989102Y-97376903D01*
X79896307Y-97600931D01*
X79849000Y-97838757D01*
X79771000Y-97838757D01*
X79723693Y-97600931D01*
X79630898Y-97376903D01*
X79496180Y-97175283D01*
X79324717Y-97003820D01*
X79123097Y-96869102D01*
X78899069Y-96776307D01*
X78661243Y-96729000D01*
X78418757Y-96729000D01*
X78180931Y-96776307D01*
X77956903Y-96869102D01*
X77755283Y-97003820D01*
X77583820Y-97175283D01*
X77449102Y-97376903D01*
X77356307Y-97600931D01*
X77309000Y-97838757D01*
X77231000Y-97838757D01*
X77183693Y-97600931D01*
X77090898Y-97376903D01*
X76956180Y-97175283D01*
X76784717Y-97003820D01*
X76583097Y-96869102D01*
X76359069Y-96776307D01*
X76121243Y-96729000D01*
X75878757Y-96729000D01*
X75640931Y-96776307D01*
X75416903Y-96869102D01*
X75215283Y-97003820D01*
X75043820Y-97175283D01*
X74909102Y-97376903D01*
X74816307Y-97600931D01*
X74769000Y-97838757D01*
X69892230Y-97838757D01*
X69245010Y-97191538D01*
X69245010Y-97020433D01*
X69248696Y-96983010D01*
X69236305Y-96857202D01*
X69233984Y-96833632D01*
X69190412Y-96689995D01*
X69119656Y-96557619D01*
X69119655Y-96557617D01*
X69048289Y-96470658D01*
X69024432Y-96441588D01*
X68995363Y-96417732D01*
X68720741Y-96143110D01*
X101933524Y-96143110D01*
X102054845Y-96373000D01*
X103373000Y-96373000D01*
X103373000Y-96353000D01*
X103627000Y-96353000D01*
X103627000Y-96373000D01*
X104945155Y-96373000D01*
X105066476Y-96143110D01*
X110433524Y-96143110D01*
X110554845Y-96373000D01*
X111873000Y-96373000D01*
X111873000Y-96353000D01*
X112127000Y-96353000D01*
X112127000Y-96373000D01*
X113445155Y-96373000D01*
X113566476Y-96143110D01*
X113474352Y-95880142D01*
X113327496Y-95628807D01*
X113134429Y-95410951D01*
X112902570Y-95234947D01*
X112863740Y-95216048D01*
X112967179Y-95184671D01*
X113076589Y-95126190D01*
X113172488Y-95047488D01*
X113251190Y-94951589D01*
X113309671Y-94842179D01*
X113345683Y-94723462D01*
X113357843Y-94600000D01*
X113357843Y-93400000D01*
X113345683Y-93276538D01*
X113309671Y-93157821D01*
X113251190Y-93048411D01*
X113172488Y-92952512D01*
X113076589Y-92873810D01*
X112967179Y-92815329D01*
X112848462Y-92779317D01*
X112725000Y-92767157D01*
X111275000Y-92767157D01*
X111151538Y-92779317D01*
X111032821Y-92815329D01*
X110923411Y-92873810D01*
X110827512Y-92952512D01*
X110748810Y-93048411D01*
X110690329Y-93157821D01*
X110654317Y-93276538D01*
X110642157Y-93400000D01*
X110642157Y-94600000D01*
X110654317Y-94723462D01*
X110690329Y-94842179D01*
X110748810Y-94951589D01*
X110827512Y-95047488D01*
X110923411Y-95126190D01*
X111032821Y-95184671D01*
X111136260Y-95216048D01*
X111097430Y-95234947D01*
X110865571Y-95410951D01*
X110672504Y-95628807D01*
X110525648Y-95880142D01*
X110433524Y-96143110D01*
X105066476Y-96143110D01*
X104974352Y-95880142D01*
X104827496Y-95628807D01*
X104634429Y-95410951D01*
X104402570Y-95234947D01*
X104363740Y-95216048D01*
X104467179Y-95184671D01*
X104576589Y-95126190D01*
X104672488Y-95047488D01*
X104751190Y-94951589D01*
X104809671Y-94842179D01*
X104845683Y-94723462D01*
X104857843Y-94600000D01*
X104857843Y-93400000D01*
X104845683Y-93276538D01*
X104809671Y-93157821D01*
X104751190Y-93048411D01*
X104672488Y-92952512D01*
X104576589Y-92873810D01*
X104467179Y-92815329D01*
X104348462Y-92779317D01*
X104225000Y-92767157D01*
X102775000Y-92767157D01*
X102651538Y-92779317D01*
X102532821Y-92815329D01*
X102423411Y-92873810D01*
X102327512Y-92952512D01*
X102248810Y-93048411D01*
X102190329Y-93157821D01*
X102154317Y-93276538D01*
X102142157Y-93400000D01*
X102142157Y-94600000D01*
X102154317Y-94723462D01*
X102190329Y-94842179D01*
X102248810Y-94951589D01*
X102327512Y-95047488D01*
X102423411Y-95126190D01*
X102532821Y-95184671D01*
X102636260Y-95216048D01*
X102597430Y-95234947D01*
X102365571Y-95410951D01*
X102172504Y-95628807D01*
X102025648Y-95880142D01*
X101933524Y-96143110D01*
X68720741Y-96143110D01*
X68333710Y-95756080D01*
X68338188Y-95741318D01*
X68361956Y-95500000D01*
X68338188Y-95258682D01*
X68267798Y-95026637D01*
X68153491Y-94812784D01*
X67999660Y-94625340D01*
X67812216Y-94471509D01*
X67598363Y-94357202D01*
X67366318Y-94286812D01*
X67185472Y-94269000D01*
X66814528Y-94269000D01*
X66633682Y-94286812D01*
X66401637Y-94357202D01*
X66278990Y-94422758D01*
X66278990Y-94183682D01*
X72319000Y-94183682D01*
X72319000Y-94416318D01*
X72364386Y-94644485D01*
X72453412Y-94859413D01*
X72582658Y-95052843D01*
X72747157Y-95217342D01*
X72940587Y-95346588D01*
X73155515Y-95435614D01*
X73383682Y-95481000D01*
X73616318Y-95481000D01*
X73844485Y-95435614D01*
X74059413Y-95346588D01*
X74252843Y-95217342D01*
X74417342Y-95052843D01*
X74546588Y-94859413D01*
X74635614Y-94644485D01*
X74681000Y-94416318D01*
X74681000Y-94183682D01*
X74859000Y-94183682D01*
X74859000Y-94416318D01*
X74904386Y-94644485D01*
X74993412Y-94859413D01*
X75122658Y-95052843D01*
X75287157Y-95217342D01*
X75480587Y-95346588D01*
X75695515Y-95435614D01*
X75923682Y-95481000D01*
X76156318Y-95481000D01*
X76384485Y-95435614D01*
X76599413Y-95346588D01*
X76792843Y-95217342D01*
X76957342Y-95052843D01*
X77086588Y-94859413D01*
X77175614Y-94644485D01*
X77221000Y-94416318D01*
X77221000Y-94183682D01*
X77399000Y-94183682D01*
X77399000Y-94416318D01*
X77444386Y-94644485D01*
X77533412Y-94859413D01*
X77662658Y-95052843D01*
X77827157Y-95217342D01*
X78020587Y-95346588D01*
X78235515Y-95435614D01*
X78463682Y-95481000D01*
X78696318Y-95481000D01*
X78924485Y-95435614D01*
X79139413Y-95346588D01*
X79332843Y-95217342D01*
X79497342Y-95052843D01*
X79626588Y-94859413D01*
X79715614Y-94644485D01*
X79761000Y-94416318D01*
X79761000Y-94183682D01*
X79939000Y-94183682D01*
X79939000Y-94416318D01*
X79984386Y-94644485D01*
X80073412Y-94859413D01*
X80202658Y-95052843D01*
X80367157Y-95217342D01*
X80560587Y-95346588D01*
X80775515Y-95435614D01*
X81003682Y-95481000D01*
X81236318Y-95481000D01*
X81464485Y-95435614D01*
X81679413Y-95346588D01*
X81872843Y-95217342D01*
X82037342Y-95052843D01*
X82166588Y-94859413D01*
X82255614Y-94644485D01*
X82301000Y-94416318D01*
X82301000Y-94183682D01*
X82479000Y-94183682D01*
X82479000Y-94416318D01*
X82524386Y-94644485D01*
X82613412Y-94859413D01*
X82742658Y-95052843D01*
X82907157Y-95217342D01*
X83100587Y-95346588D01*
X83315515Y-95435614D01*
X83543682Y-95481000D01*
X83776318Y-95481000D01*
X84004485Y-95435614D01*
X84219413Y-95346588D01*
X84412843Y-95217342D01*
X84577342Y-95052843D01*
X84706588Y-94859413D01*
X84795614Y-94644485D01*
X84841000Y-94416318D01*
X84841000Y-94183682D01*
X85019000Y-94183682D01*
X85019000Y-94416318D01*
X85064386Y-94644485D01*
X85153412Y-94859413D01*
X85282658Y-95052843D01*
X85447157Y-95217342D01*
X85640587Y-95346588D01*
X85855515Y-95435614D01*
X86083682Y-95481000D01*
X86316318Y-95481000D01*
X86544485Y-95435614D01*
X86759413Y-95346588D01*
X86952843Y-95217342D01*
X87117342Y-95052843D01*
X87246588Y-94859413D01*
X87335614Y-94644485D01*
X87381000Y-94416318D01*
X87381000Y-94183682D01*
X87559000Y-94183682D01*
X87559000Y-94416318D01*
X87604386Y-94644485D01*
X87693412Y-94859413D01*
X87822658Y-95052843D01*
X87987157Y-95217342D01*
X88180587Y-95346588D01*
X88395515Y-95435614D01*
X88623682Y-95481000D01*
X88856318Y-95481000D01*
X89084485Y-95435614D01*
X89299413Y-95346588D01*
X89492843Y-95217342D01*
X89657342Y-95052843D01*
X89786588Y-94859413D01*
X89875614Y-94644485D01*
X89921000Y-94416318D01*
X89921000Y-94183682D01*
X90099000Y-94183682D01*
X90099000Y-94416318D01*
X90144386Y-94644485D01*
X90233412Y-94859413D01*
X90362658Y-95052843D01*
X90527157Y-95217342D01*
X90720587Y-95346588D01*
X90935515Y-95435614D01*
X91163682Y-95481000D01*
X91396318Y-95481000D01*
X91624485Y-95435614D01*
X91839413Y-95346588D01*
X92032843Y-95217342D01*
X92197342Y-95052843D01*
X92326588Y-94859413D01*
X92415614Y-94644485D01*
X92461000Y-94416318D01*
X92461000Y-94183682D01*
X92415614Y-93955515D01*
X92326588Y-93740587D01*
X92197342Y-93547157D01*
X92032843Y-93382658D01*
X91839413Y-93253412D01*
X91624485Y-93164386D01*
X91396318Y-93119000D01*
X91163682Y-93119000D01*
X90935515Y-93164386D01*
X90720587Y-93253412D01*
X90527157Y-93382658D01*
X90362658Y-93547157D01*
X90233412Y-93740587D01*
X90144386Y-93955515D01*
X90099000Y-94183682D01*
X89921000Y-94183682D01*
X89875614Y-93955515D01*
X89786588Y-93740587D01*
X89657342Y-93547157D01*
X89492843Y-93382658D01*
X89299413Y-93253412D01*
X89084485Y-93164386D01*
X88856318Y-93119000D01*
X88623682Y-93119000D01*
X88395515Y-93164386D01*
X88180587Y-93253412D01*
X87987157Y-93382658D01*
X87822658Y-93547157D01*
X87693412Y-93740587D01*
X87604386Y-93955515D01*
X87559000Y-94183682D01*
X87381000Y-94183682D01*
X87335614Y-93955515D01*
X87246588Y-93740587D01*
X87117342Y-93547157D01*
X86952843Y-93382658D01*
X86759413Y-93253412D01*
X86544485Y-93164386D01*
X86316318Y-93119000D01*
X86083682Y-93119000D01*
X85855515Y-93164386D01*
X85640587Y-93253412D01*
X85447157Y-93382658D01*
X85282658Y-93547157D01*
X85153412Y-93740587D01*
X85064386Y-93955515D01*
X85019000Y-94183682D01*
X84841000Y-94183682D01*
X84795614Y-93955515D01*
X84706588Y-93740587D01*
X84577342Y-93547157D01*
X84412843Y-93382658D01*
X84219413Y-93253412D01*
X84004485Y-93164386D01*
X83776318Y-93119000D01*
X83543682Y-93119000D01*
X83315515Y-93164386D01*
X83100587Y-93253412D01*
X82907157Y-93382658D01*
X82742658Y-93547157D01*
X82613412Y-93740587D01*
X82524386Y-93955515D01*
X82479000Y-94183682D01*
X82301000Y-94183682D01*
X82255614Y-93955515D01*
X82166588Y-93740587D01*
X82037342Y-93547157D01*
X81872843Y-93382658D01*
X81679413Y-93253412D01*
X81464485Y-93164386D01*
X81236318Y-93119000D01*
X81003682Y-93119000D01*
X80775515Y-93164386D01*
X80560587Y-93253412D01*
X80367157Y-93382658D01*
X80202658Y-93547157D01*
X80073412Y-93740587D01*
X79984386Y-93955515D01*
X79939000Y-94183682D01*
X79761000Y-94183682D01*
X79715614Y-93955515D01*
X79626588Y-93740587D01*
X79497342Y-93547157D01*
X79332843Y-93382658D01*
X79139413Y-93253412D01*
X78924485Y-93164386D01*
X78696318Y-93119000D01*
X78463682Y-93119000D01*
X78235515Y-93164386D01*
X78020587Y-93253412D01*
X77827157Y-93382658D01*
X77662658Y-93547157D01*
X77533412Y-93740587D01*
X77444386Y-93955515D01*
X77399000Y-94183682D01*
X77221000Y-94183682D01*
X77175614Y-93955515D01*
X77086588Y-93740587D01*
X76957342Y-93547157D01*
X76792843Y-93382658D01*
X76599413Y-93253412D01*
X76384485Y-93164386D01*
X76156318Y-93119000D01*
X75923682Y-93119000D01*
X75695515Y-93164386D01*
X75480587Y-93253412D01*
X75287157Y-93382658D01*
X75122658Y-93547157D01*
X74993412Y-93740587D01*
X74904386Y-93955515D01*
X74859000Y-94183682D01*
X74681000Y-94183682D01*
X74635614Y-93955515D01*
X74546588Y-93740587D01*
X74417342Y-93547157D01*
X74252843Y-93382658D01*
X74059413Y-93253412D01*
X73844485Y-93164386D01*
X73616318Y-93119000D01*
X73383682Y-93119000D01*
X73155515Y-93164386D01*
X72940587Y-93253412D01*
X72747157Y-93382658D01*
X72582658Y-93547157D01*
X72453412Y-93740587D01*
X72364386Y-93955515D01*
X72319000Y-94183682D01*
X66278990Y-94183682D01*
X66278990Y-87753610D01*
X68817731Y-90292352D01*
X68841588Y-90321422D01*
X68870658Y-90345279D01*
X68957617Y-90416645D01*
X69028374Y-90454465D01*
X69089995Y-90487402D01*
X69233632Y-90530974D01*
X69345584Y-90542000D01*
X69345587Y-90542000D01*
X69383010Y-90545686D01*
X69420433Y-90542000D01*
X72591815Y-90542000D01*
X72747157Y-90697342D01*
X72940587Y-90826588D01*
X73155515Y-90915614D01*
X73383682Y-90961000D01*
X73616318Y-90961000D01*
X73844485Y-90915614D01*
X74059413Y-90826588D01*
X74252843Y-90697342D01*
X74417342Y-90532843D01*
X74546588Y-90339413D01*
X74635614Y-90124485D01*
X74681000Y-89896318D01*
X74681000Y-89663682D01*
X85019000Y-89663682D01*
X85019000Y-89896318D01*
X85064386Y-90124485D01*
X85153412Y-90339413D01*
X85282658Y-90532843D01*
X85447157Y-90697342D01*
X85640587Y-90826588D01*
X85855515Y-90915614D01*
X86083682Y-90961000D01*
X86316318Y-90961000D01*
X86544485Y-90915614D01*
X86759413Y-90826588D01*
X86952843Y-90697342D01*
X87117342Y-90532843D01*
X87246588Y-90339413D01*
X87335614Y-90124485D01*
X87381000Y-89896318D01*
X87381000Y-89663682D01*
X87335614Y-89435515D01*
X87246588Y-89220587D01*
X87117342Y-89027157D01*
X86952843Y-88862658D01*
X86759413Y-88733412D01*
X86544485Y-88644386D01*
X86316318Y-88599000D01*
X86083682Y-88599000D01*
X85855515Y-88644386D01*
X85640587Y-88733412D01*
X85447157Y-88862658D01*
X85282658Y-89027157D01*
X85153412Y-89220587D01*
X85064386Y-89435515D01*
X85019000Y-89663682D01*
X74681000Y-89663682D01*
X74635614Y-89435515D01*
X74546588Y-89220587D01*
X74417342Y-89027157D01*
X74252843Y-88862658D01*
X74059413Y-88733412D01*
X73844485Y-88644386D01*
X73627002Y-88601125D01*
X73627002Y-88510625D01*
X73849040Y-88631909D01*
X74113881Y-88537070D01*
X74355131Y-88392385D01*
X74563519Y-88203414D01*
X74731037Y-87977420D01*
X74851246Y-87723087D01*
X74891904Y-87589039D01*
X74769915Y-87367000D01*
X73627000Y-87367000D01*
X73627000Y-87387000D01*
X73373000Y-87387000D01*
X73373000Y-87367000D01*
X72230085Y-87367000D01*
X72108096Y-87589039D01*
X72148754Y-87723087D01*
X72268963Y-87977420D01*
X72436481Y-88203414D01*
X72644869Y-88392385D01*
X72886119Y-88537070D01*
X73150960Y-88631909D01*
X73372998Y-88510625D01*
X73372998Y-88601125D01*
X73155515Y-88644386D01*
X72940587Y-88733412D01*
X72747157Y-88862658D01*
X72591815Y-89018000D01*
X69698641Y-89018000D01*
X67804323Y-87123682D01*
X85019000Y-87123682D01*
X85019000Y-87356318D01*
X85064386Y-87584485D01*
X85153412Y-87799413D01*
X85282658Y-87992843D01*
X85447157Y-88157342D01*
X85640587Y-88286588D01*
X85855515Y-88375614D01*
X86083682Y-88421000D01*
X86316318Y-88421000D01*
X86544485Y-88375614D01*
X86759413Y-88286588D01*
X86952843Y-88157342D01*
X87117342Y-87992843D01*
X87246588Y-87799413D01*
X87335614Y-87584485D01*
X87381000Y-87356318D01*
X87381000Y-87123682D01*
X87335614Y-86895515D01*
X87246588Y-86680587D01*
X87117342Y-86487157D01*
X86952843Y-86322658D01*
X86759413Y-86193412D01*
X86544485Y-86104386D01*
X86316318Y-86059000D01*
X86083682Y-86059000D01*
X85855515Y-86104386D01*
X85640587Y-86193412D01*
X85447157Y-86322658D01*
X85282658Y-86487157D01*
X85153412Y-86680587D01*
X85064386Y-86895515D01*
X85019000Y-87123682D01*
X67804323Y-87123682D01*
X66913483Y-86232843D01*
X67725000Y-86232843D01*
X67848462Y-86220683D01*
X67967179Y-86184671D01*
X68076589Y-86126190D01*
X68172488Y-86047488D01*
X68251190Y-85951589D01*
X68309671Y-85842179D01*
X68333993Y-85762000D01*
X72977795Y-85762000D01*
X73155515Y-85835614D01*
X73372998Y-85878875D01*
X73372998Y-85969375D01*
X73150960Y-85848091D01*
X72886119Y-85942930D01*
X72644869Y-86087615D01*
X72436481Y-86276586D01*
X72268963Y-86502580D01*
X72148754Y-86756913D01*
X72108096Y-86890961D01*
X72230085Y-87113000D01*
X73373000Y-87113000D01*
X73373000Y-87093000D01*
X73627000Y-87093000D01*
X73627000Y-87113000D01*
X74769915Y-87113000D01*
X74891904Y-86890961D01*
X74851246Y-86756913D01*
X74731037Y-86502580D01*
X74563519Y-86276586D01*
X74355131Y-86087615D01*
X74113881Y-85942930D01*
X73849040Y-85848091D01*
X73627002Y-85969375D01*
X73627002Y-85878875D01*
X73844485Y-85835614D01*
X74059413Y-85746588D01*
X74252843Y-85617342D01*
X74417342Y-85452843D01*
X74546588Y-85259413D01*
X74635614Y-85044485D01*
X74681000Y-84816318D01*
X74681000Y-84583682D01*
X85019000Y-84583682D01*
X85019000Y-84816318D01*
X85064386Y-85044485D01*
X85153412Y-85259413D01*
X85282658Y-85452843D01*
X85447157Y-85617342D01*
X85640587Y-85746588D01*
X85855515Y-85835614D01*
X86083682Y-85881000D01*
X86316318Y-85881000D01*
X86544485Y-85835614D01*
X86759413Y-85746588D01*
X86952843Y-85617342D01*
X87117342Y-85452843D01*
X87246588Y-85259413D01*
X87335614Y-85044485D01*
X87381000Y-84816318D01*
X87381000Y-84583682D01*
X87335614Y-84355515D01*
X87246588Y-84140587D01*
X87117342Y-83947157D01*
X86952843Y-83782658D01*
X86759413Y-83653412D01*
X86544485Y-83564386D01*
X86316318Y-83519000D01*
X86083682Y-83519000D01*
X85855515Y-83564386D01*
X85640587Y-83653412D01*
X85447157Y-83782658D01*
X85282658Y-83947157D01*
X85153412Y-84140587D01*
X85064386Y-84355515D01*
X85019000Y-84583682D01*
X74681000Y-84583682D01*
X74635614Y-84355515D01*
X74546588Y-84140587D01*
X74417342Y-83947157D01*
X74252843Y-83782658D01*
X74059413Y-83653412D01*
X73844485Y-83564386D01*
X73616318Y-83519000D01*
X73383682Y-83519000D01*
X73155515Y-83564386D01*
X72940587Y-83653412D01*
X72747157Y-83782658D01*
X72582658Y-83947157D01*
X72453412Y-84140587D01*
X72413062Y-84238000D01*
X68333993Y-84238000D01*
X68309671Y-84157821D01*
X68251190Y-84048411D01*
X68172488Y-83952512D01*
X68076589Y-83873810D01*
X67967179Y-83815329D01*
X67848462Y-83779317D01*
X67725000Y-83767157D01*
X66278990Y-83767157D01*
X66278990Y-83577242D01*
X66401637Y-83642798D01*
X66633682Y-83713188D01*
X66814528Y-83731000D01*
X67185472Y-83731000D01*
X67366318Y-83713188D01*
X67598363Y-83642798D01*
X67812216Y-83528491D01*
X67999660Y-83374660D01*
X68092117Y-83262000D01*
X73074364Y-83262000D01*
X73155515Y-83295614D01*
X73383682Y-83341000D01*
X73616318Y-83341000D01*
X73844485Y-83295614D01*
X74059413Y-83206588D01*
X74252843Y-83077342D01*
X74417342Y-82912843D01*
X74546588Y-82719413D01*
X74635614Y-82504485D01*
X74681000Y-82276318D01*
X74681000Y-82043682D01*
X74635614Y-81815515D01*
X74546588Y-81600587D01*
X74417342Y-81407157D01*
X74252843Y-81242658D01*
X74059413Y-81113412D01*
X73844485Y-81024386D01*
X73616318Y-80979000D01*
X73383682Y-80979000D01*
X73155515Y-81024386D01*
X72940587Y-81113412D01*
X72747157Y-81242658D01*
X72582658Y-81407157D01*
X72453412Y-81600587D01*
X72396494Y-81738000D01*
X68092117Y-81738000D01*
X67999660Y-81625340D01*
X67812216Y-81471509D01*
X67598363Y-81357202D01*
X67366318Y-81286812D01*
X67185472Y-81269000D01*
X66814528Y-81269000D01*
X66633682Y-81286812D01*
X66401637Y-81357202D01*
X66278990Y-81422758D01*
X66278990Y-81077242D01*
X66401637Y-81142798D01*
X66633682Y-81213188D01*
X66814528Y-81231000D01*
X67185472Y-81231000D01*
X67366318Y-81213188D01*
X67598363Y-81142798D01*
X67812216Y-81028491D01*
X67897187Y-80958757D01*
X78769000Y-80958757D01*
X78769000Y-81201243D01*
X78816307Y-81439069D01*
X78909102Y-81663097D01*
X79043820Y-81864717D01*
X79215283Y-82036180D01*
X79416903Y-82170898D01*
X79640931Y-82263693D01*
X79878757Y-82311000D01*
X80121243Y-82311000D01*
X80359069Y-82263693D01*
X80583097Y-82170898D01*
X80784717Y-82036180D01*
X80956180Y-81864717D01*
X81090898Y-81663097D01*
X81183693Y-81439069D01*
X81231000Y-81201243D01*
X81231000Y-80958757D01*
X81309000Y-80958757D01*
X81309000Y-81201243D01*
X81356307Y-81439069D01*
X81449102Y-81663097D01*
X81583820Y-81864717D01*
X81755283Y-82036180D01*
X81956903Y-82170898D01*
X82180931Y-82263693D01*
X82418757Y-82311000D01*
X82661243Y-82311000D01*
X82899069Y-82263693D01*
X83123097Y-82170898D01*
X83313489Y-82043682D01*
X85019000Y-82043682D01*
X85019000Y-82276318D01*
X85064386Y-82504485D01*
X85153412Y-82719413D01*
X85282658Y-82912843D01*
X85447157Y-83077342D01*
X85640587Y-83206588D01*
X85855515Y-83295614D01*
X86083682Y-83341000D01*
X86316318Y-83341000D01*
X86544485Y-83295614D01*
X86759413Y-83206588D01*
X86952843Y-83077342D01*
X87117342Y-82912843D01*
X87246588Y-82719413D01*
X87335614Y-82504485D01*
X87381000Y-82276318D01*
X87381000Y-82043682D01*
X87335614Y-81815515D01*
X87246588Y-81600587D01*
X87117342Y-81407157D01*
X86952843Y-81242658D01*
X86759413Y-81113412D01*
X86544485Y-81024386D01*
X86421891Y-81000000D01*
X111239254Y-81000000D01*
X111258195Y-81192310D01*
X111314289Y-81377229D01*
X111405382Y-81547651D01*
X111527972Y-81697028D01*
X111677349Y-81819618D01*
X111847771Y-81910711D01*
X112032690Y-81966805D01*
X112176813Y-81981000D01*
X112823187Y-81981000D01*
X112967310Y-81966805D01*
X113152229Y-81910711D01*
X113322651Y-81819618D01*
X113472028Y-81697028D01*
X113594618Y-81547651D01*
X113685711Y-81377229D01*
X113741805Y-81192310D01*
X113760746Y-81000000D01*
X113741805Y-80807690D01*
X113685711Y-80622771D01*
X113594618Y-80452349D01*
X113472028Y-80302972D01*
X113322651Y-80180382D01*
X113152229Y-80089289D01*
X112967310Y-80033195D01*
X112823187Y-80019000D01*
X112176813Y-80019000D01*
X112032690Y-80033195D01*
X111847771Y-80089289D01*
X111677349Y-80180382D01*
X111527972Y-80302972D01*
X111405382Y-80452349D01*
X111314289Y-80622771D01*
X111258195Y-80807690D01*
X111239254Y-81000000D01*
X86421891Y-81000000D01*
X86316318Y-80979000D01*
X86083682Y-80979000D01*
X85855515Y-81024386D01*
X85640587Y-81113412D01*
X85447157Y-81242658D01*
X85282658Y-81407157D01*
X85153412Y-81600587D01*
X85064386Y-81815515D01*
X85019000Y-82043682D01*
X83313489Y-82043682D01*
X83324717Y-82036180D01*
X83496180Y-81864717D01*
X83630898Y-81663097D01*
X83723693Y-81439069D01*
X83771000Y-81201243D01*
X83771000Y-80958757D01*
X83723693Y-80720931D01*
X83630898Y-80496903D01*
X83496180Y-80295283D01*
X83324717Y-80123820D01*
X83123097Y-79989102D01*
X82899069Y-79896307D01*
X82661243Y-79849000D01*
X82418757Y-79849000D01*
X82180931Y-79896307D01*
X81956903Y-79989102D01*
X81755283Y-80123820D01*
X81583820Y-80295283D01*
X81449102Y-80496903D01*
X81356307Y-80720931D01*
X81309000Y-80958757D01*
X81231000Y-80958757D01*
X81183693Y-80720931D01*
X81090898Y-80496903D01*
X80956180Y-80295283D01*
X80784717Y-80123820D01*
X80583097Y-79989102D01*
X80359069Y-79896307D01*
X80121243Y-79849000D01*
X79878757Y-79849000D01*
X79640931Y-79896307D01*
X79416903Y-79989102D01*
X79215283Y-80123820D01*
X79043820Y-80295283D01*
X78909102Y-80496903D01*
X78816307Y-80720931D01*
X78769000Y-80958757D01*
X67897187Y-80958757D01*
X67999660Y-80874660D01*
X68092117Y-80762000D01*
X73082577Y-80762000D01*
X73120000Y-80765686D01*
X73157423Y-80762000D01*
X73157426Y-80762000D01*
X73177620Y-80760011D01*
X73383682Y-80801000D01*
X73616318Y-80801000D01*
X73844485Y-80755614D01*
X74059413Y-80666588D01*
X74252843Y-80537342D01*
X74417342Y-80372843D01*
X74546588Y-80179413D01*
X74635614Y-79964485D01*
X74681000Y-79736318D01*
X74681000Y-79503682D01*
X74635614Y-79275515D01*
X74546588Y-79060587D01*
X74417342Y-78867157D01*
X74252843Y-78702658D01*
X74059413Y-78573412D01*
X73844485Y-78484386D01*
X73616318Y-78439000D01*
X73383682Y-78439000D01*
X73155515Y-78484386D01*
X72940587Y-78573412D01*
X72747157Y-78702658D01*
X72582658Y-78867157D01*
X72453412Y-79060587D01*
X72379925Y-79238000D01*
X68092117Y-79238000D01*
X67999660Y-79125340D01*
X67812216Y-78971509D01*
X67598363Y-78857202D01*
X67366318Y-78786812D01*
X67185472Y-78769000D01*
X66814528Y-78769000D01*
X66633682Y-78786812D01*
X66401637Y-78857202D01*
X66278990Y-78922758D01*
X66278990Y-78577242D01*
X66401637Y-78642798D01*
X66633682Y-78713188D01*
X66814528Y-78731000D01*
X67185472Y-78731000D01*
X67366318Y-78713188D01*
X67598363Y-78642798D01*
X67812216Y-78528491D01*
X67945927Y-78418757D01*
X78769000Y-78418757D01*
X78769000Y-78661243D01*
X78816307Y-78899069D01*
X78909102Y-79123097D01*
X79043820Y-79324717D01*
X79215283Y-79496180D01*
X79416903Y-79630898D01*
X79640931Y-79723693D01*
X79878757Y-79771000D01*
X80121243Y-79771000D01*
X80359069Y-79723693D01*
X80583097Y-79630898D01*
X80784717Y-79496180D01*
X80956180Y-79324717D01*
X81090898Y-79123097D01*
X81183693Y-78899069D01*
X81231000Y-78661243D01*
X81231000Y-78418757D01*
X81309000Y-78418757D01*
X81309000Y-78661243D01*
X81356307Y-78899069D01*
X81449102Y-79123097D01*
X81583820Y-79324717D01*
X81755283Y-79496180D01*
X81956903Y-79630898D01*
X82180931Y-79723693D01*
X82418757Y-79771000D01*
X82661243Y-79771000D01*
X82899069Y-79723693D01*
X83123097Y-79630898D01*
X83313489Y-79503682D01*
X85019000Y-79503682D01*
X85019000Y-79736318D01*
X85064386Y-79964485D01*
X85153412Y-80179413D01*
X85282658Y-80372843D01*
X85447157Y-80537342D01*
X85640587Y-80666588D01*
X85855515Y-80755614D01*
X86083682Y-80801000D01*
X86316318Y-80801000D01*
X86544485Y-80755614D01*
X86759413Y-80666588D01*
X86952843Y-80537342D01*
X87117342Y-80372843D01*
X87246588Y-80179413D01*
X87335614Y-79964485D01*
X87381000Y-79736318D01*
X87381000Y-79503682D01*
X87335614Y-79275515D01*
X87246588Y-79060587D01*
X87206105Y-79000000D01*
X111239254Y-79000000D01*
X111258195Y-79192310D01*
X111314289Y-79377229D01*
X111405382Y-79547651D01*
X111527972Y-79697028D01*
X111677349Y-79819618D01*
X111847771Y-79910711D01*
X112032690Y-79966805D01*
X112176813Y-79981000D01*
X112823187Y-79981000D01*
X112967310Y-79966805D01*
X113152229Y-79910711D01*
X113322651Y-79819618D01*
X113472028Y-79697028D01*
X113594618Y-79547651D01*
X113685711Y-79377229D01*
X113741805Y-79192310D01*
X113760746Y-79000000D01*
X113741805Y-78807690D01*
X113685711Y-78622771D01*
X113594618Y-78452349D01*
X113472028Y-78302972D01*
X113322651Y-78180382D01*
X113152229Y-78089289D01*
X112967310Y-78033195D01*
X112823187Y-78019000D01*
X112176813Y-78019000D01*
X112032690Y-78033195D01*
X111847771Y-78089289D01*
X111677349Y-78180382D01*
X111527972Y-78302972D01*
X111405382Y-78452349D01*
X111314289Y-78622771D01*
X111258195Y-78807690D01*
X111239254Y-79000000D01*
X87206105Y-79000000D01*
X87117342Y-78867157D01*
X86952843Y-78702658D01*
X86759413Y-78573412D01*
X86544485Y-78484386D01*
X86316318Y-78439000D01*
X86083682Y-78439000D01*
X85855515Y-78484386D01*
X85640587Y-78573412D01*
X85447157Y-78702658D01*
X85282658Y-78867157D01*
X85153412Y-79060587D01*
X85064386Y-79275515D01*
X85019000Y-79503682D01*
X83313489Y-79503682D01*
X83324717Y-79496180D01*
X83496180Y-79324717D01*
X83630898Y-79123097D01*
X83723693Y-78899069D01*
X83771000Y-78661243D01*
X83771000Y-78418757D01*
X83723693Y-78180931D01*
X83630898Y-77956903D01*
X83496180Y-77755283D01*
X83324717Y-77583820D01*
X83123097Y-77449102D01*
X82899069Y-77356307D01*
X82661243Y-77309000D01*
X82418757Y-77309000D01*
X82180931Y-77356307D01*
X81956903Y-77449102D01*
X81755283Y-77583820D01*
X81583820Y-77755283D01*
X81449102Y-77956903D01*
X81356307Y-78180931D01*
X81309000Y-78418757D01*
X81231000Y-78418757D01*
X81183693Y-78180931D01*
X81090898Y-77956903D01*
X80956180Y-77755283D01*
X80784717Y-77583820D01*
X80583097Y-77449102D01*
X80359069Y-77356307D01*
X80121243Y-77309000D01*
X79878757Y-77309000D01*
X79640931Y-77356307D01*
X79416903Y-77449102D01*
X79215283Y-77583820D01*
X79043820Y-77755283D01*
X78909102Y-77956903D01*
X78816307Y-78180931D01*
X78769000Y-78418757D01*
X67945927Y-78418757D01*
X67999660Y-78374660D01*
X68092117Y-78262000D01*
X73042577Y-78262000D01*
X73080000Y-78265686D01*
X73117423Y-78262000D01*
X73117426Y-78262000D01*
X73229378Y-78250974D01*
X73270527Y-78238492D01*
X73383682Y-78261000D01*
X73616318Y-78261000D01*
X73844485Y-78215614D01*
X74059413Y-78126588D01*
X74252843Y-77997342D01*
X74417342Y-77832843D01*
X74546588Y-77639413D01*
X74635614Y-77424485D01*
X74681000Y-77196318D01*
X74681000Y-76963682D01*
X74635614Y-76735515D01*
X74546588Y-76520587D01*
X74417342Y-76327157D01*
X74252843Y-76162658D01*
X74059413Y-76033412D01*
X73844485Y-75944386D01*
X73616318Y-75899000D01*
X73383682Y-75899000D01*
X73155515Y-75944386D01*
X72940587Y-76033412D01*
X72747157Y-76162658D01*
X72582658Y-76327157D01*
X72453412Y-76520587D01*
X72364386Y-76735515D01*
X72363892Y-76738000D01*
X68092117Y-76738000D01*
X67999660Y-76625340D01*
X67812216Y-76471509D01*
X67598363Y-76357202D01*
X67366318Y-76286812D01*
X67185472Y-76269000D01*
X66814528Y-76269000D01*
X66633682Y-76286812D01*
X66401637Y-76357202D01*
X66278990Y-76422758D01*
X66278990Y-72800000D01*
X72061928Y-72800000D01*
X72074188Y-72924482D01*
X72110498Y-73044180D01*
X72169463Y-73154494D01*
X72248815Y-73251185D01*
X72345506Y-73330537D01*
X72455820Y-73389502D01*
X72575518Y-73425812D01*
X72700000Y-73438072D01*
X73079665Y-73435804D01*
X72940587Y-73493412D01*
X72747157Y-73622658D01*
X72582658Y-73787157D01*
X72453412Y-73980587D01*
X72364386Y-74195515D01*
X72319000Y-74423682D01*
X72319000Y-74656318D01*
X72364386Y-74884485D01*
X72453412Y-75099413D01*
X72582658Y-75292843D01*
X72747157Y-75457342D01*
X72940587Y-75586588D01*
X73155515Y-75675614D01*
X73383682Y-75721000D01*
X73616318Y-75721000D01*
X73844485Y-75675614D01*
X74059413Y-75586588D01*
X74252843Y-75457342D01*
X74417342Y-75292843D01*
X74512786Y-75150000D01*
X78767157Y-75150000D01*
X78767157Y-76850000D01*
X78774513Y-76924689D01*
X78796299Y-76996508D01*
X78831678Y-77062696D01*
X78879289Y-77120711D01*
X78937304Y-77168322D01*
X79003492Y-77203701D01*
X79075311Y-77225487D01*
X79150000Y-77232843D01*
X80850000Y-77232843D01*
X80924689Y-77225487D01*
X80996508Y-77203701D01*
X81062696Y-77168322D01*
X81120711Y-77120711D01*
X81168322Y-77062696D01*
X81203701Y-76996508D01*
X81225487Y-76924689D01*
X81232843Y-76850000D01*
X81232843Y-75878757D01*
X81309000Y-75878757D01*
X81309000Y-76121243D01*
X81356307Y-76359069D01*
X81449102Y-76583097D01*
X81583820Y-76784717D01*
X81755283Y-76956180D01*
X81956903Y-77090898D01*
X82180931Y-77183693D01*
X82418757Y-77231000D01*
X82661243Y-77231000D01*
X82899069Y-77183693D01*
X83123097Y-77090898D01*
X83313489Y-76963682D01*
X85019000Y-76963682D01*
X85019000Y-77196318D01*
X85064386Y-77424485D01*
X85153412Y-77639413D01*
X85282658Y-77832843D01*
X85447157Y-77997342D01*
X85640587Y-78126588D01*
X85855515Y-78215614D01*
X86083682Y-78261000D01*
X86316318Y-78261000D01*
X86544485Y-78215614D01*
X86759413Y-78126588D01*
X86952843Y-77997342D01*
X87117342Y-77832843D01*
X87246588Y-77639413D01*
X87335614Y-77424485D01*
X87381000Y-77196318D01*
X87381000Y-77000000D01*
X111239254Y-77000000D01*
X111258195Y-77192310D01*
X111314289Y-77377229D01*
X111405382Y-77547651D01*
X111527972Y-77697028D01*
X111677349Y-77819618D01*
X111847771Y-77910711D01*
X112032690Y-77966805D01*
X112176813Y-77981000D01*
X112823187Y-77981000D01*
X112967310Y-77966805D01*
X113152229Y-77910711D01*
X113322651Y-77819618D01*
X113472028Y-77697028D01*
X113594618Y-77547651D01*
X113636124Y-77470000D01*
X114473133Y-77470000D01*
X114497828Y-77494695D01*
X114610152Y-77569748D01*
X114734960Y-77621445D01*
X114867455Y-77647800D01*
X115002545Y-77647800D01*
X115135040Y-77621445D01*
X115259848Y-77569748D01*
X115372172Y-77494695D01*
X115467695Y-77399172D01*
X115542748Y-77286848D01*
X115594445Y-77162040D01*
X115620800Y-77029545D01*
X115620800Y-76894455D01*
X115594445Y-76761960D01*
X115542748Y-76637152D01*
X115467695Y-76524828D01*
X115372172Y-76429305D01*
X115259848Y-76354252D01*
X115135040Y-76302555D01*
X115002545Y-76276200D01*
X114867455Y-76276200D01*
X114734960Y-76302555D01*
X114610152Y-76354252D01*
X114497828Y-76429305D01*
X114473133Y-76454000D01*
X113595500Y-76454000D01*
X113594618Y-76452349D01*
X113472028Y-76302972D01*
X113322651Y-76180382D01*
X113152229Y-76089289D01*
X112967310Y-76033195D01*
X112823187Y-76019000D01*
X112176813Y-76019000D01*
X112032690Y-76033195D01*
X111847771Y-76089289D01*
X111677349Y-76180382D01*
X111527972Y-76302972D01*
X111405382Y-76452349D01*
X111314289Y-76622771D01*
X111258195Y-76807690D01*
X111239254Y-77000000D01*
X87381000Y-77000000D01*
X87381000Y-76963682D01*
X87335614Y-76735515D01*
X87246588Y-76520587D01*
X87117342Y-76327157D01*
X86952843Y-76162658D01*
X86910764Y-76134541D01*
X96045064Y-76134541D01*
X96055575Y-76327763D01*
X96225603Y-76398562D01*
X96406176Y-76434828D01*
X96590355Y-76435171D01*
X96771061Y-76399574D01*
X96941351Y-76329408D01*
X96944425Y-76327763D01*
X96954936Y-76134541D01*
X97545064Y-76134541D01*
X97555575Y-76327763D01*
X97725603Y-76398562D01*
X97906176Y-76434828D01*
X98090355Y-76435171D01*
X98271061Y-76399574D01*
X98441351Y-76329408D01*
X98444425Y-76327763D01*
X98454936Y-76134541D01*
X98000000Y-75679605D01*
X97545064Y-76134541D01*
X96954936Y-76134541D01*
X96500000Y-75679605D01*
X96045064Y-76134541D01*
X86910764Y-76134541D01*
X86759413Y-76033412D01*
X86544485Y-75944386D01*
X86316318Y-75899000D01*
X86083682Y-75899000D01*
X85855515Y-75944386D01*
X85640587Y-76033412D01*
X85447157Y-76162658D01*
X85282658Y-76327157D01*
X85153412Y-76520587D01*
X85064386Y-76735515D01*
X85019000Y-76963682D01*
X83313489Y-76963682D01*
X83324717Y-76956180D01*
X83496180Y-76784717D01*
X83630898Y-76583097D01*
X83723693Y-76359069D01*
X83771000Y-76121243D01*
X83771000Y-75878757D01*
X83723693Y-75640931D01*
X83630898Y-75416903D01*
X83496180Y-75215283D01*
X83324717Y-75043820D01*
X83123097Y-74909102D01*
X82899069Y-74816307D01*
X82661243Y-74769000D01*
X82418757Y-74769000D01*
X82180931Y-74816307D01*
X81956903Y-74909102D01*
X81755283Y-75043820D01*
X81583820Y-75215283D01*
X81449102Y-75416903D01*
X81356307Y-75640931D01*
X81309000Y-75878757D01*
X81232843Y-75878757D01*
X81232843Y-75150000D01*
X81225487Y-75075311D01*
X81203701Y-75003492D01*
X81168322Y-74937304D01*
X81120711Y-74879289D01*
X81062696Y-74831678D01*
X80996508Y-74796299D01*
X80924689Y-74774513D01*
X80850000Y-74767157D01*
X79150000Y-74767157D01*
X79075311Y-74774513D01*
X79003492Y-74796299D01*
X78937304Y-74831678D01*
X78879289Y-74879289D01*
X78831678Y-74937304D01*
X78796299Y-75003492D01*
X78774513Y-75075311D01*
X78767157Y-75150000D01*
X74512786Y-75150000D01*
X74546588Y-75099413D01*
X74635614Y-74884485D01*
X74681000Y-74656318D01*
X74681000Y-74423682D01*
X85019000Y-74423682D01*
X85019000Y-74656318D01*
X85064386Y-74884485D01*
X85153412Y-75099413D01*
X85282658Y-75292843D01*
X85447157Y-75457342D01*
X85640587Y-75586588D01*
X85855515Y-75675614D01*
X86083682Y-75721000D01*
X86316318Y-75721000D01*
X86544485Y-75675614D01*
X86759413Y-75586588D01*
X86952843Y-75457342D01*
X87025644Y-75384541D01*
X95295064Y-75384541D01*
X95305575Y-75577763D01*
X95475603Y-75648562D01*
X95580443Y-75669618D01*
X95600426Y-75771061D01*
X95670592Y-75941351D01*
X95672237Y-75944425D01*
X95865459Y-75954936D01*
X96320395Y-75500000D01*
X96679605Y-75500000D01*
X97134541Y-75954936D01*
X97250000Y-75948655D01*
X97365459Y-75954936D01*
X97740732Y-75579663D01*
X97741351Y-75579408D01*
X97744425Y-75577763D01*
X97744528Y-75575867D01*
X97820395Y-75500000D01*
X98179605Y-75500000D01*
X98634541Y-75954936D01*
X98827763Y-75944425D01*
X98898562Y-75774397D01*
X98919618Y-75669557D01*
X99021061Y-75649574D01*
X99191351Y-75579408D01*
X99194425Y-75577763D01*
X99204936Y-75384541D01*
X98750000Y-74929605D01*
X98179605Y-75500000D01*
X97820395Y-75500000D01*
X97752356Y-75431961D01*
X97754936Y-75384541D01*
X97300000Y-74929605D01*
X97181961Y-75047644D01*
X97134541Y-75045064D01*
X96679605Y-75500000D01*
X96320395Y-75500000D01*
X95750000Y-74929605D01*
X95295064Y-75384541D01*
X87025644Y-75384541D01*
X87117342Y-75292843D01*
X87246588Y-75099413D01*
X87335614Y-74884485D01*
X87344392Y-74840355D01*
X94814829Y-74840355D01*
X94850426Y-75021061D01*
X94920592Y-75191351D01*
X94922237Y-75194425D01*
X95115459Y-75204936D01*
X95570395Y-74750000D01*
X95929605Y-74750000D01*
X96500000Y-75320395D01*
X96618039Y-75202356D01*
X96665459Y-75204936D01*
X97120395Y-74750000D01*
X97479605Y-74750000D01*
X97547644Y-74818039D01*
X97545064Y-74865459D01*
X98000000Y-75320395D01*
X98125867Y-75194528D01*
X98127763Y-75194425D01*
X98129042Y-75191353D01*
X98570395Y-74750000D01*
X98929605Y-74750000D01*
X99384541Y-75204936D01*
X99577763Y-75194425D01*
X99648562Y-75024397D01*
X99653461Y-75000000D01*
X111239254Y-75000000D01*
X111258195Y-75192310D01*
X111314289Y-75377229D01*
X111405382Y-75547651D01*
X111527972Y-75697028D01*
X111677349Y-75819618D01*
X111847771Y-75910711D01*
X112032690Y-75966805D01*
X112176813Y-75981000D01*
X112823187Y-75981000D01*
X112967310Y-75966805D01*
X113152229Y-75910711D01*
X113322651Y-75819618D01*
X113472028Y-75697028D01*
X113594618Y-75547651D01*
X113685711Y-75377229D01*
X113741805Y-75192310D01*
X113760746Y-75000000D01*
X113741805Y-74807690D01*
X113685711Y-74622771D01*
X113594618Y-74452349D01*
X113472028Y-74302972D01*
X113322651Y-74180382D01*
X113152229Y-74089289D01*
X112967310Y-74033195D01*
X112823187Y-74019000D01*
X112176813Y-74019000D01*
X112032690Y-74033195D01*
X111847771Y-74089289D01*
X111677349Y-74180382D01*
X111527972Y-74302972D01*
X111405382Y-74452349D01*
X111314289Y-74622771D01*
X111258195Y-74807690D01*
X111239254Y-75000000D01*
X99653461Y-75000000D01*
X99684828Y-74843824D01*
X99685171Y-74659645D01*
X99649574Y-74478939D01*
X99579408Y-74308649D01*
X99577763Y-74305575D01*
X99384541Y-74295064D01*
X98929605Y-74750000D01*
X98570395Y-74750000D01*
X98129663Y-74309268D01*
X98129408Y-74308649D01*
X98127763Y-74305575D01*
X98125867Y-74305472D01*
X98000000Y-74179605D01*
X97545064Y-74634541D01*
X97547644Y-74681961D01*
X97479605Y-74750000D01*
X97120395Y-74750000D01*
X96665459Y-74295064D01*
X96618039Y-74297644D01*
X96500000Y-74179605D01*
X95929605Y-74750000D01*
X95570395Y-74750000D01*
X95115459Y-74295064D01*
X94922237Y-74305575D01*
X94851438Y-74475603D01*
X94815172Y-74656176D01*
X94814829Y-74840355D01*
X87344392Y-74840355D01*
X87381000Y-74656318D01*
X87381000Y-74423682D01*
X87335614Y-74195515D01*
X87246588Y-73980587D01*
X87182413Y-73884541D01*
X95295064Y-73884541D01*
X95301345Y-74000000D01*
X95295064Y-74115459D01*
X95750000Y-74570395D01*
X96320395Y-74000000D01*
X96679605Y-74000000D01*
X97134541Y-74454936D01*
X97181961Y-74452356D01*
X97300000Y-74570395D01*
X97754936Y-74115459D01*
X97752356Y-74068039D01*
X97820395Y-74000000D01*
X98179605Y-74000000D01*
X98750000Y-74570395D01*
X99204936Y-74115459D01*
X99198655Y-74000000D01*
X99204936Y-73884541D01*
X98750000Y-73429605D01*
X98179605Y-74000000D01*
X97820395Y-74000000D01*
X97752356Y-73931961D01*
X97754936Y-73884541D01*
X97300000Y-73429605D01*
X97181961Y-73547644D01*
X97134541Y-73545064D01*
X96679605Y-74000000D01*
X96320395Y-74000000D01*
X95750000Y-73429605D01*
X95295064Y-73884541D01*
X87182413Y-73884541D01*
X87117342Y-73787157D01*
X86952843Y-73622658D01*
X86759413Y-73493412D01*
X86544485Y-73404386D01*
X86316318Y-73359000D01*
X86083682Y-73359000D01*
X85855515Y-73404386D01*
X85640587Y-73493412D01*
X85447157Y-73622658D01*
X85282658Y-73787157D01*
X85153412Y-73980587D01*
X85064386Y-74195515D01*
X85019000Y-74423682D01*
X74681000Y-74423682D01*
X74635614Y-74195515D01*
X74546588Y-73980587D01*
X74417342Y-73787157D01*
X74252843Y-73622658D01*
X74059413Y-73493412D01*
X73920335Y-73435804D01*
X74300000Y-73438072D01*
X74424482Y-73425812D01*
X74544180Y-73389502D01*
X74636126Y-73340355D01*
X94814829Y-73340355D01*
X94850426Y-73521061D01*
X94920592Y-73691351D01*
X94922237Y-73694425D01*
X95115459Y-73704936D01*
X95570395Y-73250000D01*
X95929605Y-73250000D01*
X96500000Y-73820395D01*
X96618039Y-73702356D01*
X96665459Y-73704936D01*
X97120395Y-73250000D01*
X97479605Y-73250000D01*
X97547644Y-73318039D01*
X97545064Y-73365459D01*
X98000000Y-73820395D01*
X98125867Y-73694528D01*
X98127763Y-73694425D01*
X98129042Y-73691353D01*
X98570395Y-73250000D01*
X98929605Y-73250000D01*
X99384541Y-73704936D01*
X99577763Y-73694425D01*
X99648562Y-73524397D01*
X99684828Y-73343824D01*
X99685171Y-73159645D01*
X99649574Y-72978939D01*
X99579408Y-72808649D01*
X99577763Y-72805575D01*
X99384541Y-72795064D01*
X98929605Y-73250000D01*
X98570395Y-73250000D01*
X98129663Y-72809268D01*
X98129408Y-72808649D01*
X98127763Y-72805575D01*
X98125867Y-72805472D01*
X98000000Y-72679605D01*
X97545064Y-73134541D01*
X97547644Y-73181961D01*
X97479605Y-73250000D01*
X97120395Y-73250000D01*
X96665459Y-72795064D01*
X96618039Y-72797644D01*
X96500000Y-72679605D01*
X95929605Y-73250000D01*
X95570395Y-73250000D01*
X95115459Y-72795064D01*
X94922237Y-72805575D01*
X94851438Y-72975603D01*
X94815172Y-73156176D01*
X94814829Y-73340355D01*
X74636126Y-73340355D01*
X74654494Y-73330537D01*
X74751185Y-73251185D01*
X74830537Y-73154494D01*
X74889502Y-73044180D01*
X74925812Y-72924482D01*
X74938072Y-72800000D01*
X74935000Y-72285750D01*
X74776250Y-72127000D01*
X73627000Y-72127000D01*
X73627000Y-72147000D01*
X73373000Y-72147000D01*
X73373000Y-72127000D01*
X72223750Y-72127000D01*
X72065000Y-72285750D01*
X72061928Y-72800000D01*
X66278990Y-72800000D01*
X66278990Y-71883682D01*
X85019000Y-71883682D01*
X85019000Y-72116318D01*
X85064386Y-72344485D01*
X85153412Y-72559413D01*
X85282658Y-72752843D01*
X85447157Y-72917342D01*
X85640587Y-73046588D01*
X85855515Y-73135614D01*
X86083682Y-73181000D01*
X86316318Y-73181000D01*
X86544485Y-73135614D01*
X86759413Y-73046588D01*
X86952843Y-72917342D01*
X87117342Y-72752843D01*
X87209139Y-72615459D01*
X95295064Y-72615459D01*
X95750000Y-73070395D01*
X96320395Y-72500000D01*
X96679605Y-72500000D01*
X97134541Y-72954936D01*
X97181961Y-72952356D01*
X97300000Y-73070395D01*
X97754936Y-72615459D01*
X97752356Y-72568039D01*
X97820395Y-72500000D01*
X98179605Y-72500000D01*
X98750000Y-73070395D01*
X99204936Y-72615459D01*
X99194425Y-72422237D01*
X99024397Y-72351438D01*
X98919557Y-72330382D01*
X98899574Y-72228939D01*
X98829408Y-72058649D01*
X98827763Y-72055575D01*
X98634541Y-72045064D01*
X98179605Y-72500000D01*
X97820395Y-72500000D01*
X97744528Y-72424133D01*
X97744425Y-72422237D01*
X97741353Y-72420958D01*
X97365459Y-72045064D01*
X97250000Y-72051345D01*
X97134541Y-72045064D01*
X96679605Y-72500000D01*
X96320395Y-72500000D01*
X95865459Y-72045064D01*
X95672237Y-72055575D01*
X95601438Y-72225603D01*
X95580382Y-72330443D01*
X95478939Y-72350426D01*
X95308649Y-72420592D01*
X95305575Y-72422237D01*
X95295064Y-72615459D01*
X87209139Y-72615459D01*
X87246588Y-72559413D01*
X87335614Y-72344485D01*
X87381000Y-72116318D01*
X87381000Y-71883682D01*
X87377376Y-71865459D01*
X96045064Y-71865459D01*
X96500000Y-72320395D01*
X96954936Y-71865459D01*
X97545064Y-71865459D01*
X98000000Y-72320395D01*
X98454936Y-71865459D01*
X98444425Y-71672237D01*
X98274397Y-71601438D01*
X98093824Y-71565172D01*
X97909645Y-71564829D01*
X97728939Y-71600426D01*
X97558649Y-71670592D01*
X97555575Y-71672237D01*
X97545064Y-71865459D01*
X96954936Y-71865459D01*
X96944425Y-71672237D01*
X96774397Y-71601438D01*
X96593824Y-71565172D01*
X96409645Y-71564829D01*
X96228939Y-71600426D01*
X96058649Y-71670592D01*
X96055575Y-71672237D01*
X96045064Y-71865459D01*
X87377376Y-71865459D01*
X87335614Y-71655515D01*
X87246588Y-71440587D01*
X87117342Y-71247157D01*
X86952843Y-71082658D01*
X86759413Y-70953412D01*
X86544485Y-70864386D01*
X86316318Y-70819000D01*
X86083682Y-70819000D01*
X85855515Y-70864386D01*
X85640587Y-70953412D01*
X85447157Y-71082658D01*
X85282658Y-71247157D01*
X85153412Y-71440587D01*
X85064386Y-71655515D01*
X85019000Y-71883682D01*
X66278990Y-71883682D01*
X66278990Y-71200000D01*
X72061928Y-71200000D01*
X72065000Y-71714250D01*
X72223750Y-71873000D01*
X73373000Y-71873000D01*
X73373000Y-70723750D01*
X73627000Y-70723750D01*
X73627000Y-71873000D01*
X74776250Y-71873000D01*
X74935000Y-71714250D01*
X74938072Y-71200000D01*
X74925812Y-71075518D01*
X74889502Y-70955820D01*
X74830537Y-70845506D01*
X74751185Y-70748815D01*
X74654494Y-70669463D01*
X74544180Y-70610498D01*
X74424482Y-70574188D01*
X74300000Y-70561928D01*
X73785750Y-70565000D01*
X73627000Y-70723750D01*
X73373000Y-70723750D01*
X73214250Y-70565000D01*
X72700000Y-70561928D01*
X72575518Y-70574188D01*
X72455820Y-70610498D01*
X72345506Y-70669463D01*
X72248815Y-70748815D01*
X72169463Y-70845506D01*
X72110498Y-70955820D01*
X72074188Y-71075518D01*
X72061928Y-71200000D01*
X66278990Y-71200000D01*
X66278990Y-70798640D01*
X66660175Y-70417455D01*
X104851200Y-70417455D01*
X104851200Y-70552545D01*
X104877555Y-70685040D01*
X104929252Y-70809848D01*
X105004305Y-70922172D01*
X105099828Y-71017695D01*
X105212152Y-71092748D01*
X105336960Y-71144445D01*
X105469455Y-71170800D01*
X105504380Y-71170800D01*
X107675150Y-73341571D01*
X107691052Y-73360948D01*
X107710429Y-73376850D01*
X107768404Y-73424429D01*
X107793929Y-73438072D01*
X107856657Y-73471601D01*
X107952415Y-73500649D01*
X108027053Y-73508000D01*
X108027055Y-73508000D01*
X108051999Y-73510457D01*
X108076943Y-73508000D01*
X111384188Y-73508000D01*
X111405382Y-73547651D01*
X111527972Y-73697028D01*
X111677349Y-73819618D01*
X111847771Y-73910711D01*
X112032690Y-73966805D01*
X112176813Y-73981000D01*
X112823187Y-73981000D01*
X112967310Y-73966805D01*
X113152229Y-73910711D01*
X113322651Y-73819618D01*
X113472028Y-73697028D01*
X113594618Y-73547651D01*
X113685711Y-73377229D01*
X113741805Y-73192310D01*
X113760746Y-73000000D01*
X113741805Y-72807690D01*
X113685711Y-72622771D01*
X113594618Y-72452349D01*
X113472028Y-72302972D01*
X113391024Y-72236494D01*
X113499482Y-72225812D01*
X113619180Y-72189502D01*
X113729494Y-72130537D01*
X113826185Y-72051185D01*
X113905537Y-71954494D01*
X113964502Y-71844180D01*
X114000812Y-71724482D01*
X114013072Y-71600000D01*
X114010000Y-71285750D01*
X113851250Y-71127000D01*
X112627000Y-71127000D01*
X112627000Y-71147000D01*
X112373000Y-71147000D01*
X112373000Y-71127000D01*
X111148750Y-71127000D01*
X110990000Y-71285750D01*
X110986928Y-71600000D01*
X110999188Y-71724482D01*
X111035498Y-71844180D01*
X111094463Y-71954494D01*
X111173815Y-72051185D01*
X111270506Y-72130537D01*
X111380820Y-72189502D01*
X111500518Y-72225812D01*
X111608976Y-72236494D01*
X111527972Y-72302972D01*
X111405382Y-72452349D01*
X111384188Y-72492000D01*
X108262421Y-72492000D01*
X106222800Y-70452380D01*
X106222800Y-70417455D01*
X106219328Y-70400000D01*
X110986928Y-70400000D01*
X110990000Y-70714250D01*
X111148750Y-70873000D01*
X112373000Y-70873000D01*
X112373000Y-69923750D01*
X112627000Y-69923750D01*
X112627000Y-70873000D01*
X113851250Y-70873000D01*
X114010000Y-70714250D01*
X114013072Y-70400000D01*
X114000812Y-70275518D01*
X113964502Y-70155820D01*
X113905537Y-70045506D01*
X113826185Y-69948815D01*
X113729494Y-69869463D01*
X113619180Y-69810498D01*
X113499482Y-69774188D01*
X113375000Y-69761928D01*
X112785750Y-69765000D01*
X112627000Y-69923750D01*
X112373000Y-69923750D01*
X112214250Y-69765000D01*
X111625000Y-69761928D01*
X111500518Y-69774188D01*
X111380820Y-69810498D01*
X111270506Y-69869463D01*
X111173815Y-69948815D01*
X111094463Y-70045506D01*
X111035498Y-70155820D01*
X110999188Y-70275518D01*
X110986928Y-70400000D01*
X106219328Y-70400000D01*
X106196445Y-70284960D01*
X106144748Y-70160152D01*
X106069695Y-70047828D01*
X105974172Y-69952305D01*
X105861848Y-69877252D01*
X105737040Y-69825555D01*
X105604545Y-69799200D01*
X105469455Y-69799200D01*
X105336960Y-69825555D01*
X105212152Y-69877252D01*
X105099828Y-69952305D01*
X105004305Y-70047828D01*
X104929252Y-70160152D01*
X104877555Y-70284960D01*
X104851200Y-70417455D01*
X66660175Y-70417455D01*
X70894788Y-66182843D01*
X72800000Y-66182843D01*
X72874689Y-66175487D01*
X72946508Y-66153701D01*
X73012696Y-66118322D01*
X73070711Y-66070711D01*
X73118322Y-66012696D01*
X73153701Y-65946508D01*
X73175487Y-65874689D01*
X73177995Y-65849224D01*
X75330381Y-65849224D01*
X75462317Y-66144312D01*
X75803045Y-66315159D01*
X76170557Y-66416250D01*
X76550729Y-66443701D01*
X76928951Y-66396457D01*
X77290690Y-66276333D01*
X77537683Y-66144312D01*
X77669619Y-65849224D01*
X76500000Y-64679605D01*
X75330381Y-65849224D01*
X73177995Y-65849224D01*
X73182843Y-65800000D01*
X73182843Y-64550729D01*
X74556299Y-64550729D01*
X74603543Y-64928951D01*
X74723667Y-65290690D01*
X74855688Y-65537683D01*
X75150776Y-65669619D01*
X76320395Y-64500000D01*
X76679605Y-64500000D01*
X77849224Y-65669619D01*
X78144312Y-65537683D01*
X78315159Y-65196955D01*
X78416250Y-64829443D01*
X78443701Y-64449271D01*
X78396457Y-64071049D01*
X78276333Y-63709310D01*
X78144312Y-63462317D01*
X77849224Y-63330381D01*
X76679605Y-64500000D01*
X76320395Y-64500000D01*
X75150776Y-63330381D01*
X74855688Y-63462317D01*
X74684841Y-63803045D01*
X74583750Y-64170557D01*
X74556299Y-64550729D01*
X73182843Y-64550729D01*
X73182843Y-63200000D01*
X73177996Y-63150776D01*
X75330381Y-63150776D01*
X76500000Y-64320395D01*
X77669619Y-63150776D01*
X77537683Y-62855688D01*
X77196955Y-62684841D01*
X76829443Y-62583750D01*
X76449271Y-62556299D01*
X76071049Y-62603543D01*
X75709310Y-62723667D01*
X75462317Y-62855688D01*
X75330381Y-63150776D01*
X73177996Y-63150776D01*
X73175487Y-63125311D01*
X73153701Y-63053492D01*
X73118322Y-62987304D01*
X73070711Y-62929289D01*
X73012696Y-62881678D01*
X72946508Y-62846299D01*
X72874689Y-62824513D01*
X72800000Y-62817157D01*
X70200000Y-62817157D01*
X70125311Y-62824513D01*
X70053492Y-62846299D01*
X69987304Y-62881678D01*
X69929289Y-62929289D01*
X69881678Y-62987304D01*
X69846299Y-63053492D01*
X69824513Y-63125311D01*
X69817157Y-63200000D01*
X69817157Y-65105212D01*
X65004644Y-69917726D01*
X64975568Y-69941588D01*
X64948523Y-69974543D01*
X64880345Y-70057618D01*
X64844835Y-70124053D01*
X64809588Y-70189996D01*
X64766016Y-70333633D01*
X64754990Y-70445584D01*
X64751304Y-70483010D01*
X64754990Y-70520433D01*
X64754991Y-85876545D01*
X64754990Y-85876554D01*
X64751304Y-85913980D01*
X64754990Y-85951403D01*
X64754991Y-105265706D01*
X64751304Y-105303139D01*
X64766017Y-105452517D01*
X64809589Y-105596154D01*
X64880345Y-105728531D01*
X64932924Y-105792598D01*
X64975569Y-105844561D01*
X65004639Y-105868418D01*
X70623598Y-111487377D01*
X70647460Y-111516453D01*
X70721101Y-111576888D01*
X70741951Y-111594000D01*
X62406000Y-111594000D01*
X62406000Y-56406000D01*
X116594000Y-56406000D01*
X116594001Y-111594000D01*
G37*
G04 #@! TD.AperFunction*
D21*
X75751467Y-105853256D02*
X75695515Y-105864386D01*
X75480587Y-105953412D01*
X75287157Y-106082658D01*
X75122658Y-106247157D01*
X74993412Y-106440587D01*
X74935804Y-106579665D01*
X74938072Y-106200000D01*
X74925812Y-106075518D01*
X74889502Y-105955820D01*
X74830537Y-105845506D01*
X74751185Y-105748815D01*
X74654494Y-105669463D01*
X74544180Y-105610498D01*
X74424482Y-105574188D01*
X74300000Y-105561928D01*
X73785750Y-105565000D01*
X73627000Y-105723750D01*
X73627000Y-106873000D01*
X73647000Y-106873000D01*
X73647000Y-107127000D01*
X73627000Y-107127000D01*
X73627000Y-107147000D01*
X73373000Y-107147000D01*
X73373000Y-107127000D01*
X72223750Y-107127000D01*
X72206989Y-107143761D01*
X71762000Y-106698772D01*
X71762000Y-106200000D01*
X72061928Y-106200000D01*
X72065000Y-106714250D01*
X72223750Y-106873000D01*
X73373000Y-106873000D01*
X73373000Y-105723750D01*
X73214250Y-105565000D01*
X72700000Y-105561928D01*
X72575518Y-105574188D01*
X72455820Y-105610498D01*
X72345506Y-105669463D01*
X72248815Y-105748815D01*
X72169463Y-105845506D01*
X72110498Y-105955820D01*
X72074188Y-106075518D01*
X72061928Y-106200000D01*
X71762000Y-106200000D01*
X71762000Y-101863788D01*
X75751467Y-105853256D01*
G04 #@! TA.AperFunction,Conductor*
D22*
G36*
X75751467Y-105853256D02*
G01*
X75695515Y-105864386D01*
X75480587Y-105953412D01*
X75287157Y-106082658D01*
X75122658Y-106247157D01*
X74993412Y-106440587D01*
X74935804Y-106579665D01*
X74938072Y-106200000D01*
X74925812Y-106075518D01*
X74889502Y-105955820D01*
X74830537Y-105845506D01*
X74751185Y-105748815D01*
X74654494Y-105669463D01*
X74544180Y-105610498D01*
X74424482Y-105574188D01*
X74300000Y-105561928D01*
X73785750Y-105565000D01*
X73627000Y-105723750D01*
X73627000Y-106873000D01*
X73647000Y-106873000D01*
X73647000Y-107127000D01*
X73627000Y-107127000D01*
X73627000Y-107147000D01*
X73373000Y-107147000D01*
X73373000Y-107127000D01*
X72223750Y-107127000D01*
X72206989Y-107143761D01*
X71762000Y-106698772D01*
X71762000Y-106200000D01*
X72061928Y-106200000D01*
X72065000Y-106714250D01*
X72223750Y-106873000D01*
X73373000Y-106873000D01*
X73373000Y-105723750D01*
X73214250Y-105565000D01*
X72700000Y-105561928D01*
X72575518Y-105574188D01*
X72455820Y-105610498D01*
X72345506Y-105669463D01*
X72248815Y-105748815D01*
X72169463Y-105845506D01*
X72110498Y-105955820D01*
X72074188Y-106075518D01*
X72061928Y-106200000D01*
X71762000Y-106200000D01*
X71762000Y-101863788D01*
X75751467Y-105853256D01*
G37*
G04 #@! TD.AperFunction*
M02*
