M48
; DRILL file {KiCad (5.1.9)-1} date 08/10/21 13:48:06
; FORMAT={-:-/ absolute / metric / decimal}
; #@! TF.CreationDate,2021-08-10T13:48:06-05:00
; #@! TF.GenerationSoftware,Kicad,Pcbnew,(5.1.9)-1
; #@! TF.FileFunction,Plated,1,2,PTH
FMAT,2
METRIC
T1C0.200
T2C0.300
T3C0.305
T4C0.800
T5C0.950
T6C1.000
T7C1.300
%
G90
G05
T1
X136.51Y-73.5
X136.51Y-74.5
X136.51Y-75.5
X137.81Y-73.5
X137.81Y-74.5
X137.81Y-75.5
T2
X95.75Y-73.25
X95.75Y-74.75
X96.5Y-72.5
X96.5Y-74.0
X96.5Y-75.5
X97.3Y-73.25
X97.3Y-74.75
X98.0Y-72.5
X98.0Y-74.0
X98.0Y-75.5
X98.75Y-73.25
X98.75Y-74.75
T3
X88.392Y-74.93
X88.392Y-81.026
X88.392Y-82.55
X88.392Y-83.947
X88.392Y-85.471
X88.519Y-73.533
X89.027Y-91.186
X106.426Y-90.932
X126.118Y-81.654
X127.895Y-80.95
X128.449Y-79.45
X133.477Y-78.613
X134.874Y-86.36
X135.521Y-80.095
X136.906Y-84.709
X140.462Y-64.643
X140.492Y-81.873
X140.843Y-78.232
X140.843Y-99.06
X141.097Y-72.644
X141.097Y-74.041
X141.224Y-75.184
X141.986Y-84.836
X141.986Y-85.852
X142.494Y-64.77
T4
X73.5Y-72.0
X73.5Y-74.54
X73.5Y-77.08
X73.5Y-79.62
X73.5Y-82.16
X73.5Y-84.7
X73.5Y-87.24
X73.5Y-89.78
X73.5Y-95.22
X73.5Y-97.76
X73.5Y-100.3
X73.5Y-102.84
X73.5Y-105.38
X73.5Y-107.92
X73.5Y-110.46
X73.5Y-113.0
X86.2Y-72.0
X86.2Y-74.54
X86.2Y-77.08
X86.2Y-79.62
X86.2Y-82.16
X86.2Y-84.7
X86.2Y-87.24
X86.2Y-89.78
X86.2Y-95.22
X86.2Y-97.76
X86.2Y-100.3
X86.2Y-102.84
X86.2Y-105.38
X86.2Y-107.92
X86.2Y-110.46
X86.2Y-113.0
X92.0Y-95.22
X92.0Y-97.76
X92.0Y-100.3
X92.0Y-102.84
X92.0Y-105.38
X92.0Y-107.92
X92.0Y-110.46
X92.0Y-113.0
X104.7Y-95.22
X104.7Y-97.76
X104.7Y-100.3
X104.7Y-102.84
X104.7Y-105.38
X104.7Y-107.92
X104.7Y-110.46
X104.7Y-113.0
X110.5Y-95.22
X110.5Y-97.76
X110.5Y-100.3
X110.5Y-102.84
X110.5Y-105.38
X110.5Y-107.92
X110.5Y-110.46
X110.5Y-113.0
X123.2Y-95.22
X123.2Y-97.76
X123.2Y-100.3
X123.2Y-102.84
X123.2Y-105.38
X123.2Y-107.92
X123.2Y-110.46
X123.2Y-113.0
X129.5Y-95.22
X129.5Y-97.76
X129.5Y-100.3
X129.5Y-102.84
X129.5Y-105.38
X129.5Y-107.92
X129.5Y-110.46
X129.5Y-113.0
X142.2Y-95.22
X142.2Y-97.76
X142.2Y-100.3
X142.2Y-102.84
X142.2Y-105.38
X142.2Y-107.92
X142.2Y-110.46
X142.2Y-113.0
T5
X67.0Y-77.5
X67.0Y-80.0
X67.0Y-82.5
X67.0Y-85.0
X67.0Y-95.5
X67.0Y-98.0
X67.0Y-100.5
X67.0Y-103.0
X78.606Y-55.372
X81.106Y-55.372
X83.606Y-55.372
X86.106Y-55.372
X95.0Y-118.5
X97.5Y-118.5
X100.0Y-118.5
X102.5Y-118.5
X110.0Y-118.5
X112.5Y-118.5
X115.0Y-118.5
X117.5Y-62.0
X117.5Y-69.0
X117.5Y-76.0
X117.5Y-83.0
X117.5Y-90.0
X117.5Y-118.5
X120.0Y-62.0
X120.0Y-69.0
X120.0Y-76.0
X120.0Y-83.0
X120.0Y-90.0
X122.5Y-62.0
X122.5Y-69.0
X122.5Y-76.0
X122.5Y-83.0
X122.5Y-90.0
X125.0Y-62.0
X125.0Y-69.0
X125.0Y-76.0
X125.0Y-83.0
X125.0Y-90.0
X125.5Y-118.5
X127.5Y-62.0
X127.5Y-69.0
X127.5Y-76.0
X127.5Y-83.0
X127.5Y-90.0
X128.0Y-118.5
X130.0Y-62.0
X130.0Y-69.0
X130.0Y-76.0
X130.0Y-83.0
X130.0Y-90.0
X130.5Y-118.5
X133.0Y-118.5
T6
X79.96Y-72.92
X79.96Y-75.46
X79.96Y-78.0
X79.96Y-96.42
X79.96Y-98.96
X79.96Y-101.5
X82.5Y-72.92
X82.5Y-75.46
X82.5Y-78.0
X82.5Y-96.42
X82.5Y-98.96
X82.5Y-101.5
X98.5Y-96.5
X98.5Y-99.04
X98.5Y-101.58
X101.04Y-96.5
X101.04Y-99.04
X101.04Y-101.58
X110.5Y-72.0
X110.5Y-74.54
X110.5Y-77.08
X117.0Y-96.5
X117.0Y-99.04
X117.0Y-101.58
X119.54Y-96.5
X119.54Y-99.04
X119.54Y-101.58
X136.0Y-96.5
X136.0Y-99.04
X136.0Y-101.58
X138.0Y-90.0
X138.54Y-96.5
X138.54Y-99.04
X138.54Y-101.58
X140.5Y-90.0
T7
X66.802Y-61.976
X66.802Y-66.976
T0
M30
