%FSLAX45Y45*%
G04 Gerber Fmt 4.5, Leading zero omitted, Abs format (unit mm)*
G04 Created by KiCad (PCBNEW (5.1.9)-1) date 2021-05-18 22:54:30*
%MOMM*%
%LPD*%
G01*
G04 APERTURE LIST*
%TA.AperFunction,Profile*%
%ADD10C,0.050000*%
%TD*%
%ADD11C,0.200000*%
%ADD12C,0.300000*%
G04 APERTURE END LIST*
D10*
X6200000Y-11200000D02*
X6200000Y-5600000D01*
X11700000Y-11200000D02*
X6200000Y-11200000D01*
X11700000Y-5600000D02*
X11700000Y-11200000D01*
X6200000Y-5600000D02*
X11700000Y-5600000D01*
D11*
D12*
X6483928Y-11668214D02*
X6483928Y-11368214D01*
X6555357Y-11368214D01*
X6598214Y-11382500D01*
X6626786Y-11411071D01*
X6641071Y-11439643D01*
X6655357Y-11496786D01*
X6655357Y-11539643D01*
X6641071Y-11596786D01*
X6626786Y-11625357D01*
X6598214Y-11653929D01*
X6555357Y-11668214D01*
X6483928Y-11668214D01*
X6783928Y-11668214D02*
X6783928Y-11468214D01*
X6783928Y-11525357D02*
X6798214Y-11496786D01*
X6812500Y-11482500D01*
X6841071Y-11468214D01*
X6869643Y-11468214D01*
X6969643Y-11668214D02*
X6969643Y-11468214D01*
X6969643Y-11368214D02*
X6955357Y-11382500D01*
X6969643Y-11396786D01*
X6983928Y-11382500D01*
X6969643Y-11368214D01*
X6969643Y-11396786D01*
X7155357Y-11668214D02*
X7126786Y-11653929D01*
X7112500Y-11625357D01*
X7112500Y-11368214D01*
X7312500Y-11668214D02*
X7283928Y-11653929D01*
X7269643Y-11625357D01*
X7269643Y-11368214D01*
X7655357Y-11668214D02*
X7655357Y-11368214D01*
X7755357Y-11582500D01*
X7855357Y-11368214D01*
X7855357Y-11668214D01*
X8126786Y-11668214D02*
X8126786Y-11511071D01*
X8112500Y-11482500D01*
X8083928Y-11468214D01*
X8026786Y-11468214D01*
X7998214Y-11482500D01*
X8126786Y-11653929D02*
X8098214Y-11668214D01*
X8026786Y-11668214D01*
X7998214Y-11653929D01*
X7983928Y-11625357D01*
X7983928Y-11596786D01*
X7998214Y-11568214D01*
X8026786Y-11553929D01*
X8098214Y-11553929D01*
X8126786Y-11539643D01*
X8269643Y-11468214D02*
X8269643Y-11768214D01*
X8269643Y-11482500D02*
X8298214Y-11468214D01*
X8355357Y-11468214D01*
X8383928Y-11482500D01*
X8398214Y-11496786D01*
X8412500Y-11525357D01*
X8412500Y-11611071D01*
X8398214Y-11639643D01*
X8383928Y-11653929D01*
X8355357Y-11668214D01*
X8298214Y-11668214D01*
X8269643Y-11653929D01*
X8541071Y-11639643D02*
X8555357Y-11653929D01*
X8541071Y-11668214D01*
X8526786Y-11653929D01*
X8541071Y-11639643D01*
X8541071Y-11668214D01*
X8541071Y-11482500D02*
X8555357Y-11496786D01*
X8541071Y-11511071D01*
X8526786Y-11496786D01*
X8541071Y-11482500D01*
X8541071Y-11511071D01*
M02*
