%FSLAX45Y45*%
G04 Gerber Fmt 4.5, Leading zero omitted, Abs format (unit mm)*
G04 Created by KiCad (PCBNEW (5.1.9)-1) date 2021-05-18 22:54:30*
%MOMM*%
%LPD*%
G01*
G04 APERTURE LIST*
%TA.AperFunction,Profile*%
%ADD10C,0.050000*%
%TD*%
%ADD11C,0.200000*%
%ADD12C,0.300000*%
G04 APERTURE END LIST*
D10*
X6200000Y-11200000D02*
X6200000Y-5600000D01*
X11700000Y-11200000D02*
X6200000Y-11200000D01*
X11700000Y-5600000D02*
X11700000Y-11200000D01*
X6200000Y-5600000D02*
X11700000Y-5600000D01*
D11*
X9560000Y-7310000D02*
X9590000Y-7340000D01*
X9590000Y-7310000D02*
X9560000Y-7340000D01*
X9560000Y-7460000D02*
X9590000Y-7490000D01*
X9590000Y-7460000D02*
X9560000Y-7490000D01*
X9635000Y-7235000D02*
X9665000Y-7265000D01*
X9665000Y-7235000D02*
X9635000Y-7265000D01*
X9635000Y-7385000D02*
X9665000Y-7415000D01*
X9665000Y-7385000D02*
X9635000Y-7415000D01*
X9635000Y-7535000D02*
X9665000Y-7565000D01*
X9665000Y-7535000D02*
X9635000Y-7565000D01*
X9715000Y-7310000D02*
X9745000Y-7340000D01*
X9745000Y-7310000D02*
X9715000Y-7340000D01*
X9715000Y-7460000D02*
X9745000Y-7490000D01*
X9745000Y-7460000D02*
X9715000Y-7490000D01*
X9785000Y-7235000D02*
X9815000Y-7265000D01*
X9815000Y-7235000D02*
X9785000Y-7265000D01*
X9785000Y-7385000D02*
X9815000Y-7415000D01*
X9815000Y-7385000D02*
X9785000Y-7415000D01*
X9785000Y-7535000D02*
X9815000Y-7565000D01*
X9815000Y-7535000D02*
X9785000Y-7565000D01*
X9860000Y-7310000D02*
X9890000Y-7340000D01*
X9890000Y-7310000D02*
X9860000Y-7340000D01*
X9860000Y-7460000D02*
X9890000Y-7490000D01*
X9890000Y-7460000D02*
X9860000Y-7490000D01*
X7927340Y-6819900D02*
G75*
G03*
X7927340Y-6819900I-15240J0D01*
G01*
X9629140Y-10185400D02*
G75*
G03*
X9629140Y-10185400I-15240J0D01*
G01*
X10530840Y-9080500D02*
G75*
G03*
X10530840Y-9080500I-15240J0D01*
G01*
X10568940Y-7048500D02*
G75*
G03*
X10568940Y-7048500I-15240J0D01*
G01*
X10962640Y-6337300D02*
G75*
G03*
X10962640Y-6337300I-15240J0D01*
G01*
X11445240Y-9004300D02*
G75*
G03*
X11445240Y-9004300I-15240J0D01*
G01*
X11508740Y-7696200D02*
G75*
G03*
X11508740Y-7696200I-15240J0D01*
G01*
X11250000Y-7062500D02*
X11250000Y-7137500D01*
X11212500Y-7100000D02*
X11287500Y-7100000D01*
X11250000Y-7262500D02*
X11250000Y-7337500D01*
X11212500Y-7300000D02*
X11287500Y-7300000D01*
X11250000Y-7462500D02*
X11250000Y-7537500D01*
X11212500Y-7500000D02*
X11287500Y-7500000D01*
X11250000Y-7662500D02*
X11250000Y-7737500D01*
X11212500Y-7700000D02*
X11287500Y-7700000D01*
X11250000Y-7862500D02*
X11250000Y-7937500D01*
X11212500Y-7900000D02*
X11287500Y-7900000D01*
X11250000Y-8062500D02*
X11250000Y-8137500D01*
X11212500Y-8100000D02*
X11287500Y-8100000D01*
X7378284Y-7228284D02*
X7378284Y-7171715D01*
X7321715Y-7171715D01*
X7321715Y-7228284D01*
X7378284Y-7228284D01*
X7378284Y-7482284D02*
X7378284Y-7425715D01*
X7321715Y-7425715D01*
X7321715Y-7482284D01*
X7378284Y-7482284D01*
X7378284Y-7736284D02*
X7378284Y-7679715D01*
X7321715Y-7679715D01*
X7321715Y-7736284D01*
X7378284Y-7736284D01*
X7378284Y-7990284D02*
X7378284Y-7933715D01*
X7321715Y-7933715D01*
X7321715Y-7990284D01*
X7378284Y-7990284D01*
X7378284Y-8244284D02*
X7378284Y-8187715D01*
X7321715Y-8187715D01*
X7321715Y-8244284D01*
X7378284Y-8244284D01*
X7378284Y-8498285D02*
X7378284Y-8441716D01*
X7321715Y-8441716D01*
X7321715Y-8498285D01*
X7378284Y-8498285D01*
X7378284Y-8752285D02*
X7378284Y-8695716D01*
X7321715Y-8695716D01*
X7321715Y-8752285D01*
X7378284Y-8752285D01*
X7378284Y-9006285D02*
X7378284Y-8949716D01*
X7321715Y-8949716D01*
X7321715Y-9006285D01*
X7378284Y-9006285D01*
X7378284Y-9458285D02*
X7378284Y-9401716D01*
X7321715Y-9401716D01*
X7321715Y-9458285D01*
X7378284Y-9458285D01*
X7378284Y-10728285D02*
X7378284Y-10671716D01*
X7321715Y-10671716D01*
X7321715Y-10728285D01*
X7378284Y-10728285D01*
X7632284Y-9458285D02*
X7632284Y-9401716D01*
X7575715Y-9401716D01*
X7575715Y-9458285D01*
X7632284Y-9458285D01*
X7632284Y-10728285D02*
X7632284Y-10671716D01*
X7575715Y-10671716D01*
X7575715Y-10728285D01*
X7632284Y-10728285D01*
X7886284Y-9458285D02*
X7886284Y-9401716D01*
X7829715Y-9401716D01*
X7829715Y-9458285D01*
X7886284Y-9458285D01*
X7886284Y-10728285D02*
X7886284Y-10671716D01*
X7829715Y-10671716D01*
X7829715Y-10728285D01*
X7886284Y-10728285D01*
X8140284Y-9458285D02*
X8140284Y-9401716D01*
X8083715Y-9401716D01*
X8083715Y-9458285D01*
X8140284Y-9458285D01*
X8140284Y-10728285D02*
X8140284Y-10671716D01*
X8083715Y-10671716D01*
X8083715Y-10728285D01*
X8140284Y-10728285D01*
X8394285Y-9458285D02*
X8394285Y-9401716D01*
X8337715Y-9401716D01*
X8337715Y-9458285D01*
X8394285Y-9458285D01*
X8394285Y-10728285D02*
X8394285Y-10671716D01*
X8337715Y-10671716D01*
X8337715Y-10728285D01*
X8394285Y-10728285D01*
X8648285Y-7228284D02*
X8648285Y-7171715D01*
X8591716Y-7171715D01*
X8591716Y-7228284D01*
X8648285Y-7228284D01*
X8648285Y-7482284D02*
X8648285Y-7425715D01*
X8591716Y-7425715D01*
X8591716Y-7482284D01*
X8648285Y-7482284D01*
X8648285Y-7736284D02*
X8648285Y-7679715D01*
X8591716Y-7679715D01*
X8591716Y-7736284D01*
X8648285Y-7736284D01*
X8648285Y-7990284D02*
X8648285Y-7933715D01*
X8591716Y-7933715D01*
X8591716Y-7990284D01*
X8648285Y-7990284D01*
X8648285Y-8244284D02*
X8648285Y-8187715D01*
X8591716Y-8187715D01*
X8591716Y-8244284D01*
X8648285Y-8244284D01*
X8648285Y-8498285D02*
X8648285Y-8441716D01*
X8591716Y-8441716D01*
X8591716Y-8498285D01*
X8648285Y-8498285D01*
X8648285Y-8752285D02*
X8648285Y-8695716D01*
X8591716Y-8695716D01*
X8591716Y-8752285D01*
X8648285Y-8752285D01*
X8648285Y-9006285D02*
X8648285Y-8949716D01*
X8591716Y-8949716D01*
X8591716Y-9006285D01*
X8648285Y-9006285D01*
X8648285Y-9458285D02*
X8648285Y-9401716D01*
X8591716Y-9401716D01*
X8591716Y-9458285D01*
X8648285Y-9458285D01*
X8648285Y-10728285D02*
X8648285Y-10671716D01*
X8591716Y-10671716D01*
X8591716Y-10728285D01*
X8648285Y-10728285D01*
X8902285Y-9458285D02*
X8902285Y-9401716D01*
X8845716Y-9401716D01*
X8845716Y-9458285D01*
X8902285Y-9458285D01*
X8902285Y-10728285D02*
X8902285Y-10671716D01*
X8845716Y-10671716D01*
X8845716Y-10728285D01*
X8902285Y-10728285D01*
X9156285Y-9458285D02*
X9156285Y-9401716D01*
X9099716Y-9401716D01*
X9099716Y-9458285D01*
X9156285Y-9458285D01*
X9156285Y-10728285D02*
X9156285Y-10671716D01*
X9099716Y-10671716D01*
X9099716Y-10728285D01*
X9156285Y-10728285D01*
X6700000Y-7797500D02*
X6747500Y-7750000D01*
X6700000Y-7702500D01*
X6652500Y-7750000D01*
X6700000Y-7797500D01*
X6700000Y-8047500D02*
X6747500Y-8000000D01*
X6700000Y-7952500D01*
X6652500Y-8000000D01*
X6700000Y-8047500D01*
X6700000Y-8297500D02*
X6747500Y-8250000D01*
X6700000Y-8202500D01*
X6652500Y-8250000D01*
X6700000Y-8297500D01*
X6700000Y-8547500D02*
X6747500Y-8500000D01*
X6700000Y-8452500D01*
X6652500Y-8500000D01*
X6700000Y-8547500D01*
X6700000Y-9597500D02*
X6747500Y-9550000D01*
X6700000Y-9502500D01*
X6652500Y-9550000D01*
X6700000Y-9597500D01*
X6700000Y-9847500D02*
X6747500Y-9800000D01*
X6700000Y-9752500D01*
X6652500Y-9800000D01*
X6700000Y-9847500D01*
X6700000Y-10097500D02*
X6747500Y-10050000D01*
X6700000Y-10002500D01*
X6652500Y-10050000D01*
X6700000Y-10097500D01*
X6700000Y-10347500D02*
X6747500Y-10300000D01*
X6700000Y-10252500D01*
X6652500Y-10300000D01*
X6700000Y-10347500D01*
X10350000Y-9447500D02*
X10397500Y-9400000D01*
X10350000Y-9352500D01*
X10302500Y-9400000D01*
X10350000Y-9447500D01*
X10350000Y-9697500D02*
X10397500Y-9650000D01*
X10350000Y-9602500D01*
X10302500Y-9650000D01*
X10350000Y-9697500D01*
X10350000Y-9947500D02*
X10397500Y-9900000D01*
X10350000Y-9852500D01*
X10302500Y-9900000D01*
X10350000Y-9947500D01*
X10350000Y-10197500D02*
X10397500Y-10150000D01*
X10350000Y-10102500D01*
X10302500Y-10150000D01*
X10350000Y-10197500D01*
X10350000Y-10447500D02*
X10397500Y-10400000D01*
X10350000Y-10352500D01*
X10302500Y-10400000D01*
X10350000Y-10447500D01*
X10350000Y-10697500D02*
X10397500Y-10650000D01*
X10350000Y-10602500D01*
X10302500Y-10650000D01*
X10350000Y-10697500D01*
X11200000Y-9447500D02*
X11247500Y-9400000D01*
X11200000Y-9352500D01*
X11152500Y-9400000D01*
X11200000Y-9447500D01*
X11200000Y-9697500D02*
X11247500Y-9650000D01*
X11200000Y-9602500D01*
X11152500Y-9650000D01*
X11200000Y-9697500D01*
X11200000Y-9947500D02*
X11247500Y-9900000D01*
X11200000Y-9852500D01*
X11152500Y-9900000D01*
X11200000Y-9947500D01*
X11200000Y-10197500D02*
X11247500Y-10150000D01*
X11200000Y-10102500D01*
X11152500Y-10150000D01*
X11200000Y-10197500D01*
X11200000Y-10447500D02*
X11247500Y-10400000D01*
X11200000Y-10352500D01*
X11152500Y-10400000D01*
X11200000Y-10447500D01*
X11200000Y-10697500D02*
X11247500Y-10650000D01*
X11200000Y-10602500D01*
X11152500Y-10650000D01*
X11200000Y-10697500D01*
X7550000Y-9746000D02*
X7650000Y-9846000D01*
X7650000Y-9746000D02*
X7550000Y-9846000D01*
X7650000Y-9796000D02*
G75*
G03*
X7650000Y-9796000I-50000J0D01*
G01*
X7550000Y-10000000D02*
X7650000Y-10100000D01*
X7650000Y-10000000D02*
X7550000Y-10100000D01*
X7650000Y-10050000D02*
G75*
G03*
X7650000Y-10050000I-50000J0D01*
G01*
X7804000Y-9746000D02*
X7904000Y-9846000D01*
X7904000Y-9746000D02*
X7804000Y-9846000D01*
X7904000Y-9796000D02*
G75*
G03*
X7904000Y-9796000I-50000J0D01*
G01*
X7804000Y-10000000D02*
X7904000Y-10100000D01*
X7904000Y-10000000D02*
X7804000Y-10100000D01*
X7904000Y-10050000D02*
G75*
G03*
X7904000Y-10050000I-50000J0D01*
G01*
X7950000Y-7550000D02*
X8050000Y-7650000D01*
X8050000Y-7550000D02*
X7950000Y-7650000D01*
X8050000Y-7600000D02*
G75*
G03*
X8050000Y-7600000I-50000J0D01*
G01*
X7950000Y-7804000D02*
X8050000Y-7904000D01*
X8050000Y-7804000D02*
X7950000Y-7904000D01*
X8050000Y-7854000D02*
G75*
G03*
X8050000Y-7854000I-50000J0D01*
G01*
X7950000Y-8058000D02*
X8050000Y-8158000D01*
X8050000Y-8058000D02*
X7950000Y-8158000D01*
X8050000Y-8108000D02*
G75*
G03*
X8050000Y-8108000I-50000J0D01*
G01*
X8058000Y-9746000D02*
X8158000Y-9846000D01*
X8158000Y-9746000D02*
X8058000Y-9846000D01*
X8158000Y-9796000D02*
G75*
G03*
X8158000Y-9796000I-50000J0D01*
G01*
X8058000Y-10000000D02*
X8158000Y-10100000D01*
X8158000Y-10000000D02*
X8058000Y-10100000D01*
X8158000Y-10050000D02*
G75*
G03*
X8158000Y-10050000I-50000J0D01*
G01*
X8204000Y-7550000D02*
X8304000Y-7650000D01*
X8304000Y-7550000D02*
X8204000Y-7650000D01*
X8304000Y-7600000D02*
G75*
G03*
X8304000Y-7600000I-50000J0D01*
G01*
X8204000Y-7804000D02*
X8304000Y-7904000D01*
X8304000Y-7804000D02*
X8204000Y-7904000D01*
X8304000Y-7854000D02*
G75*
G03*
X8304000Y-7854000I-50000J0D01*
G01*
X8204000Y-8058000D02*
X8304000Y-8158000D01*
X8304000Y-8058000D02*
X8204000Y-8158000D01*
X8304000Y-8108000D02*
G75*
G03*
X8304000Y-8108000I-50000J0D01*
G01*
X7085000Y-6385000D02*
X7215000Y-6515000D01*
X7215000Y-6385000D02*
X7085000Y-6515000D01*
X7150000Y-6385000D02*
X7150000Y-6515000D01*
X7085000Y-6450000D02*
X7215000Y-6450000D01*
X7585000Y-6385000D02*
X7715000Y-6515000D01*
X7715000Y-6385000D02*
X7585000Y-6515000D01*
X7650000Y-6385000D02*
X7650000Y-6515000D01*
X7585000Y-6450000D02*
X7715000Y-6450000D01*
D12*
X6483928Y-11668214D02*
X6483928Y-11368214D01*
X6555357Y-11368214D01*
X6598214Y-11382500D01*
X6626786Y-11411071D01*
X6641071Y-11439643D01*
X6655357Y-11496786D01*
X6655357Y-11539643D01*
X6641071Y-11596786D01*
X6626786Y-11625357D01*
X6598214Y-11653929D01*
X6555357Y-11668214D01*
X6483928Y-11668214D01*
X6783928Y-11668214D02*
X6783928Y-11468214D01*
X6783928Y-11525357D02*
X6798214Y-11496786D01*
X6812500Y-11482500D01*
X6841071Y-11468214D01*
X6869643Y-11468214D01*
X6969643Y-11668214D02*
X6969643Y-11468214D01*
X6969643Y-11368214D02*
X6955357Y-11382500D01*
X6969643Y-11396786D01*
X6983928Y-11382500D01*
X6969643Y-11368214D01*
X6969643Y-11396786D01*
X7155357Y-11668214D02*
X7126786Y-11653929D01*
X7112500Y-11625357D01*
X7112500Y-11368214D01*
X7312500Y-11668214D02*
X7283928Y-11653929D01*
X7269643Y-11625357D01*
X7269643Y-11368214D01*
X7655357Y-11668214D02*
X7655357Y-11368214D01*
X7755357Y-11582500D01*
X7855357Y-11368214D01*
X7855357Y-11668214D01*
X8126786Y-11668214D02*
X8126786Y-11511071D01*
X8112500Y-11482500D01*
X8083928Y-11468214D01*
X8026786Y-11468214D01*
X7998214Y-11482500D01*
X8126786Y-11653929D02*
X8098214Y-11668214D01*
X8026786Y-11668214D01*
X7998214Y-11653929D01*
X7983928Y-11625357D01*
X7983928Y-11596786D01*
X7998214Y-11568214D01*
X8026786Y-11553929D01*
X8098214Y-11553929D01*
X8126786Y-11539643D01*
X8269643Y-11468214D02*
X8269643Y-11768214D01*
X8269643Y-11482500D02*
X8298214Y-11468214D01*
X8355357Y-11468214D01*
X8383928Y-11482500D01*
X8398214Y-11496786D01*
X8412500Y-11525357D01*
X8412500Y-11611071D01*
X8398214Y-11639643D01*
X8383928Y-11653929D01*
X8355357Y-11668214D01*
X8298214Y-11668214D01*
X8269643Y-11653929D01*
X8541071Y-11639643D02*
X8555357Y-11653929D01*
X8541071Y-11668214D01*
X8526786Y-11653929D01*
X8541071Y-11639643D01*
X8541071Y-11668214D01*
X8541071Y-11482500D02*
X8555357Y-11496786D01*
X8541071Y-11511071D01*
X8526786Y-11496786D01*
X8541071Y-11482500D01*
X8541071Y-11511071D01*
X6167500Y-12147500D02*
X6197500Y-12177500D01*
X6197500Y-12147500D02*
X6167500Y-12177500D01*
X6541071Y-11998214D02*
X6569643Y-11998214D01*
X6598214Y-12012500D01*
X6612500Y-12026786D01*
X6626786Y-12055357D01*
X6641071Y-12112500D01*
X6641071Y-12183929D01*
X6626786Y-12241071D01*
X6612500Y-12269643D01*
X6598214Y-12283929D01*
X6569643Y-12298214D01*
X6541071Y-12298214D01*
X6512500Y-12283929D01*
X6498214Y-12269643D01*
X6483928Y-12241071D01*
X6469643Y-12183929D01*
X6469643Y-12112500D01*
X6483928Y-12055357D01*
X6498214Y-12026786D01*
X6512500Y-12012500D01*
X6541071Y-11998214D01*
X6769643Y-12269643D02*
X6783928Y-12283929D01*
X6769643Y-12298214D01*
X6755357Y-12283929D01*
X6769643Y-12269643D01*
X6769643Y-12298214D01*
X6883928Y-11998214D02*
X7069643Y-11998214D01*
X6969643Y-12112500D01*
X7012500Y-12112500D01*
X7041071Y-12126786D01*
X7055357Y-12141071D01*
X7069643Y-12169643D01*
X7069643Y-12241071D01*
X7055357Y-12269643D01*
X7041071Y-12283929D01*
X7012500Y-12298214D01*
X6926786Y-12298214D01*
X6898214Y-12283929D01*
X6883928Y-12269643D01*
X7255357Y-11998214D02*
X7283928Y-11998214D01*
X7312500Y-12012500D01*
X7326786Y-12026786D01*
X7341071Y-12055357D01*
X7355357Y-12112500D01*
X7355357Y-12183929D01*
X7341071Y-12241071D01*
X7326786Y-12269643D01*
X7312500Y-12283929D01*
X7283928Y-12298214D01*
X7255357Y-12298214D01*
X7226786Y-12283929D01*
X7212500Y-12269643D01*
X7198214Y-12241071D01*
X7183928Y-12183929D01*
X7183928Y-12112500D01*
X7198214Y-12055357D01*
X7212500Y-12026786D01*
X7226786Y-12012500D01*
X7255357Y-11998214D01*
X7483928Y-12298214D02*
X7483928Y-12098214D01*
X7483928Y-12126786D02*
X7498214Y-12112500D01*
X7526786Y-12098214D01*
X7569643Y-12098214D01*
X7598214Y-12112500D01*
X7612500Y-12141071D01*
X7612500Y-12298214D01*
X7612500Y-12141071D02*
X7626786Y-12112500D01*
X7655357Y-12098214D01*
X7698214Y-12098214D01*
X7726786Y-12112500D01*
X7741071Y-12141071D01*
X7741071Y-12298214D01*
X7883928Y-12298214D02*
X7883928Y-12098214D01*
X7883928Y-12126786D02*
X7898214Y-12112500D01*
X7926786Y-12098214D01*
X7969643Y-12098214D01*
X7998214Y-12112500D01*
X8012500Y-12141071D01*
X8012500Y-12298214D01*
X8012500Y-12141071D02*
X8026786Y-12112500D01*
X8055357Y-12098214D01*
X8098214Y-12098214D01*
X8126786Y-12112500D01*
X8141071Y-12141071D01*
X8141071Y-12298214D01*
X8726786Y-11983929D02*
X8469643Y-12369643D01*
X9112500Y-11998214D02*
X9141071Y-11998214D01*
X9169643Y-12012500D01*
X9183928Y-12026786D01*
X9198214Y-12055357D01*
X9212500Y-12112500D01*
X9212500Y-12183929D01*
X9198214Y-12241071D01*
X9183928Y-12269643D01*
X9169643Y-12283929D01*
X9141071Y-12298214D01*
X9112500Y-12298214D01*
X9083928Y-12283929D01*
X9069643Y-12269643D01*
X9055357Y-12241071D01*
X9041071Y-12183929D01*
X9041071Y-12112500D01*
X9055357Y-12055357D01*
X9069643Y-12026786D01*
X9083928Y-12012500D01*
X9112500Y-11998214D01*
X9341071Y-12269643D02*
X9355357Y-12283929D01*
X9341071Y-12298214D01*
X9326786Y-12283929D01*
X9341071Y-12269643D01*
X9341071Y-12298214D01*
X9541071Y-11998214D02*
X9569643Y-11998214D01*
X9598214Y-12012500D01*
X9612500Y-12026786D01*
X9626786Y-12055357D01*
X9641071Y-12112500D01*
X9641071Y-12183929D01*
X9626786Y-12241071D01*
X9612500Y-12269643D01*
X9598214Y-12283929D01*
X9569643Y-12298214D01*
X9541071Y-12298214D01*
X9512500Y-12283929D01*
X9498214Y-12269643D01*
X9483928Y-12241071D01*
X9469643Y-12183929D01*
X9469643Y-12112500D01*
X9483928Y-12055357D01*
X9498214Y-12026786D01*
X9512500Y-12012500D01*
X9541071Y-11998214D01*
X9926786Y-12298214D02*
X9755357Y-12298214D01*
X9841071Y-12298214D02*
X9841071Y-11998214D01*
X9812500Y-12041071D01*
X9783928Y-12069643D01*
X9755357Y-12083929D01*
X10041071Y-12026786D02*
X10055357Y-12012500D01*
X10083928Y-11998214D01*
X10155357Y-11998214D01*
X10183928Y-12012500D01*
X10198214Y-12026786D01*
X10212500Y-12055357D01*
X10212500Y-12083929D01*
X10198214Y-12126786D01*
X10026786Y-12298214D01*
X10212500Y-12298214D01*
X10326786Y-11998214D02*
X10326786Y-12055357D01*
X10441071Y-11998214D02*
X10441071Y-12055357D01*
X10883928Y-12412500D02*
X10869643Y-12398214D01*
X10841071Y-12355357D01*
X10826786Y-12326786D01*
X10812500Y-12283929D01*
X10798214Y-12212500D01*
X10798214Y-12155357D01*
X10812500Y-12083929D01*
X10826786Y-12041071D01*
X10841071Y-12012500D01*
X10869643Y-11969643D01*
X10883928Y-11955357D01*
X11155357Y-12298214D02*
X10983928Y-12298214D01*
X11069643Y-12298214D02*
X11069643Y-11998214D01*
X11041071Y-12041071D01*
X11012500Y-12069643D01*
X10983928Y-12083929D01*
X11269643Y-12026786D02*
X11283928Y-12012500D01*
X11312500Y-11998214D01*
X11383928Y-11998214D01*
X11412500Y-12012500D01*
X11426786Y-12026786D01*
X11441071Y-12055357D01*
X11441071Y-12083929D01*
X11426786Y-12126786D01*
X11255357Y-12298214D01*
X11441071Y-12298214D01*
X11798214Y-12298214D02*
X11798214Y-11998214D01*
X11926786Y-12298214D02*
X11926786Y-12141071D01*
X11912500Y-12112500D01*
X11883928Y-12098214D01*
X11841071Y-12098214D01*
X11812500Y-12112500D01*
X11798214Y-12126786D01*
X12112500Y-12298214D02*
X12083928Y-12283929D01*
X12069643Y-12269643D01*
X12055357Y-12241071D01*
X12055357Y-12155357D01*
X12069643Y-12126786D01*
X12083928Y-12112500D01*
X12112500Y-12098214D01*
X12155357Y-12098214D01*
X12183928Y-12112500D01*
X12198214Y-12126786D01*
X12212500Y-12155357D01*
X12212500Y-12241071D01*
X12198214Y-12269643D01*
X12183928Y-12283929D01*
X12155357Y-12298214D01*
X12112500Y-12298214D01*
X12383928Y-12298214D02*
X12355357Y-12283929D01*
X12341071Y-12255357D01*
X12341071Y-11998214D01*
X12612500Y-12283929D02*
X12583928Y-12298214D01*
X12526786Y-12298214D01*
X12498214Y-12283929D01*
X12483928Y-12255357D01*
X12483928Y-12141071D01*
X12498214Y-12112500D01*
X12526786Y-12098214D01*
X12583928Y-12098214D01*
X12612500Y-12112500D01*
X12626786Y-12141071D01*
X12626786Y-12169643D01*
X12483928Y-12198214D01*
X12741071Y-12283929D02*
X12769643Y-12298214D01*
X12826786Y-12298214D01*
X12855357Y-12283929D01*
X12869643Y-12255357D01*
X12869643Y-12241071D01*
X12855357Y-12212500D01*
X12826786Y-12198214D01*
X12783928Y-12198214D01*
X12755357Y-12183929D01*
X12741071Y-12155357D01*
X12741071Y-12141071D01*
X12755357Y-12112500D01*
X12783928Y-12098214D01*
X12826786Y-12098214D01*
X12855357Y-12112500D01*
X12969643Y-12412500D02*
X12983928Y-12398214D01*
X13012500Y-12355357D01*
X13026786Y-12326786D01*
X13041071Y-12283929D01*
X13055357Y-12212500D01*
X13055357Y-12155357D01*
X13041071Y-12083929D01*
X13026786Y-12041071D01*
X13012500Y-12012500D01*
X12983928Y-11969643D01*
X12969643Y-11955357D01*
X6197500Y-12558500D02*
G75*
G03*
X6197500Y-12558500I-15240J0D01*
G01*
X6541071Y-12394214D02*
X6569643Y-12394214D01*
X6598214Y-12408500D01*
X6612500Y-12422786D01*
X6626786Y-12451357D01*
X6641071Y-12508500D01*
X6641071Y-12579929D01*
X6626786Y-12637071D01*
X6612500Y-12665643D01*
X6598214Y-12679929D01*
X6569643Y-12694214D01*
X6541071Y-12694214D01*
X6512500Y-12679929D01*
X6498214Y-12665643D01*
X6483928Y-12637071D01*
X6469643Y-12579929D01*
X6469643Y-12508500D01*
X6483928Y-12451357D01*
X6498214Y-12422786D01*
X6512500Y-12408500D01*
X6541071Y-12394214D01*
X6769643Y-12665643D02*
X6783928Y-12679929D01*
X6769643Y-12694214D01*
X6755357Y-12679929D01*
X6769643Y-12665643D01*
X6769643Y-12694214D01*
X6883928Y-12394214D02*
X7069643Y-12394214D01*
X6969643Y-12508500D01*
X7012500Y-12508500D01*
X7041071Y-12522786D01*
X7055357Y-12537071D01*
X7069643Y-12565643D01*
X7069643Y-12637071D01*
X7055357Y-12665643D01*
X7041071Y-12679929D01*
X7012500Y-12694214D01*
X6926786Y-12694214D01*
X6898214Y-12679929D01*
X6883928Y-12665643D01*
X7255357Y-12394214D02*
X7283928Y-12394214D01*
X7312500Y-12408500D01*
X7326786Y-12422786D01*
X7341071Y-12451357D01*
X7355357Y-12508500D01*
X7355357Y-12579929D01*
X7341071Y-12637071D01*
X7326786Y-12665643D01*
X7312500Y-12679929D01*
X7283928Y-12694214D01*
X7255357Y-12694214D01*
X7226786Y-12679929D01*
X7212500Y-12665643D01*
X7198214Y-12637071D01*
X7183928Y-12579929D01*
X7183928Y-12508500D01*
X7198214Y-12451357D01*
X7212500Y-12422786D01*
X7226786Y-12408500D01*
X7255357Y-12394214D01*
X7483928Y-12694214D02*
X7483928Y-12494214D01*
X7483928Y-12522786D02*
X7498214Y-12508500D01*
X7526786Y-12494214D01*
X7569643Y-12494214D01*
X7598214Y-12508500D01*
X7612500Y-12537071D01*
X7612500Y-12694214D01*
X7612500Y-12537071D02*
X7626786Y-12508500D01*
X7655357Y-12494214D01*
X7698214Y-12494214D01*
X7726786Y-12508500D01*
X7741071Y-12537071D01*
X7741071Y-12694214D01*
X7883928Y-12694214D02*
X7883928Y-12494214D01*
X7883928Y-12522786D02*
X7898214Y-12508500D01*
X7926786Y-12494214D01*
X7969643Y-12494214D01*
X7998214Y-12508500D01*
X8012500Y-12537071D01*
X8012500Y-12694214D01*
X8012500Y-12537071D02*
X8026786Y-12508500D01*
X8055357Y-12494214D01*
X8098214Y-12494214D01*
X8126786Y-12508500D01*
X8141071Y-12537071D01*
X8141071Y-12694214D01*
X8726786Y-12379929D02*
X8469643Y-12765643D01*
X9112500Y-12394214D02*
X9141071Y-12394214D01*
X9169643Y-12408500D01*
X9183928Y-12422786D01*
X9198214Y-12451357D01*
X9212500Y-12508500D01*
X9212500Y-12579929D01*
X9198214Y-12637071D01*
X9183928Y-12665643D01*
X9169643Y-12679929D01*
X9141071Y-12694214D01*
X9112500Y-12694214D01*
X9083928Y-12679929D01*
X9069643Y-12665643D01*
X9055357Y-12637071D01*
X9041071Y-12579929D01*
X9041071Y-12508500D01*
X9055357Y-12451357D01*
X9069643Y-12422786D01*
X9083928Y-12408500D01*
X9112500Y-12394214D01*
X9341071Y-12665643D02*
X9355357Y-12679929D01*
X9341071Y-12694214D01*
X9326786Y-12679929D01*
X9341071Y-12665643D01*
X9341071Y-12694214D01*
X9541071Y-12394214D02*
X9569643Y-12394214D01*
X9598214Y-12408500D01*
X9612500Y-12422786D01*
X9626786Y-12451357D01*
X9641071Y-12508500D01*
X9641071Y-12579929D01*
X9626786Y-12637071D01*
X9612500Y-12665643D01*
X9598214Y-12679929D01*
X9569643Y-12694214D01*
X9541071Y-12694214D01*
X9512500Y-12679929D01*
X9498214Y-12665643D01*
X9483928Y-12637071D01*
X9469643Y-12579929D01*
X9469643Y-12508500D01*
X9483928Y-12451357D01*
X9498214Y-12422786D01*
X9512500Y-12408500D01*
X9541071Y-12394214D01*
X9926786Y-12694214D02*
X9755357Y-12694214D01*
X9841071Y-12694214D02*
X9841071Y-12394214D01*
X9812500Y-12437071D01*
X9783928Y-12465643D01*
X9755357Y-12479929D01*
X10041071Y-12422786D02*
X10055357Y-12408500D01*
X10083928Y-12394214D01*
X10155357Y-12394214D01*
X10183928Y-12408500D01*
X10198214Y-12422786D01*
X10212500Y-12451357D01*
X10212500Y-12479929D01*
X10198214Y-12522786D01*
X10026786Y-12694214D01*
X10212500Y-12694214D01*
X10326786Y-12394214D02*
X10326786Y-12451357D01*
X10441071Y-12394214D02*
X10441071Y-12451357D01*
X10883928Y-12808500D02*
X10869643Y-12794214D01*
X10841071Y-12751357D01*
X10826786Y-12722786D01*
X10812500Y-12679929D01*
X10798214Y-12608500D01*
X10798214Y-12551357D01*
X10812500Y-12479929D01*
X10826786Y-12437071D01*
X10841071Y-12408500D01*
X10869643Y-12365643D01*
X10883928Y-12351357D01*
X10969643Y-12394214D02*
X11169643Y-12394214D01*
X11041071Y-12694214D01*
X11512500Y-12694214D02*
X11512500Y-12394214D01*
X11641071Y-12694214D02*
X11641071Y-12537071D01*
X11626786Y-12508500D01*
X11598214Y-12494214D01*
X11555357Y-12494214D01*
X11526786Y-12508500D01*
X11512500Y-12522786D01*
X11826786Y-12694214D02*
X11798214Y-12679929D01*
X11783928Y-12665643D01*
X11769643Y-12637071D01*
X11769643Y-12551357D01*
X11783928Y-12522786D01*
X11798214Y-12508500D01*
X11826786Y-12494214D01*
X11869643Y-12494214D01*
X11898214Y-12508500D01*
X11912500Y-12522786D01*
X11926786Y-12551357D01*
X11926786Y-12637071D01*
X11912500Y-12665643D01*
X11898214Y-12679929D01*
X11869643Y-12694214D01*
X11826786Y-12694214D01*
X12098214Y-12694214D02*
X12069643Y-12679929D01*
X12055357Y-12651357D01*
X12055357Y-12394214D01*
X12326786Y-12679929D02*
X12298214Y-12694214D01*
X12241071Y-12694214D01*
X12212500Y-12679929D01*
X12198214Y-12651357D01*
X12198214Y-12537071D01*
X12212500Y-12508500D01*
X12241071Y-12494214D01*
X12298214Y-12494214D01*
X12326786Y-12508500D01*
X12341071Y-12537071D01*
X12341071Y-12565643D01*
X12198214Y-12594214D01*
X12455357Y-12679929D02*
X12483928Y-12694214D01*
X12541071Y-12694214D01*
X12569643Y-12679929D01*
X12583928Y-12651357D01*
X12583928Y-12637071D01*
X12569643Y-12608500D01*
X12541071Y-12594214D01*
X12498214Y-12594214D01*
X12469643Y-12579929D01*
X12455357Y-12551357D01*
X12455357Y-12537071D01*
X12469643Y-12508500D01*
X12498214Y-12494214D01*
X12541071Y-12494214D01*
X12569643Y-12508500D01*
X12683928Y-12808500D02*
X12698214Y-12794214D01*
X12726786Y-12751357D01*
X12741071Y-12722786D01*
X12755357Y-12679929D01*
X12769643Y-12608500D01*
X12769643Y-12551357D01*
X12755357Y-12479929D01*
X12741071Y-12437071D01*
X12726786Y-12408500D01*
X12698214Y-12365643D01*
X12683928Y-12351357D01*
X6160000Y-12917000D02*
X6160000Y-12992000D01*
X6122500Y-12954500D02*
X6197500Y-12954500D01*
X6541071Y-12790214D02*
X6569643Y-12790214D01*
X6598214Y-12804500D01*
X6612500Y-12818786D01*
X6626786Y-12847357D01*
X6641071Y-12904500D01*
X6641071Y-12975929D01*
X6626786Y-13033071D01*
X6612500Y-13061643D01*
X6598214Y-13075929D01*
X6569643Y-13090214D01*
X6541071Y-13090214D01*
X6512500Y-13075929D01*
X6498214Y-13061643D01*
X6483928Y-13033071D01*
X6469643Y-12975929D01*
X6469643Y-12904500D01*
X6483928Y-12847357D01*
X6498214Y-12818786D01*
X6512500Y-12804500D01*
X6541071Y-12790214D01*
X6769643Y-13061643D02*
X6783928Y-13075929D01*
X6769643Y-13090214D01*
X6755357Y-13075929D01*
X6769643Y-13061643D01*
X6769643Y-13090214D01*
X6883928Y-12790214D02*
X7083928Y-12790214D01*
X6955357Y-13090214D01*
X7341071Y-12790214D02*
X7198214Y-12790214D01*
X7183928Y-12933071D01*
X7198214Y-12918786D01*
X7226786Y-12904500D01*
X7298214Y-12904500D01*
X7326786Y-12918786D01*
X7341071Y-12933071D01*
X7355357Y-12961643D01*
X7355357Y-13033071D01*
X7341071Y-13061643D01*
X7326786Y-13075929D01*
X7298214Y-13090214D01*
X7226786Y-13090214D01*
X7198214Y-13075929D01*
X7183928Y-13061643D01*
X7483928Y-13090214D02*
X7483928Y-12890214D01*
X7483928Y-12918786D02*
X7498214Y-12904500D01*
X7526786Y-12890214D01*
X7569643Y-12890214D01*
X7598214Y-12904500D01*
X7612500Y-12933071D01*
X7612500Y-13090214D01*
X7612500Y-12933071D02*
X7626786Y-12904500D01*
X7655357Y-12890214D01*
X7698214Y-12890214D01*
X7726786Y-12904500D01*
X7741071Y-12933071D01*
X7741071Y-13090214D01*
X7883928Y-13090214D02*
X7883928Y-12890214D01*
X7883928Y-12918786D02*
X7898214Y-12904500D01*
X7926786Y-12890214D01*
X7969643Y-12890214D01*
X7998214Y-12904500D01*
X8012500Y-12933071D01*
X8012500Y-13090214D01*
X8012500Y-12933071D02*
X8026786Y-12904500D01*
X8055357Y-12890214D01*
X8098214Y-12890214D01*
X8126786Y-12904500D01*
X8141071Y-12933071D01*
X8141071Y-13090214D01*
X8726786Y-12775929D02*
X8469643Y-13161643D01*
X9112500Y-12790214D02*
X9141071Y-12790214D01*
X9169643Y-12804500D01*
X9183928Y-12818786D01*
X9198214Y-12847357D01*
X9212500Y-12904500D01*
X9212500Y-12975929D01*
X9198214Y-13033071D01*
X9183928Y-13061643D01*
X9169643Y-13075929D01*
X9141071Y-13090214D01*
X9112500Y-13090214D01*
X9083928Y-13075929D01*
X9069643Y-13061643D01*
X9055357Y-13033071D01*
X9041071Y-12975929D01*
X9041071Y-12904500D01*
X9055357Y-12847357D01*
X9069643Y-12818786D01*
X9083928Y-12804500D01*
X9112500Y-12790214D01*
X9341071Y-13061643D02*
X9355357Y-13075929D01*
X9341071Y-13090214D01*
X9326786Y-13075929D01*
X9341071Y-13061643D01*
X9341071Y-13090214D01*
X9541071Y-12790214D02*
X9569643Y-12790214D01*
X9598214Y-12804500D01*
X9612500Y-12818786D01*
X9626786Y-12847357D01*
X9641071Y-12904500D01*
X9641071Y-12975929D01*
X9626786Y-13033071D01*
X9612500Y-13061643D01*
X9598214Y-13075929D01*
X9569643Y-13090214D01*
X9541071Y-13090214D01*
X9512500Y-13075929D01*
X9498214Y-13061643D01*
X9483928Y-13033071D01*
X9469643Y-12975929D01*
X9469643Y-12904500D01*
X9483928Y-12847357D01*
X9498214Y-12818786D01*
X9512500Y-12804500D01*
X9541071Y-12790214D01*
X9741071Y-12790214D02*
X9926786Y-12790214D01*
X9826786Y-12904500D01*
X9869643Y-12904500D01*
X9898214Y-12918786D01*
X9912500Y-12933071D01*
X9926786Y-12961643D01*
X9926786Y-13033071D01*
X9912500Y-13061643D01*
X9898214Y-13075929D01*
X9869643Y-13090214D01*
X9783928Y-13090214D01*
X9755357Y-13075929D01*
X9741071Y-13061643D01*
X10112500Y-12790214D02*
X10141071Y-12790214D01*
X10169643Y-12804500D01*
X10183928Y-12818786D01*
X10198214Y-12847357D01*
X10212500Y-12904500D01*
X10212500Y-12975929D01*
X10198214Y-13033071D01*
X10183928Y-13061643D01*
X10169643Y-13075929D01*
X10141071Y-13090214D01*
X10112500Y-13090214D01*
X10083928Y-13075929D01*
X10069643Y-13061643D01*
X10055357Y-13033071D01*
X10041071Y-12975929D01*
X10041071Y-12904500D01*
X10055357Y-12847357D01*
X10069643Y-12818786D01*
X10083928Y-12804500D01*
X10112500Y-12790214D01*
X10326786Y-12790214D02*
X10326786Y-12847357D01*
X10441071Y-12790214D02*
X10441071Y-12847357D01*
X10883928Y-13204500D02*
X10869643Y-13190214D01*
X10841071Y-13147357D01*
X10826786Y-13118786D01*
X10812500Y-13075929D01*
X10798214Y-13004500D01*
X10798214Y-12947357D01*
X10812500Y-12875929D01*
X10826786Y-12833071D01*
X10841071Y-12804500D01*
X10869643Y-12761643D01*
X10883928Y-12747357D01*
X11126786Y-12790214D02*
X11069643Y-12790214D01*
X11041071Y-12804500D01*
X11026786Y-12818786D01*
X10998214Y-12861643D01*
X10983928Y-12918786D01*
X10983928Y-13033071D01*
X10998214Y-13061643D01*
X11012500Y-13075929D01*
X11041071Y-13090214D01*
X11098214Y-13090214D01*
X11126786Y-13075929D01*
X11141071Y-13061643D01*
X11155357Y-13033071D01*
X11155357Y-12961643D01*
X11141071Y-12933071D01*
X11126786Y-12918786D01*
X11098214Y-12904500D01*
X11041071Y-12904500D01*
X11012500Y-12918786D01*
X10998214Y-12933071D01*
X10983928Y-12961643D01*
X11512500Y-13090214D02*
X11512500Y-12790214D01*
X11641071Y-13090214D02*
X11641071Y-12933071D01*
X11626786Y-12904500D01*
X11598214Y-12890214D01*
X11555357Y-12890214D01*
X11526786Y-12904500D01*
X11512500Y-12918786D01*
X11826786Y-13090214D02*
X11798214Y-13075929D01*
X11783928Y-13061643D01*
X11769643Y-13033071D01*
X11769643Y-12947357D01*
X11783928Y-12918786D01*
X11798214Y-12904500D01*
X11826786Y-12890214D01*
X11869643Y-12890214D01*
X11898214Y-12904500D01*
X11912500Y-12918786D01*
X11926786Y-12947357D01*
X11926786Y-13033071D01*
X11912500Y-13061643D01*
X11898214Y-13075929D01*
X11869643Y-13090214D01*
X11826786Y-13090214D01*
X12098214Y-13090214D02*
X12069643Y-13075929D01*
X12055357Y-13047357D01*
X12055357Y-12790214D01*
X12326786Y-13075929D02*
X12298214Y-13090214D01*
X12241071Y-13090214D01*
X12212500Y-13075929D01*
X12198214Y-13047357D01*
X12198214Y-12933071D01*
X12212500Y-12904500D01*
X12241071Y-12890214D01*
X12298214Y-12890214D01*
X12326786Y-12904500D01*
X12341071Y-12933071D01*
X12341071Y-12961643D01*
X12198214Y-12990214D01*
X12455357Y-13075929D02*
X12483928Y-13090214D01*
X12541071Y-13090214D01*
X12569643Y-13075929D01*
X12583928Y-13047357D01*
X12583928Y-13033071D01*
X12569643Y-13004500D01*
X12541071Y-12990214D01*
X12498214Y-12990214D01*
X12469643Y-12975929D01*
X12455357Y-12947357D01*
X12455357Y-12933071D01*
X12469643Y-12904500D01*
X12498214Y-12890214D01*
X12541071Y-12890214D01*
X12569643Y-12904500D01*
X12683928Y-13204500D02*
X12698214Y-13190214D01*
X12726786Y-13147357D01*
X12741071Y-13118786D01*
X12755357Y-13075929D01*
X12769643Y-13004500D01*
X12769643Y-12947357D01*
X12755357Y-12875929D01*
X12741071Y-12833071D01*
X12726786Y-12804500D01*
X12698214Y-12761643D01*
X12683928Y-12747357D01*
X6185784Y-13378785D02*
X6185784Y-13322216D01*
X6129215Y-13322216D01*
X6129215Y-13378785D01*
X6185784Y-13378785D01*
X6541071Y-13186214D02*
X6569643Y-13186214D01*
X6598214Y-13200500D01*
X6612500Y-13214786D01*
X6626786Y-13243357D01*
X6641071Y-13300500D01*
X6641071Y-13371929D01*
X6626786Y-13429071D01*
X6612500Y-13457643D01*
X6598214Y-13471929D01*
X6569643Y-13486214D01*
X6541071Y-13486214D01*
X6512500Y-13471929D01*
X6498214Y-13457643D01*
X6483928Y-13429071D01*
X6469643Y-13371929D01*
X6469643Y-13300500D01*
X6483928Y-13243357D01*
X6498214Y-13214786D01*
X6512500Y-13200500D01*
X6541071Y-13186214D01*
X6769643Y-13457643D02*
X6783928Y-13471929D01*
X6769643Y-13486214D01*
X6755357Y-13471929D01*
X6769643Y-13457643D01*
X6769643Y-13486214D01*
X6955357Y-13314786D02*
X6926786Y-13300500D01*
X6912500Y-13286214D01*
X6898214Y-13257643D01*
X6898214Y-13243357D01*
X6912500Y-13214786D01*
X6926786Y-13200500D01*
X6955357Y-13186214D01*
X7012500Y-13186214D01*
X7041071Y-13200500D01*
X7055357Y-13214786D01*
X7069643Y-13243357D01*
X7069643Y-13257643D01*
X7055357Y-13286214D01*
X7041071Y-13300500D01*
X7012500Y-13314786D01*
X6955357Y-13314786D01*
X6926786Y-13329071D01*
X6912500Y-13343357D01*
X6898214Y-13371929D01*
X6898214Y-13429071D01*
X6912500Y-13457643D01*
X6926786Y-13471929D01*
X6955357Y-13486214D01*
X7012500Y-13486214D01*
X7041071Y-13471929D01*
X7055357Y-13457643D01*
X7069643Y-13429071D01*
X7069643Y-13371929D01*
X7055357Y-13343357D01*
X7041071Y-13329071D01*
X7012500Y-13314786D01*
X7255357Y-13186214D02*
X7283928Y-13186214D01*
X7312500Y-13200500D01*
X7326786Y-13214786D01*
X7341071Y-13243357D01*
X7355357Y-13300500D01*
X7355357Y-13371929D01*
X7341071Y-13429071D01*
X7326786Y-13457643D01*
X7312500Y-13471929D01*
X7283928Y-13486214D01*
X7255357Y-13486214D01*
X7226786Y-13471929D01*
X7212500Y-13457643D01*
X7198214Y-13429071D01*
X7183928Y-13371929D01*
X7183928Y-13300500D01*
X7198214Y-13243357D01*
X7212500Y-13214786D01*
X7226786Y-13200500D01*
X7255357Y-13186214D01*
X7483928Y-13486214D02*
X7483928Y-13286214D01*
X7483928Y-13314786D02*
X7498214Y-13300500D01*
X7526786Y-13286214D01*
X7569643Y-13286214D01*
X7598214Y-13300500D01*
X7612500Y-13329071D01*
X7612500Y-13486214D01*
X7612500Y-13329071D02*
X7626786Y-13300500D01*
X7655357Y-13286214D01*
X7698214Y-13286214D01*
X7726786Y-13300500D01*
X7741071Y-13329071D01*
X7741071Y-13486214D01*
X7883928Y-13486214D02*
X7883928Y-13286214D01*
X7883928Y-13314786D02*
X7898214Y-13300500D01*
X7926786Y-13286214D01*
X7969643Y-13286214D01*
X7998214Y-13300500D01*
X8012500Y-13329071D01*
X8012500Y-13486214D01*
X8012500Y-13329071D02*
X8026786Y-13300500D01*
X8055357Y-13286214D01*
X8098214Y-13286214D01*
X8126786Y-13300500D01*
X8141071Y-13329071D01*
X8141071Y-13486214D01*
X8726786Y-13171929D02*
X8469643Y-13557643D01*
X9112500Y-13186214D02*
X9141071Y-13186214D01*
X9169643Y-13200500D01*
X9183928Y-13214786D01*
X9198214Y-13243357D01*
X9212500Y-13300500D01*
X9212500Y-13371929D01*
X9198214Y-13429071D01*
X9183928Y-13457643D01*
X9169643Y-13471929D01*
X9141071Y-13486214D01*
X9112500Y-13486214D01*
X9083928Y-13471929D01*
X9069643Y-13457643D01*
X9055357Y-13429071D01*
X9041071Y-13371929D01*
X9041071Y-13300500D01*
X9055357Y-13243357D01*
X9069643Y-13214786D01*
X9083928Y-13200500D01*
X9112500Y-13186214D01*
X9341071Y-13457643D02*
X9355357Y-13471929D01*
X9341071Y-13486214D01*
X9326786Y-13471929D01*
X9341071Y-13457643D01*
X9341071Y-13486214D01*
X9541071Y-13186214D02*
X9569643Y-13186214D01*
X9598214Y-13200500D01*
X9612500Y-13214786D01*
X9626786Y-13243357D01*
X9641071Y-13300500D01*
X9641071Y-13371929D01*
X9626786Y-13429071D01*
X9612500Y-13457643D01*
X9598214Y-13471929D01*
X9569643Y-13486214D01*
X9541071Y-13486214D01*
X9512500Y-13471929D01*
X9498214Y-13457643D01*
X9483928Y-13429071D01*
X9469643Y-13371929D01*
X9469643Y-13300500D01*
X9483928Y-13243357D01*
X9498214Y-13214786D01*
X9512500Y-13200500D01*
X9541071Y-13186214D01*
X9741071Y-13186214D02*
X9926786Y-13186214D01*
X9826786Y-13300500D01*
X9869643Y-13300500D01*
X9898214Y-13314786D01*
X9912500Y-13329071D01*
X9926786Y-13357643D01*
X9926786Y-13429071D01*
X9912500Y-13457643D01*
X9898214Y-13471929D01*
X9869643Y-13486214D01*
X9783928Y-13486214D01*
X9755357Y-13471929D01*
X9741071Y-13457643D01*
X10212500Y-13486214D02*
X10041071Y-13486214D01*
X10126786Y-13486214D02*
X10126786Y-13186214D01*
X10098214Y-13229071D01*
X10069643Y-13257643D01*
X10041071Y-13271929D01*
X10326786Y-13186214D02*
X10326786Y-13243357D01*
X10441071Y-13186214D02*
X10441071Y-13243357D01*
X10883928Y-13600500D02*
X10869643Y-13586214D01*
X10841071Y-13543357D01*
X10826786Y-13514786D01*
X10812500Y-13471929D01*
X10798214Y-13400500D01*
X10798214Y-13343357D01*
X10812500Y-13271929D01*
X10826786Y-13229071D01*
X10841071Y-13200500D01*
X10869643Y-13157643D01*
X10883928Y-13143357D01*
X10969643Y-13186214D02*
X11155357Y-13186214D01*
X11055357Y-13300500D01*
X11098214Y-13300500D01*
X11126786Y-13314786D01*
X11141071Y-13329071D01*
X11155357Y-13357643D01*
X11155357Y-13429071D01*
X11141071Y-13457643D01*
X11126786Y-13471929D01*
X11098214Y-13486214D01*
X11012500Y-13486214D01*
X10983928Y-13471929D01*
X10969643Y-13457643D01*
X11269643Y-13214786D02*
X11283928Y-13200500D01*
X11312500Y-13186214D01*
X11383928Y-13186214D01*
X11412500Y-13200500D01*
X11426786Y-13214786D01*
X11441071Y-13243357D01*
X11441071Y-13271929D01*
X11426786Y-13314786D01*
X11255357Y-13486214D01*
X11441071Y-13486214D01*
X11798214Y-13486214D02*
X11798214Y-13186214D01*
X11926786Y-13486214D02*
X11926786Y-13329071D01*
X11912500Y-13300500D01*
X11883928Y-13286214D01*
X11841071Y-13286214D01*
X11812500Y-13300500D01*
X11798214Y-13314786D01*
X12112500Y-13486214D02*
X12083928Y-13471929D01*
X12069643Y-13457643D01*
X12055357Y-13429071D01*
X12055357Y-13343357D01*
X12069643Y-13314786D01*
X12083928Y-13300500D01*
X12112500Y-13286214D01*
X12155357Y-13286214D01*
X12183928Y-13300500D01*
X12198214Y-13314786D01*
X12212500Y-13343357D01*
X12212500Y-13429071D01*
X12198214Y-13457643D01*
X12183928Y-13471929D01*
X12155357Y-13486214D01*
X12112500Y-13486214D01*
X12383928Y-13486214D02*
X12355357Y-13471929D01*
X12341071Y-13443357D01*
X12341071Y-13186214D01*
X12612500Y-13471929D02*
X12583928Y-13486214D01*
X12526786Y-13486214D01*
X12498214Y-13471929D01*
X12483928Y-13443357D01*
X12483928Y-13329071D01*
X12498214Y-13300500D01*
X12526786Y-13286214D01*
X12583928Y-13286214D01*
X12612500Y-13300500D01*
X12626786Y-13329071D01*
X12626786Y-13357643D01*
X12483928Y-13386214D01*
X12741071Y-13471929D02*
X12769643Y-13486214D01*
X12826786Y-13486214D01*
X12855357Y-13471929D01*
X12869643Y-13443357D01*
X12869643Y-13429071D01*
X12855357Y-13400500D01*
X12826786Y-13386214D01*
X12783928Y-13386214D01*
X12755357Y-13371929D01*
X12741071Y-13343357D01*
X12741071Y-13329071D01*
X12755357Y-13300500D01*
X12783928Y-13286214D01*
X12826786Y-13286214D01*
X12855357Y-13300500D01*
X12969643Y-13600500D02*
X12983928Y-13586214D01*
X13012500Y-13543357D01*
X13026786Y-13514786D01*
X13041071Y-13471929D01*
X13055357Y-13400500D01*
X13055357Y-13343357D01*
X13041071Y-13271929D01*
X13026786Y-13229071D01*
X13012500Y-13200500D01*
X12983928Y-13157643D01*
X12969643Y-13143357D01*
X6150000Y-13794000D02*
X6197500Y-13746500D01*
X6150000Y-13699000D01*
X6102500Y-13746500D01*
X6150000Y-13794000D01*
X6541071Y-13582214D02*
X6569643Y-13582214D01*
X6598214Y-13596500D01*
X6612500Y-13610786D01*
X6626786Y-13639357D01*
X6641071Y-13696500D01*
X6641071Y-13767929D01*
X6626786Y-13825071D01*
X6612500Y-13853643D01*
X6598214Y-13867929D01*
X6569643Y-13882214D01*
X6541071Y-13882214D01*
X6512500Y-13867929D01*
X6498214Y-13853643D01*
X6483928Y-13825071D01*
X6469643Y-13767929D01*
X6469643Y-13696500D01*
X6483928Y-13639357D01*
X6498214Y-13610786D01*
X6512500Y-13596500D01*
X6541071Y-13582214D01*
X6769643Y-13853643D02*
X6783928Y-13867929D01*
X6769643Y-13882214D01*
X6755357Y-13867929D01*
X6769643Y-13853643D01*
X6769643Y-13882214D01*
X6926786Y-13882214D02*
X6983928Y-13882214D01*
X7012500Y-13867929D01*
X7026786Y-13853643D01*
X7055357Y-13810786D01*
X7069643Y-13753643D01*
X7069643Y-13639357D01*
X7055357Y-13610786D01*
X7041071Y-13596500D01*
X7012500Y-13582214D01*
X6955357Y-13582214D01*
X6926786Y-13596500D01*
X6912500Y-13610786D01*
X6898214Y-13639357D01*
X6898214Y-13710786D01*
X6912500Y-13739357D01*
X6926786Y-13753643D01*
X6955357Y-13767929D01*
X7012500Y-13767929D01*
X7041071Y-13753643D01*
X7055357Y-13739357D01*
X7069643Y-13710786D01*
X7341071Y-13582214D02*
X7198214Y-13582214D01*
X7183928Y-13725071D01*
X7198214Y-13710786D01*
X7226786Y-13696500D01*
X7298214Y-13696500D01*
X7326786Y-13710786D01*
X7341071Y-13725071D01*
X7355357Y-13753643D01*
X7355357Y-13825071D01*
X7341071Y-13853643D01*
X7326786Y-13867929D01*
X7298214Y-13882214D01*
X7226786Y-13882214D01*
X7198214Y-13867929D01*
X7183928Y-13853643D01*
X7483928Y-13882214D02*
X7483928Y-13682214D01*
X7483928Y-13710786D02*
X7498214Y-13696500D01*
X7526786Y-13682214D01*
X7569643Y-13682214D01*
X7598214Y-13696500D01*
X7612500Y-13725071D01*
X7612500Y-13882214D01*
X7612500Y-13725071D02*
X7626786Y-13696500D01*
X7655357Y-13682214D01*
X7698214Y-13682214D01*
X7726786Y-13696500D01*
X7741071Y-13725071D01*
X7741071Y-13882214D01*
X7883928Y-13882214D02*
X7883928Y-13682214D01*
X7883928Y-13710786D02*
X7898214Y-13696500D01*
X7926786Y-13682214D01*
X7969643Y-13682214D01*
X7998214Y-13696500D01*
X8012500Y-13725071D01*
X8012500Y-13882214D01*
X8012500Y-13725071D02*
X8026786Y-13696500D01*
X8055357Y-13682214D01*
X8098214Y-13682214D01*
X8126786Y-13696500D01*
X8141071Y-13725071D01*
X8141071Y-13882214D01*
X8726786Y-13567929D02*
X8469643Y-13953643D01*
X9112500Y-13582214D02*
X9141071Y-13582214D01*
X9169643Y-13596500D01*
X9183928Y-13610786D01*
X9198214Y-13639357D01*
X9212500Y-13696500D01*
X9212500Y-13767929D01*
X9198214Y-13825071D01*
X9183928Y-13853643D01*
X9169643Y-13867929D01*
X9141071Y-13882214D01*
X9112500Y-13882214D01*
X9083928Y-13867929D01*
X9069643Y-13853643D01*
X9055357Y-13825071D01*
X9041071Y-13767929D01*
X9041071Y-13696500D01*
X9055357Y-13639357D01*
X9069643Y-13610786D01*
X9083928Y-13596500D01*
X9112500Y-13582214D01*
X9341071Y-13853643D02*
X9355357Y-13867929D01*
X9341071Y-13882214D01*
X9326786Y-13867929D01*
X9341071Y-13853643D01*
X9341071Y-13882214D01*
X9541071Y-13582214D02*
X9569643Y-13582214D01*
X9598214Y-13596500D01*
X9612500Y-13610786D01*
X9626786Y-13639357D01*
X9641071Y-13696500D01*
X9641071Y-13767929D01*
X9626786Y-13825071D01*
X9612500Y-13853643D01*
X9598214Y-13867929D01*
X9569643Y-13882214D01*
X9541071Y-13882214D01*
X9512500Y-13867929D01*
X9498214Y-13853643D01*
X9483928Y-13825071D01*
X9469643Y-13767929D01*
X9469643Y-13696500D01*
X9483928Y-13639357D01*
X9498214Y-13610786D01*
X9512500Y-13596500D01*
X9541071Y-13582214D01*
X9741071Y-13582214D02*
X9926786Y-13582214D01*
X9826786Y-13696500D01*
X9869643Y-13696500D01*
X9898214Y-13710786D01*
X9912500Y-13725071D01*
X9926786Y-13753643D01*
X9926786Y-13825071D01*
X9912500Y-13853643D01*
X9898214Y-13867929D01*
X9869643Y-13882214D01*
X9783928Y-13882214D01*
X9755357Y-13867929D01*
X9741071Y-13853643D01*
X10026786Y-13582214D02*
X10226786Y-13582214D01*
X10098214Y-13882214D01*
X10326786Y-13582214D02*
X10326786Y-13639357D01*
X10441071Y-13582214D02*
X10441071Y-13639357D01*
X10883928Y-13996500D02*
X10869643Y-13982214D01*
X10841071Y-13939357D01*
X10826786Y-13910786D01*
X10812500Y-13867929D01*
X10798214Y-13796500D01*
X10798214Y-13739357D01*
X10812500Y-13667929D01*
X10826786Y-13625071D01*
X10841071Y-13596500D01*
X10869643Y-13553643D01*
X10883928Y-13539357D01*
X10983928Y-13610786D02*
X10998214Y-13596500D01*
X11026786Y-13582214D01*
X11098214Y-13582214D01*
X11126786Y-13596500D01*
X11141071Y-13610786D01*
X11155357Y-13639357D01*
X11155357Y-13667929D01*
X11141071Y-13710786D01*
X10969643Y-13882214D01*
X11155357Y-13882214D01*
X11341071Y-13582214D02*
X11369643Y-13582214D01*
X11398214Y-13596500D01*
X11412500Y-13610786D01*
X11426786Y-13639357D01*
X11441071Y-13696500D01*
X11441071Y-13767929D01*
X11426786Y-13825071D01*
X11412500Y-13853643D01*
X11398214Y-13867929D01*
X11369643Y-13882214D01*
X11341071Y-13882214D01*
X11312500Y-13867929D01*
X11298214Y-13853643D01*
X11283928Y-13825071D01*
X11269643Y-13767929D01*
X11269643Y-13696500D01*
X11283928Y-13639357D01*
X11298214Y-13610786D01*
X11312500Y-13596500D01*
X11341071Y-13582214D01*
X11798214Y-13882214D02*
X11798214Y-13582214D01*
X11926786Y-13882214D02*
X11926786Y-13725071D01*
X11912500Y-13696500D01*
X11883928Y-13682214D01*
X11841071Y-13682214D01*
X11812500Y-13696500D01*
X11798214Y-13710786D01*
X12112500Y-13882214D02*
X12083928Y-13867929D01*
X12069643Y-13853643D01*
X12055357Y-13825071D01*
X12055357Y-13739357D01*
X12069643Y-13710786D01*
X12083928Y-13696500D01*
X12112500Y-13682214D01*
X12155357Y-13682214D01*
X12183928Y-13696500D01*
X12198214Y-13710786D01*
X12212500Y-13739357D01*
X12212500Y-13825071D01*
X12198214Y-13853643D01*
X12183928Y-13867929D01*
X12155357Y-13882214D01*
X12112500Y-13882214D01*
X12383928Y-13882214D02*
X12355357Y-13867929D01*
X12341071Y-13839357D01*
X12341071Y-13582214D01*
X12612500Y-13867929D02*
X12583928Y-13882214D01*
X12526786Y-13882214D01*
X12498214Y-13867929D01*
X12483928Y-13839357D01*
X12483928Y-13725071D01*
X12498214Y-13696500D01*
X12526786Y-13682214D01*
X12583928Y-13682214D01*
X12612500Y-13696500D01*
X12626786Y-13725071D01*
X12626786Y-13753643D01*
X12483928Y-13782214D01*
X12741071Y-13867929D02*
X12769643Y-13882214D01*
X12826786Y-13882214D01*
X12855357Y-13867929D01*
X12869643Y-13839357D01*
X12869643Y-13825071D01*
X12855357Y-13796500D01*
X12826786Y-13782214D01*
X12783928Y-13782214D01*
X12755357Y-13767929D01*
X12741071Y-13739357D01*
X12741071Y-13725071D01*
X12755357Y-13696500D01*
X12783928Y-13682214D01*
X12826786Y-13682214D01*
X12855357Y-13696500D01*
X12969643Y-13996500D02*
X12983928Y-13982214D01*
X13012500Y-13939357D01*
X13026786Y-13910786D01*
X13041071Y-13867929D01*
X13055357Y-13796500D01*
X13055357Y-13739357D01*
X13041071Y-13667929D01*
X13026786Y-13625071D01*
X13012500Y-13596500D01*
X12983928Y-13553643D01*
X12969643Y-13539357D01*
X6097500Y-14092500D02*
X6197500Y-14192500D01*
X6197500Y-14092500D02*
X6097500Y-14192500D01*
X6197500Y-14142500D02*
G75*
G03*
X6197500Y-14142500I-50000J0D01*
G01*
X6641071Y-14278214D02*
X6469643Y-14278214D01*
X6555357Y-14278214D02*
X6555357Y-13978214D01*
X6526786Y-14021071D01*
X6498214Y-14049643D01*
X6469643Y-14063929D01*
X6769643Y-14249643D02*
X6783928Y-14263929D01*
X6769643Y-14278214D01*
X6755357Y-14263929D01*
X6769643Y-14249643D01*
X6769643Y-14278214D01*
X6969643Y-13978214D02*
X6998214Y-13978214D01*
X7026786Y-13992500D01*
X7041071Y-14006786D01*
X7055357Y-14035357D01*
X7069643Y-14092500D01*
X7069643Y-14163929D01*
X7055357Y-14221071D01*
X7041071Y-14249643D01*
X7026786Y-14263929D01*
X6998214Y-14278214D01*
X6969643Y-14278214D01*
X6941071Y-14263929D01*
X6926786Y-14249643D01*
X6912500Y-14221071D01*
X6898214Y-14163929D01*
X6898214Y-14092500D01*
X6912500Y-14035357D01*
X6926786Y-14006786D01*
X6941071Y-13992500D01*
X6969643Y-13978214D01*
X7255357Y-13978214D02*
X7283928Y-13978214D01*
X7312500Y-13992500D01*
X7326786Y-14006786D01*
X7341071Y-14035357D01*
X7355357Y-14092500D01*
X7355357Y-14163929D01*
X7341071Y-14221071D01*
X7326786Y-14249643D01*
X7312500Y-14263929D01*
X7283928Y-14278214D01*
X7255357Y-14278214D01*
X7226786Y-14263929D01*
X7212500Y-14249643D01*
X7198214Y-14221071D01*
X7183928Y-14163929D01*
X7183928Y-14092500D01*
X7198214Y-14035357D01*
X7212500Y-14006786D01*
X7226786Y-13992500D01*
X7255357Y-13978214D01*
X7483928Y-14278214D02*
X7483928Y-14078214D01*
X7483928Y-14106786D02*
X7498214Y-14092500D01*
X7526786Y-14078214D01*
X7569643Y-14078214D01*
X7598214Y-14092500D01*
X7612500Y-14121071D01*
X7612500Y-14278214D01*
X7612500Y-14121071D02*
X7626786Y-14092500D01*
X7655357Y-14078214D01*
X7698214Y-14078214D01*
X7726786Y-14092500D01*
X7741071Y-14121071D01*
X7741071Y-14278214D01*
X7883928Y-14278214D02*
X7883928Y-14078214D01*
X7883928Y-14106786D02*
X7898214Y-14092500D01*
X7926786Y-14078214D01*
X7969643Y-14078214D01*
X7998214Y-14092500D01*
X8012500Y-14121071D01*
X8012500Y-14278214D01*
X8012500Y-14121071D02*
X8026786Y-14092500D01*
X8055357Y-14078214D01*
X8098214Y-14078214D01*
X8126786Y-14092500D01*
X8141071Y-14121071D01*
X8141071Y-14278214D01*
X8726786Y-13963929D02*
X8469643Y-14349643D01*
X9112500Y-13978214D02*
X9141071Y-13978214D01*
X9169643Y-13992500D01*
X9183928Y-14006786D01*
X9198214Y-14035357D01*
X9212500Y-14092500D01*
X9212500Y-14163929D01*
X9198214Y-14221071D01*
X9183928Y-14249643D01*
X9169643Y-14263929D01*
X9141071Y-14278214D01*
X9112500Y-14278214D01*
X9083928Y-14263929D01*
X9069643Y-14249643D01*
X9055357Y-14221071D01*
X9041071Y-14163929D01*
X9041071Y-14092500D01*
X9055357Y-14035357D01*
X9069643Y-14006786D01*
X9083928Y-13992500D01*
X9112500Y-13978214D01*
X9341071Y-14249643D02*
X9355357Y-14263929D01*
X9341071Y-14278214D01*
X9326786Y-14263929D01*
X9341071Y-14249643D01*
X9341071Y-14278214D01*
X9541071Y-13978214D02*
X9569643Y-13978214D01*
X9598214Y-13992500D01*
X9612500Y-14006786D01*
X9626786Y-14035357D01*
X9641071Y-14092500D01*
X9641071Y-14163929D01*
X9626786Y-14221071D01*
X9612500Y-14249643D01*
X9598214Y-14263929D01*
X9569643Y-14278214D01*
X9541071Y-14278214D01*
X9512500Y-14263929D01*
X9498214Y-14249643D01*
X9483928Y-14221071D01*
X9469643Y-14163929D01*
X9469643Y-14092500D01*
X9483928Y-14035357D01*
X9498214Y-14006786D01*
X9512500Y-13992500D01*
X9541071Y-13978214D01*
X9741071Y-13978214D02*
X9926786Y-13978214D01*
X9826786Y-14092500D01*
X9869643Y-14092500D01*
X9898214Y-14106786D01*
X9912500Y-14121071D01*
X9926786Y-14149643D01*
X9926786Y-14221071D01*
X9912500Y-14249643D01*
X9898214Y-14263929D01*
X9869643Y-14278214D01*
X9783928Y-14278214D01*
X9755357Y-14263929D01*
X9741071Y-14249643D01*
X10069643Y-14278214D02*
X10126786Y-14278214D01*
X10155357Y-14263929D01*
X10169643Y-14249643D01*
X10198214Y-14206786D01*
X10212500Y-14149643D01*
X10212500Y-14035357D01*
X10198214Y-14006786D01*
X10183928Y-13992500D01*
X10155357Y-13978214D01*
X10098214Y-13978214D01*
X10069643Y-13992500D01*
X10055357Y-14006786D01*
X10041071Y-14035357D01*
X10041071Y-14106786D01*
X10055357Y-14135357D01*
X10069643Y-14149643D01*
X10098214Y-14163929D01*
X10155357Y-14163929D01*
X10183928Y-14149643D01*
X10198214Y-14135357D01*
X10212500Y-14106786D01*
X10326786Y-13978214D02*
X10326786Y-14035357D01*
X10441071Y-13978214D02*
X10441071Y-14035357D01*
X10883928Y-14392500D02*
X10869643Y-14378214D01*
X10841071Y-14335357D01*
X10826786Y-14306786D01*
X10812500Y-14263929D01*
X10798214Y-14192500D01*
X10798214Y-14135357D01*
X10812500Y-14063929D01*
X10826786Y-14021071D01*
X10841071Y-13992500D01*
X10869643Y-13949643D01*
X10883928Y-13935357D01*
X11155357Y-14278214D02*
X10983928Y-14278214D01*
X11069643Y-14278214D02*
X11069643Y-13978214D01*
X11041071Y-14021071D01*
X11012500Y-14049643D01*
X10983928Y-14063929D01*
X11269643Y-14006786D02*
X11283928Y-13992500D01*
X11312500Y-13978214D01*
X11383928Y-13978214D01*
X11412500Y-13992500D01*
X11426786Y-14006786D01*
X11441071Y-14035357D01*
X11441071Y-14063929D01*
X11426786Y-14106786D01*
X11255357Y-14278214D01*
X11441071Y-14278214D01*
X11798214Y-14278214D02*
X11798214Y-13978214D01*
X11926786Y-14278214D02*
X11926786Y-14121071D01*
X11912500Y-14092500D01*
X11883928Y-14078214D01*
X11841071Y-14078214D01*
X11812500Y-14092500D01*
X11798214Y-14106786D01*
X12112500Y-14278214D02*
X12083928Y-14263929D01*
X12069643Y-14249643D01*
X12055357Y-14221071D01*
X12055357Y-14135357D01*
X12069643Y-14106786D01*
X12083928Y-14092500D01*
X12112500Y-14078214D01*
X12155357Y-14078214D01*
X12183928Y-14092500D01*
X12198214Y-14106786D01*
X12212500Y-14135357D01*
X12212500Y-14221071D01*
X12198214Y-14249643D01*
X12183928Y-14263929D01*
X12155357Y-14278214D01*
X12112500Y-14278214D01*
X12383928Y-14278214D02*
X12355357Y-14263929D01*
X12341071Y-14235357D01*
X12341071Y-13978214D01*
X12612500Y-14263929D02*
X12583928Y-14278214D01*
X12526786Y-14278214D01*
X12498214Y-14263929D01*
X12483928Y-14235357D01*
X12483928Y-14121071D01*
X12498214Y-14092500D01*
X12526786Y-14078214D01*
X12583928Y-14078214D01*
X12612500Y-14092500D01*
X12626786Y-14121071D01*
X12626786Y-14149643D01*
X12483928Y-14178214D01*
X12741071Y-14263929D02*
X12769643Y-14278214D01*
X12826786Y-14278214D01*
X12855357Y-14263929D01*
X12869643Y-14235357D01*
X12869643Y-14221071D01*
X12855357Y-14192500D01*
X12826786Y-14178214D01*
X12783928Y-14178214D01*
X12755357Y-14163929D01*
X12741071Y-14135357D01*
X12741071Y-14121071D01*
X12755357Y-14092500D01*
X12783928Y-14078214D01*
X12826786Y-14078214D01*
X12855357Y-14092500D01*
X12969643Y-14392500D02*
X12983928Y-14378214D01*
X13012500Y-14335357D01*
X13026786Y-14306786D01*
X13041071Y-14263929D01*
X13055357Y-14192500D01*
X13055357Y-14135357D01*
X13041071Y-14063929D01*
X13026786Y-14021071D01*
X13012500Y-13992500D01*
X12983928Y-13949643D01*
X12969643Y-13935357D01*
X6067500Y-14473500D02*
X6197500Y-14603500D01*
X6197500Y-14473500D02*
X6067500Y-14603500D01*
X6132500Y-14473500D02*
X6132500Y-14603500D01*
X6067500Y-14538500D02*
X6197500Y-14538500D01*
X6641071Y-14674214D02*
X6469643Y-14674214D01*
X6555357Y-14674214D02*
X6555357Y-14374214D01*
X6526786Y-14417071D01*
X6498214Y-14445643D01*
X6469643Y-14459929D01*
X6769643Y-14645643D02*
X6783928Y-14659929D01*
X6769643Y-14674214D01*
X6755357Y-14659929D01*
X6769643Y-14645643D01*
X6769643Y-14674214D01*
X6883928Y-14374214D02*
X7069643Y-14374214D01*
X6969643Y-14488500D01*
X7012500Y-14488500D01*
X7041071Y-14502786D01*
X7055357Y-14517071D01*
X7069643Y-14545643D01*
X7069643Y-14617071D01*
X7055357Y-14645643D01*
X7041071Y-14659929D01*
X7012500Y-14674214D01*
X6926786Y-14674214D01*
X6898214Y-14659929D01*
X6883928Y-14645643D01*
X7255357Y-14374214D02*
X7283928Y-14374214D01*
X7312500Y-14388500D01*
X7326786Y-14402786D01*
X7341071Y-14431357D01*
X7355357Y-14488500D01*
X7355357Y-14559929D01*
X7341071Y-14617071D01*
X7326786Y-14645643D01*
X7312500Y-14659929D01*
X7283928Y-14674214D01*
X7255357Y-14674214D01*
X7226786Y-14659929D01*
X7212500Y-14645643D01*
X7198214Y-14617071D01*
X7183928Y-14559929D01*
X7183928Y-14488500D01*
X7198214Y-14431357D01*
X7212500Y-14402786D01*
X7226786Y-14388500D01*
X7255357Y-14374214D01*
X7483928Y-14674214D02*
X7483928Y-14474214D01*
X7483928Y-14502786D02*
X7498214Y-14488500D01*
X7526786Y-14474214D01*
X7569643Y-14474214D01*
X7598214Y-14488500D01*
X7612500Y-14517071D01*
X7612500Y-14674214D01*
X7612500Y-14517071D02*
X7626786Y-14488500D01*
X7655357Y-14474214D01*
X7698214Y-14474214D01*
X7726786Y-14488500D01*
X7741071Y-14517071D01*
X7741071Y-14674214D01*
X7883928Y-14674214D02*
X7883928Y-14474214D01*
X7883928Y-14502786D02*
X7898214Y-14488500D01*
X7926786Y-14474214D01*
X7969643Y-14474214D01*
X7998214Y-14488500D01*
X8012500Y-14517071D01*
X8012500Y-14674214D01*
X8012500Y-14517071D02*
X8026786Y-14488500D01*
X8055357Y-14474214D01*
X8098214Y-14474214D01*
X8126786Y-14488500D01*
X8141071Y-14517071D01*
X8141071Y-14674214D01*
X8726786Y-14359929D02*
X8469643Y-14745643D01*
X9112500Y-14374214D02*
X9141071Y-14374214D01*
X9169643Y-14388500D01*
X9183928Y-14402786D01*
X9198214Y-14431357D01*
X9212500Y-14488500D01*
X9212500Y-14559929D01*
X9198214Y-14617071D01*
X9183928Y-14645643D01*
X9169643Y-14659929D01*
X9141071Y-14674214D01*
X9112500Y-14674214D01*
X9083928Y-14659929D01*
X9069643Y-14645643D01*
X9055357Y-14617071D01*
X9041071Y-14559929D01*
X9041071Y-14488500D01*
X9055357Y-14431357D01*
X9069643Y-14402786D01*
X9083928Y-14388500D01*
X9112500Y-14374214D01*
X9341071Y-14645643D02*
X9355357Y-14659929D01*
X9341071Y-14674214D01*
X9326786Y-14659929D01*
X9341071Y-14645643D01*
X9341071Y-14674214D01*
X9541071Y-14374214D02*
X9569643Y-14374214D01*
X9598214Y-14388500D01*
X9612500Y-14402786D01*
X9626786Y-14431357D01*
X9641071Y-14488500D01*
X9641071Y-14559929D01*
X9626786Y-14617071D01*
X9612500Y-14645643D01*
X9598214Y-14659929D01*
X9569643Y-14674214D01*
X9541071Y-14674214D01*
X9512500Y-14659929D01*
X9498214Y-14645643D01*
X9483928Y-14617071D01*
X9469643Y-14559929D01*
X9469643Y-14488500D01*
X9483928Y-14431357D01*
X9498214Y-14402786D01*
X9512500Y-14388500D01*
X9541071Y-14374214D01*
X9912500Y-14374214D02*
X9769643Y-14374214D01*
X9755357Y-14517071D01*
X9769643Y-14502786D01*
X9798214Y-14488500D01*
X9869643Y-14488500D01*
X9898214Y-14502786D01*
X9912500Y-14517071D01*
X9926786Y-14545643D01*
X9926786Y-14617071D01*
X9912500Y-14645643D01*
X9898214Y-14659929D01*
X9869643Y-14674214D01*
X9798214Y-14674214D01*
X9769643Y-14659929D01*
X9755357Y-14645643D01*
X10212500Y-14674214D02*
X10041071Y-14674214D01*
X10126786Y-14674214D02*
X10126786Y-14374214D01*
X10098214Y-14417071D01*
X10069643Y-14445643D01*
X10041071Y-14459929D01*
X10326786Y-14374214D02*
X10326786Y-14431357D01*
X10441071Y-14374214D02*
X10441071Y-14431357D01*
X10883928Y-14788500D02*
X10869643Y-14774214D01*
X10841071Y-14731357D01*
X10826786Y-14702786D01*
X10812500Y-14659929D01*
X10798214Y-14588500D01*
X10798214Y-14531357D01*
X10812500Y-14459929D01*
X10826786Y-14417071D01*
X10841071Y-14388500D01*
X10869643Y-14345643D01*
X10883928Y-14331357D01*
X10983928Y-14402786D02*
X10998214Y-14388500D01*
X11026786Y-14374214D01*
X11098214Y-14374214D01*
X11126786Y-14388500D01*
X11141071Y-14402786D01*
X11155357Y-14431357D01*
X11155357Y-14459929D01*
X11141071Y-14502786D01*
X10969643Y-14674214D01*
X11155357Y-14674214D01*
X11512500Y-14674214D02*
X11512500Y-14374214D01*
X11641071Y-14674214D02*
X11641071Y-14517071D01*
X11626786Y-14488500D01*
X11598214Y-14474214D01*
X11555357Y-14474214D01*
X11526786Y-14488500D01*
X11512500Y-14502786D01*
X11826786Y-14674214D02*
X11798214Y-14659929D01*
X11783928Y-14645643D01*
X11769643Y-14617071D01*
X11769643Y-14531357D01*
X11783928Y-14502786D01*
X11798214Y-14488500D01*
X11826786Y-14474214D01*
X11869643Y-14474214D01*
X11898214Y-14488500D01*
X11912500Y-14502786D01*
X11926786Y-14531357D01*
X11926786Y-14617071D01*
X11912500Y-14645643D01*
X11898214Y-14659929D01*
X11869643Y-14674214D01*
X11826786Y-14674214D01*
X12098214Y-14674214D02*
X12069643Y-14659929D01*
X12055357Y-14631357D01*
X12055357Y-14374214D01*
X12326786Y-14659929D02*
X12298214Y-14674214D01*
X12241071Y-14674214D01*
X12212500Y-14659929D01*
X12198214Y-14631357D01*
X12198214Y-14517071D01*
X12212500Y-14488500D01*
X12241071Y-14474214D01*
X12298214Y-14474214D01*
X12326786Y-14488500D01*
X12341071Y-14517071D01*
X12341071Y-14545643D01*
X12198214Y-14574214D01*
X12455357Y-14659929D02*
X12483928Y-14674214D01*
X12541071Y-14674214D01*
X12569643Y-14659929D01*
X12583928Y-14631357D01*
X12583928Y-14617071D01*
X12569643Y-14588500D01*
X12541071Y-14574214D01*
X12498214Y-14574214D01*
X12469643Y-14559929D01*
X12455357Y-14531357D01*
X12455357Y-14517071D01*
X12469643Y-14488500D01*
X12498214Y-14474214D01*
X12541071Y-14474214D01*
X12569643Y-14488500D01*
X12683928Y-14788500D02*
X12698214Y-14774214D01*
X12726786Y-14731357D01*
X12741071Y-14702786D01*
X12755357Y-14659929D01*
X12769643Y-14588500D01*
X12769643Y-14531357D01*
X12755357Y-14459929D01*
X12741071Y-14417071D01*
X12726786Y-14388500D01*
X12698214Y-14345643D01*
X12683928Y-14331357D01*
M02*
